<?xml version="1.0" encoding="UTF-8" standalone="no"?>
<svg width="266px" height="161px" viewBox="0 0 266 161" version="1.1" xmlns="http://www.w3.org/2000/svg" xmlns:xlink="http://www.w3.org/1999/xlink" xmlns:sketch="http://www.bohemiancoding.com/sketch/ns">
    <!-- Generator: Sketch 3.3.3 (12081) - http://www.bohemiancoding.com/sketch -->
    <title>Imported Layers</title>
    <desc>Created with Sketch.</desc>
    <defs>
        <path d="M19.4212975,0.352221843 C8.86483471,0.352221843 0.306669421,8.86598976 0.306669421,19.3689044 L0.320409091,42.390256 L11.5517645,36.7036041 C13.9518099,37.7838976 16.6162066,38.3850375 19.4212975,38.3850375 C29.9783099,38.3850375 38.5364752,29.8712696 38.5364752,19.3689044 C38.5364752,8.86598976 29.9783099,0.352221843 19.4212975,0.352221843 L19.4212975,0.352221843 Z M19.4212975,26.9754676 C15.1988223,26.9754676 11.7754463,23.5697406 11.7754463,19.3689044 C11.7754463,15.1675188 15.1988223,11.7623413 19.4212975,11.7623413 C23.6443223,11.7623413 27.0671488,15.1675188 27.0671488,19.3689044 C27.0671488,23.5697406 23.6443223,26.9754676 19.4212975,26.9754676 L19.4212975,26.9754676 Z" id="path-1"></path>
    </defs>
    <g id="Page-1" stroke="none" stroke-width="1" fill="none" fill-rule="evenodd" sketch:type="MSPage">
        <g id="首页-copy" sketch:type="MSArtboardGroup" transform="translate(-459.000000, -146.000000)">
            <g id="Imported-Layers" sketch:type="MSLayerGroup" transform="translate(459.000000, 146.000000)">
                <g id="Group-3" transform="translate(50.561983, 0.000000)">
                    <mask id="mask-2" sketch:name="Clip 2" fill="white">
                        <use xlink:href="#path-1"></use>
                    </mask>
                    <use id="Clip-2" fill="#FE5F46" sketch:type="MSShapeGroup" xlink:href="#path-1"></use>
                    <path d="M19.4212975,0.352221843 C8.86483471,0.352221843 0.306669421,8.86598976 0.306669421,19.3689044 L0.320409091,42.390256 L11.5517645,36.7036041 C13.9518099,37.7838976 16.6162066,38.3850375 19.4212975,38.3850375 C29.9783099,38.3850375 38.5364752,29.8712696 38.5364752,19.3689044 C38.5364752,8.86598976 29.9783099,0.352221843 19.4212975,0.352221843 L19.4212975,0.352221843 Z M19.4212975,26.9754676 C15.1988223,26.9754676 11.7754463,23.5697406 11.7754463,19.3689044 C11.7754463,15.1675188 15.1988223,11.7623413 19.4212975,11.7623413 C23.6443223,11.7623413 27.0671488,15.1675188 27.0671488,19.3689044 C27.0671488,23.5697406 23.6443223,26.9754676 19.4212975,26.9754676 L19.4212975,26.9754676 Z" id="Fill-1" sketch:type="MSShapeGroup" mask="url(#mask-2)"></path>
                </g>
                <path d="M96.963595,34.4012491 C96.631095,34.4012491 96.2645207,34.3017918 95.9649959,34.0688089 C95.3324215,33.602843 95.0993967,32.7373993 95.4659711,32.0049317 L106.550587,9.17315358 C106.850112,8.60773038 107.416186,8.24122184 108.04876,8.24122184 C108.681335,8.24122184 109.280384,8.60773038 109.546934,9.17315358 L120.69805,31.9719625 C121.097599,32.7703686 120.765099,33.7687884 119.932475,34.1682662 C119.100401,34.6012628 118.101802,34.2347543 117.702252,33.4363481 L115.106004,28.0777406 C113.374806,27.578256 111.544132,27.5117679 109.579909,27.8782765 C107.749236,28.2107167 105.851512,28.8766962 103.887839,29.9080853 C100.492492,31.7054608 98.128719,33.902314 98.0957438,33.9352833 C97.7956694,34.2347543 97.3631446,34.4012491 96.963595,34.4012491 L96.963595,34.4012491 Z M108.04876,13.6998362 L101.357541,27.5117679 C101.657616,27.345273 101.95714,27.1793276 102.28964,27.0128328 C104.520413,25.8143993 106.783612,25.0159932 108.947335,24.6165154 C110.445508,24.3500137 111.876632,24.2500068 113.274781,24.3835324 L108.04876,13.6998362 L108.04876,13.6998362 Z" id="Fill-4" fill="#2C303A" sketch:type="MSShapeGroup"></path>
                <path d="M145.398678,34.501256 C144.899103,34.501256 144.433054,34.268273 144.100554,33.902314 L128.022393,14.5652799 L128.022393,32.8038874 C128.022393,33.7358191 127.289793,34.4677372 126.357694,34.4677372 C125.425595,34.4677372 124.692996,33.7358191 124.692996,32.8038874 L124.692996,9.97210922 C124.692996,9.27316041 125.12607,8.64069966 125.79162,8.40771672 C126.457719,8.17473379 127.189769,8.37474744 127.622843,8.90720137 L143.733979,28.2107167 L143.733979,10.005628 C143.733979,9.07369625 144.466579,8.34122867 145.398678,8.34122867 C146.297252,8.34122867 147.062826,9.07369625 147.062826,10.005628 L147.062826,32.8368567 C147.062826,33.5358055 146.596777,34.1352969 145.964202,34.4012491 C145.764702,34.4677372 145.565202,34.501256 145.398678,34.501256" id="Fill-5" fill="#2C303A" sketch:type="MSShapeGroup"></path>
                <path d="M173.660079,9.90562116 C173.660079,10.8375529 172.928029,11.569471 171.99538,11.569471 L164.705661,11.569471 L164.705661,32.7373993 C164.705661,33.6693311 163.940087,34.4012491 163.040963,34.4012491 C162.108864,34.4012491 161.376814,33.6693311 161.376814,32.7373993 L161.376814,11.569471 L154.053021,11.569471 C153.121471,11.569471 152.388872,10.8375529 152.388872,9.90562116 C152.388872,8.97368942 153.121471,8.24122184 154.053021,8.24122184 L171.99538,8.24122184 C172.928029,8.24122184 173.660079,8.97368942 173.660079,9.90562116" id="Fill-6" fill="#2C303A" sketch:type="MSShapeGroup"></path>
                <path d="M188.340091,23.8510785 L180.650822,23.8510785 C179.718723,23.8510785 178.986124,23.0850922 178.986124,22.1866792 C178.986124,21.2547474 179.718723,20.5228294 180.650822,20.5228294 L188.340091,20.5228294 C189.27219,20.5228294 190.004789,21.2547474 190.004789,22.1866792 C190.004789,23.0850922 189.27219,23.8510785 188.340091,23.8510785" id="Fill-7" fill="#2C303A" sketch:type="MSShapeGroup"></path>
                <path d="M196.995533,34.4012491 C196.096409,34.4012491 195.330835,33.6693311 195.330835,32.7373993 L195.330835,9.90562116 C195.330835,8.97368942 196.096409,8.24122184 196.995533,8.24122184 L206.88205,8.24122184 C207.01505,8.24122184 207.814149,8.24122184 208.846273,8.50772355 C210.310921,8.87368259 211.609045,9.60615017 212.607645,10.5710512 C213.339694,11.3035188 213.939293,12.2019317 214.338843,13.2338703 C214.771368,14.3652662 215.004393,15.663157 215.004393,17.0945734 C215.004393,20.2563276 213.672744,22.6526451 211.175971,24.0840614 C209.378822,25.1154505 206.981525,25.6149352 204.019252,25.6149352 C203.120678,25.6149352 202.354554,24.8824676 202.354554,23.9505358 C202.354554,23.0186041 203.120678,22.286686 204.019252,22.286686 C206.382475,22.286686 208.246674,21.920727 209.511822,21.1882594 C210.976471,20.3563345 211.675545,19.0584437 211.675545,17.0945734 C211.675545,15.7631638 211.408996,14.6647372 210.942946,13.8328123 C210.576921,13.1673823 210.044372,12.6678976 209.411798,12.3019386 C208.213698,11.6029898 206.981525,11.569471 206.88205,11.569471 L198.659682,11.569471 L198.659682,32.7373993 C198.659682,33.6693311 197.927083,34.4012491 196.995533,34.4012491" id="Fill-8" fill="#2C303A" sketch:type="MSShapeGroup"></path>
                <path d="M0.898024793,56.8709147 L265.66695,56.8709147 L265.66695,57.4204027 L0.898024793,57.4204027 L0.898024793,56.8709147 Z" id="Fill-9" fill="#808389" sketch:type="MSShapeGroup"></path>
                <path d="M0.898024793,133.800341 L265.66695,133.800341 L265.66695,134.349829 L0.898024793,134.349829 L0.898024793,133.800341 Z" id="Fill-10" fill="#808389" sketch:type="MSShapeGroup"></path>
                <path d="M21.7141736,117.183273 C18.3485041,117.07942 15.4697686,116.332666 13.0757686,114.946307 C12.1046488,114.46001 11.9133926,113.645669 12.5030992,112.501085 C13.1620537,111.668061 13.9946777,111.477389 15.0009711,111.928519 C16.9085868,112.898915 19.1816777,113.489614 21.818595,113.697321 L25.7728719,113.697321 C28.8604504,113.246191 30.0052397,111.633444 29.2077893,108.859078 L4.48957438,108.859078 C3.10186777,108.824461 2.44236364,108.217276 2.51271074,107.037526 C2.54623554,105.892942 3.13704132,105.339058 4.28183058,105.372577 L28.4790372,105.372577 C28.3746157,104.679123 28.0272769,103.89885 27.4381198,103.031208 L6.93578512,103.031208 C5.61677686,102.997689 4.9748595,102.407539 5.01058264,101.262956 C5.07928099,100.083754 5.65195041,99.5117372 6.72749174,99.5458055 L26.1894587,99.5458055 C25.5992025,98.7133311 24.9226612,98.2446177 24.1598347,98.1407645 L7.71564876,98.1407645 C6.22407025,98.002843 5.53049174,97.3604915 5.63436364,96.2159078 C5.70361157,95.1064915 6.24110744,94.5339249 7.24795041,94.4987577 L6.4669876,94.6548123 L22.2862934,94.6548123 C29.5716157,94.5168908 36.7349298,93.840471 43.7784339,92.6261024 C44.7841777,92.2447577 45.6514256,92.5568669 46.3801777,93.56243 C46.9000868,94.7416314 46.6401322,95.4532184 45.5992149,95.6955427 C39.4586818,96.8401263 33.7869463,97.3780751 28.5829091,97.3082901 C29.4160826,98.3490205 30.0404132,99.0952253 30.4564504,99.5458055 L44.7149298,99.5458055 C45.7899215,99.5458055 46.3620413,100.100788 46.4323884,101.210754 C46.3620413,102.389956 45.7377107,102.997689 44.5588471,103.031208 L31.7056612,103.031208 C31.913405,103.44772 32.1557727,104.227993 32.4338636,105.372577 L47.3166736,105.372577 C48.3575909,105.339058 48.9302603,105.892942 49.0335826,107.037526 C49.0335826,108.217276 48.3746281,108.824461 47.0561694,108.859078 L33.0587438,108.859078 C33.6132769,110.211369 33.5088554,111.702679 32.7460289,113.33301 C31.3583223,115.864502 29.1209545,117.148655 26.033376,117.183273 L21.7141736,117.183273 L21.7141736,117.183273 Z M3.24091322,77.8498191 C10.8037769,76.2546553 17.7241736,73.9138362 24.0037521,70.8257133 C25.4260826,70.0635734 26.866,70.0284061 28.3229545,70.7224096 C33.9430289,73.4973242 40.3957273,75.8040751 47.6810496,77.6415631 C48.9302603,77.8849863 49.3633347,78.6822935 48.9813719,80.0351331 C48.3575909,81.2143345 47.4546198,81.5962287 46.2763058,81.1797167 C42.6336446,80.2433891 39.2157645,79.0988055 36.024314,77.7459659 C36.5101488,79.6186212 36.1287355,80.6774846 34.8795248,80.9192594 L19.2685124,80.9192594 C17.4290455,80.7467201 16.6145579,79.7230239 16.8228512,77.8498191 C12.9718967,79.2724437 9.19019008,80.3302082 5.47828099,81.0236621 C4.3681157,81.3357713 3.50086777,81.075314 2.87653719,80.2433891 C2.39015289,79.2378259 2.59844628,78.404802 3.50086777,77.7459659 L3.24091322,77.8498191 L3.24091322,77.8498191 Z M44.7149298,88.0999693 C44.8534256,90.7006962 43.465719,92.0716689 40.5518099,92.2095904 L10.9944835,92.2095904 C8.14982231,92.1057372 6.76156612,90.7006962 6.83136364,87.9955666 L6.83136364,86.7987816 C6.90061157,84.2326724 8.23665702,82.9314846 10.8384008,82.8968669 L39.0948554,82.8968669 L42.6336446,82.8968669 L40.8639752,82.8968669 C43.3618471,83.0007201 44.6451322,84.3013584 44.7149298,86.7987816 L44.7149298,88.0999693 L44.7149298,88.0999693 Z M39.6669752,88.7236382 C40.7771405,88.68957 41.3844339,88.0999693 41.4888554,86.9553857 L41.4888554,86.4866724 C41.4888554,86.3828191 40.7771405,86.3482014 39.3548099,86.3828191 L12.0876116,86.3828191 C10.9763471,86.4866724 10.421814,86.6603106 10.421814,86.9031843 L10.421814,87.3707986 C10.1442727,88.134587 10.6471446,88.5857167 11.9309793,88.7236382 L39.6669752,88.7236382 L39.6669752,88.7236382 Z M19.1640909,77.4338567 L34.0474504,77.4338567 C31.5495785,76.2200375 29.0852314,75.0062184 26.6577066,73.7918498 C26.3103678,73.6879966 25.9113678,73.7226143 25.4612562,73.8957031 C23.0672562,74.9364334 20.7254669,76.1678362 18.4358884,77.5899113 L19.1640909,77.4338567 L19.1640909,77.4338567 Z" id="Fill-11" fill="#2C303A" sketch:type="MSShapeGroup"></path>
                <path d="M81.5575785,87.631256 C84.2637438,91.3078805 86.1191488,95.2103447 87.1254421,99.3375495 C88.2702314,105.200038 87.5590661,109.534949 84.9919463,112.345031 C82.0076901,115.708997 77.3070744,116.454652 70.8900992,114.581997 C69.2935496,114.130867 67.871219,113.298392 66.6225579,112.084573 C65.7201364,111.320785 65.6684752,110.453693 66.4664752,109.483297 C67.2990992,108.68544 68.2180083,108.633788 69.2248512,109.326693 C71.4446322,110.922406 73.6297893,111.754331 75.7814215,111.824116 C79.0074959,112.240628 81.3316983,111.372986 82.7545785,109.22284 C84.6616446,105.095635 84.2115331,100.118372 81.4014959,94.2905017 C80.1869091,92.1403549 78.903624,90.2325324 77.5505413,88.5675836 C76.6481198,87.2499113 77.3768719,85.7415666 79.7356983,84.0414505 L93.109343,73.8440512 L61.8351074,73.8440512 C60.4820248,73.7396485 59.8230702,73.1330137 59.8576942,72.0230478 C59.8917686,70.8438464 60.4820248,70.2888635 61.626814,70.358099 L95.6072149,70.358099 C96.6822066,70.3234812 97.4631694,70.7570273 97.9495537,71.6587372 C98.4348388,72.5609966 98.2265455,73.7396485 97.3246736,75.1963413 L81.5575785,87.631256" id="Fill-12" fill="#2C303A" sketch:type="MSShapeGroup"></path>
                <path d="M118.816264,79.9312799 L121.418008,79.9312799 C122.562798,79.9312799 123.151955,80.4862628 123.187678,81.5962287 C123.151955,82.7408123 122.510587,83.3479966 121.261926,83.4166826 L118.764054,83.4166826 C118.72943,84.3194915 119.024558,85.2558191 119.648339,86.226215 L123.135467,92.0013345 C123.51688,92.9041433 123.343211,93.6146314 122.615008,94.1349966 C121.643339,94.550959 120.94976,94.3262184 120.533723,93.4580273 L118.816264,88.203273 L118.816264,115.206215 C118.746467,116.454652 118.121587,117.096454 116.943273,117.131621 C115.832008,117.027218 115.295062,116.454652 115.329686,115.414471 L115.329686,93.0426143 C114.497062,96.3378942 113.300612,99.3034812 111.739236,101.938826 C111.044558,102.702614 110.282281,102.789433 109.449657,102.199283 C108.616483,101.471212 108.477438,100.656321 109.03307,99.7540614 C111.565017,95.314198 113.716099,89.8682218 115.485769,83.4166826 L111.634814,83.4166826 C110.282281,83.3133788 109.639814,82.7232287 109.709612,81.6478805 C109.743686,80.4340614 110.333942,79.8620444 111.478731,79.9312799 L115.329686,79.9312799 L115.329686,71.6587372 C115.295062,70.6180068 115.832008,70.0635734 116.943273,69.9937884 C118.121587,69.9597201 118.746467,70.5839386 118.816264,71.8669932 L118.816264,79.9312799 L118.816264,79.9312799 Z M143.325636,79.7752253 L153.161041,79.7752253 C155.380822,80.018099 156.213446,81.0417952 155.658913,82.8446655 C154.894988,84.7173208 152.692244,86.8169147 149.050132,89.1401502 C148.078463,89.6599659 147.194178,89.5561126 146.395628,88.828041 C145.667426,87.8570956 145.771847,87.0246212 146.708343,86.3306177 C148.997921,85.1167986 150.315831,84.3711433 150.663169,84.0936519 C151.495793,83.5392184 151.2875,83.2611775 150.038289,83.2611775 L142.493562,83.2611775 L142.493562,88.5153823 C142.146223,90.6320102 140.914599,91.7073584 138.79869,91.7414266 C136.682231,91.7765939 135.224727,91.4644846 134.427277,90.8045495 C133.663901,90.2506655 133.560029,89.5220444 134.115661,88.619785 C134.80869,87.8917133 135.519855,87.7532423 136.249157,88.203273 C138.017727,88.8626587 138.936636,88.6719863 139.006983,87.631256 L139.006983,83.2611775 L137.809983,83.2611775 C134.444314,86.7647133 130.610946,89.331372 126.30988,90.9611536 C125.372835,91.2386451 124.730917,90.874884 124.384678,89.8682218 C124.176384,89.0016792 124.540211,88.3258089 125.477256,87.8395119 C128.355992,86.6949283 131.322661,85.169 134.375066,83.2611775 L126.413752,83.2611775 C125.060669,83.191942 124.401165,82.6023413 124.435789,81.4918259 C124.470413,80.2780068 125.060669,79.7059898 126.205459,79.7752253 L137.809983,79.7752253 C136.525599,79.2548601 135.26045,78.7520785 134.01124,78.2663311 C133.317112,77.6767304 133.282488,77.0525119 133.907368,76.3931263 C134.461901,75.8386928 135.137893,75.8040751 135.936442,76.289273 L138.278231,77.0695461 L146.864426,74.4160683 L127.038083,74.4160683 C125.685,74.312215 125.026045,73.7055802 125.060669,72.5950648 C125.129917,71.5543345 125.667413,70.999901 126.674256,70.930116 L150.038289,70.930116 C152.154198,71.208157 152.935161,72.0576655 152.380628,73.4797406 C151.755748,75.1100717 148.130674,76.8612901 141.504306,78.7344949 L143.325636,79.7752253 L143.325636,79.7752253 Z M151.755748,102.823502 L145.98014,102.823502 C142.787591,102.54656 141.296562,101.002498 141.504306,98.1929659 L141.504306,96.9439795 L136.716855,96.9439795 C136.334893,99.7886792 134.236021,101.748703 130.420789,102.823502 C129.44912,102.962522 128.893488,102.54656 128.755541,101.575065 C128.720368,100.638188 129.136405,100.066171 130.004202,99.8579147 C132.328405,99.2688635 133.61224,98.2968191 133.855157,96.9439795 L130.108624,96.9439795 C128.685744,96.806058 128.07845,97.3956587 128.286744,98.7133311 L128.286744,115.154014 C128.25212,116.471686 127.627789,117.131621 126.413752,117.131621 C125.268963,116.992601 124.730917,116.437068 124.800715,115.466123 L124.800715,97.4126928 C124.765541,94.8108669 126.066413,93.4931945 128.703331,93.4580273 L151.079756,93.4580273 C153.750198,93.3893413 155.138455,94.7938328 155.242326,97.6726007 L155.242326,111.252099 C155.068657,114.477594 154.02774,116.176611 152.120124,116.350799 C149.795921,116.697526 147.991628,116.437068 146.708343,115.570526 C145.841095,114.91114 145.771847,114.113283 146.50005,113.176956 C147.262876,112.413717 148.113636,112.292829 149.050132,112.812645 C150.784628,113.506648 151.68595,113.124754 151.755748,111.668061 L151.755748,102.823502 L151.755748,102.823502 Z M145.199178,103.44772 C147.731124,103.482887 149.031996,104.766491 149.101793,107.297983 C149.101793,110.523478 147.714087,112.20601 144.939223,112.345031 L134.947736,112.345031 C132.137698,112.20601 130.749992,110.523478 130.784616,107.297983 C130.853864,104.766491 132.154736,103.482887 134.687781,103.44772 L145.199178,103.44772 L145.199178,103.44772 Z M143.949967,106.933672 L134.271194,106.933672 L134.271194,108.859078 L145.615215,108.859078 L145.615215,106.933672 L143.949967,106.933672 L143.949967,106.933672 Z M144.678719,96.9439795 L144.678719,97.6726007 C144.678719,98.7133311 145.285463,99.2688635 146.50005,99.3375495 L151.651876,99.3375495 L151.651876,98.4528737 C151.68595,97.4126928 150.992921,96.9104608 149.570591,96.9439795 L144.678719,96.9439795 L144.678719,96.9439795 Z" id="Fill-13" fill="#2C303A" sketch:type="MSShapeGroup"></path>
                <path d="M207.384372,92.0535358 C208.494537,91.9848498 209.083694,92.5568669 209.153492,93.770686 C209.187566,94.8806519 208.529161,95.470802 207.176079,95.5394881 L191.825021,95.5394881 C193.281975,100.811826 193.264388,105.651167 191.77281,110.055863 C191.460645,112.864846 188.494525,114.667717 182.87445,115.466123 C176.456376,115.327102 172.414715,114.390775 170.750017,112.65659 C169.777798,111.962587 169.449145,111.113078 169.76131,110.107515 C170.072926,109.101952 170.750017,108.824461 171.790384,109.275041 C173.976091,110.904823 177.323624,111.824116 181.834083,112.032372 C187.315112,111.546625 189.812434,108.68544 189.327149,103.44772 C189.569517,100.777208 189.067194,98.1407645 187.818533,95.5394881 L164.245107,95.5394881 C162.857401,95.470802 162.18086,94.8806519 162.216033,93.770686 C162.249558,92.5568669 162.857401,91.9848498 164.036814,92.0535358 L186.829826,92.0535358 C185.753736,90.7006962 184.765029,89.331372 183.863157,87.9433652 C182.856314,86.5910751 183.134955,85.377256 184.695781,84.3013584 L198.589884,76.2370717 C199.664876,75.7167065 199.578591,75.509 198.32938,75.6128532 L169.18864,75.6128532 C167.939979,75.6128532 167.332136,74.9886348 167.36731,73.7396485 C167.436558,72.6302321 167.957017,72.0928328 168.928136,72.126901 L202.596921,72.126901 C204.053876,72.196686 204.8865,72.8033208 205.094793,73.9479044 C205.441033,74.9886348 205.180529,75.8386928 204.313831,76.4969795 C198.623959,80.0351331 193.003884,83.4348157 187.453607,86.6949283 C188.528599,88.3950444 189.569517,90.1808805 190.57581,92.0535358 L207.384372,92.0535358" id="Fill-14" fill="#2C303A" sketch:type="MSShapeGroup"></path>
                <path d="M228.511587,71.8147918 C231.217202,71.7103891 232.639533,73.1505973 232.778579,76.1332184 L232.778579,81.5962287 C234.269607,79.0988055 235.62269,75.9947474 236.837826,72.2829556 C236.975773,71.3812457 237.531405,70.8779147 238.502525,70.7740614 C239.543442,70.8779147 240.046314,71.3982799 240.01169,72.335157 C240.01169,72.9939932 239.838021,73.8786689 239.491781,74.9886348 L255.987628,74.9886348 C258.65862,74.8842321 260.063364,76.289273 260.202409,79.2026587 L260.202409,97.724802 C260.063364,102.094881 258.415702,105.026399 255.258876,106.51716 C252.1015,107.662294 248.996335,107.55844 245.94393,106.205601 C244.97281,105.789089 244.590847,105.043433 244.79914,103.968085 C245.249252,102.962522 245.978554,102.633379 246.984847,102.979556 C252.014665,104.12414 254.998921,103.465304 255.935417,101.002498 C256.593822,98.1588976 256.854326,95.886215 256.715831,94.187198 L256.715831,79.9829317 C256.749905,78.8735154 256.056876,78.3701843 254.634545,78.4740375 L238.502525,78.4740375 C237.496231,80.9027747 236.02169,82.77543 234.07945,84.0936519 C233.280901,84.4403788 232.847826,84.4233447 232.778579,84.0414505 L232.778579,85.9141058 C232.639533,88.828041 231.234789,90.3545188 228.563248,90.4929898 L227.366248,90.4929898 L227.366248,97.6209488 L231.321624,97.6209488 C232.466413,97.5517133 233.072607,98.1066962 233.142955,99.2853481 C233.142955,100.429932 232.48345,101.037116 231.165541,101.106901 L227.366248,101.106901 L227.366248,109.691553 L230.645083,108.494768 C231.894293,108.078256 232.674707,108.494768 232.986872,109.743205 C233.090744,110.748768 232.639533,111.459805 231.633789,111.876317 L217.843558,116.350799 C216.386603,116.732143 215.536393,116.228812 215.294025,114.842454 C215.086281,113.627536 215.60619,112.864846 216.855401,112.552737 L217.791897,112.292829 L217.791897,94.187198 C217.722099,93.1816348 218.260145,92.643686 219.404934,92.573901 C220.584347,92.5046655 221.208128,93.1459181 221.277926,94.4987577 L221.277926,111.356502 L223.880219,110.471276 L223.880219,90.4929898 L221.53843,90.4929898 C218.693219,90.3545188 217.323649,88.9670614 217.427521,86.3306177 L217.427521,75.8205597 C217.392347,73.185215 218.693219,71.8494096 221.330136,71.8147918 L228.511587,71.8147918 L228.511587,71.8147918 Z M222.631008,75.300744 C221.277926,75.162273 220.705806,75.7689078 220.914099,77.1217474 L220.914099,84.9777782 C220.775054,86.3306177 221.277926,87.0064881 222.423264,87.0064881 L227.418459,87.0064881 C228.632496,86.937802 229.257376,86.3306177 229.292,85.1860341 L229.292,76.9134915 C229.326624,75.7689078 228.632496,75.2315085 227.210715,75.300744 L222.631008,75.300744 L222.631008,75.300744 Z M253.281463,94.8108669 C253.281463,97.724802 251.858583,99.2166621 249.014471,99.2853481 L238.606946,99.2853481 L238.606946,109.951461 C238.502525,111.372986 238.98836,112.049406 240.063901,111.980171 L257.86062,111.980171 C259.005959,111.945553 259.595116,111.356502 259.630289,110.211369 L259.630289,107.089727 C259.595116,106.014928 260.115025,105.442911 261.191116,105.372577 C262.405153,105.303891 263.046521,105.980311 263.116318,107.401836 L263.116318,110.93999 C263.046521,113.957229 261.572529,115.466123 258.693244,115.466123 L239.179616,115.466123 C236.403653,115.327102 235.05057,113.939645 235.120368,111.3043 L235.120368,85.8102526 C235.293488,84.2150887 236.351442,83.0188532 238.294781,82.2198976 L249.274975,82.2198976 C251.876169,82.1160444 253.211665,83.5040512 253.281463,86.3828191 L253.281463,94.8108669 L253.281463,94.8108669 Z M240.324405,85.7063993 C238.971322,85.5333106 238.398653,86.1223618 238.606946,87.4752014 L238.606946,93.7184846 C238.502525,95.1411092 238.98836,95.8345631 240.063901,95.7993959 L247.921893,95.7993959 C249.100207,95.7301604 249.725087,95.1235256 249.794884,93.978942 L249.794884,87.2669454 C249.829508,86.1223618 249.118893,85.6025461 247.661388,85.7063993 L240.324405,85.7063993 L240.324405,85.7063993 Z" id="Fill-15" fill="#2C303A" sketch:type="MSShapeGroup"></path>
                <path d="M1.15248347,160.257092 C0.622132231,160.257092 0.205545455,159.84058 0.205545455,159.310324 L0.205545455,146.31658 C0.205545455,145.805556 0.622132231,145.369812 1.15248347,145.369812 C1.6833843,145.369812 2.09997107,145.805556 2.09997107,146.31658 L2.09997107,159.310324 C2.09997107,159.84058 1.6833843,160.257092 1.15248347,160.257092 L1.15248347,160.257092 Z M11.1362769,160.23841 C10.9279835,160.23841 10.6438471,160.200495 10.2833182,160.068068 C9.79143802,159.897177 9.09016529,159.461433 8.50320661,158.458068 C6.81707438,155.560068 3.23651653,153.609386 3.19859504,153.590154 C2.93314463,153.438495 2.76332231,153.173642 2.72485124,152.870324 C2.6682438,152.586788 2.78200826,152.283471 3.0089876,152.075215 L9.73428099,145.635215 C10.1134959,145.2753 10.7191405,145.293983 11.0796694,145.67258 C11.4396488,146.051727 11.4204132,146.63858 11.0411983,146.998495 L5.20678512,152.586788 C6.55162397,153.476959 8.80602893,155.200154 10.1508678,157.510751 C10.6246116,158.30641 11.0796694,158.344324 11.1362769,158.344324 C11.6479421,158.287727 12.1024504,158.62841 12.1969793,159.120751 C12.2728223,159.632324 11.9315289,160.124666 11.4204132,160.219177 C11.3632562,160.219177 11.2687273,160.23841 11.1362769,160.23841 L11.1362769,160.23841 Z" id="Fill-16" fill="#566075" sketch:type="MSShapeGroup"></path>
                <path d="M27.0330744,160.390068 C26.7483884,160.390068 26.4834876,160.257092 26.2938802,160.049386 L17.1443595,149.044239 L17.1443595,159.424068 C17.1443595,159.954324 16.7272231,160.370836 16.1968719,160.370836 C15.6665207,160.370836 15.2493843,159.954324 15.2493843,159.424068 L15.2493843,146.430324 C15.2493843,146.033044 15.4961488,145.67258 15.874814,145.540154 C16.2540289,145.407727 16.6706157,145.521471 16.9168306,145.824788 L26.0855868,156.810154 L26.0855868,146.449007 C26.0855868,145.9193 26.5021736,145.502788 27.0330744,145.502788 C27.5447397,145.502788 27.980562,145.9193 27.980562,146.449007 L27.980562,159.442751 C27.980562,159.84058 27.714562,160.181812 27.3551322,160.332922 C27.2413678,160.370836 27.1276033,160.390068 27.0330744,160.390068" id="Fill-17" fill="#566075" sketch:type="MSShapeGroup"></path>
                <path d="M38.7051983,160.654922 C37.6637314,160.654922 36.6404008,160.446666 35.6747769,160.029604 C34.7459752,159.632324 33.9122521,159.082836 33.192843,158.363007 C32.4915702,157.643727 31.9232975,156.828836 31.5259463,155.9013 C31.1274959,154.953983 30.9192025,153.950068 30.9192025,152.927471 C30.9192025,151.885642 31.1274959,150.881727 31.5446322,149.93441 C31.9419835,149.025556 32.5108058,148.191983 33.2302149,147.491386 C33.9507231,146.771007 34.7838967,146.222068 35.7121488,145.824788 C36.6783223,145.42641 37.7011033,145.218154 38.7623554,145.218154 C40.8271529,145.218154 42.7595,146.033044 44.1988678,147.510068 C44.9001405,148.211215 45.4299421,149.044239 45.809157,149.953642 C46.2076074,150.90041 46.3966653,151.904324 46.3966653,152.927471 C46.3966653,153.968751 46.2076074,154.972666 45.809157,155.9013 C45.4299421,156.828836 44.8814545,157.66241 44.1801818,158.363007 C42.7215785,159.84058 40.7892314,160.654922 38.7051983,160.654922 L38.7051983,160.654922 Z M38.7623554,147.112788 C37.9660041,147.112788 37.189438,147.263898 36.451343,147.567215 C35.7308347,147.869983 35.1059545,148.286495 34.5563678,148.835983 C34.006781,149.366239 33.5715083,149.991556 33.2873719,150.692154 C32.965314,151.3933 32.8136281,152.151044 32.8136281,152.927471 C32.8136281,153.703898 32.965314,154.44241 33.268686,155.162239 C33.5715083,155.862836 33.988095,156.488154 34.5376818,157.01841 C35.6549917,158.136068 37.1328306,158.760836 38.7051983,158.760836 C40.2775661,158.760836 41.736719,158.136068 42.835343,157.037092 C43.3656942,156.506836 43.7630455,155.881519 44.0664174,155.180922 C44.3511033,154.461642 44.5022397,153.703898 44.5022397,152.927471 C44.5022397,151.374068 43.915281,149.915727 42.8540289,148.835983 C41.7740909,147.718324 40.3154876,147.112788 38.7623554,147.112788 L38.7623554,147.112788 Z" id="Fill-18" fill="#566075" sketch:type="MSShapeGroup"></path>
                <path d="M63.5058512,160.390068 C63.1085,160.390068 62.7485207,160.143348 62.6155207,159.764751 L58.712905,149.101386 L54.8295248,159.764751 C54.6783884,160.143348 54.3376446,160.390068 53.9391942,160.390068 C53.5412934,160.390068 53.1818636,160.143348 53.0494132,159.764751 L48.2559174,146.657812 C48.0663099,146.165471 48.3323099,145.635215 48.8241901,145.445642 C49.3171694,145.2753 49.8475207,145.521471 50.0365785,146.014362 L53.9391942,156.677727 L57.8225744,146.014362 C57.9555744,145.635215 58.3155537,145.389044 58.712905,145.389044 C59.1113554,145.389044 59.4707851,145.635215 59.6037851,146.014362 L63.5058512,156.677727 L67.389781,146.014362 C67.5788388,145.521471 68.1097397,145.2753 68.6021694,145.445642 C69.0945992,145.635215 69.3600496,146.165471 69.1704421,146.657812 L64.3961818,159.764751 C64.2637314,160.143348 63.9043017,160.390068 63.5058512,160.390068" id="Fill-19" fill="#566075" sketch:type="MSShapeGroup"></path>
                <path d="M81.4696446,160.332922 L73.2093554,160.332922 C72.6982397,160.332922 72.2629669,159.91586 72.2629669,159.385604 L72.2629669,146.39241 C72.2629669,145.862154 72.6982397,145.445642 73.2093554,145.445642 C73.7402562,145.445642 74.156843,145.862154 74.156843,146.39241 L74.156843,158.438836 L81.4696446,158.438836 C81.9999959,158.438836 82.4165826,158.855898 82.4165826,159.385604 C82.4165826,159.91586 81.9999959,160.332922 81.4696446,160.332922" id="Fill-20" fill="#566075" sketch:type="MSShapeGroup"></path>
                <path d="M96.4002686,159.366922 C96.4002686,159.897177 95.9831322,160.314239 95.452781,160.314239 L86.3977893,160.314239 C85.886124,160.314239 85.4503017,159.897177 85.4503017,159.366922 L85.4503017,146.39241 C85.4503017,145.862154 85.886124,145.445642 86.3977893,145.445642 L95.2631736,145.445642 C95.7935248,145.445642 96.2106612,145.862154 96.2106612,146.39241 C96.2106612,146.923215 95.7935248,147.339727 95.2631736,147.339727 L87.3447273,147.339727 L87.3447273,151.904324 L94.354157,151.904324 C94.8845083,151.904324 95.301095,152.340068 95.301095,152.851642 C95.301095,153.381898 94.8845083,153.79841 94.354157,153.79841 L87.3447273,153.79841 L87.3447273,158.420154 L95.452781,158.420154 C95.9831322,158.420154 96.4002686,158.837215 96.4002686,159.366922" id="Fill-21" fill="#566075" sketch:type="MSShapeGroup"></path>
                <path d="M105.040322,160.332922 L100.380376,160.332922 C99.8500248,160.332922 99.433438,159.897177 99.433438,159.385604 L99.433438,146.39241 C99.433438,146.146788 99.5279669,145.900618 99.7175744,145.729727 C99.8879463,145.558836 100.134161,145.445642 100.380376,145.445642 L105.078793,145.445642 C106.12026,145.445642 107.124355,145.653898 108.053157,146.033044 C108.962174,146.411642 109.795897,146.96058 110.49662,147.642495 C111.197343,148.324959 111.74693,149.120068 112.144831,150.010239 C112.542731,150.938874 112.751025,151.904324 112.751025,152.908239 C112.751025,153.892922 112.542731,154.878154 112.125595,155.787556 C111.727694,156.677727 111.178657,157.472836 110.458698,158.154751 C109.757426,158.837215 108.924252,159.366922 108.015236,159.746068 C107.067748,160.124666 106.063653,160.332922 105.040322,160.332922 L105.040322,160.332922 Z M101.327314,158.438836 L105.078793,158.438836 C105.85536,158.420154 106.594554,158.268495 107.295277,157.98441 C107.996,157.700324 108.62088,157.303044 109.151781,156.790922 C109.682132,156.279348 110.098719,155.673812 110.401541,155.01113 C110.704913,154.347898 110.856599,153.628068 110.856599,152.908239 C110.856599,152.169727 110.704913,151.449898 110.401541,150.767983 C110.117955,150.1053 109.700818,149.517348 109.170467,149.006324 C108.071843,147.92713 106.631926,147.339727 105.078793,147.339727 L101.327314,147.339727 L101.327314,158.438836 L101.327314,158.438836 Z" id="Fill-22" fill="#566075" sketch:type="MSShapeGroup"></path>
                <path d="M123.571289,160.673604 C122.510037,160.673604 121.487256,160.465348 120.540318,160.049386 C119.611517,159.670239 118.777793,159.102068 118.058384,158.381689 C117.338426,157.681092 116.788839,156.847519 116.391488,155.938666 C115.974351,154.972666 115.785293,153.968751 115.785293,152.946154 C115.785293,151.904324 115.993587,150.90041 116.391488,149.953642 C116.788839,149.044239 117.357112,148.211215 118.07707,147.510068 C118.797579,146.790788 119.649438,146.2413 120.57824,145.843471 C121.544413,145.445642 122.567194,145.236836 123.608661,145.236836 C125.21895,145.236836 126.734711,145.729727 128.022942,146.63858 C128.458764,146.941898 128.553843,147.528751 128.250471,147.964495 C127.947099,148.381556 127.36014,148.494751 126.924318,148.191983 C125.958145,147.491386 124.821599,147.131471 123.608661,147.131471 C122.813409,147.131471 122.036293,147.28258 121.297649,147.60513 C120.596926,147.889215 119.95281,148.324959 119.422459,148.855215 C118.872872,149.404154 118.43705,150.010239 118.134227,150.710836 C117.831405,151.430666 117.679169,152.169727 117.679169,152.946154 C117.679169,153.72258 117.831405,154.480324 118.134227,155.180922 C118.43705,155.881519 118.854186,156.506836 119.403223,157.037092 C120.521083,158.154751 121.998921,158.780068 123.571289,158.780068 C124.405012,158.780068 125.21895,158.609177 125.958145,158.268495 C126.563789,157.98441 127.132612,157.605263 127.606355,157.132154 L127.606355,153.192324 C127.606355,152.662068 128.022942,152.245007 128.553843,152.245007 C129.083645,152.245007 129.500231,152.662068 129.500231,153.192324 L129.500231,157.529983 C129.500231,157.757471 129.405702,157.98441 129.254566,158.154751 C128.534058,158.931177 127.700884,159.556495 126.734711,159.992239 C125.749851,160.446666 124.669913,160.673604 123.571289,160.673604" id="Fill-23" fill="#566075" sketch:type="MSShapeGroup"></path>
                <path d="M143.484467,159.366922 C143.484467,159.897177 143.067331,160.314239 142.536979,160.314239 L133.481438,160.314239 C132.970322,160.314239 132.5345,159.897177 132.5345,159.366922 L132.5345,146.39241 C132.5345,145.862154 132.970322,145.445642 133.481438,145.445642 L142.347372,145.445642 C142.877723,145.445642 143.29486,145.862154 143.29486,146.39241 C143.29486,146.923215 142.877723,147.339727 142.347372,147.339727 L134.428926,147.339727 L134.428926,151.904324 L141.438355,151.904324 C141.968707,151.904324 142.385293,152.340068 142.385293,152.851642 C142.385293,153.381898 141.968707,153.79841 141.438355,153.79841 L134.428926,153.79841 L134.428926,158.420154 L142.536979,158.420154 C143.067331,158.420154 143.484467,158.837215 143.484467,159.366922" id="Fill-24" fill="#566075" sketch:type="MSShapeGroup"></path>
                <path d="M155.990864,160.332922 C155.479748,160.332922 155.044475,159.91586 155.044475,159.385604 L155.044475,146.39241 C155.044475,145.880836 155.479748,145.445642 155.990864,145.445642 C156.521764,145.445642 156.938351,145.880836 156.938351,146.39241 L156.938351,159.385604 C156.938351,159.91586 156.521764,160.332922 155.990864,160.332922" id="Fill-25" fill="#566075" sketch:type="MSShapeGroup"></path>
                <path d="M165.482777,160.56041 C161.371868,160.56041 160.216636,158.62841 160.084186,158.400922 C159.837421,157.946495 160.008343,157.359092 160.462851,157.113471 C160.91736,156.866751 161.485632,157.037092 161.732397,157.472836 C161.769769,157.510751 161.959376,157.776154 162.451806,158.041007 C163.399293,158.55258 164.630368,158.666324 165.482777,158.666324 C166.733087,158.666324 167.680574,158.400922 168.210926,157.90858 C168.628062,157.529983 168.722041,157.056324 168.722041,156.734324 C168.722041,156.033727 168.514298,155.502922 168.05924,155.067177 C167.472281,154.480324 166.4495,154.04458 165.009583,153.760495 C163.967566,153.533007 163.058,153.173642 162.338041,152.680751 C161.732397,152.264239 161.258103,151.753215 160.91736,151.14658 C160.367773,150.199812 160.367773,149.347556 160.367773,149.120068 C160.367773,148.116703 160.842066,147.112788 161.656004,146.39241 C162.054455,146.033044 162.546335,145.74841 163.095921,145.540154 C163.664194,145.331898 164.289624,145.236836 164.93374,145.236836 C168.628062,145.236836 169.70745,146.979812 169.820665,147.188068 C170.06743,147.642495 169.915744,148.229898 169.461236,148.476068 C169.006727,148.722239 168.438455,148.57113 168.19224,148.135386 C168.153769,148.097471 167.983946,147.889215 167.56681,147.642495 C167.112302,147.415556 166.297264,147.131471 164.93374,147.131471 C163.891174,147.131471 163.266843,147.491386 162.906314,147.813386 C162.508963,148.172751 162.262748,148.665642 162.262748,149.157983 L162.262748,149.195898 C162.262748,149.271727 162.262748,149.745386 162.603492,150.294874 C162.812335,150.635556 163.095921,150.919092 163.475136,151.165812 C163.967566,151.487812 164.611682,151.733983 165.388248,151.904324 C167.206831,152.264239 168.514298,152.851642 169.385393,153.703898 C170.19988,154.499556 170.617017,155.522154 170.617017,156.734324 C170.617017,157.719007 170.219116,158.62841 169.499157,159.310324 C168.608277,160.143348 167.244752,160.56041 165.482777,160.56041" id="Fill-26" fill="#566075" sketch:type="MSShapeGroup"></path>
                <path d="M183.123963,160.332922 C182.612298,160.332922 182.176475,159.91586 182.176475,159.385604 L182.176475,146.39241 C182.176475,145.862154 182.612298,145.445642 183.123963,145.445642 L188.750083,145.445642 C188.825926,145.445642 189.280434,145.445642 189.867942,145.5973 C190.701665,145.805556 191.43976,146.222068 192.008583,146.771007 C192.425169,147.188068 192.765913,147.699642 192.993992,148.286495 C193.239657,148.930495 193.372107,149.669556 193.372107,150.483898 C193.372107,152.283471 192.614777,153.646751 191.193545,154.461642 C190.170764,155.048495 188.80669,155.33258 187.120558,155.33258 C186.608893,155.33258 186.17362,154.916068 186.17362,154.385812 C186.17362,153.855007 186.608893,153.438495 187.120558,153.438495 C188.465946,153.438495 189.526649,153.230239 190.246058,152.813727 C191.080331,152.340068 191.478231,151.601007 191.478231,150.483898 C191.478231,149.726154 191.325996,149.101386 191.061095,148.627727 C190.852802,148.24913 190.54943,147.964495 190.19,147.756239 C189.507963,147.358959 188.80669,147.339727 188.750083,147.339727 L184.070901,147.339727 L184.070901,159.385604 C184.070901,159.91586 183.653764,160.332922 183.123963,160.332922" id="Fill-27" fill="#566075" sketch:type="MSShapeGroup"></path>
                <path d="M204.097843,160.654922 C203.055277,160.654922 202.032496,160.446666 201.066322,160.029604 C200.13807,159.632324 199.304347,159.082836 198.584388,158.363007 C197.883665,157.643727 197.315393,156.828836 196.917492,155.9013 C196.52014,154.953983 196.311847,153.950068 196.311847,152.927471 C196.311847,151.885642 196.52014,150.881727 196.936178,149.93441 C197.334628,149.025556 197.902351,148.191983 198.62286,147.491386 C199.342269,146.771007 200.175992,146.222068 201.104244,145.824788 C202.070417,145.42641 203.093198,145.218154 204.153901,145.218154 C206.219248,145.218154 208.151595,146.033044 209.591512,147.510068 C210.292236,148.211215 210.822587,149.044239 211.201252,149.953642 C211.599153,150.90041 211.78876,151.904324 211.78876,152.927471 C211.78876,153.968751 211.599153,154.972666 211.201252,155.9013 C210.822587,156.828836 210.273,157.66241 209.572277,158.363007 C208.113124,159.84058 206.181326,160.654922 204.097843,160.654922 L204.097843,160.654922 Z M204.153901,147.112788 C203.358649,147.112788 202.582083,147.263898 201.842888,147.567215 C201.123479,147.869983 200.49805,148.286495 199.949012,148.835983 C199.399426,149.366239 198.963603,149.991556 198.679467,150.692154 C198.357409,151.3933 198.205723,152.151044 198.205723,152.927471 C198.205723,153.703898 198.357409,154.44241 198.660231,155.162239 C198.963603,155.862836 199.38074,156.488154 199.929777,157.01841 C201.047636,158.136068 202.524926,158.760836 204.097843,158.760836 C205.669661,158.760836 207.128264,158.136068 208.226888,157.037092 C208.757789,156.506836 209.15569,155.881519 209.458512,155.180922 C209.742649,154.461642 209.893785,153.703898 209.893785,152.927471 C209.893785,151.374068 209.306826,149.915727 208.246124,148.835983 C207.166736,147.718324 205.707583,147.112788 204.153901,147.112788 L204.153901,147.112788 Z" id="Fill-28" fill="#566075" sketch:type="MSShapeGroup"></path>
                <path d="M228.898496,160.390068 C228.500595,160.390068 228.140616,160.143348 228.007616,159.764751 L224.10555,149.101386 L220.222169,159.764751 C220.070483,160.143348 219.72919,160.390068 219.331289,160.390068 C218.933938,160.390068 218.573409,160.143348 218.440959,159.764751 L213.648562,146.657812 C213.458955,146.165471 213.723855,145.635215 214.216835,145.445642 C214.709264,145.2753 215.239616,145.521471 215.429223,146.014362 L219.331289,156.677727 L223.215219,146.014362 C223.347669,145.635215 223.707649,145.389044 224.10555,145.389044 C224.502901,145.389044 224.86343,145.635215 224.99588,146.014362 L228.898496,156.677727 L232.781876,146.014362 C232.971483,145.521471 233.501835,145.2753 233.994264,145.445642 C234.486694,145.635215 234.752145,146.165471 234.562537,146.657812 L229.788826,159.764751 C229.655826,160.143348 229.295847,160.390068 228.898496,160.390068" id="Fill-29" fill="#566075" sketch:type="MSShapeGroup"></path>
                <path d="M248.604479,159.366922 C248.604479,159.897177 248.187893,160.314239 247.656992,160.314239 L238.602,160.314239 C238.090335,160.314239 237.655062,159.897177 237.655062,159.366922 L237.655062,146.39241 C237.655062,145.862154 238.090335,145.445642 238.602,145.445642 L247.467934,145.445642 C247.998285,145.445642 248.414872,145.862154 248.414872,146.39241 C248.414872,146.923215 247.998285,147.339727 247.467934,147.339727 L239.548938,147.339727 L239.548938,151.904324 L246.558368,151.904324 C247.088719,151.904324 247.505855,152.340068 247.505855,152.851642 C247.505855,153.381898 247.088719,153.79841 246.558368,153.79841 L239.548938,153.79841 L239.548938,158.420154 L247.656992,158.420154 C248.187893,158.420154 248.604479,158.837215 248.604479,159.366922" id="Fill-30" fill="#566075" sketch:type="MSShapeGroup"></path>
                <path d="M252.585136,160.332922 C252.054785,160.332922 251.638198,159.897177 251.638198,159.385604 L251.638198,146.39241 C251.638198,145.862154 252.054785,145.445642 252.585136,145.445642 L258.211256,145.445642 C258.287099,145.445642 258.741607,145.445642 259.329665,145.5973 C260.162839,145.805556 260.901483,146.222068 261.45107,146.771007 C261.886893,147.188068 262.20895,147.699642 262.43593,148.286495 C262.700831,148.930495 262.814595,149.669556 262.814595,150.483898 C262.814595,152.264239 262.057264,153.646751 260.636583,154.461642 C260.295289,154.650666 259.916624,154.821556 259.499488,154.934751 C260.314525,155.635348 261.053169,156.525519 261.640678,157.567898 C262.132558,158.400922 262.663459,158.400922 262.739302,158.400922 C263.250417,158.344324 263.724161,158.685007 263.800004,159.19658 C263.875847,159.707604 263.515868,160.200495 263.004202,160.276324 C262.871752,160.295007 262.43593,160.332922 261.848971,160.143348 C261.337306,159.954324 260.598112,159.537812 260.011153,158.514666 C259.348351,157.378324 258.533314,156.488154 257.586376,155.881519 C256.923574,155.446324 256.430595,155.313348 256.393223,155.313348 C255.900244,155.218836 255.578186,154.783092 255.635343,154.290751 C255.672715,153.79841 256.089851,153.438495 256.582281,153.438495 C257.927669,153.438495 258.969136,153.230239 259.707781,152.813727 C260.542054,152.340068 260.920169,151.601007 260.920169,150.483898 C260.920169,149.726154 260.787719,149.101386 260.503583,148.608495 C260.295289,148.24913 260.011153,147.964495 259.631938,147.737556 C258.969136,147.358959 258.268413,147.339727 258.211256,147.339727 L253.532624,147.339727 L253.532624,159.385604 C253.532624,159.897177 253.115488,160.332922 252.585136,160.332922" id="Fill-31" fill="#566075" sketch:type="MSShapeGroup"></path>
            </g>
        </g>
    </g>
</svg>