<?xml version="1.0" encoding="UTF-8" standalone="no"?>
<svg width="32px" height="32px" viewBox="0 0 32 32" version="1.1" xmlns="http://www.w3.org/2000/svg" xmlns:xlink="http://www.w3.org/1999/xlink" xmlns:sketch="http://www.bohemiancoding.com/sketch/ns">
    <!-- Generator: Sketch 3.3.3 (12081) - http://www.bohemiancoding.com/sketch -->
    <title>icon2</title>
    <desc>Created with Sketch.</desc>
    <defs></defs>
    <g id="Page-1" stroke="none" stroke-width="1" fill="none" fill-rule="evenodd" sketch:type="MSPage">
        <g id="课程介绍-选修课程" sketch:type="MSArtboardGroup" transform="translate(-383.000000, -617.000000)" fill="#727580">
            <g id="Group-Copy" sketch:type="MSLayerGroup" transform="translate(106.000000, 604.000000)">
                <g id="培训目标-+-学员达到[人员能力评级]-+-icon2" transform="translate(277.000000, 3.000000)" sketch:type="MSShapeGroup">
                    <g id="icon2" transform="translate(0.000000, 10.000000)">
                        <g id="XMLID_1_">
                            <path d="M30.7412008,9.77225673 C29.9362319,7.86749482 28.7801242,6.15486542 27.3126294,4.6873706 C25.8451346,3.21656315 24.1325052,2.06376812 22.2277433,1.25879917 C20.2534161,0.424016563 18.1598344,0 16,0 C13.8401656,0 11.7465839,0.424016563 9.77225673,1.25879917 C7.86749482,2.06376812 6.15486542,3.21987578 4.6873706,4.6873706 C3.21656315,6.15486542 2.06376812,7.86749482 1.25879917,9.77225673 C0.424016563,11.7465839 0,13.8401656 0,16 C0,18.1598344 0.424016563,20.2534161 1.25879917,22.2277433 C2.06376812,24.1325052 3.21987578,25.8451346 4.6873706,27.3126294 C6.15486542,28.7801242 7.86749482,29.9362319 9.77225673,30.7412008 C11.7465839,31.5759834 13.8401656,32 16,32 C18.1598344,32 20.2534161,31.5759834 22.2277433,30.7412008 C24.1325052,29.9362319 25.8451346,28.7801242 27.3126294,27.3126294 C28.7801242,25.8451346 29.9362319,24.1325052 30.7412008,22.2277433 C31.5759834,20.2534161 32,18.1598344 32,16 C32,13.8401656 31.5759834,11.7465839 30.7412008,9.77225673 L30.7412008,9.77225673 Z M16,16.9606625 C16.5300207,16.9606625 16.9606625,16.5300207 16.9606625,16 L16.9606625,12.3461698 C18.5805383,12.773499 19.7763975,14.247619 19.7763975,16 C19.7763975,18.0836439 18.0836439,19.7763975 16,19.7763975 C13.9163561,19.7763975 12.2236025,18.0836439 12.2236025,16 C12.2236025,14.2509317 13.4194617,12.773499 15.0393375,12.3461698 L15.0393375,16 C15.0393375,16.5300207 15.4699793,16.9606625 16,16.9606625 L16,16.9606625 Z M15.0393375,10.3850932 C12.352795,10.842236 10.3022774,13.184265 10.3022774,16 C10.3022774,19.1403727 12.8596273,21.6977226 16,21.6977226 C19.1403727,21.6977226 21.6977226,19.1403727 21.6977226,16 C21.6977226,13.184265 19.647205,10.842236 16.9606625,10.3850932 L16.9606625,7.40372671 C18.9084886,7.61904762 20.7138716,8.48033126 22.1184265,9.88488613 C23.7515528,11.5180124 24.652588,13.6910973 24.652588,16.0033126 C24.652588,18.315528 23.7515528,20.4886128 22.1184265,22.1217391 C20.4853002,23.7515528 18.3122153,24.652588 16,24.652588 C13.6877847,24.652588 11.5146998,23.7515528 9.8815735,22.1184265 C8.2484472,20.4853002 7.34741201,18.3122153 7.34741201,16 C7.34741201,13.6877847 8.2484472,11.5146998 9.8815735,9.8815735 C11.2861284,8.47701863 13.0915114,7.61573499 15.0393375,7.40041408 L15.0393375,10.3850932 L15.0393375,10.3850932 Z M28.9722567,21.479089 C28.263354,23.1552795 27.2463768,24.6625259 25.9544513,25.9544513 C24.6625259,27.2463768 23.1552795,28.263354 21.479089,28.9722567 C19.7432712,29.7076605 17.9014493,30.0786749 16,30.0786749 C14.0985507,30.0786749 12.2567288,29.7076605 10.520911,28.9722567 C8.8447205,28.263354 7.33747412,27.2463768 6.04554865,25.9544513 C4.75362319,24.6625259 3.73664596,23.1552795 3.02774327,21.479089 C2.29233954,19.7432712 1.92132505,17.9014493 1.92132505,16 C1.92132505,14.0985507 2.29233954,12.2567288 3.02774327,10.520911 C3.73664596,8.8447205 4.75362319,7.33747412 6.04554865,6.04554865 C7.33747412,4.75362319 8.8447205,3.73664596 10.520911,3.02774327 C11.9619048,2.41821946 13.479089,2.05714286 15.0393375,1.95445135 L15.0393375,5.47246377 C13.952795,5.56853002 12.8927536,5.83354037 11.8824017,6.26086957 C10.6236025,6.7942029 9.49399586,7.55610766 8.52339545,8.52670807 C7.55279503,9.49730849 6.79089027,10.6269151 6.25755694,11.8857143 C5.70434783,13.1908903 5.42608696,14.5755694 5.42608696,16 C5.42608696,17.4244306 5.70434783,18.8124224 6.25755694,20.1142857 C6.79089027,21.3730849 7.55279503,22.5026915 8.52339545,23.4732919 C9.49399586,24.4438923 10.6236025,25.2057971 11.8824017,25.7391304 C13.1875776,26.2923395 14.5722567,26.5706004 15.9966874,26.5706004 C17.421118,26.5706004 18.8091097,26.2923395 20.1109731,25.7391304 C21.3697723,25.2057971 22.4993789,24.4438923 23.4699793,23.4732919 C24.4405797,22.5026915 25.2024845,21.3730849 25.7358178,20.1142857 C26.2890269,18.8091097 26.5672878,17.4244306 26.5672878,16 C26.5672878,14.5755694 26.2890269,13.1875776 25.7358178,11.8857143 C25.2024845,10.6269151 24.4405797,9.49730849 23.4699793,8.52670807 C22.4993789,7.55610766 21.3697723,6.7942029 20.1109731,6.26086957 C19.1006211,5.83354037 18.0438923,5.57184265 16.9540373,5.47246377 L16.9540373,1.95445135 C18.5142857,2.06045549 20.03147,2.41821946 21.4724638,3.02774327 C23.1486542,3.73664596 24.6559006,4.75362319 25.9478261,6.04554865 C27.2397516,7.33747412 28.2567288,8.8447205 28.9656315,10.520911 C29.7076605,12.2567288 30.0786749,14.0985507 30.0786749,16 C30.0786749,17.9014493 29.7076605,19.7432712 28.9722567,21.479089 L28.9722567,21.479089 Z" id="XMLID_17_"></path>
                        </g>
                    </g>
                </g>
            </g>
        </g>
    </g>
</svg>