<?xml version="1.0" encoding="UTF-8" standalone="no"?>
<svg width="26px" height="38px" viewBox="0 0 26 38" version="1.1" xmlns="http://www.w3.org/2000/svg" xmlns:xlink="http://www.w3.org/1999/xlink" xmlns:sketch="http://www.bohemiancoding.com/sketch/ns">
    <!-- Generator: Sketch 3.3.3 (12081) - http://www.bohemiancoding.com/sketch -->
    <title>icon3</title>
    <desc>Created with Sketch.</desc>
    <defs></defs>
    <g id="Page-1" stroke="none" stroke-width="1" fill="none" fill-rule="evenodd" sketch:type="MSPage">
        <g id="课程介绍-选修课程" sketch:type="MSArtboardGroup" transform="translate(-661.000000, -614.000000)" fill="#727580">
            <g id="Group-Copy" sketch:type="MSLayerGroup" transform="translate(106.000000, 604.000000)">
                <g id="Imported-Layers-+-报名要求-+-满足基本要求即可-+-报名要求-+-满足基本要求即可-+-icon3" transform="translate(555.000000, 0.000000)" sketch:type="MSShapeGroup">
                    <g id="icon3" transform="translate(0.000000, 10.000000)">
                        <g id="XMLID_155_">
                            <g id="XMLID_169_">
                                <path d="M24.8020349,37.9629268 C24.1973837,37.9629268 23.6834302,37.5032195 23.6418605,36.9026341 L23.6418605,36.9026341 C23.6380814,36.8692683 23.3811047,33.5289756 21.9488372,29.710439 C21.0872093,27.4119024 19.2732558,26.5258537 17.8145349,25.8140488 C17.0813953,25.4581463 16.5031977,25.1763902 16.1026163,24.7352195 C15.543314,24.1235122 15.3543605,23.3894634 15.5697674,22.6702439 C15.7549419,22.0548293 16.2122093,21.5580488 16.8244186,21.3059512 C18.6270349,20.5644878 20.1651163,19.3299512 21.2686047,17.7395122 C22.3985465,16.112 23.0031977,14.206439 23.0107558,12.2267317 C23.022093,9.58341463 21.9790698,7.08839024 20.0706395,5.20507317 C18.1773256,3.34029268 15.6680233,2.30595122 13,2.28741463 C10.3319767,2.30595122 7.82267442,3.34029268 5.92936047,5.20878049 C4.01715116,7.09209756 2.97412791,9.58712195 2.98546512,12.230439 C2.99680233,14.2101463 3.59767442,16.1157073 4.72761628,17.7432195 C5.83110465,19.3336585 7.36918605,20.5681951 9.17180233,21.3096585 C9.7877907,21.5617561 10.2450581,22.0585366 10.4264535,22.6739512 C10.6418605,23.396878 10.452907,24.1309268 9.89360465,24.7389268 C9.49302326,25.1763902 8.91482558,25.4581463 8.18168605,25.8177561 C6.72296512,26.529561 4.90523256,27.4156098 4.04738372,29.7141463 C2.61889535,33.5326829 2.35813953,36.8729756 2.35436047,36.9063415 C2.30901163,37.5069268 1.79883721,37.9666341 1.19418605,37.9666341 C1.16773256,37.9666341 1.1375,37.9666341 1.11104651,37.9629268 C0.468604651,37.918439 -0.0151162791,37.3734634 0.0302325581,36.7432195 C0.0415697674,36.5949268 0.309883721,33.065561 1.85930233,28.9244878 C3.03837209,25.7732683 5.60813953,24.5201951 7.14622093,23.7676098 C7.4372093,23.6267317 7.81133721,23.4413659 8.02296512,23.3116098 C5.91046512,22.3884878 4.10784884,20.9129756 2.8002907,19.0296585 C1.40581395,17.024 0.665116279,14.6772683 0.65377907,12.241561 C0.64622093,10.5955122 0.96744186,8.99765854 1.61366279,7.48507317 C2.2372093,6.02809756 3.13284884,4.71941463 4.27412791,3.59609756 C5.41540698,2.47278049 6.74563953,1.58673171 8.22703488,0.967609756 C9.70087209,0.352195122 11.2616279,0.0259512195 12.8677326,0 L12.9281977,0 L13.0680233,0 L13.1284884,0 C14.734593,0.0259512195 16.2953488,0.348487805 17.769186,0.963902439 C19.2505814,1.58302439 20.580814,2.46536585 21.722093,3.59239024 C22.8633721,4.71941463 23.7590116,6.02809756 24.3825581,7.48136585 C25.0287791,8.9902439 25.3537791,10.5918049 25.3424419,12.2378537 C25.3311047,14.673561 24.5866279,17.0202927 23.1959302,19.0259512 C21.8883721,20.9092683 20.0857558,22.3847805 17.9732558,23.3079024 C18.1848837,23.4413659 18.5590116,23.6230244 18.85,23.7639024 C20.3843023,24.5127805 22.9578488,25.7658537 24.1369186,28.9207805 C25.6863372,33.0581463 25.9546512,36.5912195 25.9659884,36.7395122 C26.0113372,37.3697561 25.5276163,37.9147317 24.8851744,37.9592195 C24.8587209,37.9629268 24.8322674,37.9629268 24.8020349,37.9629268 L24.8020349,37.9629268 Z" id="XMLID_3_"></path>
                            </g>
                            <path d="M11.4883721,18.3660488 C11.1898256,18.3660488 10.8912791,18.2548293 10.6645349,18.0323902 L6.63604651,14.0766829 C6.18255814,13.6318049 6.18255814,12.9051707 6.63604651,12.4602927 C7.08953488,12.0154146 7.83023256,12.0154146 8.28372093,12.4602927 L11.4883721,15.6040976 L17.7162791,9.49443902 C18.1697674,9.04956098 18.9104651,9.04956098 19.3639535,9.49443902 C19.8174419,9.93931707 19.8174419,10.6659512 19.3639535,11.1108293 L12.3122093,18.0286829 C12.0854651,18.2548293 11.7869186,18.3660488 11.4883721,18.3660488 L11.4883721,18.3660488 Z" id="XMLID_2_"></path>
                        </g>
                    </g>
                </g>
            </g>
        </g>
    </g>
</svg>