<?xml version="1.0" encoding="UTF-8" standalone="no"?>
<svg width="27px" height="32px" viewBox="0 0 27 32" version="1.1" xmlns="http://www.w3.org/2000/svg" xmlns:xlink="http://www.w3.org/1999/xlink" xmlns:sketch="http://www.bohemiancoding.com/sketch/ns">
    <!-- Generator: Sketch 3.3.3 (12081) - http://www.bohemiancoding.com/sketch -->
    <title>icon4</title>
    <desc>Created with Sketch.</desc>
    <defs></defs>
    <g id="Page-1" stroke="none" stroke-width="1" fill="none" fill-rule="evenodd" sketch:type="MSPage">
        <g id="课程介绍-选修课程" sketch:type="MSArtboardGroup" transform="translate(-892.000000, -617.000000)" fill="#727580">
            <g id="Group-Copy" sketch:type="MSLayerGroup" transform="translate(106.000000, 604.000000)">
                <g id="评定标准：-+-所有在职java开发工程师-copy-3-+-icon4" transform="translate(786.000000, 3.000000)" sketch:type="MSShapeGroup">
                    <g id="icon4" transform="translate(0.000000, 10.000000)">
                        <g id="XMLID_11_">
                            <path d="M25.4825441,31.4308891 L1.46117882,31.4308891 C0.65977578,31.4308891 0.0103629704,30.7814763 0.0103629704,29.9800733 L0.0103629704,1.45427017 C0.0103629704,0.652867133 0.65977578,0.00345432345 1.46117882,0.00345432345 L25.4859984,0.00345432345 C26.2874015,0.00345432345 26.9368143,0.652867133 26.9368143,1.45427017 L26.9368143,29.9835276 C26.93336,30.7814763 26.2839472,31.4308891 25.4825441,31.4308891 Z M2.08295704,29.358295 L24.8642202,29.358295 L24.8642202,2.0760484 L2.08295704,2.0760484 L2.08295704,29.358295 Z" id="XMLID_6_"></path>
                            <g id="XMLID_10_" transform="translate(4.386991, 7.564968)">
                                <g id="XMLID_1_" transform="translate(4.456077, 0.310889)">
                                    <path d="M12.6497325,11.3474525 L1.04320568,11.3474525 C0.46978799,11.3474525 0.00690864691,10.8845732 0.00690864691,10.3111555 C0.00690864691,9.73773782 0.46978799,9.27485847 1.04320568,9.27485847 L12.6497325,9.27485847 C13.2231502,9.27485847 13.6860295,9.73773782 13.6860295,10.3111555 C13.6860295,10.8845732 13.2231502,11.3474525 12.6497325,11.3474525 L12.6497325,11.3474525 Z" id="XMLID_5_"></path>
                                    <path d="M9.98644911,15.976246 L1.04320568,15.976246 C0.46978799,15.976246 0.00690864691,15.5133666 0.00690864691,14.9399489 C0.00690864691,14.3665312 0.46978799,13.9036519 1.04320568,13.9036519 L9.98644911,13.9036519 C10.5598668,13.9036519 11.0227461,14.3665312 11.0227461,14.9399489 C11.0227461,15.5133666 10.5598668,15.976246 9.98644911,15.976246 L9.98644911,15.976246 Z" id="XMLID_4_"></path>
                                    <path d="M12.6497325,2.08986569 L1.04320568,2.08986569 C0.46978799,2.08986569 0.00690864691,1.62698635 0.00690864691,1.05356865 C0.00690864691,0.48015096 0.46978799,0.0172716173 1.04320568,0.0172716173 L12.6497325,0.0172716173 C13.2231502,0.0172716173 13.6860295,0.48015096 13.6860295,1.05356865 C13.6860295,1.62698635 13.2231502,2.08986569 12.6497325,2.08986569 L12.6497325,2.08986569 Z" id="XMLID_3_"></path>
                                    <path d="M12.6497325,6.71865912 L1.04320568,6.71865912 C0.46978799,6.71865912 0.00690864691,6.25577978 0.00690864691,5.68236208 C0.00690864691,5.10894439 0.46978799,4.64606505 1.04320568,4.64606505 L12.6497325,4.64606505 C13.2231502,4.64606505 13.6860295,5.10894439 13.6860295,5.68236208 C13.6860295,6.25577978 13.2231502,6.71865912 12.6497325,6.71865912 L12.6497325,6.71865912 Z" id="XMLID_2_"></path>
                                </g>
                                <g id="XMLID_9_">
                                    <circle id="XMLID_229_" cx="1.37482073" cy="1.36445776" r="1.34718615"></circle>
                                    <circle id="XMLID_231_" cx="1.37482073" cy="5.99325119" r="1.34718615"></circle>
                                </g>
                            </g>
                        </g>
                    </g>
                </g>
            </g>
        </g>
    </g>
</svg>