<?xml version="1.0" encoding="UTF-8" standalone="no"?>
<svg width="34px" height="34px" viewBox="0 0 34 34" version="1.1" xmlns="http://www.w3.org/2000/svg" xmlns:xlink="http://www.w3.org/1999/xlink" xmlns:sketch="http://www.bohemiancoding.com/sketch/ns">
    <!-- Generator: Sketch 3.3.3 (12081) - http://www.bohemiancoding.com/sketch -->
    <title>icon1</title>
    <desc>Created with Sketch.</desc>
    <defs></defs>
    <g id="Page-1" stroke="none" stroke-width="1" fill="none" fill-rule="evenodd" sketch:type="MSPage">
        <g id="课程介绍-选修课程" sketch:type="MSArtboardGroup" transform="translate(-104.000000, -616.000000)" fill="#727580">
            <g id="Group-Copy" sketch:type="MSLayerGroup" transform="translate(106.000000, 604.000000)">
                <g id="招生人群-+-所有在职java开发工程师-+-icon1" transform="translate(-2.000000, 3.000000)" sketch:type="MSShapeGroup">
                    <g id="icon1" transform="translate(0.000000, 9.000000)">
                        <path d="M33.9700587,29.6452055 C33.9634051,29.5320939 33.7604697,26.8540117 32.6127202,23.7201566 C31.721135,21.2915851 29.7882583,20.330137 28.6338552,19.7579256 C28.51409,19.6980431 28.3776908,19.6315068 28.2545988,19.5649706 C29.7217221,18.8530333 30.9759295,17.7751468 31.9007828,16.4178082 C32.9454012,14.8841487 33.5043053,13.0876712 33.5109589,11.2246575 C33.5242661,8.73287671 32.5594912,6.38414873 30.792955,4.6109589 C29.0463796,2.85440313 26.727593,1.87964775 24.2624266,1.8630137 C24.0761252,1.83972603 23.6702544,1.81311155 23.1778865,1.89295499 C22.5890411,1.48708415 21.960274,1.1444227 21.2982387,0.861643836 C20.0207436,0.316046967 18.6667319,0.0299412916 17.2727984,0.00665362035 C17.2528376,0.00665362035 17.2295499,0.00332681018 17.2062622,0.00332681018 L17.2062622,0.00332681018 L17.1463796,0.00332681018 L17.0864971,0.00332681018 C17.0632094,0.00332681018 17.0432485,0.00332681018 17.0199609,0.00665362035 C15.6260274,0.0299412916 14.2753425,0.316046967 12.9945205,0.861643836 C12.3058708,1.15440313 11.6571429,1.51369863 11.0516634,1.93620352 C10.4594912,1.80313112 9.95381605,1.83972603 9.73757339,1.8630137 C7.27240705,1.87964775 4.95362035,2.85440313 3.20704501,4.6109589 C1.44383562,6.38414873 0.479060665,8.73287671 0.489041096,11.2246575 C0.499021526,13.0876712 1.05459883,14.8841487 2.09921722,16.4178082 C3.02407045,17.7751468 4.27827789,18.8563601 5.74540117,19.5649706 C5.6223092,19.6315068 5.48258317,19.6980431 5.36614481,19.7579256 C4.21174168,20.330137 2.28219178,21.2915851 1.39060665,23.7201566 C0.239530333,26.8540117 0.0399217221,29.5320939 0.0299412916,29.6452055 C-0.00998043053,30.2041096 0.409197652,30.6864971 0.968101761,30.7264188 C0.991389432,30.7297456 1.01800391,30.7297456 1.04129159,30.7297456 C1.56692759,30.7297456 2.01272016,30.3238748 2.05264188,29.7882583 C2.05596869,29.7649706 2.24559687,27.269863 3.29354207,24.4187867 C3.90567515,22.7454012 5.21643836,22.0966732 6.27103718,21.5710372 C6.80332681,21.3048924 7.26575342,21.0786693 7.58180039,20.7260274 C8.02426614,20.2336595 8.18062622,19.611546 8.00763209,19.0260274 C7.85792564,18.5203523 7.48864971,18.1111546 6.99295499,17.9015656 C4.28825832,16.7671233 2.53170254,14.1422701 2.5183953,11.2113503 C2.50841487,9.26183953 3.26360078,7.42544031 4.64422701,6.03816047 C5.80195695,4.87710372 7.27240705,4.1518591 8.86594912,3.94559687 C8.19726027,4.75733855 7.65166341,5.65890411 7.24246575,6.63365949 C6.68023483,7.97103718 6.39745597,9.39158513 6.4074364,10.8520548 C6.41741683,13.0111546 7.062818,15.0937378 8.27710372,16.8702544 C9.4148728,18.5403131 10.9818004,19.8510763 12.8215264,20.6661448 C12.635225,20.7825832 12.3125245,20.9455969 12.0563601,21.0720157 C10.7189824,21.7373777 8.48336595,22.8485323 7.45870841,25.6430528 C6.11135029,29.3125245 5.87847358,32.4463796 5.86849315,32.5761252 C5.82857143,33.1350294 6.24774951,33.6174168 6.80665362,33.6573386 C6.82994129,33.6606654 6.85655577,33.6606654 6.87984344,33.6606654 C7.40547945,33.6606654 7.85127202,33.2514677 7.89119374,32.7191781 C7.89452055,32.6892368 8.12074364,29.7283757 9.36164384,26.341683 C10.1101761,24.3023483 11.690411,23.5172211 12.9612524,22.888454 C13.5966732,22.572407 14.1023483,22.3228963 14.4516634,21.9336595 C14.9373777,21.3913894 15.1037182,20.7426614 14.91409,20.1005871 C14.7544031,19.5549902 14.3551859,19.1158513 13.8195695,18.8896282 C12.2526419,18.2309198 10.9152642,17.139726 9.95381605,15.7291585 C8.96908023,14.2853229 8.44677104,12.5953033 8.43679061,10.8420744 C8.42681018,8.49667319 9.33502935,6.28434442 10.9951076,4.61428571 C12.6418787,2.96086106 14.8242661,2.04266145 17.1463796,2.02935421 C19.0293542,2.04266145 20.8225049,2.6481409 22.309589,3.7592955 C22.3295499,3.77592955 22.3495108,3.78923679 22.3694716,3.80587084 C22.695499,4.05205479 23.0048924,4.32485323 23.2976517,4.61761252 C24.9610568,6.28767123 25.8692759,8.5 25.8559687,10.8454012 C25.8459883,12.5986301 25.3236791,14.2886497 24.3389432,15.7324853 C23.3774951,17.1430528 22.0401174,18.2375734 20.4731898,18.892955 C19.9375734,19.1158513 19.541683,19.558317 19.3786693,20.1039139 C19.1890411,20.7459883 19.3553816,21.3947162 19.8410959,21.9369863 C20.190411,22.3262231 20.6927593,22.5757339 21.3315068,22.8917808 C22.6023483,23.5238748 24.1825832,24.309002 24.9311155,26.3450098 C26.1686888,29.7117417 26.3982387,32.6592955 26.4015656,32.7225049 C26.4381605,33.2581213 26.883953,33.6639922 27.4129159,33.6639922 C27.4362035,33.6639922 27.462818,33.6639922 27.4861057,33.6606654 C28.0450098,33.6207436 28.4641879,33.1350294 28.4242661,32.5794521 C28.4142857,32.4463796 28.181409,29.3158513 26.8340509,25.6463796 C25.8093933,22.8518591 23.5704501,21.7373777 22.2363992,21.0753425 C21.9835616,20.9489237 21.6575342,20.78591 21.4712329,20.6694716 C23.3076321,19.8510763 24.8778865,18.5436399 26.0156556,16.8735812 C27.2266145,15.0937378 27.8720157,13.0144814 27.8853229,10.8553816 C27.8919765,9.39491194 27.6125245,7.9776908 27.0502935,6.6369863 C26.6477495,5.68219178 26.1187867,4.79726027 25.4667319,3.99882583 C26.9305284,4.25499022 28.2812133,4.96027397 29.3590998,6.04148728 C30.739726,7.42876712 31.4949119,9.26516634 31.4849315,11.2146771 C31.4716243,14.1455969 29.7150685,16.7704501 27.0136986,17.9048924 C26.5180039,18.1144814 26.148728,18.5236791 25.9990215,19.0293542 C25.8260274,19.6181996 25.9823875,20.2369863 26.4248532,20.7293542 C26.7409002,21.0819961 27.2033268,21.311546 27.7356164,21.574364 C28.7868885,22.0966732 30.0976517,22.748728 30.7131115,24.4221135 C31.7610568,27.2731898 31.9506849,29.7682975 31.9540117,29.7915851 C31.9906067,30.3238748 32.4363992,30.7330724 32.965362,30.7330724 C32.9886497,30.7330724 33.0152642,30.7330724 33.0385519,30.7297456 C33.5874755,30.6898239 34.0099804,30.2041096 33.9700587,29.6452055 L33.9700587,29.6452055 Z" id="XMLID_5_"></path>
                    </g>
                </g>
            </g>
        </g>
    </g>
</svg>