<?xml version="1.0" encoding="UTF-8" standalone="no"?>
<svg width="88px" height="34px" viewBox="0 0 88 34" version="1.1" xmlns="http://www.w3.org/2000/svg" xmlns:xlink="http://www.w3.org/1999/xlink" xmlns:sketch="http://www.bohemiancoding.com/sketch/ns">
    <!-- Generator: Sketch 3.3.3 (12081) - http://www.bohemiancoding.com/sketch -->
    <title>Imported Layers Copy 5</title>
    <desc>Created with Sketch.</desc>
    <defs>
        <path d="M10.2134658,0.534677419 C4.85147826,0.534677419 0.504496894,4.87406452 0.504496894,10.226871 L0.511602484,21.9612581 L6.21629814,19.0630323 C7.43518012,19.6130645 8.78852174,19.9196129 10.2134658,19.9196129 C15.576,19.9196129 19.9224348,15.5802258 19.9224348,10.226871 C19.9224348,4.87406452 15.576,0.534677419 10.2134658,0.534677419 L10.2134658,0.534677419 Z M10.2134658,14.1039677 C8.06867081,14.1039677 6.32998758,12.3683226 6.32998758,10.226871 C6.32998758,8.08596774 8.06867081,6.34977419 10.2134658,6.34977419 C12.3582609,6.34977419 14.0974907,8.08596774 14.0974907,10.226871 C14.0974907,12.3683226 12.3582609,14.1039677 10.2134658,14.1039677 L10.2134658,14.1039677 Z" id="path-1"></path>
    </defs>
    <g id="Page-1" stroke="none" stroke-width="1" fill="none" fill-rule="evenodd" sketch:type="MSPage">
        <g id="首页-copy" sketch:type="MSArtboardGroup" transform="translate(-47.000000, -32.000000)">
            <g id="Rectangle-1-Copy-3-+-Group-+-Group-+-iconfont-down-+-Group-+-@Specs" sketch:type="MSLayerGroup" transform="translate(0.000000, -1.000000)">
                <g id="Rectangle-1-Copy-3-+-Group-+-Group-+-iconfont-down-+-Group">
                    <g id="Imported-Layers-Copy-5" transform="translate(47.000000, 33.000000)">
                        <path d="M11.9160745,0.608709677 L7.99488199,0.606516129 L0.218086957,21.9612581 L6.04521739,21.9596129 L7.35647205,18.0337097 L12.5003727,18.0337097 L13.780472,21.9146452 C13.7799255,21.9146452 14.0390062,21.9157419 14.2751304,21.9173871 C14.3642236,21.9179355 14.4494907,21.9184839 14.5467826,21.9190323 L19.6731925,21.9491935 L11.9160745,0.608709677 L11.9160745,0.608709677 Z M8.65570186,14.1450968 L9.94509317,10.285 L11.218087,14.1450968 L8.65570186,14.1450968 L8.65570186,14.1450968 Z" id="Fill-1" fill="#FFFFFF" sketch:type="MSShapeGroup"></path>
                        <path d="M42.9882733,0.578548387 L37.2218137,0.605419355 L37.2250932,12.1626774 L29.4411925,0.598290323 L23.6643478,0.542354839 L23.619528,21.9212258 L29.3275031,21.9310968 L29.4122236,10.3233871 L37.2693665,21.9310968 L43.0593292,21.9343871 L42.9882733,0.578548387" id="Fill-2" fill="#FFFFFF" sketch:type="MSShapeGroup"></path>
                        <path d="M42.9882733,0.578548387 L37.2218137,0.605419355 L37.2250932,12.1626774 L29.4411925,0.598290323 L23.6643478,0.542354839 L23.619528,21.9212258 L29.3275031,21.9310968 L29.4122236,10.3233871 L37.2693665,21.9310968 L43.0593292,21.9343871 L42.9882733,0.578548387" id="Fill-3" fill="#FFFFFF" sketch:type="MSShapeGroup"></path>
                        <path d="M64.4427826,0.534677419 L46.9132919,0.534677419 L46.9132919,6.36787097 L52.7562733,6.36787097 L52.7562733,21.922871 L58.5998012,21.922871 L58.5998012,6.36787097 L64.4427826,6.36787097 L64.4427826,0.534677419" id="Fill-4" fill="#FFFFFF" sketch:type="MSShapeGroup"></path>
                        <g id="Group-7" transform="translate(67.776398, 0.000000)">
                            <mask id="mask-2" sketch:name="Clip 6" fill="white">
                                <use xlink:href="#path-1"></use>
                            </mask>
                            <use id="Clip-6" fill="#FE5F46" sketch:type="MSShapeGroup" xlink:href="#path-1"></use>
                            <path d="M10.2134658,0.534677419 C4.85147826,0.534677419 0.504496894,4.87406452 0.504496894,10.226871 L0.511602484,21.9612581 L6.21629814,19.0630323 C7.43518012,19.6130645 8.78852174,19.9196129 10.2134658,19.9196129 C15.576,19.9196129 19.9224348,15.5802258 19.9224348,10.226871 C19.9224348,4.87406452 15.576,0.534677419 10.2134658,0.534677419 L10.2134658,0.534677419 Z M10.2134658,14.1039677 C8.06867081,14.1039677 6.32998758,12.3683226 6.32998758,10.226871 C6.32998758,8.08596774 8.06867081,6.34977419 10.2134658,6.34977419 C12.3582609,6.34977419 14.0974907,8.08596774 14.0974907,10.226871 C14.0974907,12.3683226 12.3582609,14.1039677 10.2134658,14.1039677 L10.2134658,14.1039677 Z" id="Fill-5" sketch:type="MSShapeGroup" mask="url(#mask-2)"></path>
                        </g>
                        <path d="M0.859776398,26.4722903 L9.20665839,26.4722903 L9.20665839,26.8117419 L0.859776398,26.8117419 L0.859776398,26.4722903 Z M1.38613665,27.7549677 L4.88263354,27.7549677 L4.88263354,33.4889032 L3.56700621,33.4889032 L3.3035528,33.1867419 L4.50713043,33.1867419 L4.50713043,31.7532581 L1.76218634,31.7532581 L1.76218634,33.4132258 L1.38613665,33.4132258 L1.38613665,27.7549677 L1.38613665,27.7549677 Z M1.76218634,29.6030323 L4.50658385,29.6030323 L4.50658385,28.093871 L1.76218634,28.093871 L1.76218634,29.6030323 Z M1.76218634,31.4138065 L4.50658385,31.4138065 L4.50658385,29.9424839 L1.76218634,29.9424839 L1.76218634,31.4138065 Z M2.74002484,25.5669032 L3.15324224,25.5669032 L3.75503106,26.2836452 L3.34126708,26.2836452 L2.74002484,25.5669032 L2.74002484,25.5669032 Z M6.19880745,28.0944194 L6.53714286,28.0944194 L6.53714286,32.2440645 L6.19880745,32.2440645 L6.19880745,28.0944194 Z M6.95090683,25.5669032 L7.36412422,25.5669032 L6.64973913,26.4722903 L6.23652174,26.4722903 L6.95090683,25.5669032 L6.95090683,25.5669032 Z M7.17609938,33.4889032 L6.95090683,33.1489032 L8.26653416,33.1489032 L8.26653416,27.6414516 L8.64258385,27.6414516 L8.64258385,33.4889032 L7.17609938,33.4889032 L7.17609938,33.4889032 Z" id="Fill-8" fill="#FFFFFF" sketch:type="MSShapeGroup"></path>
                        <path d="M16.1892671,32.5456774 L17.9563727,32.1683871 L18.5204472,27.8300968 L18.8964969,27.8300968 L18.3324224,32.0927097 L19.2348323,31.9419032 L19.2348323,32.2813548 L16.1892671,32.885129 L16.1892671,32.5456774 L16.1892671,32.5456774 Z M16.3018634,26.8874194 L17.7306335,26.8874194 L17.2797019,25.5669032 L17.6557516,25.5669032 L18.0689689,26.8874194 L19.3474286,26.8874194 L19.3474286,27.226871 L16.3018634,27.226871 L16.3018634,26.8874194 L16.3018634,26.8874194 Z M16.9036522,27.8300968 L17.2419876,31.5646129 L16.8659379,31.5646129 L16.5276025,27.8300968 L16.9036522,27.8300968 L16.9036522,27.8300968 Z M22.9947826,30.3954516 L22.9947826,33.1867419 L22.6187329,33.1867419 L22.6187329,30.3954516 L21.4905839,30.3954516 L21.4905839,33.1867419 L21.1145342,33.1867419 L21.1145342,30.3954516 L19.9869317,30.3954516 L19.9869317,33.5261935 L19.610882,33.5261935 L19.610882,30.056 L21.8289193,30.056 L22.0546584,28.9619677 L19.610882,28.9619677 L19.610882,28.6225161 L24.7241739,28.6225161 L24.7241739,28.9619677 L22.4307081,28.9619677 L22.2049689,30.056 L24.5738634,30.056 L24.5738634,33.4889032 L23.7091677,33.4889032 L23.5205963,33.1116129 L24.1978137,33.1116129 L24.1978137,30.3954516 L22.9947826,30.3954516 L22.9947826,30.3954516 Z M22.3175652,25.4917742 L22.3175652,27.4528065 L24.1600994,27.4528065 L24.1600994,25.8312258 L24.5361491,25.8312258 L24.5361491,27.7928065 L19.7234783,27.7928065 L19.7234783,25.8312258 L20.099528,25.8312258 L20.099528,27.4528065 L21.9420621,27.4528065 L21.9420621,25.4917742 L22.3175652,25.4917742 L22.3175652,25.4917742 Z" id="Fill-9" fill="#FFFFFF" sketch:type="MSShapeGroup"></path>
                        <path d="M31.8948075,30.1689677 L33.2481491,29.7165484 L33.2481491,27.5284839 L31.8948075,27.5284839 L31.8948075,27.1890323 L33.2481491,27.1890323 L33.2481491,25.6425806 L33.6241988,25.6425806 L33.6241988,27.1890323 L34.7146335,27.1890323 L34.7146335,27.5284839 L33.6241988,27.5284839 L33.6241988,29.6030323 L34.7146335,29.2262903 L34.7146335,29.6030323 L33.6241988,29.9803226 L33.6241988,33.5640323 L32.4960497,33.5640323 L32.2708571,33.2245806 L33.2481491,33.2245806 L33.2481491,30.0938387 L31.8948075,30.5840968 L31.8948075,30.1689677 L31.8948075,30.1689677 Z M36.1434037,29.2262903 L37.5721739,30.6597742 L39.3392795,28.924129 L35.0906832,28.924129 L35.0906832,28.5846774 L37.3841491,28.5846774 L37.3841491,27.0760645 L35.0906832,27.0760645 L35.0906832,26.7366129 L37.3841491,26.7366129 L37.3841491,25.6425806 L37.7601988,25.6425806 L37.7601988,26.7366129 L40.2416894,26.7366129 L40.2416894,27.0760645 L37.7601988,27.0760645 L37.7601988,28.5846774 L40.2039752,28.5846774 L37.8350807,30.9235484 L40.3165714,33.601871 L39.7902112,33.601871 L37.5721739,31.1873226 L35.3158758,33.601871 L34.7895155,33.601871 L37.3087205,30.9235484 L35.6547578,29.2262903 L36.1434037,29.2262903 L36.1434037,29.2262903 Z" id="Fill-10" fill="#FFFFFF" sketch:type="MSShapeGroup"></path>
                        <path d="M52.0364224,27.9436129 L52.0364224,33.4889032 L51.6609193,33.4889032 L51.6609193,27.9436129 L51.0214161,27.9436129 L48.2393043,33.1116129 L47.7883727,33.1116129 L50.5704845,27.9436129 L47.7883727,27.9436129 L47.7883727,27.6041613 L51.6609193,27.6041613 L51.6609193,25.5669032 L52.0364224,25.5669032 L52.0364224,27.6041613 L55.7963727,27.6041613 L55.7963727,27.9436129 L53.0891429,27.9436129 L55.7963727,33.1116129 L55.3831553,33.1116129 L52.6382112,27.9436129 L52.0364224,27.9436129 L52.0364224,27.9436129 Z M53.3525963,25.6425806 L55.3831553,26.4722903 L55.3831553,26.8874194 L53.3525963,26.0571613 L53.3525963,25.6425806 L53.3525963,25.6425806 Z" id="Fill-11" fill="#FFFFFF" sketch:type="MSShapeGroup"></path>
                        <path d="M70.0354286,28.4717097 L70.0354286,28.7354839 L68.193441,30.3197742 L68.193441,30.6597742 L71.4641988,30.6597742 L71.4641988,30.9992258 L68.193441,30.9992258 L68.193441,33.601871 L65.7119503,33.601871 L65.4484969,33.2624194 L67.8173913,33.2624194 L67.8173913,30.9992258 L63.2681739,30.9992258 L63.2681739,30.6597742 L67.8173913,30.6597742 L67.8173913,30.131129 L69.3587578,28.8111613 L65.0724472,28.8111613 L65.0724472,28.4717097 L70.0354286,28.4717097 L70.0354286,28.4717097 Z M71.3516025,26.7739032 L71.3516025,28.7354839 L70.9755528,28.7354839 L70.9755528,27.1139032 L63.9448447,27.1139032 L63.9448447,28.7354839 L63.568795,28.7354839 L63.568795,26.7739032 L71.3516025,26.7739032 L71.3516025,26.7739032 Z M64.8095404,25.5669032 L65.5988075,26.5852581 L65.1855901,26.5852581 L64.4334907,25.5669032 L64.8095404,25.5669032 L64.8095404,25.5669032 Z M67.2156025,25.5669032 L67.9677019,26.5852581 L67.5539379,26.5852581 L66.8023851,25.5669032 L67.2156025,25.5669032 L67.2156025,25.5669032 Z M70.787528,25.5669032 L69.9605466,26.7739032 L69.5467826,26.7739032 L70.373764,25.5669032 L70.787528,25.5669032 L70.787528,25.5669032 Z" id="Fill-12" fill="#FFFFFF" sketch:type="MSShapeGroup"></path>
                        <path d="M79.1994534,26.2836452 L79.1994534,33.5261935 L78.8234037,33.5261935 L78.8234037,25.9441935 L81.2671801,25.9441935 L80.1390311,29.1127742 L79.7258137,29.1127742 L80.7408199,26.2836452 L79.1994534,26.2836452 L79.1994534,26.2836452 Z M79.4623602,32.6208065 L80.5905093,32.6208065 L80.5905093,29.0749355 L80.966559,29.0749355 L80.966559,32.9602581 L79.7258137,32.9602581 L79.4623602,32.6208065 L79.4623602,32.6208065 Z M87.0199752,31.6402903 L86.9445466,33.4889032 L84.7259627,33.4889032 L84.7259627,30.0938387 L83.8989814,30.0938387 L81.8689689,33.5261935 L81.3797764,33.5261935 L83.485764,30.0938387 L81.7558261,30.0938387 L81.7558261,29.7543871 L86.9445466,29.7543871 L86.9445466,30.0938387 L85.1020124,30.0938387 L85.1020124,33.1116129 L86.5684969,33.1116129 L86.6439255,31.4138065 L87.0199752,31.6402903 L87.0199752,31.6402903 Z M84.1247205,25.6425806 L84.4630559,26.1706774 L87.0571429,26.1706774 L87.0571429,27.5663226 L86.6816398,27.5663226 L86.6816398,26.5479677 L81.9438509,26.5479677 L81.9438509,27.5663226 L81.5678012,27.5663226 L81.5678012,26.1706774 L84.0492919,26.1706774 L83.7109565,25.6425806 L84.1247205,25.6425806 L84.1247205,25.6425806 Z M82.0569938,27.9057742 L86.5313292,27.9057742 L86.5313292,28.2452258 L82.0569938,28.2452258 L82.0569938,27.9057742 Z" id="Fill-13" fill="#FFFFFF" sketch:type="MSShapeGroup"></path>
                    </g>
                </g>
            </g>
        </g>
    </g>
</svg>