<?xml version="1.0" encoding="UTF-8" standalone="no"?>
<svg width="168px" height="173px" viewBox="0 0 168 173" version="1.1" xmlns="http://www.w3.org/2000/svg" xmlns:xlink="http://www.w3.org/1999/xlink" xmlns:sketch="http://www.bohemiancoding.com/sketch/ns">
    <!-- Generator: Sketch 3.3.3 (12081) - http://www.bohemiancoding.com/sketch -->
    <title>Rectangle 16 + Group</title>
    <desc>Created with Sketch.</desc>
    <defs>
        <path d="M87.5457851,27.3612367 C76.7512066,27.3612367 68,36.092909 68,46.8646389 L68.0140496,70.4752068 L79.4987438,64.6430088 C81.9529256,65.7509517 84.6774215,66.3674775 87.5457851,66.3674775 C98.3409256,66.3674775 107.092132,57.6358052 107.092132,46.8646389 C107.092132,36.092909 98.3409256,27.3612367 87.5457851,27.3612367 Z M87.5457851,54.665887 C83.2280661,54.665887 79.7274711,51.1729927 79.7274711,46.8646389 C79.7274711,42.5557215 83.2280661,39.0633907 87.5457851,39.0633907 C91.8640661,39.0633907 95.3640992,42.5557215 95.3640992,46.8646389 C95.3640992,51.1729927 91.8640661,54.665887 87.5457851,54.665887 Z" id="path-1"></path>
    </defs>
    <g id="Page-1" stroke="none" stroke-width="1" fill="none" fill-rule="evenodd" sketch:type="MSPage">
        <g id="首页-copy" sketch:type="MSArtboardGroup" transform="translate(-548.000000, -1928.000000)">
            <g id="Rectangle-16-+-Group" sketch:type="MSLayerGroup" transform="translate(548.000000, 1928.000000)">
                <rect id="Rectangle-16" fill="#212E44" sketch:type="MSShapeGroup" x="80.9781091" y="0.947930019" width="10" height="37" rx="5"></rect>
                <g id="Group" transform="translate(0.000000, 38.000000)">
                    <circle id="Oval-18" stroke="#212E44" stroke-width="12" fill="#364A6B" sketch:type="MSShapeGroup" cx="86" cy="49" r="49"></circle>
                    <rect id="Rectangle-16-Copy-8" fill="#212E44" sketch:type="MSShapeGroup" x="81" y="98" width="10" height="37" rx="5"></rect>
                    <rect id="Rectangle-16-Copy" fill="#212E44" sketch:type="MSShapeGroup" transform="translate(149.216797, 52.289062) rotate(-270.000000) translate(-149.216797, -52.289062) " x="144.216797" y="33.7890625" width="10" height="37" rx="5"></rect>
                    <rect id="Rectangle-16-Copy-9" fill="#212E44" sketch:type="MSShapeGroup" transform="translate(18.500000, 52.289062) rotate(-270.000000) translate(-18.500000, -52.289062) " x="13.5" y="33.7890625" width="10" height="37" rx="5"></rect>
                    <mask id="mask-2" sketch:name="Clip 2 Copy" fill="white">
                        <use xlink:href="#path-1"></use>
                    </mask>
                    <use id="Clip-2-Copy" opacity="0.624358675" fill="#212E44" sketch:type="MSShapeGroup" xlink:href="#path-1"></use>
                </g>
            </g>
        </g>
    </g>
</svg>