<?xml version="1.0" encoding="UTF-8" standalone="no"?>
<svg width="46px" height="46px" viewBox="0 0 46 46" version="1.1" xmlns="http://www.w3.org/2000/svg" xmlns:xlink="http://www.w3.org/1999/xlink" xmlns:sketch="http://www.bohemiancoding.com/sketch/ns">
    <!-- Generator: Sketch 3.3.3 (12081) - http://www.bohemiancoding.com/sketch -->
    <title>Rectangle 5 Copy 7 + Shape</title>
    <desc>Created with Sketch.</desc>
    <defs></defs>
    <g id="Page-1" stroke="none" stroke-width="1" fill="none" fill-rule="evenodd" sketch:type="MSPage">
        <g id="首页-copy" sketch:type="MSArtboardGroup" transform="translate(-922.000000, -1349.000000)">
            <g id="Rectangle-5-Copy-7-+-Shape" sketch:type="MSLayerGroup" transform="translate(922.000000, 1349.000000)">
                <rect id="Rectangle-5-Copy-7" opacity="0.486240672" fill-opacity="0.221240942" fill="#182741" sketch:type="MSShapeGroup" x="0.0948922928" y="0.0378807773" width="45.3606485" height="45.9621192" rx="5"></rect>
                <path d="M4.09489229,5.0441279 L4.09489229,5.0441279 L4.09489229,40.9937529 C4.09489229,41.5460499 4.54839853,42 5.10079133,42 L40.4496417,42 C41.0089702,42 41.4555408,41.5529513 41.4555408,40.9937529 L41.4555408,5.0441279 C41.4555408,4.49183088 41.0020345,4.03788078 40.4496417,4.03788078 L5.10079133,4.03788078 C4.54146281,4.03788078 4.09489229,4.48492944 4.09489229,5.0441279 L4.09489229,5.0441279 Z M0.0948922928,5.0441279 C0.0948922928,2.27925396 2.32886183,0.0378807773 5.10079133,0.0378807773 L40.4496417,0.0378807773 C43.2143234,0.0378807773 45.4555408,2.28584306 45.4555408,5.0441279 L45.4555408,40.9937529 C45.4555408,43.7586268 43.2215712,46 40.4496417,46 L5.10079133,46 C2.33610963,46 0.0948922928,43.7520377 0.0948922928,40.9937529 L0.0948922928,5.0441279 L0.0948922928,5.0441279 Z" id="Shape" fill-opacity="0.336701766" fill="#364A6B" sketch:type="MSShapeGroup"></path>
            </g>
        </g>
    </g>
</svg>