<?xml version="1.0" encoding="utf-8"?>
<!-- Generator: Adobe Illustrator 19.0.0, SVG Export Plug-In . SVG Version: 6.00 Build 0)  -->
<svg version="1.1" id="图层_1" xmlns:sketch="http://www.bohemiancoding.com/sketch/ns"
	 xmlns="http://www.w3.org/2000/svg" xmlns:xlink="http://www.w3.org/1999/xlink" x="0px" y="0px" viewBox="-318 410 387 205"
	 style="enable-background:new -318 410 387 205;" xml:space="preserve">
<style type="text/css">
	.st0{filter:url(#Adobe_OpacityMaskFilter);}
	.st1{fill:#FFFFFF;}
	.st2{mask:url(#mask-136_1_);fill:#42EDFF;}
	.st3{filter:url(#Adobe_OpacityMaskFilter_1_);}
	.st4{mask:url(#mask-138_1_);fill:#42EDFF;}
	.st5{filter:url(#Adobe_OpacityMaskFilter_2_);}
	.st6{mask:url(#mask-140_1_);fill:#FFB803;}
	.st7{filter:url(#Adobe_OpacityMaskFilter_3_);}
	.st8{mask:url(#mask-142_1_);fill:#FFB803;}
	.st9{filter:url(#Adobe_OpacityMaskFilter_4_);}
	.st10{mask:url(#mask-144_1_);fill:#FFDD03;}
	.st11{filter:url(#Adobe_OpacityMaskFilter_5_);}
	.st12{mask:url(#mask-146_1_);fill:#F9BB10;}
	.st13{filter:url(#Adobe_OpacityMaskFilter_6_);}
	.st14{mask:url(#mask-148_1_);fill:#F88C17;}
	.st15{filter:url(#Adobe_OpacityMaskFilter_7_);}
	.st16{mask:url(#mask-150_1_);fill:#FFAB03;}
	.st17{filter:url(#Adobe_OpacityMaskFilter_8_);}
	.st18{mask:url(#mask-152_1_);fill:#FFAB03;}
	.st19{filter:url(#Adobe_OpacityMaskFilter_9_);}
	.st20{mask:url(#mask-154_1_);fill:#FFAB03;}
	.st21{filter:url(#Adobe_OpacityMaskFilter_10_);}
	.st22{mask:url(#mask-156_1_);fill:#FFAB03;}
	.st23{filter:url(#Adobe_OpacityMaskFilter_11_);}
	.st24{mask:url(#mask-158_1_);fill:#FFAB03;}
	.st25{filter:url(#Adobe_OpacityMaskFilter_12_);}
	.st26{mask:url(#mask-160_1_);fill:#FFAB03;}
	.st27{filter:url(#Adobe_OpacityMaskFilter_13_);}
	.st28{mask:url(#mask-162_1_);fill:#FFAB03;}
	.st29{filter:url(#Adobe_OpacityMaskFilter_14_);}
	.st30{mask:url(#mask-164_1_);fill:#FFAB03;}
	.st31{filter:url(#Adobe_OpacityMaskFilter_15_);}
	.st32{mask:url(#mask-168_1_);fill:#D46F01;}
	.st33{filter:url(#Adobe_OpacityMaskFilter_16_);}
	.st34{mask:url(#mask-170_1_);fill:#D46F01;}
	.st35{filter:url(#Adobe_OpacityMaskFilter_17_);}
	.st36{mask:url(#mask-172_1_);fill:#FFFFFF;}
	.st37{filter:url(#Adobe_OpacityMaskFilter_18_);}
	.st38{mask:url(#mask-174_1_);fill:#545454;}
	.st39{filter:url(#Adobe_OpacityMaskFilter_19_);}
	.st40{mask:url(#mask-176_1_);fill:#463F3F;}
	.st41{fill:#E34747;}
	.st42{filter:url(#Adobe_OpacityMaskFilter_20_);}
	.st43{mask:url(#mask-178_1_);fill:#B0541A;}
	.st44{filter:url(#Adobe_OpacityMaskFilter_21_);}
	.st45{mask:url(#mask-180_1_);fill:#A1D57F;}
	.st46{fill:#B0FFF2;}
	.st47{filter:url(#Adobe_OpacityMaskFilter_22_);}
	.st48{mask:url(#mask-182_1_);fill:#F9BB10;}
	.st49{filter:url(#Adobe_OpacityMaskFilter_23_);}
	.st50{mask:url(#mask-166_1_);fill:#F88C17;}
</style>
<title>Group</title>
<desc>Created with Sketch.</desc>
<g>
	<g id="Group-54" transform="translate(39.833616, 169.224454)">
		<g id="Clip-53">
		</g>
		<defs>
			<filter id="Adobe_OpacityMaskFilter" filterUnits="userSpaceOnUse" x="-268.6" y="430.9" width="29.5" height="12.8">
				<feColorMatrix  type="matrix" values="1 0 0 0 0  0 1 0 0 0  0 0 1 0 0  0 0 0 1 0"/>
			</filter>
		</defs>
		<mask maskUnits="userSpaceOnUse" x="-268.6" y="430.9" width="29.5" height="12.8" id="mask-136_1_">
			<g class="st0">
				<path id="path-135_1_" class="st1" d="M-263.8,436.4c-4.8,2.7,2.3,7.4,6.2,7.4c3.9,0,2.9-1.5,8.6-3.2c5.8-1.7,6.6-0.2,8.2-3
					c1.6-2.8-3-6.7-5.3-6.7C-248.3,430.9-259,433.6-263.8,436.4L-263.8,436.4z"/>
			</g>
		</mask>
		<path id="Fill-52" sketch:type="MSShapeGroup" class="st2" d="M-268.6,430.9h29.5v12.8h-29.5V430.9z"/>
	</g>
	<g id="Group-57" transform="translate(120.268792, 170.373921)">
		<g id="Clip-56">
		</g>
		<defs>
			<filter id="Adobe_OpacityMaskFilter_1_" filterUnits="userSpaceOnUse" x="-257.5" y="431.1" width="24.4" height="13.5">
				<feColorMatrix  type="matrix" values="1 0 0 0 0  0 1 0 0 0  0 0 1 0 0  0 0 0 1 0"/>
			</filter>
		</defs>
		<mask maskUnits="userSpaceOnUse" x="-257.5" y="431.1" width="24.4" height="13.5" id="mask-138_1_">
			<g class="st3">
				<path id="path-137_1_" class="st1" d="M-234.7,435.2c1.6,0.9,1.4,2.7,1.1,3.9c-0.6,2.6-2.1,5.5-4.8,5.5c-3.9,0-3-2-8.7-3.7
					c-5.8-1.7-7.2-0.1-8.8-2.9c-1.6-2.8,2.5-6.9,4.8-6.9S-239.5,432.5-234.7,435.2L-234.7,435.2z"/>
			</g>
		</mask>
		<path id="Fill-55" sketch:type="MSShapeGroup" class="st4" d="M-257.5,431.1h24.4v13.5h-24.4V431.1z"/>
	</g>
	<g id="Group-60" transform="translate(40.982690, 134.740424)">
		<g id="Clip-59">
		</g>
		<defs>
			<filter id="Adobe_OpacityMaskFilter_2_" filterUnits="userSpaceOnUse" x="-264.4" y="426.9" width="21.9" height="50.5">
				<feColorMatrix  type="matrix" values="1 0 0 0 0  0 1 0 0 0  0 0 1 0 0  0 0 0 1 0"/>
			</filter>
		</defs>
		<mask maskUnits="userSpaceOnUse" x="-264.4" y="426.9" width="21.9" height="50.5" id="mask-140_1_">
			<g class="st5">
				<path id="path-139_1_" class="st1" d="M-261.9,475.2c-0.5-0.3,1.4-3.2,1-3.8c-0.1-0.1-0.7,0.3-1.3,0.8c-1,0.7-2.2,1.5-2.2,0
					c0-2.4,12.9-7.1,14.6-12c2.6-7.4,0.5-28,0.5-28c-0.3-2.9,1.9-5.3,4.9-5.3h-3.4c2.9,0,5.3,2.4,5.3,5.3v35.6
					c0,2.9-2.4,5.3-5.3,5.3h3.4c-2.9,0-7.5,1-10.3,1.9C-254.7,475.1-258.3,477.5-261.9,475.2L-261.9,475.2z"/>
			</g>
		</mask>
		<path id="Fill-58" sketch:type="MSShapeGroup" class="st6" d="M-264.4,426.9h21.9v50.5h-21.9V426.9z"/>
	</g>
	<g id="Group-63" transform="translate(121.417866, 137.039359)">
		<g id="Clip-62">
		</g>
		<defs>
			<filter id="Adobe_OpacityMaskFilter_3_" filterUnits="userSpaceOnUse" x="-255.6" y="426.6" width="21.8" height="50.6">
				<feColorMatrix  type="matrix" values="1 0 0 0 0  0 1 0 0 0  0 0 1 0 0  0 0 0 1 0"/>
			</filter>
		</defs>
		<mask maskUnits="userSpaceOnUse" x="-255.6" y="426.6" width="21.8" height="50.6" id="mask-142_1_">
			<g class="st7">
				<path id="path-141_1_" class="st1" d="M-255.6,431.9c0-2.9,2.4-5.3,5.3-5.3h-3.2c2.9,0,5.3,2.4,5.3,5.3v26.9
					c0,7,14.3,7.7,11.5,12.3c-0.2,0.3-1,0-1.9-0.4c-0.9-0.3-1.7-0.7-2.1-0.4c-0.9,0.8,2.9,1.5,1.8,3.6c-1.7,3.2-4.5,0.9-4.5,0.9
					c-2.7-1.1-7.3-2-10.2-2h3.2c-2.9,0-5.3-2.4-5.3-5.3V431.9L-255.6,431.9z"/>
			</g>
		</mask>
		<path id="Fill-61" sketch:type="MSShapeGroup" class="st8" d="M-255.6,426.6h21.8v50.6h-21.8V426.6z"/>
	</g>
	<g id="Group-66" transform="translate(0.765101, 11.747385)">
		<g id="Clip-65">
		</g>
		<defs>
			<filter id="Adobe_OpacityMaskFilter_4_" filterUnits="userSpaceOnUse" x="-269.3" y="413.2" width="201.8" height="170.8">
				<feColorMatrix  type="matrix" values="1 0 0 0 0  0 1 0 0 0  0 0 1 0 0  0 0 0 1 0"/>
			</filter>
		</defs>
		<mask maskUnits="userSpaceOnUse" x="-269.3" y="413.2" width="201.8" height="170.8" id="mask-144_1_">
			<g class="st9">
				<path id="path-143_1_" class="st1" d="M-165.9,584c53.1,0,98.4-30.6,98.4-77.7s-45.3-93.1-98.4-93.1s-103.4,45.9-103.4,93.1
					S-219,584-165.9,584L-165.9,584z"/>
			</g>
		</mask>
		<path id="Fill-64" sketch:type="MSShapeGroup" class="st10" d="M-269.3,413.2h201.8V584h-201.8V413.2z"/>
	</g>
	<g id="Group-69" transform="translate(52.473429, 112.900539)">
		<g id="Clip-68">
		</g>
		<defs>
			<filter id="Adobe_OpacityMaskFilter_5_" filterUnits="userSpaceOnUse" x="-263.7" y="425" width="83.2" height="33.6">
				<feColorMatrix  type="matrix" values="1 0 0 0 0  0 1 0 0 0  0 0 1 0 0  0 0 0 1 0"/>
			</filter>
		</defs>
		<mask maskUnits="userSpaceOnUse" x="-263.7" y="425" width="83.2" height="33.6" id="mask-146_1_">
			<g class="st11">
				<path id="path-145_1_" class="st1" d="M-242.8,451.1c11.8,7.9,26,10.4,39.6,3.5c8.9-4.5,16-12.5,20-21c1.8-3.7,3-6.4,2.6-8
					c-1-3.5-10.1,9.8-15.5,13.4c-9.6,6.3-15,10.2-30.1,9.6c-5.2-0.2-14.1-3.8-19.1-7.1c-9.3-6.2-16.6-14-18.4-13.8
					c-0.5,0,2.1,4.4,2.9,6.1C-257.1,441.4-249.3,446.7-242.8,451.1"/>
			</g>
		</mask>
		<path id="Fill-67" sketch:type="MSShapeGroup" class="st12" d="M-181.3,425c-2.4,0-10,10.8-14.8,14c-9,5.9-14.3,9.6-27.2,9.6
			c-0.9,0-1.8,0-2.8-0.1c-5.2-0.2-14.1-3.8-19.1-7.1c-9.2-6.2-16.5-13.8-18.4-13.8c0,0,0,0,0,0c-0.5,0,2.1,4.4,2.9,6.1
			c3.6,7.7,11.5,13.1,18,17.4c7.1,4.7,15,7.5,23.2,7.5c5.4,0,11-1.2,16.4-4c8.9-4.5,16-12.5,20-21c1.8-3.7,3-6.4,2.6-8
			C-180.8,425.1-181,425-181.3,425"/>
	</g>
	<g id="Group-72" transform="translate(148.995641, 81.864912)">
		<g id="Clip-71">
		</g>
		<defs>
			<filter id="Adobe_OpacityMaskFilter_6_" filterUnits="userSpaceOnUse" x="-253.5" y="420.4" width="18.4" height="57.6">
				<feColorMatrix  type="matrix" values="1 0 0 0 0  0 1 0 0 0  0 0 1 0 0  0 0 0 1 0"/>
			</filter>
		</defs>
		<mask maskUnits="userSpaceOnUse" x="-253.5" y="420.4" width="18.4" height="57.6" id="mask-148_1_">
			<g class="st13">
				<path id="path-147_1_" class="st1" d="M-244.2,420.4c0,0,2.9,16.5,3.5,24.5c0.6,7.2-1,21.2-1,21.2s6.6,1.5,5.9,4.9
					c-0.7,3.5-5.9-0.8-5.9-0.8s2.1,3.5,0.3,5.6c-1.8,2.1-4.2-6.5-4.2-6.5s-4.1,5.2-6,3.3c-1.9-1.8,1.3-4.2,2.8-5.9
					c0.7-0.8,2.5-11.5,2.2-21.4c-0.3-11.6-2.8-22.7-2.8-22.7L-244.2,420.4L-244.2,420.4z"/>
			</g>
		</mask>
		<path id="Fill-70" sketch:type="MSShapeGroup" class="st14" d="M-253.5,420.4h18.4v57.6h-18.4V420.4z"/>
	</g>
	<g id="Group-75" transform="translate(122.566940, 65.772365)">
		<g id="Clip-74">
		</g>
		<defs>
			<filter id="Adobe_OpacityMaskFilter_7_" filterUnits="userSpaceOnUse" x="-255.2" y="418.7" width="7.5" height="8.5">
				<feColorMatrix  type="matrix" values="1 0 0 0 0  0 1 0 0 0  0 0 1 0 0  0 0 0 1 0"/>
			</filter>
		</defs>
		<mask maskUnits="userSpaceOnUse" x="-255.2" y="418.7" width="7.5" height="8.5" id="mask-150_1_">
			<g class="st15">
				<path id="path-149_1_" class="st1" d="M-251.5,427.3c2.1,0,3.7-1.9,3.7-4.3s-1.7-4.3-3.7-4.3c-2.1,0-3.7,1.9-3.7,4.3
					S-253.6,427.3-251.5,427.3L-251.5,427.3z"/>
			</g>
		</mask>
		<path id="Fill-73" sketch:type="MSShapeGroup" class="st16" d="M-255.2,418.7h7.5v8.5h-7.5V418.7z"/>
	</g>
	<g id="Group-78" transform="translate(126.014162, 47.380883)">
		<g id="Clip-77">
		</g>
		<defs>
			<filter id="Adobe_OpacityMaskFilter_8_" filterUnits="userSpaceOnUse" x="-254.6" y="416.8" width="7.5" height="8.5">
				<feColorMatrix  type="matrix" values="1 0 0 0 0  0 1 0 0 0  0 0 1 0 0  0 0 0 1 0"/>
			</filter>
		</defs>
		<mask maskUnits="userSpaceOnUse" x="-254.6" y="416.8" width="7.5" height="8.5" id="mask-152_1_">
			<g class="st17">
				<path id="path-151_1_" class="st1" d="M-250.9,425.4c2.1,0,3.7-1.9,3.7-4.3c0-2.4-1.7-4.3-3.7-4.3s-3.7,1.9-3.7,4.3
					C-254.6,423.5-252.9,425.4-250.9,425.4L-250.9,425.4z"/>
			</g>
		</mask>
		<path id="Fill-76" sketch:type="MSShapeGroup" class="st18" d="M-254.6,416.8h7.5v8.5h-7.5V416.8z"/>
	</g>
	<g id="Group-81" transform="translate(132.908605, 35.886206)">
		<g id="Clip-80">
		</g>
		<defs>
			<filter id="Adobe_OpacityMaskFilter_9_" filterUnits="userSpaceOnUse" x="-254" y="415.9" width="5.4" height="6.2">
				<feColorMatrix  type="matrix" values="1 0 0 0 0  0 1 0 0 0  0 0 1 0 0  0 0 0 1 0"/>
			</filter>
		</defs>
		<mask maskUnits="userSpaceOnUse" x="-254" y="415.9" width="5.4" height="6.2" id="mask-154_1_">
			<g class="st19">
				<path id="path-153_1_" class="st1" d="M-251.3,422.1c1.5,0,2.7-1.4,2.7-3.1c0-1.7-1.2-3.1-2.7-3.1c-1.5,0-2.7,1.4-2.7,3.1
					C-254,420.7-252.8,422.1-251.3,422.1L-251.3,422.1z"/>
			</g>
		</mask>
		<path id="Fill-79" sketch:type="MSShapeGroup" class="st20" d="M-254,415.9h5.4v6.2h-5.4V415.9z"/>
	</g>
	<g id="Group-84" transform="translate(119.119718, 41.633544)">
		<g id="Clip-83">
		</g>
		<defs>
			<filter id="Adobe_OpacityMaskFilter_10_" filterUnits="userSpaceOnUse" x="-255.9" y="416.4" width="5.4" height="6.2">
				<feColorMatrix  type="matrix" values="1 0 0 0 0  0 1 0 0 0  0 0 1 0 0  0 0 0 1 0"/>
			</filter>
		</defs>
		<mask maskUnits="userSpaceOnUse" x="-255.9" y="416.4" width="5.4" height="6.2" id="mask-156_1_">
			<g class="st21">
				<path id="path-155_1_" class="st1" d="M-253.1,422.6c1.5,0,2.7-1.4,2.7-3.1c0-1.7-1.2-3.1-2.7-3.1c-1.5,0-2.7,1.4-2.7,3.1
					C-255.9,421.2-254.7,422.6-253.1,422.6L-253.1,422.6z"/>
			</g>
		</mask>
		<path id="Fill-82" sketch:type="MSShapeGroup" class="st22" d="M-255.9,416.4h5.4v6.2h-5.4V416.4z"/>
	</g>
	<g id="Group-87" transform="translate(42.131763, 45.081947)">
		<g id="Clip-86">
		</g>
		<defs>
			<filter id="Adobe_OpacityMaskFilter_11_" filterUnits="userSpaceOnUse" x="-265.3" y="416" width="5.4" height="6.2">
				<feColorMatrix  type="matrix" values="1 0 0 0 0  0 1 0 0 0  0 0 1 0 0  0 0 0 1 0"/>
			</filter>
		</defs>
		<mask maskUnits="userSpaceOnUse" x="-265.3" y="416" width="5.4" height="6.2" id="mask-158_1_">
			<g class="st23">
				<path id="path-157_1_" class="st1" d="M-262.6,422.2c1.5,0,2.7-1.4,2.7-3.1s-1.2-3.1-2.7-3.1c-1.5,0-2.7,1.4-2.7,3.1
					S-264.1,422.2-262.6,422.2L-262.6,422.2z"/>
			</g>
		</mask>
		<path id="Fill-85" sketch:type="MSShapeGroup" class="st24" d="M-265.3,416h5.4v6.2h-5.4V416z"/>
	</g>
	<g id="Group-90" transform="translate(135.206753, 55.427156)">
		<g id="Clip-89">
		</g>
		<defs>
			<filter id="Adobe_OpacityMaskFilter_12_" filterUnits="userSpaceOnUse" x="-254.3" y="417.3" width="3.4" height="3.9">
				<feColorMatrix  type="matrix" values="1 0 0 0 0  0 1 0 0 0  0 0 1 0 0  0 0 0 1 0"/>
			</filter>
		</defs>
		<mask maskUnits="userSpaceOnUse" x="-254.3" y="417.3" width="3.4" height="3.9" id="mask-160_1_">
			<g class="st25">
				<path id="path-159_1_" class="st1" d="M-252.6,421.2c0.9,0,1.7-0.9,1.7-1.9s-0.8-1.9-1.7-1.9c-0.9,0-1.7,0.9-1.7,1.9
					S-253.5,421.2-252.6,421.2L-252.6,421.2z"/>
			</g>
		</mask>
		<path id="Fill-88" sketch:type="MSShapeGroup" class="st26" d="M-254.3,417.3h3.4v3.9h-3.4V417.3z"/>
	</g>
	<g id="Group-93" transform="translate(26.044728, 57.726091)">
		<g id="Clip-92">
		</g>
		<defs>
			<filter id="Adobe_OpacityMaskFilter_13_" filterUnits="userSpaceOnUse" x="-266.3" y="417.7" width="3.4" height="3.9">
				<feColorMatrix  type="matrix" values="1 0 0 0 0  0 1 0 0 0  0 0 1 0 0  0 0 0 1 0"/>
			</filter>
		</defs>
		<mask maskUnits="userSpaceOnUse" x="-266.3" y="417.7" width="3.4" height="3.9" id="mask-162_1_">
			<g class="st27">
				<path id="path-161_1_" class="st1" d="M-264.6,421.6c0.9,0,1.7-0.9,1.7-1.9c0-1.1-0.8-1.9-1.7-1.9c-0.9,0-1.7,0.9-1.7,1.9
					C-266.3,420.7-265.6,421.6-264.6,421.6L-264.6,421.6z"/>
			</g>
		</mask>
		<path id="Fill-91" sketch:type="MSShapeGroup" class="st28" d="M-266.3,417.7h3.4v3.9h-3.4V417.7z"/>
	</g>
	<g id="Group-96" transform="translate(138.653975, 70.370236)">
		<g id="Clip-95">
		</g>
		<defs>
			<filter id="Adobe_OpacityMaskFilter_14_" filterUnits="userSpaceOnUse" x="-253.8" y="419.1" width="3.4" height="3.9">
				<feColorMatrix  type="matrix" values="1 0 0 0 0  0 1 0 0 0  0 0 1 0 0  0 0 0 1 0"/>
			</filter>
		</defs>
		<mask maskUnits="userSpaceOnUse" x="-253.8" y="419.1" width="3.4" height="3.9" id="mask-164_1_">
			<g class="st29">
				<path id="path-163_1_" class="st1" d="M-252.1,422.9c0.9,0,1.7-0.9,1.7-1.9c0-1.1-0.8-1.9-1.7-1.9s-1.7,0.9-1.7,1.9
					C-253.8,422.1-253,422.9-252.1,422.9L-252.1,422.9z"/>
			</g>
		</mask>
		<path id="Fill-94" sketch:type="MSShapeGroup" class="st30" d="M-253.8,419.1h3.4v3.9h-3.4V419.1z"/>
	</g>
	<g id="Group-102" transform="translate(120.268792, 157.729777)">
		<g id="Clip-101">
		</g>
		<defs>
			<filter id="Adobe_OpacityMaskFilter_15_" filterUnits="userSpaceOnUse" x="-254.4" y="429.5" width="7.5" height="8.2">
				<feColorMatrix  type="matrix" values="1 0 0 0 0  0 1 0 0 0  0 0 1 0 0  0 0 0 1 0"/>
			</filter>
		</defs>
		<mask maskUnits="userSpaceOnUse" x="-254.4" y="429.5" width="7.5" height="8.2" id="mask-168_1_">
			<g class="st31">
				<path id="path-167_1_" class="st1" d="M-254.4,434v3.7c0,0,2.5-0.4,4.6-1.3c2.1-0.9,3-1.7,3-1.7v-5.3L-254.4,434L-254.4,434z"/>
			</g>
		</mask>
		<path id="Fill-100" sketch:type="MSShapeGroup" class="st32" d="M-254.4,429.5h7.5v8.2h-7.5V429.5z"/>
	</g>
	<g id="Group-105" transform="translate(54.771577, 156.580309)">
		<g id="Clip-104">
		</g>
		<defs>
			<filter id="Adobe_OpacityMaskFilter_16_" filterUnits="userSpaceOnUse" x="-262.8" y="429.7" width="6.5" height="6.8">
				<feColorMatrix  type="matrix" values="1 0 0 0 0  0 1 0 0 0  0 0 1 0 0  0 0 0 1 0"/>
			</filter>
		</defs>
		<mask maskUnits="userSpaceOnUse" x="-262.8" y="429.7" width="6.5" height="6.8" id="mask-170_1_">
			<g class="st33">
				<path id="path-169_1_" class="st1" d="M-256.3,432.3v4.1c0,0-1.7,0.1-3.8-0.8c-2.1-0.9-2.7-1.5-2.7-1.5l0.4-4.4L-256.3,432.3
					L-256.3,432.3z"/>
			</g>
		</mask>
		<path id="Fill-103" sketch:type="MSShapeGroup" class="st34" d="M-262.8,429.7h6.5v6.8h-6.5V429.7z"/>
	</g>
	<g id="Group-113" transform="translate(62.815095, 38.185141)">
		<g id="Clip-112">
		</g>
		<defs>
			<filter id="Adobe_OpacityMaskFilter_17_" filterUnits="userSpaceOnUse" x="-262.7" y="416" width="58.6" height="46.4">
				<feColorMatrix  type="matrix" values="1 0 0 0 0  0 1 0 0 0  0 0 1 0 0  0 0 0 1 0"/>
			</filter>
		</defs>
		<mask maskUnits="userSpaceOnUse" x="-262.7" y="416" width="58.6" height="46.4" id="mask-172_1_">
			<g class="st35">
				<path id="path-171_1_" class="st1" d="M-204.1,439.2c0-12.8-13.1-23.2-29.3-23.2c-16.2,0-29.3,10.4-29.3,23.2
					c0,12.8,13.1,23.2,29.3,23.2C-217.2,462.4-204.1,452-204.1,439.2L-204.1,439.2z"/>
			</g>
		</mask>
		<path id="Fill-111" sketch:type="MSShapeGroup" class="st36" d="M-262.7,416h58.6v46.4h-58.6V416z"/>
	</g>
	<g id="Group-116" transform="translate(80.051204, 50.829286)">
		<g id="Clip-115">
		</g>
		<defs>
			<filter id="Adobe_OpacityMaskFilter_18_" filterUnits="userSpaceOnUse" x="-260.4" y="417.5" width="19.5" height="18.1">
				<feColorMatrix  type="matrix" values="1 0 0 0 0  0 1 0 0 0  0 0 1 0 0  0 0 0 1 0"/>
			</filter>
		</defs>
		<mask maskUnits="userSpaceOnUse" x="-260.4" y="417.5" width="19.5" height="18.1" id="mask-174_1_">
			<g class="st37">
				<path id="path-173_1_" class="st1" d="M-250.4,417.7c-5.3-0.2-9.7,3.6-9.9,8.5c-0.2,4.9,4,9,9.3,9.2c5.3,0.2,9.7-3.6,9.9-8.5
					C-240.9,422-245.1,417.9-250.4,417.7L-250.4,417.7z"/>
			</g>
		</mask>
		<path id="Fill-114" sketch:type="MSShapeGroup" class="st38" d="M-260.4,417.5h19.5v18.1h-19.5V417.5z"/>
	</g>
	<g id="Group-119" transform="translate(54.771577, 83.014380)">
		<g id="Clip-118">
		</g>
		<defs>
			<filter id="Adobe_OpacityMaskFilter_19_" filterUnits="userSpaceOnUse" x="-267.2" y="416.7" width="84.6" height="45.8">
				<feColorMatrix  type="matrix" values="1 0 0 0 0  0 1 0 0 0  0 0 1 0 0  0 0 0 1 0"/>
			</filter>
		</defs>
		<mask maskUnits="userSpaceOnUse" x="-267.2" y="416.7" width="84.6" height="45.8" id="mask-176_1_">
			<g class="st39">
				<path id="path-175_1_" class="st1" d="M-248.9,425c0,0,6.7,12.2,24.5,12.2c17.8,0,21.8-16.5,30.1-16.5c8.2,0,12.2,19.1-2.6,30.4
					c-14.8,11.4-41.8,9.4-53.4,1.4c-11.6-8-16.8-24.3-11.1-30C-255.8,416.7-248.9,425-248.9,425L-248.9,425z"/>
			</g>
		</mask>
		<path id="Fill-117" sketch:type="MSShapeGroup" class="st40" d="M-267.2,416.7h84.6v45.8h-84.6V416.7z"/>
	</g>
	<path id="Fill-120" sketch:type="MSShapeGroup" class="st41" d="M-194.1,508l-3.1,1.7c0.2,0.3,2.1,3.7,6.5,7.2
		c2.2,1.7,5,3.5,8.6,4.7c3.5,1.3,7.7,2.1,12.6,2.1c5,0,9.2-1.2,12.7-3c5.2-2.7,8.7-6.6,11.5-9.4c1.4-1.4,2.6-2.6,3.6-3.3
		c0.5-0.3,0.9-0.6,1.3-0.7c0.4-0.1,0.7-0.2,1-0.2c0.3,0,0.6,0.1,1,0.3c0.6,0.3,1.3,1.2,1.8,2.5c0.6,1.3,0.9,3.1,0.9,5.1
		c0,2.5-0.6,5.4-1.9,8.2c-1.4,2.8-3.5,5.6-6.6,8c-3.2,2.5-7.1,4.3-11.5,5.5c-4.3,1.2-9.1,1.8-13.7,1.8c-4.8,0-9.6-0.6-13.8-1.7
		c-4.2-1.1-7.8-2.6-10.2-4.3c-3.7-2.5-6.7-6.1-8.8-9.8c-2.1-3.7-3.1-7.6-3.1-10.5c0-1.1,0.1-2,0.4-2.7c0.2-0.7,0.6-1.2,0.9-1.6
		c0.5-0.5,0.8-0.7,1.1-0.8c0.3-0.1,0.6-0.2,0.9-0.2c0.4,0,1,0.1,1.6,0.4c0.9,0.4,2,1.2,2.7,1.8c0.4,0.3,0.6,0.6,0.8,0.8l0.2,0.2l0,0
		l0,0l1.6-1.3l-1.6,1.3l0,0l1.6-1.3l-1.6,1.3L-194.1,508l-3.1,1.7L-194.1,508l2.7-2.3c-0.1-0.1-1.2-1.4-3-2.8c-0.9-0.7-2-1.4-3.3-2
		c-1.3-0.6-2.8-1-4.5-1c-1.2,0-2.4,0.2-3.7,0.7c-1.2,0.5-2.4,1.3-3.4,2.3c-1.2,1.2-2.1,2.7-2.6,4.3c-0.5,1.6-0.7,3.3-0.7,5
		c0,4.5,1.5,9.3,4,13.9c2.6,4.6,6.2,9,11,12.2c3.4,2.4,7.7,4.1,12.5,5.3c4.8,1.2,10.1,1.9,15.5,1.9c5.2,0,10.6-0.6,15.6-2
		c5.1-1.4,9.8-3.5,13.9-6.7c4-3.1,6.9-6.8,8.7-10.5c1.8-3.8,2.6-7.7,2.6-11.2c0-3.8-0.9-7.3-2.6-10c-0.9-1.4-2-2.6-3.4-3.5
		c-1.4-0.9-3.1-1.5-4.9-1.5c-1.6,0-3.2,0.4-4.5,1.1c-2.3,1.1-4,2.8-5.8,4.5c-2.6,2.6-5,5.3-8.1,7.4c-1.5,1-3.2,1.9-5.1,2.5
		c-1.9,0.6-4.1,1-6.6,1c-4,0-7.4-0.7-10.1-1.7c-4.1-1.5-7-3.7-8.8-5.6c-0.9-0.9-1.6-1.7-2-2.3c-0.2-0.3-0.3-0.5-0.4-0.6l-0.1-0.1
		l0,0l-1.6,0.9l1.6-0.9l0,0l-1.6,0.9l1.6-0.9l-0.2-0.3l-0.2-0.3L-194.1,508"/>
	<g id="Group-123" transform="translate(74.305834, 106.003733)">
		<g id="Clip-122">
		</g>
		<defs>
			<filter id="Adobe_OpacityMaskFilter_20_" filterUnits="userSpaceOnUse" x="-261.3" y="423.1" width="38.3" height="10.1">
				<feColorMatrix  type="matrix" values="1 0 0 0 0  0 1 0 0 0  0 0 1 0 0  0 0 0 1 0"/>
			</filter>
		</defs>
		<mask maskUnits="userSpaceOnUse" x="-261.3" y="423.1" width="38.3" height="10.1" id="mask-178_1_">
			<g class="st42">
				<path id="path-177_1_" class="st1" d="M-256.8,431.6c-4.5-1.1-4.1-1.3-4.1-1.3s6.6-7.2,17.2-7.2c10.6,0,20.7,5.6,20.7,5.6
					s-6.7,4.5-17.3,4.5C-246.4,433.3-252.3,432.7-256.8,431.6L-256.8,431.6z"/>
			</g>
		</mask>
		<path id="Fill-121" sketch:type="MSShapeGroup" class="st43" d="M-261.3,423.1h38.3v10.1h-38.3V423.1z"/>
	</g>
	<g id="Group-126" transform="translate(44.429911, 0.252709)">
		<g id="Clip-125">
		</g>
		<defs>
			<filter id="Adobe_OpacityMaskFilter_21_" filterUnits="userSpaceOnUse" x="-267.4" y="408.7" width="65.5" height="32.2">
				<feColorMatrix  type="matrix" values="1 0 0 0 0  0 1 0 0 0  0 0 1 0 0  0 0 0 1 0"/>
			</filter>
		</defs>
		<mask maskUnits="userSpaceOnUse" x="-267.4" y="408.7" width="65.5" height="32.2" id="mask-180_1_">
			<g class="st44">
				<path id="path-179_1_" class="st1" d="M-218.7,422.7c11.7,3.7,16.7,2.3,16.7,2.3s-11.8,16.7-29.6,9.8
					c-11.3-4.4-18.7-4.1-23.9-3.9c-2.9,0.1-5.2,0.3-7-0.4c-5-2,2.2-17.2,13.9-19.4C-236.4,408.7-229.6,419.3-218.7,422.7
					L-218.7,422.7z"/>
			</g>
		</mask>
		<path id="Fill-124" sketch:type="MSShapeGroup" class="st45" d="M-267.4,408.7h65.5v32.2h-65.5V408.7z"/>
	</g>
	<path id="Fill-127" sketch:type="MSShapeGroup" class="st46" d="M-220.4,608c0,0,0.4,0,1.2,0.1c1.1,0.1,2.7,0.3,4.1,0.5
		c0.7,0.1,1.4,0.3,2,0.4c0.5,0.2,0.9,0.4,1,0.4c0.4,0.3,0.9,0.3,1.3-0.1c0.3-0.4,0.3-0.9-0.1-1.3c-0.3-0.3-0.7-0.4-1-0.6
		c-0.7-0.3-1.5-0.5-2.4-0.6c-2.7-0.5-5.9-0.7-5.9-0.7c-0.5,0-0.9,0.3-0.9,0.8C-221.2,607.5-220.9,607.9-220.4,608"/>
	<path id="Fill-128" sketch:type="MSShapeGroup" class="st46" d="M-219.4,607.3c0,0,1-0.6,2-1.6c0.5-0.5,1-1.1,1.4-1.8
		c0.4-0.7,0.7-1.5,0.7-2.4c0-0.5-0.4-0.9-0.9-0.9c-0.5,0-0.9,0.4-0.9,0.9c0,0.5-0.2,1-0.5,1.5c-0.4,0.7-1.2,1.5-1.8,1.9
		c-0.3,0.2-0.6,0.4-0.8,0.6l-0.2,0.2l-0.1,0l0,0c-0.4,0.3-0.6,0.8-0.3,1.2C-220.4,607.4-219.8,607.5-219.4,607.3"/>
	<path id="Fill-129" sketch:type="MSShapeGroup" class="st46" d="M-118.5,606.3c0,0-1.9,0.1-3.9,0.4c-1,0.1-2.1,0.3-3,0.5
		c-0.5,0.1-0.9,0.2-1.3,0.4c-0.4,0.2-0.7,0.3-1,0.6c-0.4,0.3-0.4,0.9-0.1,1.3c0.3,0.4,0.9,0.4,1.3,0.1c0,0,0.2-0.2,0.5-0.3
		c0.5-0.2,1.2-0.4,2.1-0.5c1.2-0.2,2.7-0.4,3.8-0.5c0.6-0.1,1-0.1,1.4-0.1c0.3,0,0.5,0,0.5,0c0.5,0,0.9-0.5,0.8-0.9
		C-117.6,606.7-118,606.3-118.5,606.3"/>
	<path id="Fill-130" sketch:type="MSShapeGroup" class="st46" d="M-118.4,605.9L-118.4,605.9c-0.2-0.1-1.1-0.7-1.8-1.5
		c-0.4-0.4-0.8-0.8-1-1.3c-0.3-0.5-0.4-0.9-0.4-1.4c0-0.5-0.4-0.9-0.9-0.9c-0.5,0-0.9,0.4-0.9,0.9c0,0.9,0.3,1.7,0.7,2.4
		c0.6,1,1.5,1.8,2.1,2.4c0.7,0.6,1.2,0.9,1.3,0.9c0.4,0.3,1,0.1,1.2-0.3C-117.8,606.7-118,606.1-118.4,605.9"/>
	<g id="Group-133" transform="translate(0.765101, 91.039912)">
		<g id="Clip-132">
		</g>
		<defs>
			<filter id="Adobe_OpacityMaskFilter_22_" filterUnits="userSpaceOnUse" x="-270" y="420.3" width="187.8" height="91">
				<feColorMatrix  type="matrix" values="1 0 0 0 0  0 1 0 0 0  0 0 1 0 0  0 0 0 1 0"/>
			</filter>
		</defs>
		<mask maskUnits="userSpaceOnUse" x="-270" y="420.3" width="187.8" height="91" id="mask-182_1_">
			<g class="st47">
				<path id="path-181_1_" class="st1" d="M-152.8,504.5c18.1-2.2,34.4-6.3,51.8-18c7.8-5.2,18.2-13.2,17.9-16.5
					c-0.7-7-24.6,5.1-36.4,9.7c-20.9,8.1-42.5,11.3-73.4,7.1c-10.6-1.5-25.8-4.8-43.2-19.8c-7.7-6.6-17.8-15.7-22.5-24
					c-5.9-10.6-5.5-19.8-8.2-19.1c-1.5,0.4-3.1,10.6-0.2,21.3C-255,489.9-198,510.1-152.8,504.5L-152.8,504.5z"/>
			</g>
		</mask>
		<path id="Fill-131" sketch:type="MSShapeGroup" class="st48" d="M-270,423.3l186.3-3.1l1.4,87.9l-186.3,3.1L-270,423.3z"/>
	</g>
	<g id="Group-99" transform="translate(20.299358, 74.968106)">
		<g id="Clip-98">
		</g>
		<defs>
			<filter id="Adobe_OpacityMaskFilter_23_" filterUnits="userSpaceOnUse" x="-267.8" y="420.6" width="18.6" height="57.8">
				<feColorMatrix  type="matrix" values="1 0 0 0 0  0 1 0 0 0  0 0 1 0 0  0 0 0 1 0"/>
			</filter>
		</defs>
		<mask maskUnits="userSpaceOnUse" x="-267.8" y="420.6" width="18.6" height="57.8" id="mask-166_1_">
			<g class="st49">
				<path id="path-165_1_" class="st1" d="M-260.7,420.7c0,0-3,16.8-3.1,24.9c-0.1,7.2,2.4,21,2.4,21s-6.5,1.9-5.6,5.4
					c0.9,3.4,5.8-1.2,5.8-1.2s-1.9,3.6,0.1,5.6c1.9,2,3.8-6.8,3.8-6.8s4.4,4.9,6.2,2.9c1.8-2-1.5-4.1-3.2-5.7
					c-0.8-0.8-3.2-11.3-3.6-21.2c-0.4-11.6,1.3-22.8,1.3-22.8s1.1-1.2-1.5-2.2L-260.7,420.7L-260.7,420.7z"/>
			</g>
		</mask>
		<path id="Fill-97" sketch:type="MSShapeGroup" class="st50" d="M-267.8,420.6h18.6v57.8h-18.6V420.6z"/>
	</g>
</g>
</svg>
