<?xml version="1.0" encoding="utf-8"?>
<!-- Generator: Adobe Illustrator 19.0.0, SVG Export Plug-In . SVG Version: 6.00 Build 0)  -->
<svg version="1.1" id="图层_1" xmlns:sketch="http://www.bohemiancoding.com/sketch/ns"
	 xmlns="http://www.w3.org/2000/svg" xmlns:xlink="http://www.w3.org/1999/xlink" x="0px" y="0px" viewBox="-478 461 66 103"
	 style="enable-background:new -478 461 66 103;" xml:space="preserve">
<style type="text/css">
	.st0{fill:#FFFFFF;}
	.st1{opacity:0.2537;fill:#FFFFFF;enable-background:new    ;}
	.st2{fill:#EFEDED;}
	.st3{filter:url(#Adobe_OpacityMaskFilter);}
	.st4{mask:url(#mask-2);fill:#FFD000;}
	.st5{filter:url(#Adobe_OpacityMaskFilter_1_);}
	.st6{mask:url(#mask-4);fill:#FFD000;}
	.st7{filter:url(#Adobe_OpacityMaskFilter_2_);}
	.st8{mask:url(#mask-6);fill:#ECAE00;}
	.st9{filter:url(#Adobe_OpacityMaskFilter_3_);}
	.st10{mask:url(#mask-8);fill:#ECAE00;}
	.st11{filter:url(#Adobe_OpacityMaskFilter_4_);}
	.st12{mask:url(#mask-10);fill:#FFB600;}
	.st13{clip-path:url(#SVGID_3_);}
	.st14{clip-path:url(#SVGID_7_);}
	.st15{filter:url(#Adobe_OpacityMaskFilter_5_);}
	.st16{mask:url(#mask-12);fill:#FFFFFF;}
	.st17{filter:url(#Adobe_OpacityMaskFilter_6_);}
	.st18{mask:url(#mask-14);fill:#545454;}
	.st19{filter:url(#Adobe_OpacityMaskFilter_7_);}
	.st20{mask:url(#mask-16);fill:#EC9F2C;}
	.st21{filter:url(#Adobe_OpacityMaskFilter_8_);}
	.st22{mask:url(#mask-18);fill:#65AA39;}
	.st23{filter:url(#Adobe_OpacityMaskFilter_9_);}
	.st24{mask:url(#mask-20);fill:#79CA45;}
	.st25{filter:url(#Adobe_OpacityMaskFilter_10_);}
	.st26{mask:url(#mask-24);fill:#D8D8D8;}
	.st27{filter:url(#Adobe_OpacityMaskFilter_11_);}
	.st28{mask:url(#mask-26);fill:#FFD000;}
	.st29{fill:#FFD000;}
	.st30{filter:url(#Adobe_OpacityMaskFilter_12_);}
	.st31{mask:url(#mask-28);fill:#D16E2F;}
	.st32{filter:url(#Adobe_OpacityMaskFilter_13_);}
	.st33{mask:url(#mask-30);fill:#FFD000;}
	.st34{filter:url(#Adobe_OpacityMaskFilter_14_);}
	.st35{mask:url(#mask-32);fill:#FFD000;}
	.st36{filter:url(#Adobe_OpacityMaskFilter_15_);}
	.st37{mask:url(#mask-34);fill:#F4A100;}
	.st38{filter:url(#Adobe_OpacityMaskFilter_16_);}
	.st39{mask:url(#mask-36);fill:#F4A100;}
	.st40{filter:url(#Adobe_OpacityMaskFilter_17_);}
	.st41{mask:url(#mask-38);fill:#F4A100;}
	.st42{filter:url(#Adobe_OpacityMaskFilter_18_);}
	.st43{mask:url(#mask-40);fill:#F4A100;}
	.st44{filter:url(#Adobe_OpacityMaskFilter_19_);}
	.st45{mask:url(#mask-42);fill:#F4A100;}
</style>
<title>Oval 32 Copy + Oval 32 Copy 3 Copy + Oval 26 + Oval 26 Copy + Group + Path 1046</title>
<desc>Created with Sketch.</desc>
<g>
	<g id="Oval-32-Copy-_x2B_-Oval-32-Copy-3-Copy" transform="translate(20.000000, 79.000000)" sketch:type="MSShapeGroup">
		<ellipse id="Oval-32-Copy" class="st0" cx="-466.8" cy="473" rx="6.6" ry="6.6"/>
		<ellipse id="Oval-32-Copy-3" class="st1" cx="-466.8" cy="473" rx="11.1" ry="11.1"/>
	</g>
	<ellipse id="Oval-26" sketch:type="MSShapeGroup" class="st0" cx="-444.6" cy="493.9" rx="32.5" ry="32.5">
	</ellipse>
	<ellipse id="Oval-26-Copy" sketch:type="MSShapeGroup" class="st2" cx="-444.6" cy="493.9" rx="26.5" ry="26.5">
	</ellipse>
	<g id="Group-292" transform="translate(8.012892, 42.399193)">
		<g id="Clip-291">
		</g>
		<defs>
			<filter id="Adobe_OpacityMaskFilter" filterUnits="userSpaceOnUse" x="-466" y="465.7" width="4.8" height="11.7">
				<feColorMatrix  type="matrix" values="1 0 0 0 0  0 1 0 0 0  0 0 1 0 0  0 0 0 1 0"/>
			</filter>
		</defs>
		<mask maskUnits="userSpaceOnUse" x="-466" y="465.7" width="4.8" height="11.7" id="mask-2">
			<g class="st3">
				<path id="path-1" class="st0" d="M-466,475.9c0-1.5,2.6-1.3,3-2.4c0.6-1.7,0.1-6.5,0.1-6.5c-0.1-0.7,0.5-1.3,1.2-1.3h-0.9
					c0.7,0,1.3,0.6,1.3,1.3v8.2c0,0.7-0.6,1.3-1.3,1.3h0.9c-0.7,0-1.9,0.1-2.6,0.2C-464.2,476.7-466,477.4-466,475.9L-466,475.9z"/>
			</g>
		</mask>
		<path id="Fill-290" sketch:type="MSShapeGroup" class="st4" d="M-466,465.7h4.8v11.7h-4.8V465.7z"/>
	</g>
	<g id="Group-295" transform="translate(28.926070, 42.399193)">
		<g id="Clip-294">
		</g>
		<defs>
			<filter id="Adobe_OpacityMaskFilter_1_" filterUnits="userSpaceOnUse" x="-466" y="465.7" width="4.8" height="11.4">
				<feColorMatrix  type="matrix" values="1 0 0 0 0  0 1 0 0 0  0 0 1 0 0  0 0 0 1 0"/>
			</filter>
		</defs>
		<mask maskUnits="userSpaceOnUse" x="-466" y="465.7" width="4.8" height="11.4" id="mask-4">
			<g class="st5">
				<path id="path-3" class="st0" d="M-466,467c0-0.7,0.6-1.3,1.3-1.3h-0.8c0.7,0,1.3,0.6,1.3,1.3v6.2c0,1.6,3,1.2,3,2.5
					s-1.7,0.9-1.7,0.9c-0.7-0.1-1.9-0.1-2.6-0.1h0.8c-0.7,0-1.3-0.6-1.3-1.3V467L-466,467z"/>
			</g>
		</mask>
		<path id="Fill-293" sketch:type="MSShapeGroup" class="st6" d="M-466,465.7h4.8V477h-4.8V465.7z"/>
	</g>
	<g id="Group-298" transform="translate(28.926070, 47.148683)">
		<g id="Clip-297">
		</g>
		<defs>
			<filter id="Adobe_OpacityMaskFilter_2_" filterUnits="userSpaceOnUse" x="-466" y="465.6" width="1.8" height="1.9">
				<feColorMatrix  type="matrix" values="1 0 0 0 0  0 1 0 0 0  0 0 1 0 0  0 0 0 1 0"/>
			</filter>
		</defs>
		<mask maskUnits="userSpaceOnUse" x="-466" y="465.6" width="1.8" height="1.9" id="mask-6">
			<g class="st7">
				<path id="path-5" class="st0" d="M-466,466.7v0.9c0,0,0.6-0.1,1.1-0.3c0.5-0.2,0.7-0.4,0.7-0.4v-1.2L-466,466.7L-466,466.7z"/>
			</g>
		</mask>
		<path id="Fill-296" sketch:type="MSShapeGroup" class="st8" d="M-466,465.6h1.8v1.9h-1.8V465.6z"/>
	</g>
	<g id="Group-301" transform="translate(11.181555, 47.465315)">
		<g id="Clip-300">
		</g>
		<defs>
			<filter id="Adobe_OpacityMaskFilter_3_" filterUnits="userSpaceOnUse" x="-465.9" y="465.6" width="1.6" height="1.6">
				<feColorMatrix  type="matrix" values="1 0 0 0 0  0 1 0 0 0  0 0 1 0 0  0 0 0 1 0"/>
			</filter>
		</defs>
		<mask maskUnits="userSpaceOnUse" x="-465.9" y="465.6" width="1.6" height="1.6" id="mask-8">
			<g class="st9">
				<path id="path-7" class="st0" d="M-464.3,466.2v1c0,0-0.4,0-0.9-0.2c-0.5-0.2-0.7-0.4-0.7-0.4l0.1-1L-464.3,466.2L-464.3,466.2z
					"/>
			</g>
		</mask>
		<path id="Fill-299" sketch:type="MSShapeGroup" class="st10" d="M-465.9,465.6h1.6v1.6h-1.6V465.6z"/>
	</g>
	<g id="Group-304" transform="translate(0.091234, 8.202869)">
		<g id="Clip-303">
		</g>
		<defs>
			<filter id="Adobe_OpacityMaskFilter_4_" filterUnits="userSpaceOnUse" x="-466" y="465.5" width="41.7" height="41.7">
				<feColorMatrix  type="matrix" values="1 0 0 0 0  0 1 0 0 0  0 0 1 0 0  0 0 0 1 0"/>
			</filter>
		</defs>
		<mask maskUnits="userSpaceOnUse" x="-466" y="465.5" width="41.7" height="41.7" id="mask-10">
			<g class="st11">
				<path id="path-9" class="st0" d="M-445.1,507.1c11.5,0,20.8-9.3,20.8-20.8s-9.3-20.8-20.8-20.8c-11.5,0-20.8,9.3-20.8,20.8
					S-456.7,507.1-445.1,507.1L-445.1,507.1z"/>
			</g>
		</mask>
		<path id="Fill-302" sketch:type="MSShapeGroup" class="st12" d="M-466,465.5h41.7v41.7H-466V465.5z"/>
	</g>
	<g>
		<defs>
			<polygon id="SVGID_1_" points="-465.1,466.4 -464.1,466.4 -465.1,467.4 			"/>
		</defs>
		<defs>
			<polygon id="SVGID_2_" points="-467.1,464.4 -468.1,464.4 -467.1,463.4 			"/>
		</defs>
		<clipPath id="SVGID_3_">
			<use xlink:href="#SVGID_1_"  style="overflow:visible;"/>
		</clipPath>
		<clipPath id="SVGID_4_" class="st13">
			<use xlink:href="#SVGID_2_"  style="overflow:visible;"/>
		</clipPath>
		<g transform="matrix(0.1095 0 0 0 -457.9425 478.168)" style="clip-path:url(#SVGID_4_);enable-background:new    ;">
			
				<image style="overflow:visible;" width="6" height="6" id="Image-305" xlink:href="21DBB74E32F7E3E0.png"  sketch:type="MSBitmapLayer" transform="matrix(0.1095 0 0 0 -457.9425 478.168)">
			</image>
		</g>
	</g>
	<g>
		<defs>
			<polygon id="SVGID_5_" points="-465.1,466.4 -464.1,466.4 -465.1,467.4 			"/>
		</defs>
		<defs>
			<polygon id="SVGID_6_" points="-467.1,464.4 -468.1,464.4 -467.1,463.4 			"/>
		</defs>
		<clipPath id="SVGID_7_">
			<use xlink:href="#SVGID_5_"  style="overflow:visible;"/>
		</clipPath>
		<clipPath id="SVGID_8_" class="st14">
			<use xlink:href="#SVGID_6_"  style="overflow:visible;"/>
		</clipPath>
		<g transform="matrix(0.1095 0 0 0 -457.9425 503.3329)" style="clip-path:url(#SVGID_8_);enable-background:new    ;">
			
				<image style="overflow:visible;" width="224" height="234" id="Image-306" xlink:href="21DBB74E32F7E3E1.png"  sketch:type="MSBitmapLayer" transform="matrix(0.1095 0 0 0 -457.9425 503.3329)">
			</image>
		</g>
	</g>
	<g id="Group-309" transform="translate(13.082753, 16.118685)">
		<g id="Clip-308">
		</g>
		<defs>
			<filter id="Adobe_OpacityMaskFilter_5_" filterUnits="userSpaceOnUse" x="-467.1" y="464.5" width="16.6" height="18">
				<feColorMatrix  type="matrix" values="1 0 0 0 0  0 1 0 0 0  0 0 1 0 0  0 0 0 1 0"/>
			</filter>
		</defs>
		<mask maskUnits="userSpaceOnUse" x="-467.1" y="464.5" width="16.6" height="18" id="mask-12">
			<g class="st15">
				<path id="path-11" class="st0" d="M-458.5,465.8c-1.6,0-3.3,0.3-4.8,1.6c-1.5,1.4-2.7,3.8-2.5,6.7c0.1,2.1,1.2,3.8,2,4.9
					c0.8,1.1,2.7,2.3,5,2.4c2.4,0,4.1-1,5.5-2.8c1.1-1.5,1.6-3.6,1.6-5.3C-451.6,469.2-454.9,465.8-458.5,465.8"/>
			</g>
		</mask>
		<path id="Fill-307" sketch:type="MSShapeGroup" class="st16" d="M-450.8,482.5l-16.3-0.3l0.3-17.7l16.3,0.3L-450.8,482.5"/>
	</g>
	<g id="Group-312" transform="translate(17.835749, 21.184807)">
		<g id="Clip-311">
		</g>
		<defs>
			<filter id="Adobe_OpacityMaskFilter_6_" filterUnits="userSpaceOnUse" x="-467.1" y="464.4" width="7.1" height="8">
				<feColorMatrix  type="matrix" values="1 0 0 0 0  0 1 0 0 0  0 0 1 0 0  0 0 0 1 0"/>
			</filter>
		</defs>
		<mask maskUnits="userSpaceOnUse" x="-467.1" y="464.4" width="7.1" height="8" id="mask-14">
			<g class="st17">
				<path id="path-13" class="st0" d="M-463.4,465.7c-1.3,0-2.4,1.2-2.4,2.7c-0.1,1.5,1,2.8,2.2,2.9c1.3,0,2.4-1.2,2.4-2.7
					C-461.1,467-462.2,465.7-463.4,465.7"/>
			</g>
		</mask>
		<path id="Fill-310" sketch:type="MSShapeGroup" class="st18" d="M-460.2,472.5l-6.9-0.2l0.3-7.8l6.9,0.2L-460.2,472.5"/>
	</g>
	<g id="Group-315" transform="translate(0.408100, 30.683786)">
		<g id="Clip-314">
		</g>
		<defs>
			<filter id="Adobe_OpacityMaskFilter_7_" filterUnits="userSpaceOnUse" x="-467.6" y="455.6" width="43.3" height="34.6">
				<feColorMatrix  type="matrix" values="1 0 0 0 0  0 1 0 0 0  0 0 1 0 0  0 0 0 1 0"/>
			</filter>
		</defs>
		<mask maskUnits="userSpaceOnUse" x="-467.6" y="455.6" width="43.3" height="34.6" id="mask-16">
			<g class="st19">
				<path id="path-15" class="st0" d="M-440.6,483.9c4.6-1.2,8.5-3.8,11.2-7.3c1.2-1.5,2.1-2.6,2-3.4c-0.1-1.7-5.7,3.5-8.6,4.6
					c-5.2,1.9-8.1,3.1-15.2,1.4c-2.4-0.6-6.3-3.2-8.4-5.2c-3.8-3.8-5.6-8.2-6.2-8.4c-0.3-0.1-0.4,0.8,0.3,3.5
					C-462.7,480-451.6,486.7-440.6,483.9"/>
			</g>
		</mask>
		<path id="Fill-313" sketch:type="MSShapeGroup" class="st20" d="M-467.6,464.9l37-9.2l6.3,25.4l-37,9.2L-467.6,464.9"/>
	</g>
	<g id="Group-318" transform="translate(24.489942, 7.886237)">
		<g id="Clip-317">
		</g>
		<defs>
			<filter id="Adobe_OpacityMaskFilter_8_" filterUnits="userSpaceOnUse" x="-467.5" y="462.8" width="12.6" height="9.5">
				<feColorMatrix  type="matrix" values="1 0 0 0 0  0 1 0 0 0  0 0 1 0 0  0 0 0 1 0"/>
			</filter>
		</defs>
		<mask maskUnits="userSpaceOnUse" x="-467.5" y="462.8" width="12.6" height="9.5" id="mask-18">
			<g class="st21">
				<path id="path-17" class="st0" d="M-466,467.3c0,0,3.1,3.5,7.6,1.5c1.2-0.5,1.8-1.5,1.8-1.5s-2.4-1.8-4.4-1.8
					C-462.9,465.5-466,467.3-466,467.3"/>
			</g>
		</mask>
		<path id="Fill-316" sketch:type="MSShapeGroup" class="st22" d="M-467.5,466.3l10.6-3.4l2,6.1l-10.6,3.4L-467.5,466.3"/>
	</g>
	<g id="Group-321" transform="translate(19.736947, 0.920319)">
		<g id="Clip-320">
		</g>
		<defs>
			<filter id="Adobe_OpacityMaskFilter_9_" filterUnits="userSpaceOnUse" x="-467.6" y="463.6" width="9.8" height="15.3">
				<feColorMatrix  type="matrix" values="1 0 0 0 0  0 1 0 0 0  0 0 1 0 0  0 0 0 1 0"/>
			</filter>
		</defs>
		<mask maskUnits="userSpaceOnUse" x="-467.6" y="463.6" width="9.8" height="15.3" id="mask-20">
			<g class="st23">
				<path id="path-19" class="st0" d="M-459.5,476.9c0,0-6.1-1.7-6.3-8.4c-0.1-1.8,0.8-3.1,0.8-3.1s3.6,1.9,4.7,4.2
					C-459.2,472.1-459.5,476.9-459.5,476.9"/>
			</g>
		</mask>
		<path id="Fill-319" sketch:type="MSShapeGroup" class="st24" d="M-457.8,477.8l-2-14.2l-7.8,1.1l2,14.2L-457.8,477.8"/>
	</g>
	<g id="Group-327" transform="translate(18.786348, 24.667766)">
		<g id="Clip-326">
		</g>
		<defs>
			<filter id="Adobe_OpacityMaskFilter_10_" filterUnits="userSpaceOnUse" x="-467.2" y="464.4" width="3.6" height="3.6">
				<feColorMatrix  type="matrix" values="1 0 0 0 0  0 1 0 0 0  0 0 1 0 0  0 0 0 1 0"/>
			</filter>
		</defs>
		<mask maskUnits="userSpaceOnUse" x="-467.2" y="464.4" width="3.6" height="3.6" id="mask-24">
			<g class="st25">
				<path id="path-23" class="st0" d="M-466,466c0,0,0,0.7,0.5,0.8c0.5,0,0.9-0.5,0.5-0.5c-0.3,0-0.3-0.6-0.7-0.6
					C-466,465.6-466,466-466,466"/>
			</g>
		</mask>
		<path id="Fill-325" sketch:type="MSShapeGroup" class="st26" d="M-467,464.4l-0.2,3.4l3.4,0.2l0.2-3.4L-467,464.4"/>
	</g>
	<g id="Group-330" transform="translate(13.716486, 35.749908)">
		<g id="Clip-329">
		</g>
		<defs>
			<filter id="Adobe_OpacityMaskFilter_11_" filterUnits="userSpaceOnUse" x="-467.5" y="463.2" width="16.1" height="7.4">
				<feColorMatrix  type="matrix" values="1 0 0 0 0  0 1 0 0 0  0 0 1 0 0  0 0 0 1 0"/>
			</filter>
		</defs>
		<mask maskUnits="userSpaceOnUse" x="-467.5" y="463.2" width="16.1" height="7.4" id="mask-26">
			<g class="st27">
				<path id="path-25" class="st0" d="M-466,465.7c0-0.1,1.3,0.4,3.1,1c2,0.6,4.5,1.2,6.3,0.9c3.6-0.5,3.1-1.5,3.8-1.4
					s-1.7,1.7-3.8,2.4C-458.6,469.3-465.9,466-466,465.7"/>
			</g>
		</mask>
		<path id="Fill-328" sketch:type="MSShapeGroup" class="st28" d="M-466.7,463.2l15.3,2.2l-0.7,5.3l-15.3-2.2L-466.7,463.2"/>
	</g>
	<path id="Fill-331" sketch:type="MSShapeGroup" class="st29" d="M-452.3,501.5l0.7-0.3L-452.3,501.5l0.8,0c0-0.1,0-0.2-0.1-0.3
		L-452.3,501.5l0.8,0L-452.3,501.5l0.6,0.4c0.1-0.1,0.2-0.3,0.1-0.4L-452.3,501.5l0.6,0.4L-452.3,501.5l0.4,0.6
		c0.1,0,0.2-0.1,0.2-0.2L-452.3,501.5l0.4,0.6L-452.3,501.5l0.1,0.7c0.1,0,0.1,0,0.2-0.1L-452.3,501.5l0.1,0.7L-452.3,501.5l0,0.7
		c0,0,0.1,0,0.1,0L-452.3,501.5l0,0.7v-0.5l-0.1,0.5c0,0,0,0,0.1,0v-0.5l-0.1,0.5l0-0.1l0,0.1l0,0l0-0.1l0,0.1c0,0,0,0,0.1,0
		c0.2,0.1,0.7,0.2,1.3,0.4c0.9,0.3,2.1,0.7,3.3,1c1.3,0.3,2.6,0.5,3.9,0.5c0.4,0,0.7,0,1.1-0.1c0.9-0.1,1.6-0.3,2.1-0.5
		c0.4-0.1,0.7-0.3,0.9-0.4c0.2-0.1,0.3-0.2,0.5-0.3c0.2-0.1,0.3-0.3,0.3-0.3l0,0l-0.1-0.1l0.1,0.1l0,0l-0.1-0.1l0.1,0.1l-0.2-0.3
		l0.1,0.4c0,0,0.1,0,0.1,0l-0.2-0.3l0.1,0.4l-0.1-0.4v0.4c0,0,0.1,0,0.1,0l-0.1-0.4v0.4v-0.2l0,0.2l0,0v-0.2l0,0.2l0,0l0.1-0.5
		l-0.2,0.5c0.1,0,0.1,0,0.1,0l0.1-0.5l-0.2,0.5l0.2-0.6l-0.5,0.4c0.1,0.1,0.2,0.2,0.3,0.2l0.2-0.6l-0.5,0.4l0.5-0.4h-0.7
		c0,0.1,0,0.3,0.1,0.4l0.5-0.4h-0.7h0.6l-0.5-0.3c0,0-0.1,0.1-0.1,0.3h0.6l-0.5-0.3l0.3,0.1l-0.3-0.2l0,0l0.3,0.1l-0.3-0.2l0.1,0.1
		l-0.1-0.1l0,0l0.1,0.1l-0.1-0.1l0,0c0,0-0.1,0.1-0.1,0.1c-0.1,0.1-0.3,0.3-0.6,0.4c-0.7,0.5-1.8,1-2.7,1.3c-0.1,0-0.2,0.1-0.5,0.1
		c-0.3,0-0.6,0-1-0.1c-0.7-0.1-1.5-0.3-2.3-0.6c-1.2-0.4-2.5-0.9-3.5-1.3c-0.5-0.2-0.9-0.4-1.2-0.5c-0.1-0.1-0.2-0.1-0.3-0.2l0,0
		l0,0l-0.1,0.1l0.1-0.1l0,0l-0.1,0.1l0.1-0.1l-0.3,0.4l0.4-0.4c0,0,0,0-0.1,0l-0.3,0.4l0.4-0.4L-452.3,501.5l0.6-0.5
		c0,0,0-0.1-0.1-0.1L-452.3,501.5l0.6-0.5L-452.3,501.5l0.7-0.3c0-0.1-0.1-0.1-0.1-0.2L-452.3,501.5l0.7-0.3l0,0L-452.3,501.5
		l-0.7,0.3c0.1,0.1,0.1,0.2,0.1,0.2c0.1,0.1,0.1,0.1,0.2,0.1c0.1,0.1,0.2,0.1,0.2,0.2c0.2,0.1,0.4,0.2,0.6,0.3
		c0.9,0.4,2.4,1.1,3.9,1.6c0.8,0.3,1.6,0.5,2.3,0.7c0.7,0.2,1.4,0.3,2.1,0.3c0.3,0,0.6,0,0.9-0.1c1-0.3,2-0.8,2.8-1.3
		c0.4-0.2,0.7-0.5,1-0.7c0.1-0.1,0.2-0.2,0.4-0.4c0.1-0.1,0.1-0.1,0.2-0.2c0-0.1,0.1-0.2,0.1-0.4c0-0.1,0-0.2-0.1-0.3
		c-0.1-0.2-0.2-0.3-0.4-0.4c-0.1-0.1-0.2-0.1-0.3-0.1l0,0c-0.1,0-0.1,0-0.2,0c-0.2,0-0.4,0-0.5,0.1c-0.1,0.1-0.2,0.1-0.3,0.2
		c-0.1,0.1-0.2,0.2-0.3,0.2c-0.1,0.1-0.3,0.2-0.7,0.4c-0.4,0.2-1,0.3-2,0.4c-0.3,0-0.6,0.1-0.9,0.1c-0.8,0-1.7-0.1-2.6-0.3
		c-1.3-0.3-2.7-0.7-3.7-1c-0.5-0.2-1-0.3-1.3-0.4c-0.2-0.1-0.3-0.1-0.4-0.1c-0.1,0-0.1,0-0.2,0c0,0-0.1,0-0.1,0c0,0-0.1,0-0.2,0
		c-0.1,0-0.2,0-0.3,0.1c-0.1,0-0.2,0.1-0.3,0.2c-0.1,0.1-0.2,0.3-0.2,0.5c0,0.1,0,0.2,0.1,0.3l0,0L-452.3,501.5"/>
	<g id="Group-334" transform="translate(14.350219, 36.066541)">
		<g id="Clip-333">
		</g>
		<defs>
			<filter id="Adobe_OpacityMaskFilter_12_" filterUnits="userSpaceOnUse" x="-467.3" y="463.3" width="14.8" height="6.7">
				<feColorMatrix  type="matrix" values="1 0 0 0 0  0 1 0 0 0  0 0 1 0 0  0 0 0 1 0"/>
			</filter>
		</defs>
		<mask maskUnits="userSpaceOnUse" x="-467.3" y="463.3" width="14.8" height="6.7" id="mask-28">
			<g class="st30">
				<path id="path-27" class="st0" d="M-461,467.6c-1.5-0.4-1.3-0.4-1.9-0.5c-2-0.6-3.2-1.1-2.9-1.3c0.2-0.1,0.8,0.3,1.8,0.6
					c1.8,0.6,3.6,1.1,5.8,1.2c1.8,0.1,3.1-0.4,3.6-0.6c0.7-0.3,0.5-0.8,0.8-0.8c0.3,0,0.1,0.5-0.7,1c-0.7,0.4-1.9,0.9-3.1,1
					C-458.5,468.3-459.5,467.9-461,467.6"/>
			</g>
		</mask>
		<path id="Fill-332" sketch:type="MSShapeGroup" class="st31" d="M-466.6,463.3l14.1,2l-0.7,4.7l-14.1-2L-466.6,463.3"/>
	</g>
	<g id="Group-337" transform="translate(8.963491, 32.266949)">
		<g id="Clip-336">
		</g>
		<defs>
			<filter id="Adobe_OpacityMaskFilter_13_" filterUnits="userSpaceOnUse" x="-470.4" y="463.9" width="15.6" height="15.6">
				<feColorMatrix  type="matrix" values="1 0 0 0 0  0 1 0 0 0  0 0 1 0 0  0 0 0 1 0"/>
			</filter>
		</defs>
		<mask maskUnits="userSpaceOnUse" x="-470.4" y="463.9" width="15.6" height="15.6" id="mask-30">
			<g class="st32">
				<path id="path-29" class="st0" d="M-465.9,465.6c0,0,1,3.9,1.8,5.6c0.7,1.5,2.6,4.2,2.6,4.2s-1.2,1.1-0.7,1.7
					c0.5,0.6,1.2-0.8,1.2-0.8s-0.1,1,0.6,1.2c0.6,0.2,0.2-1.8,0.2-1.8s1.5,0.6,1.7,0c0.2-0.6-0.7-0.7-1.3-0.9
					c-0.2-0.1-1.8-2.1-2.9-4.1c-1.2-2.4-2-5-2-5L-465.9,465.6"/>
			</g>
		</mask>
		<path id="Fill-335" sketch:type="MSShapeGroup" class="st33" d="M-470.4,475.5l4-11.6l11.6,4l-4,11.6L-470.4,475.5"/>
	</g>
	<g id="Group-340" transform="translate(25.440541, 31.950316)">
		<g id="Clip-339">
		</g>
		<defs>
			<filter id="Adobe_OpacityMaskFilter_14_" filterUnits="userSpaceOnUse" x="-469.7" y="463.9" width="15.6" height="15.6">
				<feColorMatrix  type="matrix" values="1 0 0 0 0  0 1 0 0 0  0 0 1 0 0  0 0 0 1 0"/>
			</filter>
		</defs>
		<mask maskUnits="userSpaceOnUse" x="-469.7" y="463.9" width="15.6" height="15.6" id="mask-32">
			<g class="st34">
				<path id="path-31" class="st0" d="M-458.6,465.6c0,0-1,3.9-1.8,5.6c-0.7,1.5-2.6,4.2-2.6,4.2s1.2,1.1,0.7,1.7
					c-0.5,0.6-1.2-0.8-1.2-0.8s0.1,1-0.6,1.2c-0.6,0.2-0.2-1.8-0.2-1.8s-1.5,0.6-1.7,0c-0.2-0.6,0.7-0.7,1.3-0.9
					c0.2-0.1,1.8-2.1,2.9-4.1c1.2-2.4,2-5,2-5L-458.6,465.6"/>
			</g>
		</mask>
		<path id="Fill-338" sketch:type="MSShapeGroup" class="st35" d="M-454.1,475.5l-4-11.6l-11.6,4l4,11.6L-454.1,475.5"/>
	</g>
	<g id="Group-343" transform="translate(35.897130, 18.018481)">
		<g id="Clip-342">
		</g>
		<defs>
			<filter id="Adobe_OpacityMaskFilter_15_" filterUnits="userSpaceOnUse" x="-465.8" y="465.6" width="1.8" height="2">
				<feColorMatrix  type="matrix" values="1 0 0 0 0  0 1 0 0 0  0 0 1 0 0  0 0 0 1 0"/>
			</filter>
		</defs>
		<mask maskUnits="userSpaceOnUse" x="-465.8" y="465.6" width="1.8" height="2" id="mask-34">
			<g class="st36">
				<path id="path-33" class="st0" d="M-464.9,467.6c0.5,0,0.9-0.4,0.9-1s-0.4-1-0.9-1c-0.5,0-0.9,0.4-0.9,1
					S-465.4,467.6-464.9,467.6L-464.9,467.6z"/>
			</g>
		</mask>
		<path id="Fill-341" sketch:type="MSShapeGroup" class="st37" d="M-465.8,465.6h1.8v2h-1.8V465.6z"/>
	</g>
	<g id="Group-346" transform="translate(32.094734, 17.068583)">
		<g id="Clip-345">
		</g>
		<defs>
			<filter id="Adobe_OpacityMaskFilter_16_" filterUnits="userSpaceOnUse" x="-466.1" y="465.6" width="1.8" height="2">
				<feColorMatrix  type="matrix" values="1 0 0 0 0  0 1 0 0 0  0 0 1 0 0  0 0 0 1 0"/>
			</filter>
		</defs>
		<mask maskUnits="userSpaceOnUse" x="-466.1" y="465.6" width="1.8" height="2" id="mask-36">
			<g class="st38">
				<path id="path-35" class="st0" d="M-465.2,467.6c0.5,0,0.9-0.4,0.9-1s-0.4-1-0.9-1c-0.5,0-0.9,0.4-0.9,1
					S-465.7,467.6-465.2,467.6L-465.2,467.6z"/>
			</g>
		</mask>
		<path id="Fill-344" sketch:type="MSShapeGroup" class="st39" d="M-466.1,465.6h1.8v2h-1.8V465.6z"/>
	</g>
	<g id="Group-349" transform="translate(27.341739, 15.485420)">
		<g id="Clip-348">
		</g>
		<defs>
			<filter id="Adobe_OpacityMaskFilter_17_" filterUnits="userSpaceOnUse" x="-465.8" y="465.5" width="1.3" height="1.4">
				<feColorMatrix  type="matrix" values="1 0 0 0 0  0 1 0 0 0  0 0 1 0 0  0 0 0 1 0"/>
			</filter>
		</defs>
		<mask maskUnits="userSpaceOnUse" x="-465.8" y="465.5" width="1.3" height="1.4" id="mask-38">
			<g class="st40">
				<path id="path-37" class="st0" d="M-465.2,467c0.4,0,0.7-0.3,0.7-0.7c0-0.4-0.3-0.7-0.7-0.7s-0.7,0.3-0.7,0.7
					C-465.8,466.7-465.5,467-465.2,467L-465.2,467z"/>
			</g>
		</mask>
		<path id="Fill-347" sketch:type="MSShapeGroup" class="st41" d="M-465.8,465.5h1.3v1.4h-1.3V465.5z"/>
	</g>
	<g id="Group-352" transform="translate(33.362199, 21.501440)">
		<g id="Clip-351">
		</g>
		<defs>
			<filter id="Adobe_OpacityMaskFilter_18_" filterUnits="userSpaceOnUse" x="-466.1" y="465.6" width="0.8" height="0.9">
				<feColorMatrix  type="matrix" values="1 0 0 0 0  0 1 0 0 0  0 0 1 0 0  0 0 0 1 0"/>
			</filter>
		</defs>
		<mask maskUnits="userSpaceOnUse" x="-466.1" y="465.6" width="0.8" height="0.9" id="mask-40">
			<g class="st42">
				<path id="path-39" class="st0" d="M-465.6,466.5c0.2,0,0.4-0.2,0.4-0.5c0-0.2-0.2-0.5-0.4-0.5c-0.2,0-0.4,0.2-0.4,0.5
					C-466.1,466.3-465.9,466.5-465.6,466.5L-465.6,466.5z"/>
			</g>
		</mask>
		<path id="Fill-350" sketch:type="MSShapeGroup" class="st43" d="M-466.1,465.6h0.8v0.9h-0.8V465.6z"/>
	</g>
	<g id="Group-355" transform="translate(35.580263, 23.717868)">
		<g id="Clip-354">
		</g>
		<defs>
			<filter id="Adobe_OpacityMaskFilter_19_" filterUnits="userSpaceOnUse" x="-465.9" y="465.7" width="0.8" height="0.9">
				<feColorMatrix  type="matrix" values="1 0 0 0 0  0 1 0 0 0  0 0 1 0 0  0 0 0 1 0"/>
			</filter>
		</defs>
		<mask maskUnits="userSpaceOnUse" x="-465.9" y="465.7" width="0.8" height="0.9" id="mask-42">
			<g class="st44">
				<path id="path-41" class="st0" d="M-465.5,466.6c0.2,0,0.4-0.2,0.4-0.5c0-0.3-0.2-0.5-0.4-0.5s-0.4,0.2-0.4,0.5
					C-465.9,466.4-465.7,466.6-465.5,466.6L-465.5,466.6z"/>
			</g>
		</mask>
		<path id="Fill-353" sketch:type="MSShapeGroup" class="st45" d="M-465.9,465.7h0.8v0.9h-0.8V465.7z"/>
	</g>
	<path id="Path-1046" sketch:type="MSShapeGroup" class="st0" d="M-452.7,522.2l6.6,12v-12.8L-452.7,522.2z M-439.5,522.2l-6.6,12
		v-12.8L-439.5,522.2z"/>
</g>
</svg>
