<?xml version="1.0" encoding="UTF-8" standalone="no"?>
<svg width="1184px" height="205px" viewBox="0 0 1184 205" version="1.1" xmlns="http://www.w3.org/2000/svg" xmlns:xlink="http://www.w3.org/1999/xlink" xmlns:sketch="http://www.bohemiancoding.com/sketch/ns">
    <!-- Generator: Sketch 3.3.3 (12081) - http://www.bohemiancoding.com/sketch -->
    <title>Imported Layers + Imported Layers Copy 5</title>
    <desc>Created with Sketch.</desc>
    <defs></defs>
    <g id="Page-1" stroke="none" stroke-width="1" fill="none" fill-rule="evenodd" sketch:type="MSPage">
        <g id="首页" sketch:type="MSArtboardGroup" transform="translate(0.000000, -2738.000000)">
            <g id="Imported-Layers-+-Imported-Layers-Copy-5" sketch:type="MSLayerGroup" transform="translate(-116.000000, 2737.000000)">
                <path d="M4.39813923,179.373209 C37.1067405,190.435192 80.7131867,187.805268 133.529559,174.263057 C160.372557,167.380466 188.724017,157.91202 219.330859,146.045723 C239.391648,138.268139 252.810386,132.638462 283.323063,119.497755 C320.425743,103.519608 356.944798,95.1951558 393.757047,96.5647519 C438.849808,98.2424236 482.366778,114.566931 524.043501,148.244825 C564.924864,181.280544 614.080176,199.55972 664.208786,201.930258 C711.84128,204.182756 757.661412,191.804342 792.396734,167.334023 C801.531817,160.898847 811.524799,151.246533 825.976559,135.497666 C826.174226,135.282258 856.154935,101.945303 865.710019,91.843564 C901.276132,54.2426829 931.254245,30.6538635 963.429006,18.7784331 C1003.71016,3.91100029 1044.23482,9.78535757 1087.04115,40.766899 C1110.54156,57.7759522 1131.02681,75.295343 1153.20736,96.6065918 C1161.24296,104.327265 1195.2627,138.374532 1204.26653,146.852671 C1238.11984,178.729439 1266.1403,196.429438 1304.46929,206.765863 C1307.13547,207.484868 1309.8797,205.906374 1310.5987,203.240198 C1311.31771,200.574022 1309.73921,197.829791 1307.07304,197.110786 C1270.54636,187.260404 1243.87344,170.411618 1211.12187,139.572263 C1202.25571,131.223761 1168.28444,97.2249938 1160.13571,89.3956302 C1137.64344,67.7848786 1116.81571,49.9725983 1092.90429,32.6660578 C1047.41961,-0.253967553 1003.40199,-6.63465654 959.966415,9.39704381 C926.009685,21.9301839 894.980994,46.3456693 858.445114,84.9717988 C848.786902,95.1825665 818.731149,128.602966 818.608584,128.736531 C804.617021,143.983897 795.019171,153.254548 786.63765,159.158881 C753.778753,182.307297 710.156625,194.091915 664.681149,191.94142 C616.650501,189.670094 569.536012,172.14983 530.328701,140.466891 C486.973081,105.432323 441.38188,88.3297105 394.128838,86.5716658 C355.677535,85.1410888 317.737364,93.7894816 279.367707,110.313249 C248.966322,123.406026 235.625382,129.003064 215.71602,136.721939 C185.450928,148.45574 157.460087,157.803751 131.045883,164.576399 C79.938333,177.680464 38.072528,180.205409 7.60186077,169.900291 C4.9859868,169.015608 2.14822446,170.419015 1.26354119,173.034889 C0.378857914,175.650763 1.78226526,178.488526 4.39813923,179.373209 L4.39813923,179.373209 Z" id="Shape" fill="#3B465A" sketch:type="MSShapeGroup"></path>
                <path d="M5.35925569,176.531334 C37.3964768,187.366257 80.4807306,184.767827 132.784456,171.35706 C159.498816,164.507451 187.74209,155.075136 218.246407,143.248588 C238.261769,135.488616 251.657167,129.868731 282.136437,116.742412 C319.61923,100.60057 356.564619,92.1789357 393.868584,93.5668261 C439.609429,95.2686097 483.748669,111.826548 525.929052,145.911438 C566.308208,178.54133 614.851273,196.592832 664.350495,198.933607 C711.335883,201.155504 756.496615,188.955229 790.668982,164.8815 C799.578023,158.605557 809.452466,149.067743 823.766167,133.469325 C823.941303,133.27847 853.944525,99.9164821 863.530548,89.7820344 C899.38759,51.8735788 929.680877,28.0367596 962.390228,15.9640163 C1003.61771,0.747303242 1045.19026,6.77356004 1088.80008,38.3366373 C1112.4238,55.4349461 1133.0118,73.0422036 1155.28586,94.4433033 C1163.3554,102.196584 1197.36061,136.229301 1206.32313,144.668549 C1239.84592,176.234093 1267.46212,193.678728 1305.25042,203.86934 C1306.31689,204.156942 1307.41458,203.525544 1307.70218,202.459074 C1307.98978,201.392603 1307.35839,200.294911 1306.29192,200.007309 C1269.22454,190.011114 1242.14736,172.906965 1209.06527,141.756386 C1200.15781,133.368992 1166.17199,99.3556753 1158.0572,91.5589187 C1135.65845,70.0380179 1114.93347,52.3136045 1091.14533,35.0963008 C1046.46417,2.75782999 1003.49444,-3.47095949 961.005192,12.2114606 C927.583053,24.5472878 896.869535,48.7147734 860.624586,87.0333284 C850.997312,97.2113875 820.964072,130.606754 820.818977,130.764872 C806.689355,146.162688 796.972965,155.547838 788.365348,161.611443 C754.943551,185.156411 710.662021,197.119168 664.53944,194.938072 C615.879403,192.636982 568.152668,174.889044 528.443132,142.800264 C485.59119,108.172705 440.622258,91.3035245 394.017301,89.5695916 C356.057714,88.1573089 318.543878,96.7085194 280.554294,113.068609 C250.119541,126.175757 236.755262,131.782586 216.800472,139.519074 C186.432855,151.292624 158.333828,160.676765 131.790986,167.482396 C80.1707891,180.717905 37.7827917,183.274344 6.64074431,172.742167 C5.59439472,172.388293 4.45928978,172.949656 4.10541648,173.996006 C3.75154317,175.042355 4.3129061,176.17746 5.35925569,176.531334 L5.35925569,176.531334 Z" id="Shape" fill="#59719B" sketch:type="MSShapeGroup"></path>
            </g>
        </g>
    </g>
</svg>