<?xml version="1.0" encoding="UTF-8" standalone="no"?>
<svg width="128px" height="204px" viewBox="0 0 128 204" version="1.1" xmlns="http://www.w3.org/2000/svg" xmlns:xlink="http://www.w3.org/1999/xlink" xmlns:sketch="http://www.bohemiancoding.com/sketch/ns">
    <!-- Generator: Sketch 3.3.3 (12081) - http://www.bohemiancoding.com/sketch -->
    <title>Rectangle 5 Copy + Imported Layers + &lt;/P&gt;</title>
    <desc>Created with Sketch.</desc>
    <defs></defs>
    <g id="Page-1" stroke="none" stroke-width="1" fill="none" fill-rule="evenodd" sketch:type="MSPage">
        <g id="首页-copy" sketch:type="MSArtboardGroup" transform="translate(0.000000, -1065.000000)">
            <g id="Rectangle-5-Copy-+-Imported-Layers-+-&lt;/P&gt;" sketch:type="MSLayerGroup" transform="translate(-13.000000, 1065.000000)">
                <g sketch:type="MSShapeGroup">
                    <rect id="Rectangle-5-Copy-8" fill="#182741" x="0" y="0" width="141" height="204" rx="5"></rect>
                    <path d="M8,4.99206578 L8,4.99206578 L8,199.007934 C8,197.34321 6.6560155,196 4.9975372,196 L136.002463,196 C134.343858,196 133,197.341317 133,199.007934 L133,4.99206578 C133,6.65679019 134.343985,8 136.002463,8 L4.9975372,8 C6.65614247,8 8,6.65868325 8,4.99206578 L8,4.99206578 Z M0,4.99206578 C0,2.23502398 2.24324242,0 4.9975372,0 L136.002463,0 C138.762526,0 141,2.23877467 141,4.99206578 L141,199.007934 C141,201.764976 138.756758,204 136.002463,204 L4.9975372,204 C2.23747362,204 0,201.761225 0,199.007934 L0,4.99206578 L0,4.99206578 Z" id="Shape" fill="#364A6B"></path>
                    <path d="M51.32825,40.4645 C50.10425,37.3025 49.13525,35.7725 47.35025,34.0385 C44.59625,31.2845 40.72025,29.9075 35.92625,29.9075 C31.08125,29.9075 27.20525,31.3865 24.24725,34.2425 C20.47325,37.9655 18.43325,43.5245 18.43325,50.1035 C18.43325,56.4785 20.37125,62.0375 23.94125,65.6075 C26.84825,68.5655 30.97925,70.0955 35.87525,70.0955 C41.58725,70.0955 46.22825,68.0045 49.08425,64.1795 C50.30825,62.5475 50.97125,61.1195 51.83825,58.1105 L47.60525,57.0905 C47.14625,59.4365 46.63625,60.7115 45.56525,62.1905 C43.47425,64.9445 40.05725,66.4745 36.02825,66.4745 C27.81725,66.4745 22.56425,60.0485 22.56425,49.9505 C22.56425,39.8015 27.76625,33.4775 36.02825,33.4775 C39.75125,33.4775 42.81125,34.7525 44.85125,37.1495 C45.92225,38.3735 46.48325,39.4445 47.24825,41.6375 L51.32825,40.4645 Z M84.93725,40.0565 C84.37625,37.4555 83.86625,36.1805 82.69325,34.6505 C80.39825,31.5905 76.47125,29.9585 71.42225,29.9585 C63.51725,29.9585 58.36625,34.0895 58.36625,40.5155 C58.36625,44.0855 59.94725,46.7885 63.10925,48.5735 C64.84325,49.5425 66.83225,50.2565 70.04525,50.9195 C76.21625,52.2965 76.77725,52.4495 78.46025,53.4185 C80.39825,54.4895 81.41825,56.3765 81.41825,58.8755 C81.41825,63.6185 77.74625,66.4745 71.67725,66.4745 C67.90325,66.4745 64.84325,65.1995 63.16025,62.9555 C62.08925,61.5785 61.73225,60.3545 61.57925,57.9065 L57.14225,58.4675 C57.65225,61.8335 58.21325,63.4145 59.53925,65.1995 C61.88525,68.3615 66.11825,70.0445 71.83025,70.0445 C80.60225,70.0445 85.54925,65.9645 85.54925,58.7735 C85.54925,52.8575 82.28525,49.7465 74.12525,48.0125 C68.26025,46.7375 68.20925,46.7375 66.83225,46.1765 C63.82325,44.9525 62.39525,43.0655 62.39525,40.4135 C62.39525,36.2825 66.06725,33.4775 71.32025,33.4775 C74.63525,33.4775 77.23625,34.4975 78.86825,36.4355 C79.83725,37.6085 80.24525,38.6285 80.65325,40.6685 L84.93725,40.0565 Z M119.05625,40.0565 C118.49525,37.4555 117.98525,36.1805 116.81225,34.6505 C114.51725,31.5905 110.59025,29.9585 105.54125,29.9585 C97.63625,29.9585 92.48525,34.0895 92.48525,40.5155 C92.48525,44.0855 94.06625,46.7885 97.22825,48.5735 C98.96225,49.5425 100.95125,50.2565 104.16425,50.9195 C110.33525,52.2965 110.89625,52.4495 112.57925,53.4185 C114.51725,54.4895 115.53725,56.3765 115.53725,58.8755 C115.53725,63.6185 111.86525,66.4745 105.79625,66.4745 C102.02225,66.4745 98.96225,65.1995 97.27925,62.9555 C96.20825,61.5785 95.85125,60.3545 95.69825,57.9065 L91.26125,58.4675 C91.77125,61.8335 92.33225,63.4145 93.65825,65.1995 C96.00425,68.3615 100.23725,70.0445 105.94925,70.0445 C114.72125,70.0445 119.66825,65.9645 119.66825,58.7735 C119.66825,52.8575 116.40425,49.7465 108.24425,48.0125 C102.37925,46.7375 102.32825,46.7375 100.95125,46.1765 C97.94225,44.9525 96.51425,43.0655 96.51425,40.4135 C96.51425,36.2825 100.18625,33.4775 105.43925,33.4775 C108.75425,33.4775 111.35525,34.4975 112.98725,36.4355 C113.95625,37.6085 114.36425,38.6285 114.77225,40.6685 L119.05625,40.0565 Z" id="Imported-Layers" opacity="0.169717817" fill="#FFFFFF"></path>
                    <path d="M42.2226562,136 L26.0351562,127.90625 L42.2226562,119.8125 L42.2226562,122.068359 L30.5605469,127.90625 L42.2226562,133.730469 L42.2226562,136 Z M47.8964844,140.046875 L55.1835938,115.765625 L57.3027344,115.765625 L50.015625,140.046875 L47.8964844,140.046875 Z M62.5527344,136 L62.5527344,115.765625 L68.0625,115.765625 C70.5052205,115.765625 72.2597603,116.178056 73.3261719,117.00293 C74.3925835,117.827804 74.9257812,119.183584 74.9257812,121.070312 C74.9257812,123.221365 74.1966219,124.907546 72.7382812,126.128906 C71.2799406,127.350267 69.2565234,127.960938 66.6679688,127.960938 L65.3964844,127.960938 L65.3964844,136 L62.5527344,136 Z M65.3964844,125.787109 L66.5585938,125.787109 C68.2630294,125.787109 69.5800735,125.395186 70.5097656,124.611328 C71.4394578,123.82747 71.9042969,122.720059 71.9042969,121.289062 C71.9042969,120.076817 71.5397172,119.21094 70.8105469,118.691406 C70.0813766,118.171872 68.8645919,117.912109 67.1601562,117.912109 L65.3964844,117.912109 L65.3964844,125.787109 Z M78.453125,136 L94.640625,127.90625 L78.453125,119.8125 L78.453125,122.068359 L90.1152344,127.90625 L78.453125,133.730469 L78.453125,136 Z" id="&lt;/P&gt;" opacity="0.241254664" fill="#FFFFFF"></path>
                </g>
            </g>
        </g>
    </g>
</svg>