<?xml version="1.0" encoding="UTF-8" standalone="no"?>
<svg width="178px" height="178px" viewBox="0 0 178 178" version="1.1" xmlns="http://www.w3.org/2000/svg" xmlns:xlink="http://www.w3.org/1999/xlink" xmlns:sketch="http://www.bohemiancoding.com/sketch/ns">
    <!-- Generator: Sketch 3.3.3 (12081) - http://www.bohemiancoding.com/sketch -->
    <title>Imported Layers</title>
    <desc>Created with Sketch.</desc>
    <defs>
        <path id="path-1" d="M88.9388125,177.813656 C137.869344,177.813656 177.535531,138.147469 177.535531,89.2169375 C177.535531,40.2864062 137.869344,0.62021875 88.9388125,0.62021875 C40.0082813,0.62021875 0.34209375,40.2864062 0.34209375,89.2169375 C0.34209375,138.147469 40.0082813,177.813656 88.9388125,177.813656 L88.9388125,177.813656 Z"></path>
        <path d="M36.0950625,49.3977813 C28.2880937,49.3977813 21.9579687,43.0829531 21.9579687,35.2926719 C21.9579687,27.5023906 28.2880937,21.1875625 36.0950625,21.1875625 C43.9020313,21.1875625 50.2307656,27.5023906 50.2307656,35.2926719 C50.2307656,43.0829531 43.9020313,49.3977813 36.0950625,49.3977813 M36.0950625,0.029203125 C16.5776406,0.029203125 0.75371875,15.8169687 0.75371875,35.2926719 L0.77875,77.9834687 L21.5449531,67.4383594 C25.9824375,69.4408594 30.9080312,70.5561406 36.0950625,70.5561406 C55.613875,70.5561406 71.4364063,54.768375 71.4364063,35.2926719 C71.4364063,15.8169687 55.613875,0.029203125 36.0950625,0.029203125" id="path-3"></path>
    </defs>
    <g id="Page-1" stroke="none" stroke-width="1" fill="none" fill-rule="evenodd" sketch:type="MSPage">
        <g id="Artboard-1" sketch:type="MSArtboardGroup" transform="translate(-91.000000, -91.000000)">
            <g id="Imported-Layers" sketch:type="MSLayerGroup" transform="translate(91.000000, 91.000000)">
                <g id="Group-3">
                    <mask id="mask-2" sketch:name="Clip 2" fill="white">
                        <use xlink:href="#path-1"></use>
                    </mask>
                    <g id="Clip-2"></g>
                    <path d="M0.34209375,0.62021875 L177.535531,0.62021875 L177.535531,177.813656 L0.34209375,177.813656 L0.34209375,0.62021875 Z" id="Fill-1" fill="#364A6B" sketch:type="MSShapeGroup" mask="url(#mask-2)"></path>
                </g>
                <g id="Group-6" transform="translate(52.843750, 50.062500)">
                    <mask id="mask-4" sketch:name="Clip 5" fill="white">
                        <use xlink:href="#path-3"></use>
                    </mask>
                    <g id="Clip-5"></g>
                    <path d="M36.0950625,49.3977813 C28.2880937,49.3977813 21.9579687,43.0829531 21.9579687,35.2926719 C21.9579687,27.5023906 28.2880937,21.1875625 36.0950625,21.1875625 C43.9020313,21.1875625 50.2307656,27.5023906 50.2307656,35.2926719 C50.2307656,43.0829531 43.9020313,49.3977813 36.0950625,49.3977813 M36.0950625,0.029203125 C16.5776406,0.029203125 0.75371875,15.8169687 0.75371875,35.2926719 L0.77875,77.9834687 L21.5449531,67.4383594 C25.9824375,69.4408594 30.9080312,70.5561406 36.0950625,70.5561406 C55.613875,70.5561406 71.4364063,54.768375 71.4364063,35.2926719 C71.4364063,15.8169687 55.613875,0.029203125 36.0950625,0.029203125" id="Fill-4" fill="#293953" sketch:type="MSShapeGroup" mask="url(#mask-4)"></path>
                </g>
            </g>
        </g>
    </g>
</svg>