<?xml version="1.0" encoding="UTF-8" standalone="no"?>
<svg width="87px" height="37px" viewBox="0 0 87 37" version="1.1" xmlns="http://www.w3.org/2000/svg" xmlns:xlink="http://www.w3.org/1999/xlink" xmlns:sketch="http://www.bohemiancoding.com/sketch/ns">
    <!-- Generator: Sketch 3.3.3 (12081) - http://www.bohemiancoding.com/sketch -->
    <title>Group 30</title>
    <desc>Created with Sketch.</desc>
    <defs>
        <path id="path-1" d="M69.7039311,9.23613253 C68.2551064,9.26668475 66.8568664,9.46527421 65.533072,9.80612246 C61.9043292,3.93436688 54.6048486,0.00745132365 46.2764925,0.185036126 C37.3449367,0.375987527 29.8001676,5.23188165 26.7784422,11.9524162 C25.4746909,11.6478487 24.0984028,11.4969971 22.6753477,11.5285041 C16.7559729,11.6535773 11.7499876,14.8539227 9.71132515,19.2925881 C9.18734309,19.2114337 8.64427243,19.1751529 8.0897486,19.18661 C3.66214787,19.2820857 0.138392349,22.4213268 0.220473328,26.200255 C0.300645447,29.9782285 3.95515788,32.9656631 8.38180418,32.8711422 C9.8592618,32.8386804 11.2345954,32.4682347 12.4114076,31.8476427 C15.0675863,34.3319204 18.9273011,35.8557126 23.1907399,35.7640559 C26.9502396,35.6838563 30.340375,34.3643821 32.8371638,32.274419 C36.6558382,35.0355763 41.6360539,36.6557989 47.0524441,36.5393186 C51.7692371,36.4390691 56.1004404,35.0355763 59.5831555,32.7432047 C62.425448,34.8732676 66.1820844,36.1306826 70.2765891,36.0437997 C72.118639,36.0036999 73.8814711,35.6943586 75.5135464,35.1616042 C75.5135464,35.1616042 85.6791803,33.94047 85.6791803,24.1761701 C85.6791803,14.4118703 75.5135464,10.0524498 75.5135464,10.0524498 C73.7087193,9.48436935 71.7483201,9.19221371 69.7039311,9.23613253 L69.7039311,9.23613253 Z"></path>
    </defs>
    <g id="Page-1" stroke="none" stroke-width="1" fill="none" fill-rule="evenodd" sketch:type="MSPage">
        <g id="首页" sketch:type="MSArtboardGroup" transform="translate(-54.000000, -642.000000)">
            <g id="Group-30" sketch:type="MSLayerGroup" transform="translate(54.668601, 642.420025)">
                <mask id="mask-2" sketch:name="Clip 29" fill="white">
                    <use xlink:href="#path-1"></use>
                </mask>
                <g id="Clip-29"></g>
                <path d="M0.138392349,0.00745132365 L85.6791803,0.00745132365 L85.6791803,36.6567537 L0.138392349,36.6567537 L0.138392349,0.00745132365 Z" id="Fill-28" fill="#FFFFFF" sketch:type="MSShapeGroup" mask="url(#mask-2)"></path>
            </g>
        </g>
    </g>
</svg>