<?xml version="1.0" encoding="UTF-8" standalone="no"?>
<svg width="1184px" height="407px" viewBox="0 0 1184 407" version="1.1" xmlns="http://www.w3.org/2000/svg" xmlns:xlink="http://www.w3.org/1999/xlink" xmlns:sketch="http://www.bohemiancoding.com/sketch/ns">
    <!-- Generator: Sketch 3.3.3 (12081) - http://www.bohemiancoding.com/sketch -->
    <title>Rectangle 52 + Group</title>
    <desc>Created with Sketch.</desc>
    <defs></defs>
    <g id="Page-1" stroke="none" stroke-width="1" fill="none" fill-rule="evenodd" sketch:type="MSPage">
        <g id="首页-copy" sketch:type="MSArtboardGroup" transform="translate(0.000000, -410.000000)">
            <g id="Rectangle-52-+-Group" sketch:type="MSLayerGroup" transform="translate(-158.000000, 394.000000)">
                <path d="M202.318568,79.1073639 C191.73521,33.77015 151.061326,0 102.5,0 C45.8908131,0 0,45.8908131 0,102.5 C0,159.109187 45.8908131,205 102.5,205 C118.053275,205 132.797456,201.535859 146.003074,195.337033 C146.001026,195.557779 146,195.77877 146,196 C146,210.526326 150.424756,224.019195 158,235.204339 L158,423 L1342,423 L1342,229.746216 C1362.21411,219.122467 1376,197.921167 1376,173.5 C1376,165.924171 1374.67333,158.658201 1372.23965,151.921743 C1396.63986,146.949442 1415,125.368841 1415,99.5 C1415,69.9527659 1391.04723,46 1361.5,46 C1331.95277,46 1308,69.9527659 1308,99.5 C1308,103.126316 1308.36079,106.668365 1309.04843,110.09221 C1278.70529,111.717544 1254.01974,134.644663 1249.67805,164.187287 C1241.95843,160.849625 1233.44522,159 1224.5,159 C1206.71382,159 1190.63557,166.312525 1179.10769,178.095144 C1174.71455,155.254731 1154.62231,138 1130.5,138 C1108.82744,138 1090.40795,151.928077 1083.70426,171.321511 C1078.93429,168.572582 1073.40079,167 1067.5,167 C1052.15843,167 1039.29962,177.62997 1035.88715,191.926336 C1032.4142,186.555004 1026.37226,183 1019.5,183 C1016.72118,183 1014.07811,183.58125 1011.68575,184.628802 L1011.68575,184.628802 C1004.90102,176.31127 994.570767,171 983,171 C980.519258,171 978.095538,171.244139 975.751555,171.709701 C968.967914,163.345725 958.608237,158 947,158 C934.495046,158 923.439002,164.203521 916.741461,173.70097 C911.028427,170.089979 904.258284,168 897,168 C884.601034,168 873.62652,174.098809 866.912697,183.46019 L866.912697,183.46019 C863.540658,180.674001 859.215821,179 854.5,179 C849.41494,179 844.784487,180.946406 841.313024,184.134834 L841.313026,184.134838 C833.605819,164.724126 814.65563,151 792.5,151 C772.007589,151 754.25742,162.740932 745.609389,179.862901 L745.609389,179.862901 C740.640119,176.780024 734.777933,175 728.5,175 C723.534984,175 718.830006,176.113355 714.621105,178.104026 C710.590567,164.735947 698.18226,155 683.5,155 C668.19985,155 655.369074,165.572649 651.914997,179.810623 L651.914997,179.810623 C642.626668,170.069714 629.522163,164 615,164 C604.35165,164 594.465508,167.263399 586.287149,172.844623 C580.485867,151.053957 560.617735,135 537,135 C512.611226,135 492.220874,152.119282 487.19001,174.996782 C477.823411,166.310467 465.281869,161 451.5,161 C439.71635,161 428.839433,164.882184 420.078482,171.437319 C415.692962,165.700599 408.778642,162 401,162 C392.548485,162 385.117291,166.368513 380.841285,172.970673 L380.841288,172.970668 C370.016862,153.88067 349.512652,141 326,141 C306.721379,141 289.465267,149.659387 277.909024,163.3008 C268.844475,146.174522 252.88144,133.261373 233.72119,128.262624 C236.444826,123.462788 238,117.913009 238,112 C238,93.7746033 223.225397,79 205,79 C204.097265,79 203.202996,79.0362479 202.318569,79.1073676 Z" id="Rectangle-52" fill="#212E44" sketch:type="MSShapeGroup"></path>
                <g id="Group" transform="translate(263.000000, 120.000000)" fill="#FFFFFF" sketch:type="MSShapeGroup">
                    <path d="M125.76324,78.5 C125.919991,76.687531 126,74.853109 126,73 C126,38.2060608 97.7939392,10 63,10 C28.2060608,10 0,38.2060608 0,73 C0,74.853109 0.0800086929,76.687531 0.236760115,78.5 C3.02316893,46.2815875 30.0591689,21 63,21 C95.9408311,21 122.976831,46.2815875 125.76324,78.5000026 Z" id="Oval-16-Copy-23"></path>
                    <path d="M228.736202,104.999999 C228.799704,104.265751 228.832116,103.522609 228.832116,102.771897 C228.832116,88.6765432 217.405574,77.2500013 203.31022,77.2500013 C189.214866,77.2500013 177.788325,88.6765432 177.788325,102.771897 C177.788325,103.522609 177.820737,104.265751 177.884238,104.999999 C179.013039,91.9480149 189.965578,81.7062053 203.31022,81.7062053 C216.654862,81.7062053 227.607401,91.9480149 228.736202,104.999999 Z" id="Oval-16-Copy-25"></path>
                    <path d="M856.714311,110.874998 C856.777813,110.14075 856.810225,109.397608 856.810225,108.646896 C856.810225,94.5515425 845.383683,83.1250007 831.288329,83.1250007 C817.192976,83.1250007 805.766434,94.5515425 805.766434,108.646896 C805.766434,109.397608 805.798846,110.14075 805.862347,110.874998 C806.991149,97.8230142 817.943688,87.5812047 831.288329,87.5812047 C844.632971,87.5812047 855.58551,97.8230142 856.714311,110.874998 Z" id="Oval-16-Copy-29" transform="translate(831.288329, 97.000000) rotate(-45.000000) translate(-831.288329, -97.000000) "></path>
                    <path d="M595.640437,81.2534828 C595.772929,79.7215149 595.840556,78.1709916 595.840556,76.6046732 C595.840556,47.1955103 571.999719,23.3546732 542.590556,23.3546732 C513.181393,23.3546732 489.340556,47.1955103 489.340556,76.6046732 C489.340556,78.1709916 489.408182,79.7215149 489.540674,81.2534828 C491.895853,54.0212531 514.74771,32.6522923 542.590556,32.6522923 C570.433401,32.6522923 593.285258,54.0212531 595.640437,81.253485 Z" id="Oval-16-Copy-27" transform="translate(542.590556, 52.304079) rotate(-330.000000) translate(-542.590556, -52.304079) "></path>
                    <path d="M690.014757,89.6296868 C690.048284,89.2420244 690.065397,88.8496665 690.065397,88.4533118 C690.065397,81.0113626 684.032505,74.9784709 676.590556,74.9784709 C669.148607,74.9784709 663.115715,81.0113626 663.115715,88.4533118 C663.115715,88.8496665 663.132828,89.2420244 663.166355,89.6296868 C663.76233,82.7386074 669.544961,77.3312209 676.590556,77.3312209 C683.63615,77.3312209 689.418782,82.7386074 690.014757,89.6296868 Z" id="Oval-16-Copy-32" transform="translate(676.590556, 82.304079) rotate(-9.000000) translate(-676.590556, -82.304079) "></path>
                    <path d="M389.90978,84.4015566 C390.012284,83.2163356 390.064604,82.016759 390.064604,80.8049625 C390.064604,58.0522944 371.619922,39.6076126 348.867254,39.6076126 C326.114586,39.6076126 307.669904,58.0522944 307.669904,80.8049625 C307.669904,82.016759 307.722224,83.2163356 307.824728,84.4015566 C309.646834,63.3330919 327.326382,46.8008007 348.867254,46.8008007 C370.408126,46.8008007 388.087674,63.3330919 389.90978,84.4015566 Z" id="Oval-16-Copy-31" transform="translate(348.867254, 62.004585) rotate(-15.000000) translate(-348.867254, -62.004585) "></path>
                    <path d="M992.885107,99.2456709 C993.017599,97.7137031 993.085226,96.1631797 993.085226,94.5968614 C993.085226,65.1876985 969.244388,41.3468614 939.835226,41.3468614 C910.426063,41.3468614 886.585226,65.1876985 886.585226,94.5968614 C886.585226,96.1631797 886.652852,97.7137031 886.785344,99.2456709 C889.140523,72.0134413 911.99238,50.6444804 939.835226,50.6444804 C967.678071,50.6444804 990.529928,72.0134413 992.885107,99.2456731 Z" id="Oval-16-Copy-28" transform="translate(939.835226, 70.296267) rotate(-45.000000) translate(-939.835226, -70.296267) "></path>
                    <path d="M258.963997,99.8749987 C259.002327,99.4318038 259.021891,98.9832408 259.021891,98.5301084 C259.021891,90.0221023 252.124789,83.1250007 243.616783,83.1250007 C235.108777,83.1250007 228.211675,90.0221023 228.211675,98.5301084 C228.211675,98.9832408 228.23124,99.4318038 228.269569,99.8749987 C228.950918,91.9967743 235.56191,85.8147814 243.616783,85.8147814 C251.671657,85.8147814 258.282649,91.9967743 258.963997,99.8749987 Z" id="Oval-16-Copy-26"></path>
                    <path d="M886.942106,105.749998 C886.980436,105.306803 887,104.85824 887,104.405108 C887,95.8971017 880.102898,89 871.594892,89 C863.086886,89 856.189785,95.8971017 856.189785,104.405108 C856.189785,104.85824 856.209349,105.306803 856.247678,105.749998 C856.929027,97.8717737 863.540019,91.6897807 871.594892,91.6897807 C879.649766,91.6897807 886.260758,97.8717737 886.942106,105.749998 Z" id="Oval-16-Copy-30" transform="translate(871.594892, 97.374999) rotate(-45.000000) translate(-871.594892, -97.374999) "></path>
                </g>
            </g>
        </g>
    </g>
</svg>