<?xml version="1.0" encoding="utf-8"?>
<!-- Generator: Adobe Illustrator 19.0.0, SVG Export Plug-In . SVG Version: 6.00 Build 0)  -->
<svg version="1.1" id="图层_1" xmlns:sketch="http://www.bohemiancoding.com/sketch/ns"
	 xmlns="http://www.w3.org/2000/svg" xmlns:xlink="http://www.w3.org/1999/xlink" x="0px" y="0px" viewBox="-209 231 605 564"
	 enable-background="new -209 231 605 564" xml:space="preserve">
<title>Group + Rectangle 251 + Group</title>
<desc>Created with Sketch.</desc>
<g id="Group" transform="translate(30.000000, 0.000000)" sketch:type="MSShapeGroup">
	<g>
		<path fill="#212E44" d="M353,794h-20V337.3c0-16-4.9-28.9-14.5-38.4c-20.4-20.1-55.8-19.9-56.1-19.9l-0.2,0H-239v-20h501.1
			c2.9,0,44.2-0.1,70.3,25.5c13.7,13.4,20.6,31.2,20.6,52.8V794z"/>
		<path fill="#364A6B" d="M344,794h-2V337.3c0-18.5-5.8-33.6-17.3-44.9c-23.2-22.8-62.1-22.4-62.5-22.4H-239v-2h501.2
			c0.4,0,40.1-0.4,63.9,22.9c11.9,11.7,17.9,27.3,17.9,46.3V794z"/>
		<g id="Path-749-_x2B_-Path-749-Copy-2" transform="translate(32.718750, 0.447930)">
			<path id="Path-749" fill="#212E44" d="M-220.7,230.6h22.4l19.3,37.7h-59.6L-220.7,230.6z"/>
			<path id="Path-749-Copy" fill="#212E44" d="M-220.7,302.6h22.4l19.3-37.7h-59.6L-220.7,302.6z"/>
		</g>
		<g id="Group-Copy-17" transform="translate(235.718750, 19.447930)">
			<rect x="-194" y="264" fill="#212E44" width="4" height="83.5"/>
			<path id="Rectangle-9" fill="#212E44" d="M-199,306h15c2.8,0,5,1.8,5,4l0,0c0,2.2-2.2,4-5,4h-15c-2.8,0-5-1.8-5-4l0,0
				C-204,307.8-201.8,306-199,306z"/>
			<path id="Rectangle-9-Copy" fill="#212E44" d="M-199,316h15c2.8,0,5,1.8,5,4l0,0c0,2.2-2.2,4-5,4h-15c-2.8,0-5-1.8-5-4l0,0
				C-204,317.8-201.8,316-199,316z"/>
			<circle id="Oval-16" fill="#212E44" cx="-192" cy="313" r="5"/>
			<path id="Path-752" fill="#212E44" d="M-191.5,358.9h-45.3c-2.2,0-2.7-1.3-1.2-2.8l36.1-36.1l10.4,0.3l10.4-0.3l36.1,36.1
				c1.6,1.6,1,2.8-1.2,2.8H-191.5z"/>
			<circle id="Oval-17" fill="#212E44" cx="-190.5" cy="354.5" r="16.5"/>
			<path id="Rectangle-12" fill="#212E44" d="M-194,230h4c2.8,0,5,2.2,5,5v28c0,2.8-2.2,5-5,5h-4c-2.8,0-5-2.2-5-5v-28
				C-199,232.2-196.8,230-194,230z"/>
		</g>
		<path id="Rectangle-12-Copy-4" fill="#212E44" d="M135.7,254.4h4c2.8,0,5,2.2,5,5v19c0,2.8-2.2,5-5,5h-4c-2.8,0-5-2.2-5-5v-19
			C130.7,256.7,133,254.4,135.7,254.4z"/>
		<path id="Rectangle-12-Copy-5" fill="#212E44" d="M245.7,252L245.7,252c1.1,0,2,2.2,2,5v22c0,2.8-0.9,5-2,5l0,0c-1.1,0-2-2.2-2-5
			v-22C243.7,254.2,244.6,252,245.7,252z"/>
		<path id="Rectangle-12-Copy-6" fill="#212E44" d="M255.7,252L255.7,252c1.1,0,2,2.2,2,5v22c0,2.8-0.9,5-2,5l0,0c-1.1,0-2-2.2-2-5
			v-22C253.7,254.2,254.6,252,255.7,252z"/>
		<path fill="#212E44" d="M-71,330.9c-33.6,0-52.1-18.9-61.8-34.8c-10.4-17.1-12.8-33.9-12.9-34.6l4-0.6c0,0.2,2.4,16.8,12.4,33.2
			c13.2,21.7,32.8,32.8,58.3,32.8c25.4,0,44.5-11.4,56.9-33.8C-4.8,276.2-3,259-3,258.8l4,0.4c-0.1,0.7-1.8,18.1-11.5,35.7
			C-19.5,311.4-37.3,330.9-71,330.9z"/>
		<path fill="#212E44" d="M-33.2,380.9c-26.8,0-48.2-20.8-62-60.2c-10.2-29.3-12.7-59-12.7-59.3l4-0.3c0.1,1.2,10,115.8,70.7,115.8
			c60.7,0,67.9-116.9,67.9-118.1l4,0.2c0,0.3-1.8,30.6-11.3,60.5C14.5,359.7-6.4,380.9-33.2,380.9z"/>
		<path fill="#212E44" d="M152.2,336.9c-22.4,0-40.4-13.3-51.9-38.4c-8.6-18.7-10.6-37.1-10.7-37.9l4-0.4c0,0.2,2,18.6,10.4,36.7
			c11,23.9,27.2,36,48.3,36c21,0,36.9-12.4,47.1-36.7c7.8-18.5,9.2-37.2,9.2-37.3l4,0.3c-0.1,0.8-1.5,19.5-9.5,38.6
			C192.3,323.4,174.7,336.9,152.2,336.9z"/>
		<path fill="#212E44" d="M193.5,313.4c-15.7,0-28.3-9.3-36.4-26.9c-6-13-7.4-25.8-7.4-26.4l4-0.4c0.1,0.5,5.7,49.7,39.9,49.7
			c34.2,0,38.3-50.1,38.3-50.6l4,0.3c0,0.5-1.1,13.6-6.6,26.9C221.6,304,209.2,313.4,193.5,313.4z"/>
	</g>
	<path id="Rectangle-246" fill="#212E44" d="M328,623h30c4.4,0,8,1.8,8,4l0,0c0,2.2-3.6,4-8,4h-30c-4.4,0-8-1.8-8-4l0,0
		C320,624.8,323.6,623,328,623z"/>
	<path id="Rectangle-246-Copy" fill="#212E44" d="M328,637h30c4.4,0,8,2,8,4.5l0,0c0,2.5-3.6,4.5-8,4.5h-30c-4.4,0-8-2-8-4.5l0,0
		C320,639,323.6,637,328,637z"/>
	<path id="Rectangle-246-Copy-2" fill="#212E44" d="M328,758h30c4.4,0,8,2,8,4.5l0,0c0,2.5-3.6,4.5-8,4.5h-30c-4.4,0-8-2-8-4.5l0,0
		C320,760,323.6,758,328,758z"/>
</g>
<g>
	<defs>
		<rect id="SVGID_1_" x="-209" y="531" width="123" height="264"/>
	</defs>
	<clipPath id="SVGID_2_">
		<use xlink:href="#SVGID_1_"  overflow="visible"/>
	</clipPath>
	
		<g id="Rectangle-251-_x2B_-Group" transform="translate(0.000000, 360.000000)" sketch:type="MSShapeGroup" clip-path="url(#SVGID_2_)">
		<path id="Rectangle-251" fill="#212E44" d="M-222,230.1h75c9.4,0,17,7.6,17,17v170c0,9.4-7.6,17-17,17h-75c-9.4,0-17-7.6-17-17
			v-170C-239,237.7-231.4,230.1-222,230.1z"/>
		<g id="Group_1_" transform="translate(18.059172, 27.506250)">
			<path id="Rectangle-252" fill="#364A6B" d="M-222,230h39.5c9.4,0,17,3.6,17,8l0,0c0,4.4-7.6,8-17,8H-222c-9.4,0-17-3.6-17-8l0,0
				C-239,233.6-231.4,230-222,230z"/>
			<path id="Rectangle-252-Copy" fill="#364A6B" d="M-222,263.1h39.5c9.4,0,17,3.6,17,8l0,0c0,4.4-7.6,8-17,8H-222
				c-9.4,0-17-3.6-17-8l0,0C-239,266.7-231.4,263.1-222,263.1z"/>
			<path id="Rectangle-252-Copy-2" fill="#364A6B" d="M-222,296.3h39.5c9.4,0,17,3.6,17,8l0,0c0,4.4-7.6,8-17,8H-222
				c-9.4,0-17-3.6-17-8l0,0C-239,299.9-231.4,296.3-222,296.3z"/>
			<path id="Rectangle-252-Copy-3" fill="#364A6B" d="M-222,329.5h39.5c9.4,0,17,3.6,17,8l0,0c0,4.4-7.6,8-17,8H-222
				c-9.4,0-17-3.6-17-8l0,0C-239,333-231.4,329.5-222,329.5z"/>
			<path id="Rectangle-252-Copy-4" fill="#364A6B" d="M-222,363.9h39.5c9.4,0,17,3.6,17,8l0,0c0,4.4-7.6,8-17,8H-222
				c-9.4,0-17-3.6-17-8l0,0C-239,367.4-231.4,363.9-222,363.9z"/>
		</g>
	</g>
</g>
</svg>
