<?xml version="1.0" encoding="UTF-8" standalone="no"?>
<svg width="419px" height="118px" viewBox="0 0 419 118" version="1.1" xmlns="http://www.w3.org/2000/svg" xmlns:xlink="http://www.w3.org/1999/xlink" xmlns:sketch="http://www.bohemiancoding.com/sketch/ns">
    <!-- Generator: Sketch 3.3.3 (12081) - http://www.bohemiancoding.com/sketch -->
    <title>Group + Group 30</title>
    <desc>Created with Sketch.</desc>
    <defs>
        <path id="path-1" d="M7.61582417,29.6030203 C4.37587397,32.3517201 2.0326398,35.8633907 0.990645768,39.7822298 C0.897968414,40.1355266 0.825329407,40.4374576 0.761457177,40.7418943 C0.680051393,41.1603381 0.627450733,41.4384654 0.584869246,41.7228569 L0.551054536,41.9897088 C0.518492223,42.232757 0.484677512,42.4758052 0.462134372,42.7188534 C0.447105612,42.872951 0.440843629,43.0320598 0.430824455,43.1874102 C0.418300489,43.3715756 0.402019332,43.5532354 0.394504952,43.7399064 C0.381980985,44.0831807 0.379476192,44.4314662 0.385738175,44.7797518 C0.62870313,56.2280738 11.7011421,65.2747287 25.1130581,64.9878316 C29.5891238,64.8888584 33.7583523,63.7675793 37.3201685,61.8845821 C48.6318152,72.4684543 53.7979515,74.0996335 69.9814213,73.7513479 C81.3694642,73.5082997 91.6416217,69.5092798 99.2035928,63.1787512 C110.773233,71.5438689 125.860856,76.4536931 142.268505,76.0991434 C156.562108,75.7947068 169.682216,71.5438689 180.237415,64.5982028 C188.846389,71.0552668 200.225666,74.8613516 212.62815,74.5982581 C213.02516,74.5894884 213.422169,74.5769601 213.816674,74.5594205 C214.502988,74.5243414 214.752215,74.513066 214.997684,74.4980321 C215.735346,74.4454134 215.953263,74.4278738 216.17118,74.4103343 C216.926375,74.340176 217.131768,74.3226365 217.335909,74.2988328 C218.098619,74.2136406 218.295245,74.1910898 218.491871,74.1647804 C219.255833,74.0620487 219.44745,74.0357394 219.637814,74.00943 C220.403028,73.8891587 220.588383,73.8603438 220.773738,73.8277703 C221.5377,73.6924651 221.72055,73.657386 221.902147,73.6223069 C222.6611,73.4732206 222.840192,73.4356358 223.018033,73.3967982 C223.77448,73.2339309 223.948563,73.1925876 224.122647,73.1512444 C224.875337,72.9695846 225.044411,72.9257357 225.213484,72.8818868 C225.964922,72.6851932 226.127734,72.6388386 226.291798,72.5949897 C227.554213,72.2266589 227.754597,72.1652705 227.953728,72.1026292 C228.602469,71.8921545 228.807863,71.8282603 229.012003,71.7581021 C230.186751,71.3509337 230.982023,71.0515084 231.764771,70.7383019 C232.270739,70.5340913 232.47989,70.4463935 232.690292,70.3549372 C233.265142,70.1093834 233.464273,70.0216856 233.663404,69.9302293 C234.250778,69.6646302 234.442395,69.5731739 234.634012,69.4829705 C235.222638,69.2010847 235.410498,69.1083756 235.597105,69.0144136 C236.183227,68.7187468 236.366076,68.6222792 236.550179,68.5220531 C236.682933,68.4544005 236.814434,68.3842423 236.945936,68.314084 C237.128786,68.2151108 237.309131,68.1148847 237.489476,68.0159115 C237.619726,67.9419948 237.749975,67.8693309 237.877719,67.796667 C238.058064,67.6939353 238.237157,67.5912036 238.41625,67.4884718 C238.542742,67.4120495 238.667982,67.3393856 238.793221,67.2667217 C238.972314,67.1577258 239.150154,67.0499828 239.326742,66.940987 C239.449477,66.8683231 239.57096,66.7919007 239.692442,66.7154783 C239.870282,66.6039768 240.04687,66.4937282 240.223458,66.3784682 C240.339931,66.3032987 240.456404,66.2268763 240.572877,66.1504539 C240.749465,66.0339411 240.927305,65.9161755 241.102641,65.7996627 L241.433273,65.5741541 C241.612366,65.4513771 241.790206,65.3273474 241.966794,65.2020648 L242.26737,64.9853259 C242.451472,64.8537792 242.634322,64.7222325 242.814667,64.5869273 C243.263025,64.2499172 243.454642,64.1045894 243.645006,63.9580088 C244.80222,63.0497101 245.75279,62.2391318 246.660777,61.3984857 C246.912509,61.1642073 247.104126,60.9825476 247.29449,60.7983822 C247.632637,60.4701418 247.80672,60.2972519 247.979551,60.1218563 C248.340241,59.7560311 248.504305,59.5856468 248.667117,59.4140097 C249.032816,59.0268865 249.188114,58.8565022 249.344663,58.6848651 L249.551309,58.455598 C249.704101,58.282708 249.855641,58.1110709 250.005929,57.9381809 L250.208817,57.7013969 C250.357852,57.5285069 250.504382,57.3493528 250.650913,57.1739572 L250.843782,56.9359203 C250.990312,56.7580191 251.134338,56.5763593 251.275859,56.3946996 L251.456204,56.1641796 C251.60023,55.9762558 251.743003,55.7883319 251.883271,55.6016609 C252.188856,55.1882284 252.329124,54.9927875 252.469393,54.7960939 C252.752435,54.3889255 252.893955,54.1847149 253.034224,53.9767458 C253.28846,53.5921283 253.434991,53.3703782 253.576512,53.1448695 C254.99172,50.904817 256.674941,50.293438 257.566647,47.9506538 C257.681868,47.6462172 257.783312,47.3680898 257.883504,47.0836984 C258.003734,46.741677 258.096411,46.4660553 258.185331,46.1904336 C258.301804,45.8246085 258.385715,45.5527453 258.465868,45.2771236 C258.576079,44.9000231 258.652475,44.6244014 258.725114,44.3462741 C258.805268,44.0380789 258.860373,43.8276042 258.912974,43.6146238 C259.863543,43.8138231 258.912974,38.558219 260.025102,35.6516632 C261.135978,32.7451074 263.193666,28.9816187 265.313973,27.5371106 C267.064824,26.3456733 270.296007,27.6147858 274.04944,28.8851511 C276.80346,29.8172535 279.83927,30.7493559 282.779897,30.7080126 C289.728194,30.6140507 295.288835,28.4341339 298.360964,23.2349069 C301.434346,18.0356799 290.245434,0.998502145 290.245434,0.998502145 C290.245434,0.998502145 5.345229,30.267018 7.61582417,29.6030203 L7.61582417,29.6030203 Z"></path>
        <path id="path-3" d="M122.59711,16.5485757 C120.053493,16.6024472 117.597543,16.9507328 115.273095,17.5495835 C108.902153,7.23882735 96.0838727,0.342021437 81.4583844,0.653975056 C65.7771257,0.989732365 52.5280212,9.51771744 47.2216165,21.3180834 C44.9322354,20.781874 42.5151099,20.5187806 40.0178309,20.5726521 C29.6229385,20.7931494 20.8336187,26.4120731 17.2517642,34.207155 C16.332505,34.0655857 15.3781787,34.0016916 14.4063189,34.0217368 C6.63018799,34.1883627 0.443348422,39.7007961 0.586121643,46.3370142 C0.727642467,52.9707267 7.14492302,58.2150554 14.9185492,58.0509353 C17.5122627,57.9933053 19.9281359,57.3418359 21.9945904,56.2531303 C26.6585156,60.6154696 33.435234,63.2915055 40.9220613,63.1311438 C47.5234441,62.9895745 53.4760855,60.6718468 57.8607263,57.0023201 C64.5660581,61.8507558 73.3102916,64.697176 82.820992,64.4917126 C91.1043436,64.3150641 98.7088962,61.8507558 104.825602,57.8254266 C109.816402,61.5663644 116.412776,63.7738434 123.602785,63.6209987 C126.836473,63.5520933 129.932398,63.0083669 132.797881,62.072506 C132.797881,62.072506 150.649543,59.9276683 150.649543,42.7814947 C150.649543,25.6365739 132.797881,17.9818084 132.797881,17.9818084 C129.628065,16.9845591 126.187732,16.4721533 122.59711,16.5485757 L122.59711,16.5485757 Z"></path>
        <path id="path-5" d="M23.9608531,57.7600346 C25.6403171,57.7249555 27.2847139,57.8339514 28.8752577,58.0795052 C35.0508257,44.6329261 50.2186018,34.9373074 68.1504173,34.5564484 C72.4586619,34.4637393 76.6316476,34.9172622 80.5779495,35.8405948 C89.735474,15.4796703 112.59547,0.770242825 139.652248,0.191437315 C164.886789,-0.348530595 186.997852,11.548303 197.988885,29.3396819 C202.004069,28.3061006 206.238422,27.7047442 210.62682,27.6132879 C236.904607,27.0507692 258.59737,44.7744955 259.073281,67.2000769 C259.552948,89.6306696 238.637924,108.267706 212.361389,108.828972 C199.958905,109.093318 188.578377,105.283475 179.970654,98.8276637 C169.415455,105.77333 156.295348,110.026673 142.001744,110.328604 C125.592843,110.683154 110.506473,105.77333 98.93558,97.4107177 C91.3748612,103.741246 81.1027037,107.737761 69.7134084,107.980809 C56.7936843,108.258936 45.101309,103.644779 37.053408,96.1165487 C33.4915918,97.9995458 29.3223633,99.1183192 24.8462976,99.2172925 C11.4343816,99.5041896 0.361942638,90.4562818 0.118977684,79.0079598 C-0.126492064,67.5608907 10.5489372,58.0469318 23.9608531,57.7600346 L23.9608531,57.7600346 Z"></path>
        <path id="path-7" d="M72.487467,18.7097002 C70.5650381,14.5202508 65.8372407,11.4996878 60.2502991,11.3794165 C58.9064775,11.3518544 57.6064898,11.4921709 56.3778886,11.7803208 C53.5224242,5.43601105 46.4000443,0.851921529 37.9676575,0.671514617 C30.1051112,0.502383137 23.2144247,4.21074744 19.7891198,9.75575433 C18.5379756,9.43252528 17.2192019,9.24585424 15.8515847,9.21703925 C7.66341524,9.04164364 0.904230398,14.5653525 0.755195194,21.5523619 C0.60615999,28.5406241 7.12363227,34.3474715 15.3118017,34.5228671 C19.1766979,34.6055536 22.7222328,33.4178748 25.4036141,31.4083423 C28.6936602,33.5719724 32.7827353,34.8962092 37.2362579,34.9926768 C42.3485411,35.1029255 47.0500382,33.5719724 50.6544358,30.9648419 C53.0114464,32.9380425 56.2138247,34.1833514 59.7618644,34.2610266 C63.7883197,34.3462187 67.4315417,32.9092275 69.9400922,30.5626849 C71.0497156,31.1477545 72.348451,31.4985457 73.7423685,31.5286135 C77.9216162,31.6175642 81.3732214,28.7987062 81.4483652,25.2319112 C81.5260138,21.6651162 78.1971435,18.6996776 74.0178958,18.6107269 C73.4956463,18.5994515 72.9834161,18.6345306 72.487467,18.7097002 L72.487467,18.7097002 Z"></path>
        <path id="path-9" d="M69.7039311,9.23613253 C68.2551064,9.26668475 66.8568664,9.46527421 65.533072,9.80612246 C61.9043292,3.93436688 54.6048486,0.00745132365 46.2764925,0.185036126 C37.3449367,0.375987527 29.8001676,5.23188165 26.7784422,11.9524162 C25.4746909,11.6478487 24.0984028,11.4969971 22.6753477,11.5285041 C16.7559729,11.6535773 11.7499876,14.8539227 9.71132515,19.2925881 C9.18734309,19.2114337 8.64427243,19.1751529 8.0897486,19.18661 C3.66214787,19.2820857 0.138392349,22.4213268 0.220473328,26.200255 C0.300645447,29.9782285 3.95515788,32.9656631 8.38180418,32.8711422 C9.8592618,32.8386804 11.2345954,32.4682347 12.4114076,31.8476427 C15.0675863,34.3319204 18.9273011,35.8557126 23.1907399,35.7640559 C26.9502396,35.6838563 30.340375,34.3643821 32.8371638,32.274419 C36.6558382,35.0355763 41.6360539,36.6557989 47.0524441,36.5393186 C51.7692371,36.4390691 56.1004404,35.0355763 59.5831555,32.7432047 C62.425448,34.8732676 66.1820844,36.1306826 70.2765891,36.0437997 C72.118639,36.0036999 73.8814711,35.6943586 75.5135464,35.1616042 C75.5135464,35.1616042 85.6791803,33.94047 85.6791803,24.1761701 C85.6791803,14.4118703 75.5135464,10.0524498 75.5135464,10.0524498 C73.7087193,9.48436935 71.7483201,9.19221371 69.7039311,9.23613253 L69.7039311,9.23613253 Z"></path>
    </defs>
    <g id="Page-1" stroke="none" stroke-width="1" fill="none" fill-rule="evenodd" sketch:type="MSPage">
        <g id="Group-+-Group-30" sketch:type="MSLayerGroup" transform="translate(0.000000, -1.000000)">
            <g id="Group" transform="translate(108.052594, 0.129294)">
                <g id="Group-15" transform="translate(0.279311, 42.461430)">
                    <mask id="mask-2" sketch:name="Clip 14" fill="white">
                        <use xlink:href="#path-1"></use>
                    </mask>
                    <g id="Clip-14"></g>
                    <path d="M0.325623135,0.952147591 L298.947086,0.952147591 L298.947086,76.1216943 L0.325623135,76.1216943 L0.325623135,0.952147591 Z" id="Fill-13" fill="#E6E6E6" sketch:type="MSShapeGroup" mask="url(#mask-2)"></path>
                </g>
                <g id="Group-18" transform="translate(159.333689, 4.876657)">
                    <mask id="mask-4" sketch:name="Clip 17" fill="white">
                        <use xlink:href="#path-3"></use>
                    </mask>
                    <g id="Clip-17"></g>
                    <path d="M0.443348422,0.342021437 L150.648291,0.342021437 L150.648291,64.6959232 L0.443348422,64.6959232 L0.443348422,0.342021437 Z" id="Fill-16" fill="#E9E9E9" sketch:type="MSShapeGroup" mask="url(#mask-4)"></path>
                </g>
                <g id="Group-21" transform="translate(0.279311, 0.865354)">
                    <mask id="mask-6" sketch:name="Clip 20" fill="white">
                        <use xlink:href="#path-5"></use>
                    </mask>
                    <g id="Clip-20"></g>
                    <path d="M-0.126492064,-0.348530595 L259.552948,-0.348530595 L259.552948,110.683154 L-0.126492064,110.683154 L-0.126492064,-0.348530595 Z" id="Fill-19" fill="#FFFFFF" sketch:type="MSShapeGroup" mask="url(#mask-6)"></path>
                </g>
                <g id="Group-24" transform="translate(211.934349, 80.046204)">
                    <mask id="mask-8" sketch:name="Clip 23" fill="white">
                        <use xlink:href="#path-7"></use>
                    </mask>
                    <g id="Clip-23"></g>
                    <path d="M0.60615999,0.502383137 L81.5260138,0.502383137 L81.5260138,35.1029255 L0.60615999,35.1029255 L0.60615999,0.502383137 Z" id="Fill-22" fill="#F6F6F6" sketch:type="MSShapeGroup" mask="url(#mask-8)"></path>
                </g>
            </g>
            <g id="Group-30" transform="translate(0.668601, 63.191507)">
                <mask id="mask-10" sketch:name="Clip 29" fill="white">
                    <use xlink:href="#path-9"></use>
                </mask>
                <g id="Clip-29"></g>
                <path d="M0.138392349,0.00745132365 L85.6791803,0.00745132365 L85.6791803,36.6567537 L0.138392349,36.6567537 L0.138392349,0.00745132365 Z" id="Fill-28" fill="#FFFFFF" sketch:type="MSShapeGroup" mask="url(#mask-10)"></path>
            </g>
        </g>
    </g>
</svg>