<?xml version="1.0" encoding="UTF-8" standalone="no"?>
<svg width="515px" height="370px" viewBox="0 0 515 370" version="1.1" xmlns="http://www.w3.org/2000/svg" xmlns:xlink="http://www.w3.org/1999/xlink" xmlns:sketch="http://www.bohemiancoding.com/sketch/ns">
    <!-- Generator: Sketch 3.3.3 (12081) - http://www.bohemiancoding.com/sketch -->
    <title>Group</title>
    <desc>Created with Sketch.</desc>
    <defs></defs>
    <g id="Page-1" stroke="none" stroke-width="1" fill="none" fill-rule="evenodd" sketch:type="MSPage">
        <g id="首页-copy" sketch:type="MSArtboardGroup" transform="translate(-330.000000, -918.000000)">
            <g id="Group" sketch:type="MSLayerGroup" transform="translate(330.000000, 918.000000)">
                <rect id="Rectangle-5-Copy-6" stroke-opacity="0.336701766" stroke="#364A6B" stroke-width="8" fill-opacity="0.221240942" fill="#182741" sketch:type="MSShapeGroup" x="405.5" y="0.12929407" width="109" height="110.445313" rx="5"></rect>
                <rect id="Rectangle-5-Copy-5" fill="#182741" sketch:type="MSShapeGroup" x="0.666422107" y="57" width="493.833578" height="313" rx="5"></rect>
                <path d="M8.66642211,61.9955388 L8.66642211,61.9955388 L8.66642211,365.004461 C8.66642211,363.343242 7.31862875,362 5.67447526,362 L489.491947,362 C487.849409,362 486.5,363.348496 486.5,365.004461 L486.5,61.9955388 C486.5,63.6567582 487.847793,65 489.491947,65 L5.67447526,65 C7.3170136,65 8.66642211,63.6515036 8.66642211,61.9955388 L8.66642211,61.9955388 Z M0.666422107,61.9955388 C0.666422107,59.2365789 2.89537825,57 5.67447526,57 L489.491947,57 C492.257818,57 494.5,59.2302118 494.5,61.9955388 L494.5,365.004461 C494.5,367.763421 492.271044,370 489.491947,370 L5.67447526,370 C2.90860388,370 0.666422107,367.769788 0.666422107,365.004461 L0.666422107,61.9955388 L0.666422107,61.9955388 Z" id="Shape" fill="#364A6B" sketch:type="MSShapeGroup"></path>
                <text id="&lt;head&gt;-copy" opacity="0.0502565299" sketch:type="MSTextLayer" font-family="Lucida Grande" font-size="16" font-weight="normal" fill="#FFFFFF">
                    <tspan x="402" y="274.617314">&lt;head&gt;</tspan>
                </text>
                <path d="M231.760991,273.828176 L233.22437,267.97466 L229.282476,267.97466 L229.612065,266.339894 L233.633061,266.339894 L234.780034,261.791555 L230.50855,261.791555 L230.83814,260.169973 L235.175542,260.169973 L236.652104,254.316457 L238.326421,254.316457 L236.863042,260.169973 L240.330327,260.169973 L241.793706,254.316457 L243.481206,254.316457 L242.017827,260.169973 L245.959722,260.169973 L245.643315,261.791555 L241.609136,261.791555 L240.462163,266.339894 L244.733647,266.339894 L244.404058,267.97466 L240.066655,267.97466 L238.603276,273.828176 L236.915776,273.828176 L238.379155,267.97466 L234.91187,267.97466 L233.448491,273.828176 L231.760991,273.828176 Z M235.320561,266.339894 L238.787847,266.339894 L239.934819,261.791555 L236.454351,261.791555 L235.320561,266.339894 Z M250.798101,263.716359 C252.037365,262.107953 253.597408,261.303762 255.478276,261.303762 C257.183363,261.303762 258.578613,261.868453 259.664067,262.997853 C260.749522,264.127254 261.292241,265.575237 261.292241,267.341848 C261.292241,269.372131 260.683605,271.042036 259.466313,272.351613 C258.249022,273.66119 256.70436,274.315969 254.83228,274.315969 C252.678949,274.315969 250.995861,273.450255 249.782964,271.718801 C248.570067,269.987347 247.963628,267.583562 247.963628,264.507375 C247.963628,261.123569 248.660154,258.495665 250.053227,256.623586 C251.446301,254.751506 253.408439,253.81548 255.939702,253.81548 C257.099864,253.81548 258.550045,254.061572 260.290288,254.553762 L260.290288,256.82134 C258.453365,256.118211 256.95045,255.766652 255.781499,255.766652 C252.459217,255.766652 250.798101,258.416528 250.798101,263.716359 L250.798101,263.716359 Z M258.68189,267.921926 C258.68189,266.445356 258.350106,265.285211 257.686528,264.441457 C257.022951,263.597703 256.102306,263.175832 254.924565,263.175832 C253.825927,263.175832 252.881112,263.544969 252.090093,264.283254 C251.299073,265.021539 250.903569,265.909225 250.903569,266.94634 C250.903569,268.581114 251.279298,269.892868 252.030767,270.881642 C252.782235,271.870417 253.777587,272.364797 255.016851,272.364797 C256.133067,272.364797 257.022951,271.962701 257.686528,271.158498 C258.350106,270.354295 258.68189,269.275448 258.68189,267.921926 L258.68189,267.921926 Z M267.870854,263.716359 C269.110118,262.107953 270.670161,261.303762 272.55103,261.303762 C274.256117,261.303762 275.651367,261.868453 276.736821,262.997853 C277.822276,264.127254 278.364995,265.575237 278.364995,267.341848 C278.364995,269.372131 277.756359,271.042036 276.539067,272.351613 C275.321776,273.66119 273.777114,274.315969 271.905034,274.315969 C269.751703,274.315969 268.068614,273.450255 266.855718,271.718801 C265.642821,269.987347 265.036382,267.583562 265.036382,264.507375 C265.036382,261.123569 265.732908,258.495665 267.125981,256.623586 C268.519055,254.751506 270.481193,253.81548 273.012456,253.81548 C274.172618,253.81548 275.622799,254.061572 277.363042,254.553762 L277.363042,256.82134 C275.526119,256.118211 274.023204,255.766652 272.854253,255.766652 C269.531971,255.766652 267.870854,258.416528 267.870854,263.716359 L267.870854,263.716359 Z M275.754643,267.921926 C275.754643,266.445356 275.42286,265.285211 274.759282,264.441457 C274.095705,263.597703 273.17506,263.175832 271.997319,263.175832 C270.898681,263.175832 269.953866,263.544969 269.162847,264.283254 C268.371827,265.021539 267.976323,265.909225 267.976323,266.94634 C267.976323,268.581114 268.352052,269.892868 269.10352,270.881642 C269.854989,271.870417 270.85034,272.364797 272.089604,272.364797 C273.205821,272.364797 274.095705,271.962701 274.759282,271.158498 C275.42286,270.354295 275.754643,269.275448 275.754643,267.921926 L275.754643,267.921926 Z M284.943608,263.716359 C286.182872,262.107953 287.742915,261.303762 289.623784,261.303762 C291.328871,261.303762 292.72412,261.868453 293.809575,262.997853 C294.89503,264.127254 295.437749,265.575237 295.437749,267.341848 C295.437749,269.372131 294.829112,271.042036 293.611821,272.351613 C292.39453,273.66119 290.849868,274.315969 288.977788,274.315969 C286.824457,274.315969 285.141368,273.450255 283.928472,271.718801 C282.715575,269.987347 282.109136,267.583562 282.109136,264.507375 C282.109136,261.123569 282.805662,258.495665 284.198735,256.623586 C285.591809,254.751506 287.553947,253.81548 290.08521,253.81548 C291.245372,253.81548 292.695553,254.061572 294.435796,254.553762 L294.435796,256.82134 C292.598873,256.118211 291.095958,255.766652 289.927007,255.766652 C286.604725,255.766652 284.943608,258.416528 284.943608,263.716359 L284.943608,263.716359 Z M292.827397,267.921926 C292.827397,266.445356 292.495614,265.285211 291.832036,264.441457 C291.168459,263.597703 290.247813,263.175832 289.070073,263.175832 C287.971435,263.175832 287.02662,263.544969 286.235601,264.283254 C285.444581,265.021539 285.049077,265.909225 285.049077,266.94634 C285.049077,268.581114 285.424806,269.892868 286.176274,270.881642 C286.927743,271.870417 287.923094,272.364797 289.162358,272.364797 C290.278575,272.364797 291.168459,271.962701 291.832036,271.158498 C292.495614,270.354295 292.827397,269.275448 292.827397,267.921926 L292.827397,267.921926 Z" id="#666-copy" opacity="0.0345732276" fill="#FFFFFF" sketch:type="MSShapeGroup"></path>
                <path d="M306.463628,203.389114 L307.764409,198.185989 L304.260503,198.185989 L304.553472,196.732864 L308.12769,196.732864 L309.147222,192.689895 L305.350347,192.689895 L305.643315,191.248489 L309.498784,191.248489 L310.811284,186.045364 L312.299565,186.045364 L310.998784,191.248489 L314.080815,191.248489 L315.381597,186.045364 L316.881597,186.045364 L315.580815,191.248489 L319.084722,191.248489 L318.803472,192.689895 L315.217534,192.689895 L314.198003,196.732864 L317.994878,196.732864 L317.701909,198.185989 L313.84644,198.185989 L312.545659,203.389114 L311.045659,203.389114 L312.34644,198.185989 L309.264409,198.185989 L307.963628,203.389114 L306.463628,203.389114 Z M309.62769,196.732864 L312.709722,196.732864 L313.729253,192.689895 L310.635503,192.689895 L309.62769,196.732864 Z M329.737065,203.389114 L329.737065,200.998489 C328.799561,202.787561 327.385512,203.682083 325.494878,203.682083 C323.96362,203.682083 322.758554,203.123495 321.879643,202.006302 C321.000733,200.889109 320.561284,199.36178 320.561284,197.42427 C320.561284,195.307072 321.059326,193.603964 322.055425,192.314895 C323.051523,191.025826 324.362057,190.381302 325.987065,190.381302 C327.494885,190.381302 328.744873,190.959421 329.737065,192.115677 L329.737065,184.885208 L332.057378,184.885208 L332.057378,203.389114 L329.737065,203.389114 Z M329.737065,193.697708 C328.541747,192.643015 327.408946,192.115677 326.338628,192.115677 C324.127679,192.115677 323.022222,193.807066 323.022222,197.189895 C323.022222,200.166473 324.006587,201.654739 325.975347,201.654739 C327.256603,201.654739 328.510497,200.955527 329.737065,199.557083 L329.737065,193.697708 Z M337.09644,203.283645 L337.09644,201.326614 C338.565198,201.834429 339.815185,202.088333 340.84644,202.088333 C342.283948,202.088333 343.406983,201.477011 344.215581,200.254348 C345.024179,199.031686 345.428472,197.330531 345.428472,195.150833 C344.256591,196.596153 342.924573,197.318802 341.432378,197.318802 C339.971433,197.318802 338.733164,196.781698 337.717534,195.707473 C336.701904,194.633249 336.194097,193.322716 336.194097,191.775833 C336.194097,190.002386 336.735107,188.531698 337.817143,187.363723 C338.89918,186.195749 340.260495,185.61177 341.901128,185.61177 C343.78395,185.61177 345.26831,186.367622 346.354253,187.879348 C347.440196,189.391075 347.983159,191.459413 347.983159,194.084427 C347.983159,197.068817 347.321056,199.437933 345.996831,201.191848 C344.672606,202.945763 342.881608,203.822708 340.623784,203.822708 C339.71753,203.822708 338.54176,203.643022 337.09644,203.283645 L337.09644,203.283645 Z M338.50269,191.318802 C338.50269,192.662558 338.801516,193.721141 339.399175,194.494583 C339.996834,195.268024 340.815185,195.654739 341.854253,195.654739 C342.83082,195.654739 343.664796,195.322711 344.356206,194.658645 C345.047616,193.99458 345.393315,193.193806 345.393315,192.256302 C345.393315,190.779732 345.059334,189.59029 344.391362,188.687942 C343.72339,187.785594 342.846446,187.334427 341.760503,187.334427 C340.752685,187.334427 339.957771,187.691845 339.375737,188.406692 C338.793703,189.12154 338.50269,190.092233 338.50269,191.318802 L338.50269,191.318802 Z M360.018315,203.389114 L360.018315,200.998489 C359.080811,202.787561 357.666762,203.682083 355.776128,203.682083 C354.24487,203.682083 353.039804,203.123495 352.160893,202.006302 C351.281983,200.889109 350.842534,199.36178 350.842534,197.42427 C350.842534,195.307072 351.340576,193.603964 352.336675,192.314895 C353.332773,191.025826 354.643307,190.381302 356.268315,190.381302 C357.776135,190.381302 359.026123,190.959421 360.018315,192.115677 L360.018315,184.885208 L362.338628,184.885208 L362.338628,203.389114 L360.018315,203.389114 Z M360.018315,193.697708 C358.822997,192.643015 357.690196,192.115677 356.619878,192.115677 C354.408929,192.115677 353.303472,193.807066 353.303472,197.189895 C353.303472,200.166473 354.287837,201.654739 356.256597,201.654739 C357.537853,201.654739 358.791747,200.955527 360.018315,199.557083 L360.018315,193.697708 Z M367.37769,203.283645 L367.37769,201.326614 C368.846448,201.834429 370.096435,202.088333 371.12769,202.088333 C372.565198,202.088333 373.688233,201.477011 374.496831,200.254348 C375.305429,199.031686 375.709722,197.330531 375.709722,195.150833 C374.537841,196.596153 373.205823,197.318802 371.713628,197.318802 C370.252683,197.318802 369.014414,196.781698 367.998784,195.707473 C366.983154,194.633249 366.475347,193.322716 366.475347,191.775833 C366.475347,190.002386 367.016357,188.531698 368.098393,187.363723 C369.18043,186.195749 370.541745,185.61177 372.182378,185.61177 C374.0652,185.61177 375.54956,186.367622 376.635503,187.879348 C377.721446,189.391075 378.264409,191.459413 378.264409,194.084427 C378.264409,197.068817 377.602306,199.437933 376.278081,201.191848 C374.953856,202.945763 373.162858,203.822708 370.905034,203.822708 C369.99878,203.822708 368.82301,203.643022 367.37769,203.283645 L367.37769,203.283645 Z M368.78394,191.318802 C368.78394,192.662558 369.082766,193.721141 369.680425,194.494583 C370.278084,195.268024 371.096435,195.654739 372.135503,195.654739 C373.11207,195.654739 373.946046,195.322711 374.637456,194.658645 C375.328866,193.99458 375.674565,193.193806 375.674565,192.256302 C375.674565,190.779732 375.340584,189.59029 374.672612,188.687942 C374.00464,187.785594 373.127696,187.334427 372.041753,187.334427 C371.033935,187.334427 370.239021,187.691845 369.656987,188.406692 C369.074953,189.12154 368.78394,190.092233 368.78394,191.318802 L368.78394,191.318802 Z M390.299565,203.389114 L390.299565,200.998489 C389.362061,202.787561 387.948012,203.682083 386.057378,203.682083 C384.52612,203.682083 383.321054,203.123495 382.442143,202.006302 C381.563233,200.889109 381.123784,199.36178 381.123784,197.42427 C381.123784,195.307072 381.621826,193.603964 382.617925,192.314895 C383.614023,191.025826 384.924557,190.381302 386.549565,190.381302 C388.057385,190.381302 389.307373,190.959421 390.299565,192.115677 L390.299565,184.885208 L392.619878,184.885208 L392.619878,203.389114 L390.299565,203.389114 Z M390.299565,193.697708 C389.104247,192.643015 387.971446,192.115677 386.901128,192.115677 C384.690179,192.115677 383.584722,193.807066 383.584722,197.189895 C383.584722,200.166473 384.569087,201.654739 386.537847,201.654739 C387.819103,201.654739 389.072997,200.955527 390.299565,199.557083 L390.299565,193.697708 Z M397.65894,203.283645 L397.65894,201.326614 C399.127698,201.834429 400.377685,202.088333 401.40894,202.088333 C402.846448,202.088333 403.969483,201.477011 404.778081,200.254348 C405.586679,199.031686 405.990972,197.330531 405.990972,195.150833 C404.819091,196.596153 403.487073,197.318802 401.994878,197.318802 C400.533933,197.318802 399.295664,196.781698 398.280034,195.707473 C397.264404,194.633249 396.756597,193.322716 396.756597,191.775833 C396.756597,190.002386 397.297607,188.531698 398.379643,187.363723 C399.46168,186.195749 400.822995,185.61177 402.463628,185.61177 C404.34645,185.61177 405.83081,186.367622 406.916753,187.879348 C408.002696,189.391075 408.545659,191.459413 408.545659,194.084427 C408.545659,197.068817 407.883556,199.437933 406.559331,201.191848 C405.235106,202.945763 403.444108,203.822708 401.186284,203.822708 C400.28003,203.822708 399.10426,203.643022 397.65894,203.283645 L397.65894,203.283645 Z M399.06519,191.318802 C399.06519,192.662558 399.364016,193.721141 399.961675,194.494583 C400.559334,195.268024 401.377685,195.654739 402.416753,195.654739 C403.39332,195.654739 404.227296,195.322711 404.918706,194.658645 C405.610116,193.99458 405.955815,193.193806 405.955815,192.256302 C405.955815,190.779732 405.621834,189.59029 404.953862,188.687942 C404.28589,187.785594 403.408946,187.334427 402.323003,187.334427 C401.315185,187.334427 400.520271,187.691845 399.938237,188.406692 C399.356203,189.12154 399.06519,190.092233 399.06519,191.318802 L399.06519,191.318802 Z" id="#d9d9d9" opacity="0.0345732276" fill="#FFFFFF" sketch:type="MSShapeGroup"></path>
                <path d="M59.9297005,339.939062 L30.4453255,325.196874 L59.9297005,310.454687 L59.9297005,314.563573 L38.6880012,325.196874 L59.9297005,335.805273 L59.9297005,339.939062 Z M70.2641731,347.310155 L83.5371223,303.083593 L87.3969856,303.083593 L74.1240364,347.310155 L70.2641731,347.310155 Z M97.1088997,339.939062 L97.1088997,300.618261 L102.014661,300.618261 L102.014661,317.975194 C104.604518,314.190019 107.775385,312.29746 111.527357,312.29746 C113.868189,312.29746 115.735846,313.040373 117.130384,314.52622 C118.524922,316.012067 119.222181,318.008385 119.222181,320.515233 L119.222181,339.939062 L114.316419,339.939062 L114.316419,322.108983 C114.316419,320.100184 114.021744,318.668314 113.432386,317.813329 C112.843028,316.958344 111.867696,316.530858 110.506361,316.530858 C107.501463,316.530858 104.670925,318.498124 102.014661,322.432714 L102.014661,339.939062 L97.1088997,339.939062 Z M136.877943,340.56162 C134.387696,340.56162 132.445332,339.84776 131.050794,338.420019 C129.656256,336.992277 128.958997,335.00841 128.958997,332.468358 L128.958997,316.580663 L125.572279,316.580663 L125.572279,312.895116 L128.958997,312.895116 L128.958997,307.989355 L133.864759,307.51621 L133.864759,312.895116 L140.937025,312.895116 L140.937025,316.580663 L133.864759,316.580663 L133.864759,331.571874 C133.864759,335.108025 135.392088,336.876073 138.44679,336.876073 C139.094254,336.876073 139.882821,336.768164 140.812513,336.552343 L140.812513,339.939062 C139.301763,340.354103 137.990253,340.56162 136.877943,340.56162 L136.877943,340.56162 Z M147.834974,339.939062 L147.834974,312.895116 L152.740736,312.895116 L152.740736,317.975194 C155.131373,314.190019 158.202631,312.29746 161.954603,312.29746 C165.573762,312.29746 168.039069,314.190019 169.350599,317.975194 C171.674829,314.173418 174.696283,312.272558 178.415052,312.272558 C180.805689,312.272558 182.656745,312.973967 183.968275,314.376806 C185.279805,315.779645 185.93556,317.74276 185.93556,320.26621 L185.93556,339.939062 L181.004896,339.939062 L181.004896,321.038183 C181.004896,317.950277 179.784693,316.406347 177.344251,316.406347 C174.804199,316.406347 172.139675,318.207598 169.350599,321.810155 L169.350599,339.939062 L164.419935,339.939062 L164.419935,321.038183 C164.419935,317.933675 163.17483,316.381444 160.684583,316.381444 C158.210938,316.381444 155.563015,318.190997 152.740736,321.810155 L152.740736,339.939062 L147.834974,339.939062 Z M195.448255,339.939062 L195.448255,300.618261 L200.354017,300.618261 L200.354017,339.939062 L195.448255,339.939062 Z M210.813001,339.939062 L240.297376,325.196874 L210.813001,310.454687 L210.813001,314.563573 L232.0547,325.196874 L210.813001,335.805273 L210.813001,339.939062 Z" id="&lt;/html&gt;-copy" opacity="0.0473997201" fill="#FFFFFF" sketch:type="MSShapeGroup"></path>
                <path d="M37.8870584,104.191921 L28.6370584,99.5669207 L37.8870584,94.9419207 L37.8870584,96.2309832 L31.2229959,99.5669207 L37.8870584,102.895046 L37.8870584,104.191921 Z M41.1604959,104.191921 L41.1604959,91.8559832 L42.6995584,91.8559832 L42.6995584,97.3012957 C43.5120624,96.1137898 44.5068441,95.5200457 45.6839334,95.5200457 C46.418312,95.5200457 47.0042437,95.7531163 47.4417459,96.2192645 C47.879248,96.6854127 48.0979959,97.3117085 48.0979959,98.0981707 L48.0979959,104.191921 L46.5589334,104.191921 L46.5589334,98.5981707 C46.5589334,97.9679593 46.4664864,97.518745 46.2815896,97.2505145 C46.0966929,96.982284 45.7907063,96.8481707 45.3636209,96.8481707 C44.4209078,96.8481707 43.5328959,97.4653521 42.6995584,98.6997332 L42.6995584,104.191921 L41.1604959,104.191921 Z M51.9573709,104.191921 L51.9573709,103.035671 L54.2698709,103.035671 L54.2698709,93.9106707 L51.9573709,94.4887957 L51.9573709,93.3012957 L55.8167459,92.3403582 L55.8167459,103.035671 L58.1292459,103.035671 L58.1292459,104.191921 L51.9573709,104.191921 Z M61.4026834,104.191921 L70.6526834,99.5669207 L61.4026834,94.9419207 L61.4026834,96.2309832 L68.0667459,99.5669207 L61.4026834,102.895046 L61.4026834,104.191921 Z" id="&lt;h1&gt;-copy" opacity="0.163479478" fill="#FFFFFF" sketch:type="MSShapeGroup"></path>
            </g>
        </g>
    </g>
</svg>