<?xml version="1.0" encoding="UTF-8" standalone="no"?>
<svg width="261px" height="100px" viewBox="0 0 261 100" version="1.1" xmlns="http://www.w3.org/2000/svg" xmlns:xlink="http://www.w3.org/1999/xlink" xmlns:sketch="http://www.bohemiancoding.com/sketch/ns">
    <!-- Generator: Sketch 3.3.3 (12081) - http://www.bohemiancoding.com/sketch -->
    <title>Group Copy 4</title>
    <desc>Created with Sketch.</desc>
    <defs>
        <path id="path-1" d="M0.383116088,16.136259 C2.06484645,16.9818577 3.70876275,21.7539494 7.70212603,23.0018813 C11.6954893,24.2508116 14.536519,23.6108721 16.6083312,21.6111859 C19.776751,24.2538066 23.9104243,25.8042372 28.4043263,25.6944192 C30.2602003,25.6484953 32.0414413,25.3200396 33.7122255,24.7559744 C31.3279498,27.0891079 29.6034299,30.068171 28.8362026,33.3946584 C28.7685353,33.6951604 28.7147996,33.9507368 28.6680296,34.2093083 C28.6083231,34.5647194 28.569514,34.8003289 28.5386657,35.0419285 L28.513788,35.2675546 C28.4889103,35.4742121 28.4650278,35.6798713 28.448111,35.8865289 C28.4371648,36.0183105 28.4321893,36.1530871 28.4242284,36.2838704 C28.4152724,36.4406106 28.4033312,36.5953542 28.3983556,36.7540911 C28.3893997,37.0446097 28.3864143,37.34012 28.392385,37.6356302 C28.5705091,47.3515291 36.7184429,55.030803 46.5869163,54.7872067 C49.8807195,54.7023473 52.9486336,53.750924 55.5697447,52.1525728 C63.8938124,61.135686 67.6951201,62.5203912 79.6035622,62.2238826 C87.9833559,62.0182234 95.5421866,58.6238486 101.105828,53.2507529 C109.620956,60.3509864 120.722367,64.5180807 132.795997,64.2175786 C143.314275,63.9590071 152.9688,60.3509864 160.735608,54.4567543 C167.069463,59.9356746 175.444281,63.1663208 184.570405,62.9426914 C184.862966,62.9347046 185.154532,62.9247212 185.445103,62.909746 C185.949622,62.8797956 186.132722,62.8698122 186.313832,62.857832 C186.85716,62.8129065 187.017372,62.7979313 187.177584,62.7829561 C187.733849,62.7240537 187.88411,62.7090785 188.034371,62.6891116 C188.595611,62.6172307 188.740897,62.5972638 188.885187,62.5743019 C189.447423,62.4874458 189.587733,62.4654822 189.728043,62.4425203 C190.291273,62.340689 190.427603,62.3157304 190.564927,62.2887751 C191.126168,62.1749637 191.260507,62.1450133 191.394846,62.1150629 C191.953101,61.988273 192.084455,61.956326 192.21581,61.9233806 C192.772074,61.7846106 192.900443,61.7496685 193.027817,61.7147264 C193.582091,61.5609812 193.706479,61.523044 193.831863,61.4861052 C194.384147,61.3193815 194.504555,61.2794477 194.623968,61.2425089 C195.553397,60.9300268 195.701668,60.8771145 195.846954,60.8252005 C196.324605,60.6464966 196.475861,60.5915876 196.626122,60.5316869 C197.49087,60.1862593 198.075993,59.9326796 198.65216,59.6671197 C199.02433,59.4934075 199.178571,59.4185316 199.332813,59.341659 C199.755733,59.1330048 199.902014,59.0581289 200.048295,58.9812563 C200.481166,58.7556302 200.622471,58.6787576 200.763776,58.6008866 C201.196648,58.3632804 201.334968,58.2834127 201.472292,58.2035451 C201.903173,57.9529604 202.037513,57.871096 202.172847,57.7862367 C202.270368,57.729331 202.367888,57.6694302 202.464414,57.6095295 C202.598753,57.5256685 202.732097,57.4408091 202.864447,57.3559497 C202.959977,57.2940523 203.055507,57.2321549 203.150042,57.1702575 C203.282391,57.0834014 203.414741,56.995547 203.546095,56.9086909 C203.639635,56.8437985 203.731184,56.781901 203.823729,56.7200036 C203.955084,56.6281558 204.086438,56.536308 204.215801,56.4444603 C204.306356,56.3825628 204.395916,56.3176704 204.485475,56.2527779 C204.616829,56.1589334 204.746193,56.0640906 204.875557,55.9672511 L205.13329,55.773572 C205.263649,55.6737375 205.394008,55.5749013 205.523372,55.4750667 L205.766178,55.2833844 C205.897532,55.1795565 206.028886,55.0747302 206.159245,54.9679072 L206.380159,54.7842116 C206.515493,54.6723969 206.649833,54.5605822 206.783177,54.4467708 C207.112557,54.1602457 207.253862,54.0364508 207.394172,53.912656 C208.244989,53.1419332 208.944549,52.4540731 209.61326,51.7402561 C209.79835,51.5415853 209.93866,51.3878401 210.07897,51.2310998 C210.328742,50.9525614 210.456116,50.8058046 210.584484,50.6570511 C210.849183,50.3465657 210.969591,50.2028039 211.089999,50.0550488 C211.358678,49.7275914 211.473115,49.5838297 211.587552,49.4370729 L211.739803,49.2433939 C211.853246,49.0966371 211.963702,48.9498803 212.074159,48.8031235 L212.22442,48.6014577 C212.333882,48.4556992 212.441354,48.3039507 212.548825,48.1541989 L212.691125,47.9535314 C212.798597,47.8017829 212.905073,47.6480377 213.00956,47.4932941 L213.141909,47.2976184 C213.24739,47.1378831 213.352871,46.9791462 213.455367,46.8204092 C213.680261,46.4699899 213.784748,46.3032662 213.886249,46.1365425 C214.095221,45.791115 214.199707,45.6174029 214.303198,45.4406957 C214.490278,45.1162334 214.59775,44.9265477 214.702236,44.7358637 C215.743118,42.8350138 216.982026,42.3148758 217.637801,40.3271698 C217.72338,40.0685983 217.798013,39.8329888 217.871651,39.5913892 C217.960216,39.3008706 218.027883,39.0672577 218.09356,38.8336449 C218.179139,38.5231594 218.240836,38.2925416 218.300542,38.0589288 C218.380151,37.7374615 218.436872,37.504847 218.490607,37.2682391 C218.549319,37.0076709 218.590118,36.8279687 218.628927,36.6472682 C219.327492,36.8159886 218.628927,32.356379 219.446905,29.8894672 C220.264883,27.4225553 221.77844,24.2278496 223.339762,23.0018813 C224.627431,21.9905573 227.00474,23.0687704 229.767157,24.1469836 C231.793194,24.9376733 234.028204,25.728363 236.191566,25.6944192 C241.303429,25.6135532 245.395308,23.7646173 247.657185,19.3509316 C249.918068,14.9382443 241.684555,0.480204206 241.684555,0.480204206 L2.98034463,11.2283923 L0.383116088,16.136259 L0.383116088,16.136259 Z"></path>
        <path id="path-3" d="M90.0750703,13.7262529 C88.2032745,13.7711784 86.3961607,14.0666887 84.6855722,14.5758449 C79.9976245,5.82434789 70.566003,-0.0289520207 59.8039238,0.236607893 C48.2636711,0.521136373 38.5146106,7.75814321 34.6098118,17.7735457 C32.9260912,17.3192985 31.1468404,17.0956691 29.3098734,17.1405946 C21.660488,17.3282836 15.1922943,22.0973802 12.5572517,28.7124178 C11.8805792,28.591618 11.1780338,28.5377073 10.4625521,28.5546792 C4.74168353,28.6964443 0.189070277,33.3746915 0.293556483,39.0063587 C0.398042689,44.6370275 5.11982408,49.087652 10.8406926,48.9478836 C12.7483122,48.8989646 14.5265679,48.3468796 16.047091,47.4234099 C19.4792141,51.1252752 24.4656939,53.395513 29.9746047,53.259738 C34.8317206,53.1399365 39.2131755,51.1721974 42.4393115,48.0583577 C47.3730506,52.1725397 53.8074107,54.5885359 60.8059962,54.4148238 C66.90202,54.2650719 72.4975051,52.1725397 76.9983728,48.7571996 C80.6713117,51.9319384 85.5244472,53.8048346 90.8154297,53.6760481 C93.1947298,53.6171457 95.4735242,53.1549117 97.5821554,52.361227 C97.5821554,52.361227 110.717564,50.5412431 110.717564,35.9893584 C110.717564,21.4384722 97.5821554,14.9422377 97.5821554,14.9422377 C95.2496252,14.0956407 92.7170786,13.6603621 90.0750703,13.7262529 L90.0750703,13.7262529 Z"></path>
        <path id="path-5" d="M48.7164447,9.86864568 C45.7062468,4.24696194 39.6490322,0.48819097 32.7370209,0.657909712 C25.3254661,0.841605292 19.0622644,5.48990214 16.5545954,11.9212441 C15.4729144,11.6297272 14.3295368,11.4869638 13.1503353,11.5149175 C11.2765494,11.5618397 9.51421537,12.0370522 7.95587824,12.8417187 C7.95587824,12.8417187 0.884649876,14.7595405 0.884649876,24.8707841 C0.884649876,34.9820278 7.95587824,33.4605492 7.95587824,33.4605492 C9.6376086,34.3061479 11.5521939,34.7643885 13.5782312,34.7144712 C16.6968957,34.6366002 19.5120526,33.3736931 21.5838648,31.374007 C24.7522846,34.0166277 28.8859579,35.5670583 33.3798599,35.4562419 C37.2965999,35.3604008 40.8899303,34.0166277 43.7807153,31.8222642 C46.1391183,33.8618841 49.2557925,35.0658888 52.6530869,34.9820278 C59.8516889,34.8023256 65.5805183,28.9160803 65.4491642,21.8298236 C65.3188052,14.7445653 59.377023,9.14384682 52.178421,9.32255067 C50.976332,9.35150269 49.8160376,9.54118834 48.7164447,9.86864568 L48.7164447,9.86864568 Z"></path>
        <path id="path-7" d="M17.8770923,49.2903161 C19.1120197,49.2613641 20.3220695,49.3532119 21.492315,49.5618661 C26.0369674,38.1497782 37.1980844,29.9214142 50.3931995,29.5979503 C53.5636095,29.519081 56.6345089,29.903444 59.5382303,30.6881436 C66.277093,13.4077806 83.098377,0.923469626 103.007477,0.43228362 C121.576169,-0.0259569841 137.847159,10.0713098 145.934391,25.1712862 C148.889858,24.2937404 152.005537,23.7825875 155.234658,23.7057149 C174.571572,23.2275074 190.533084,38.270578 190.884357,57.3030374 C191.236624,76.3394902 175.846304,92.1552803 156.510385,92.6324895 C147.384261,92.8561189 139.010438,89.623476 132.676584,84.1445557 C124.908781,90.0387877 115.254256,93.6488052 104.736973,93.90538 C92.6623477,94.205882 81.5609371,90.0387877 73.046804,82.9415493 C67.4821672,88.3136466 59.9233366,91.7060248 51.5435429,91.9126823 C42.0362933,92.1482919 33.4326005,88.2317823 27.5107204,81.8433692 C24.8896093,83.4417204 21.8216953,84.3901487 18.5278921,84.475008 C8.65842359,84.7186043 0.511484855,77.0403288 0.332365645,67.32443 C0.152251328,57.6085312 8.00762379,49.5349108 17.8770923,49.2903161 L17.8770923,49.2903161 Z"></path>
        <path id="path-9" d="M53.0988947,15.4613774 C51.6838529,11.9062689 48.2059549,9.34251758 44.094174,9.23968799 C43.1050379,9.21672604 42.1487403,9.33652751 41.2451834,9.58012382 C39.1445131,4.19604631 33.903286,0.305493736 27.6978005,0.152746868 C21.91225,0.00898510988 16.8421813,3.1567686 14.3215759,7.86197114 C13.4011022,7.58742612 12.4308732,7.42968752 11.4238252,7.40472889 C5.39845397,7.2559754 0.42491057,11.9442061 0.315448831,17.8733802 C0.204991985,23.8045511 5.00041128,28.733383 11.0267776,28.8821365 C13.8697975,28.9520207 16.4789673,27.9446901 18.4532591,26.2385175 C20.8733586,28.0754733 23.8825613,29.1996104 27.1594478,29.2804764 C30.9209512,29.3743209 34.3809372,28.0754733 37.0338918,25.8621413 C38.7683628,27.5373651 41.1237804,28.5936147 43.7359355,28.6595055 C46.6973731,28.7323847 49.3791858,27.5124064 51.2241136,25.5207071 C52.0410962,26.0178832 52.9963987,26.3153901 54.0233488,26.3413471 C57.0982286,26.416223 59.6377409,24.0241871 59.6934669,20.9972034 C59.750188,17.9702198 57.3012304,15.4523923 54.2253555,15.3775164 C53.8412443,15.3675329 53.4640988,15.3974833 53.0988947,15.4613774 L53.0988947,15.4613774 Z"></path>
    </defs>
    <g id="Page-1" stroke="none" stroke-width="1" fill="none" fill-rule="evenodd" sketch:type="MSPage">
        <g id="Group-Copy-4" sketch:type="MSLayerGroup" transform="translate(-1.000000, -1.000000)">
            <g id="Group-39" transform="translate(5.744450, 36.640334)">
                <mask id="mask-2" sketch:name="Clip 38" fill="white">
                    <use xlink:href="#path-1"></use>
                </mask>
                <g id="Clip-38"></g>
                <path d="M0.383116088,0.480204206 L249.918068,0.480204206 L249.918068,64.5180807 L0.383116088,64.5180807 L0.383116088,0.480204206 Z" id="Fill-37" fill="#E0E0E0" sketch:type="MSShapeGroup" mask="url(#mask-2)"></path>
            </g>
            <g id="Group-42" transform="translate(151.030032, 4.693277)">
                <mask id="mask-4" sketch:name="Clip 41" fill="white">
                    <use xlink:href="#path-3"></use>
                </mask>
                <g id="Clip-41"></g>
                <path d="M0.189070277,-0.0289520207 L110.717564,-0.0289520207 L110.717564,54.5875375 L0.189070277,54.5875375 L0.189070277,-0.0289520207 Z" id="Fill-40" fill="#ECECEC" sketch:type="MSShapeGroup" mask="url(#mask-4)"></path>
            </g>
            <g id="Group-45" transform="translate(0.768917, 21.665151)">
                <mask id="mask-6" sketch:name="Clip 44" fill="white">
                    <use xlink:href="#path-5"></use>
                </mask>
                <g id="Clip-44"></g>
                <path d="M0.884649876,0.48819097 L65.5805183,0.48819097 L65.5805183,35.5670583 L0.884649876,35.5670583 L0.884649876,0.48819097 Z" id="Fill-43" fill="#EFEEEE" sketch:type="MSShapeGroup" mask="url(#mask-6)"></path>
            </g>
            <g id="Group-48" transform="translate(33.607439, 0.699895)">
                <mask id="mask-8" sketch:name="Clip 47" fill="white">
                    <use xlink:href="#path-7"></use>
                </mask>
                <g id="Clip-47"></g>
                <path d="M0.152251328,-0.0259569841 L191.23762,-0.0259569841 L191.23762,94.205882 L0.152251328,94.205882 L0.152251328,-0.0259569841 Z" id="Fill-46" fill="#FFFFFF" sketch:type="MSShapeGroup" mask="url(#mask-8)"></path>
            </g>
            <g id="Group-51" transform="translate(189.839194, 68.587391)">
                <mask id="mask-10" sketch:name="Clip 50" fill="white">
                    <use xlink:href="#path-9"></use>
                </mask>
                <g id="Clip-50"></g>
                <path d="M0.204991985,0.00898510988 L59.750188,0.00898510988 L59.750188,29.3743209 L0.204991985,29.3743209 L0.204991985,0.00898510988 Z" id="Fill-49" fill="#F6F6F6" sketch:type="MSShapeGroup" mask="url(#mask-10)"></path>
            </g>
        </g>
    </g>
</svg>