<?xml version="1.0" encoding="UTF-8" standalone="no"?>
<svg width="328px" height="126px" viewBox="0 0 328 126" version="1.1" xmlns="http://www.w3.org/2000/svg" xmlns:xlink="http://www.w3.org/1999/xlink" xmlns:sketch="http://www.bohemiancoding.com/sketch/ns">
    <!-- Generator: Sketch 3.3.3 (12081) - http://www.bohemiancoding.com/sketch -->
    <title>Group</title>
    <desc>Created with Sketch.</desc>
    <defs>
        <path id="path-1" d="M0.482172719,20.2494231 C2.5987231,21.3105665 4.6676824,27.2990737 9.69355025,28.8651059 C14.7194181,30.432391 18.2950106,29.6293297 20.9025005,27.1199196 C24.8901315,30.4361495 30.0925873,32.3817879 35.7484106,32.2439771 C38.0841304,32.1863471 40.3259205,31.7741674 42.4286945,31.0663208 C39.4279521,33.9941747 37.2575486,37.7326068 36.2919508,41.9070223 C36.2067878,42.2841228 36.1391584,42.6048462 36.0802957,42.9293281 C36.0051519,43.3753341 35.9563085,43.671001 35.9174842,43.9741848 L35.8861743,44.2573234 C35.8548643,44.5166584 35.8248068,44.7747405 35.8035161,45.0340754 C35.7897397,45.1994484 35.7834777,45.3685799 35.7734586,45.5327001 C35.762187,45.7293937 35.7471582,45.9235817 35.7408962,46.122781 C35.7296247,46.4873533 35.7258675,46.8581898 35.7333819,47.2290262 C35.9575609,59.4215267 46.2121848,69.0582625 58.6322026,68.7525731 C62.7776356,68.6460829 66.6387746,67.4521399 69.9375874,65.4463658 C80.4138856,76.7192922 85.1980409,78.4569615 100.185472,78.0848723 C110.731904,77.8267902 120.245109,73.5671825 127.247259,66.8244742 C137.964017,75.7345711 151.935755,80.9638659 167.131084,80.5867654 C180.368916,80.2622835 192.519669,75.7345711 202.294625,68.3378877 C210.26613,75.2133956 220.8063,79.2675398 232.29203,78.9869068 C232.660235,78.9768842 233.027187,78.964356 233.392887,78.9455636 C234.027852,78.9079788 234.258293,78.8954506 234.486229,78.8804166 C235.170038,78.8240395 235.371673,78.8052471 235.573309,78.7864547 C236.273399,78.712538 236.462511,78.6937456 236.651623,78.6686891 C237.357975,78.5784856 237.540825,78.5534291 237.722422,78.5246141 C238.430026,78.4156183 238.606614,78.3880561 238.783202,78.3592411 C239.492059,78.2314529 239.663637,78.2001322 239.836468,78.166306 C240.542819,78.0234838 240.711893,77.985899 240.880966,77.9483143 C241.583561,77.7892054 241.748877,77.749115 241.914194,77.7077717 C242.614283,77.5336289 242.775843,77.48978 242.936149,77.4459311 C243.633734,77.252996 243.790284,77.2053886 243.948086,77.159034 C244.643166,76.9498121 244.794706,76.8996991 244.944994,76.8533445 C246.114732,76.4612101 246.301339,76.3948103 246.484189,76.3296634 C247.08534,76.1054075 247.275704,76.0365021 247.464816,75.9613326 C248.553148,75.5278549 249.289558,75.2096371 250.014695,74.8763855 C250.483092,74.6583938 250.677213,74.5644318 250.871335,74.4679643 C251.403603,74.2061237 251.587706,74.1121617 251.771808,74.0156942 C252.3166,73.7325555 252.494441,73.6360879 252.672281,73.5383675 C253.217074,73.240195 253.391157,73.1399689 253.563988,73.0397429 C254.106275,72.7252836 254.275349,72.6225519 254.445675,72.5160617 C254.56841,72.4446506 254.691145,72.3694811 254.812627,72.2943115 C254.981701,72.1890742 255.149522,72.082584 255.316091,71.9760938 C255.436321,71.8984186 255.556551,71.8207434 255.675528,71.7430682 C255.842097,71.6340723 256.008666,71.5238237 256.173982,71.4148278 C256.291708,71.3333942 256.406928,71.255719 256.523401,71.1780438 C256.688717,71.0627838 256.854034,70.9475238 257.016845,70.8322638 C257.130813,70.7545886 257.243529,70.673155 257.356245,70.5917213 C257.521561,70.4739557 257.684373,70.3549372 257.847184,70.2334131 L258.171555,69.9903649 C258.335619,69.8650823 258.499683,69.7410526 258.662494,69.61577 L258.968079,69.3752275 C259.133396,69.2449336 259.298712,69.1133869 259.462776,68.9793345 L259.740808,68.7488146 C259.911134,68.6084981 260.080207,68.4681816 260.248029,68.3253595 C260.662572,67.9657985 260.840412,67.8104481 261.017,67.6550977 C262.087799,66.6879162 262.968234,65.8247192 263.809845,64.9289488 C264.042791,64.6796365 264.219378,64.4867013 264.395966,64.2900076 C264.710318,63.9404692 264.870625,63.7563039 265.032184,63.5696328 C265.365321,63.180004 265.516861,62.9995971 265.668401,62.8141789 C266.006549,62.403252 266.150574,62.2228451 266.2946,62.0386797 L266.486216,61.7956315 C266.62899,61.6114661 266.768006,61.4273007 266.907022,61.2431353 L267.096134,60.9900645 C267.233897,60.807152 267.369156,60.6167225 267.504415,60.4287986 L267.683508,60.1769806 C267.818766,59.9865511 267.952773,59.7936159 268.084275,59.5994279 L268.250843,59.3538741 C268.383597,59.1534219 268.516351,58.9542226 268.645348,58.7550233 C268.92839,58.3152815 269.059892,58.1060596 269.187636,57.8968377 C269.450639,57.46336 269.582141,57.2453683 269.71239,57.0236181 C269.947841,56.6164497 270.0831,56.3784128 270.214601,56.1391231 C271.524608,53.7537428 273.083842,53.1010206 273.909172,50.6066445 C274.016878,50.2821626 274.110807,49.9864957 274.203485,49.6833119 C274.314948,49.3187396 274.400111,49.0255784 274.482769,48.7324171 C274.590475,48.3427883 274.668124,48.0533855 274.743268,47.7602243 C274.843459,47.3568144 274.914846,47.064906 274.982475,46.7679863 C275.056367,46.4409988 275.107715,46.2154901 275.156559,45.9887287 C276.035741,46.2004562 275.156559,40.6040835 276.186029,37.508351 C277.215499,34.4126185 279.120394,30.403576 281.085404,28.8651059 C282.706006,27.5959934 285.697981,28.9490453 289.174635,30.3020971 C291.724514,31.2943351 294.537397,32.2865731 297.260107,32.2439771 C303.693669,32.1424982 308.843524,29.8222648 311.690222,24.2835221 C314.535667,18.7460321 304.173337,0.602609199 304.173337,0.602609199 L3.75092803,14.0905315 L0.482172719,20.2494231 L0.482172719,20.2494231 Z"></path>
        <path id="path-3" d="M113.364442,17.2251016 C111.008684,17.2814788 108.734332,17.6523152 106.581462,18.2912564 C100.681421,7.30898559 88.8112053,-0.0363319476 75.2665352,0.296919709 C60.742491,0.653975056 48.4727608,9.73570912 43.5583563,22.3040573 C41.4393011,21.7340216 39.2000159,21.4533886 36.8880916,21.5097658 C27.2609184,21.745297 19.12034,27.7300458 15.8039936,36.0312694 C14.9523639,35.8796775 14.0681718,35.8120249 13.1676986,35.8333229 C5.96767015,36.0112242 0.237955368,41.8819658 0.369457018,48.949156 C0.500958669,56.0150934 6.44358088,61.6001907 13.6436094,61.4247951 C16.0444538,61.3634066 18.2824866,60.670594 20.1961487,59.5117301 C24.5156649,64.1572081 30.7914246,67.0061339 37.7246926,66.8357496 C43.8376407,66.6854105 49.3519433,64.2160909 53.4122133,60.3085273 C59.621596,65.4714223 67.7195929,68.5032607 76.5276987,68.285269 C84.1998807,68.0973452 91.2421072,65.4714223 96.9066973,61.1855054 C101.529293,65.1694913 107.637232,67.5197925 114.296225,67.358178 C117.290706,67.2842612 120.158694,66.7042029 122.812523,65.7082064 C122.812523,65.7082064 139.344159,63.424305 139.344159,45.1631165 C139.344159,26.9031808 122.812523,18.7510434 122.812523,18.7510434 C119.876905,17.6886472 116.689555,17.1424151 113.364442,17.2251016 L113.364442,17.2251016 Z"></path>
        <path id="path-5" d="M61.3123315,12.3841828 C57.5238316,5.32952086 49.900493,0.612631806 41.2013457,0.825612188 C31.8734953,1.05613213 23.9909107,6.88928895 20.834871,14.9599926 C19.4735159,14.5941675 18.0345121,14.4150134 16.550422,14.4500925 C14.1921591,14.5089753 11.9741646,15.1053204 10.0129114,16.115098 C10.0129114,16.115098 1.11338064,18.5217763 1.11338064,31.2103958 C1.11338064,43.8990153 10.0129114,41.9897088 10.0129114,41.9897088 C12.1294618,43.0508522 14.539073,43.6258992 17.0889526,43.563258 C21.0139638,43.4655375 24.556994,41.8807129 27.1644838,39.3713029 C31.1521148,42.6875327 36.3545706,44.6331712 42.010394,44.4941075 C46.9398273,44.3738362 51.4622317,42.6875327 55.100444,39.9338217 C58.0686241,42.4933447 61.9911305,44.0042526 66.2668127,43.8990153 C75.3266503,43.6735066 82.5366979,36.2868458 82.3713816,27.3942885 C82.2073176,18.5029839 74.7292571,11.4746313 65.6694195,11.6988871 C64.1565244,11.7352191 62.6962298,11.973256 61.3123315,12.3841828 L61.3123315,12.3841828 Z"></path>
        <path id="path-7" d="M22.4993062,61.8545143 C24.0535305,61.8181824 25.5764449,61.9334423 27.0492633,62.1952829 C32.7689589,47.8742315 46.81584,37.5484414 63.4226199,37.1425258 C67.4127557,37.0435526 71.2776518,37.5258905 74.9321453,38.5106116 C83.4133756,16.8254502 104.583889,1.15886384 129.640589,0.542473562 C153.010311,-0.0325734702 173.488249,12.6385065 183.666477,31.5874963 C187.386095,30.4862625 191.307349,29.8448157 195.371376,29.7483481 C219.707948,29.1482446 239.796391,48.0258234 240.238487,71.909694 C240.681835,95.798576 221.312268,115.645842 196.976949,116.244693 C185.491219,116.525326 174.952301,112.468676 166.980796,105.593168 C157.204588,112.989851 145.053835,117.520069 131.817255,117.842046 C116.620673,118.219146 102.648936,112.989851 91.9334302,104.083513 C84.930028,110.824968 75.4168228,115.08207 64.8703905,115.341405 C52.9049926,115.637072 42.076771,110.722237 34.6237584,102.705404 C31.3249456,104.711179 27.4638066,105.901363 23.3183737,106.007853 C10.8971034,106.313543 0.64373189,96.6780597 0.418300489,84.4855592 C0.191616691,72.2930587 10.078036,62.1614566 22.4993062,61.8545143 L22.4993062,61.8545143 Z"></path>
        <path id="path-9" d="M66.8278865,19.4025128 C65.0469784,14.9412002 60.669852,11.7239436 55.494949,11.5949026 C54.2500667,11.5660876 53.0465135,11.7164267 51.9093373,12.0221162 C49.2655279,5.26562675 42.6691546,0.383364688 34.859209,0.191682344 C27.5777747,0.011275432 21.1968137,3.96143511 18.0244929,9.866003 C16.866026,9.52147591 15.6449392,9.32352944 14.3775138,9.2922088 C6.79425195,9.10553776 0.534773379,14.9888076 0.397009745,22.4293399 C0.257993715,29.8723779 6.29329328,36.0575787 13.8778075,36.2442498 C17.4559048,36.3319476 20.7396889,35.0678464 23.2244439,32.9267671 C26.2702726,35.2319665 30.0575201,36.6426484 34.1816624,36.7441272 C38.9157218,36.8618929 43.270305,35.2319665 46.6091946,32.4544518 C48.792122,34.5566934 51.7565449,35.8821831 55.0440862,35.9648696 C58.7712187,36.0563259 62.1464277,34.5253728 64.4683711,32.0259854 C65.4965888,32.6498926 66.6988896,33.0232347 67.991363,33.0558082 C71.8612687,33.1497701 75.057385,30.1479995 75.1275192,26.3494318 C75.1989058,22.550864 72.1167576,19.3912374 68.2455995,19.2972755 C67.7621744,19.2847472 67.287516,19.322332 66.8278865,19.4025128 L66.8278865,19.4025128 Z"></path>
    </defs>
    <g id="Page-1" stroke="none" stroke-width="1" fill="none" fill-rule="evenodd" sketch:type="MSPage">
        <g id="Group" sketch:type="MSLayerGroup" transform="translate(-2.000000, -1.000000)">
            <g id="Group-39" transform="translate(7.229707, 45.980027)">
                <mask id="mask-2" sketch:name="Clip 38" fill="white">
                    <use xlink:href="#path-1"></use>
                </mask>
                <g id="Clip-38"></g>
                <path d="M0.482172719,0.602609199 L314.535667,0.602609199 L314.535667,80.9638659 L0.482172719,80.9638659 L0.482172719,0.602609199 Z" id="Fill-37" fill="#E0E0E0" sketch:type="MSShapeGroup" mask="url(#mask-2)"></path>
            </g>
            <g id="Group-42" transform="translate(190.079622, 5.889602)">
                <mask id="mask-4" sketch:name="Clip 41" fill="white">
                    <use xlink:href="#path-3"></use>
                </mask>
                <g id="Clip-41"></g>
                <path d="M0.237955368,-0.0363319476 L139.344159,-0.0363319476 L139.344159,68.5020079 L0.237955368,68.5020079 L0.237955368,-0.0363319476 Z" id="Fill-40" fill="#ECECEC" sketch:type="MSShapeGroup" mask="url(#mask-4)"></path>
            </g>
            <g id="Group-45" transform="translate(0.967724, 27.187640)">
                <mask id="mask-6" sketch:name="Clip 44" fill="white">
                    <use xlink:href="#path-5"></use>
                </mask>
                <g id="Clip-44"></g>
                <path d="M1.11338064,0.612631806 L82.5366979,0.612631806 L82.5366979,44.6331712 L1.11338064,44.6331712 L1.11338064,0.612631806 Z" id="Fill-43" fill="#EFEEEE" sketch:type="MSShapeGroup" mask="url(#mask-6)"></path>
            </g>
            <g id="Group-48" transform="translate(42.296814, 0.878299)">
                <mask id="mask-8" sketch:name="Clip 47" fill="white">
                    <use xlink:href="#path-7"></use>
                </mask>
                <g id="Clip-47"></g>
                <path d="M0.191616691,-0.0325734702 L240.683088,-0.0325734702 L240.683088,118.219146 L0.191616691,118.219146 L0.191616691,-0.0325734702 Z" id="Fill-46" fill="#F4F4F4" sketch:type="MSShapeGroup" mask="url(#mask-8)"></path>
            </g>
            <g id="Group-51" transform="translate(238.923092, 86.070452)">
                <mask id="mask-10" sketch:name="Clip 50" fill="white">
                    <use xlink:href="#path-9"></use>
                </mask>
                <g id="Clip-50"></g>
                <path d="M0.257993715,0.011275432 L75.1989058,0.011275432 L75.1989058,36.8618929 L0.257993715,36.8618929 L0.257993715,0.011275432 Z" id="Fill-49" fill="#F6F6F6" sketch:type="MSShapeGroup" mask="url(#mask-10)"></path>
            </g>
        </g>
    </g>
</svg>