<?xml version="1.0" encoding="UTF-8" standalone="no"?>
<svg width="359px" height="359px" viewBox="0 0 359 359" version="1.1" xmlns="http://www.w3.org/2000/svg" xmlns:xlink="http://www.w3.org/1999/xlink" xmlns:sketch="http://www.bohemiancoding.com/sketch/ns">
    <!-- Generator: Sketch 3.3.3 (12081) - http://www.bohemiancoding.com/sketch -->
    <title>Imported EPS</title>
    <desc>Created with Sketch.</desc>
    <defs></defs>
    <g id="Page-1" stroke="none" stroke-width="1" fill="none" fill-rule="evenodd" sketch:type="MSPage">
        <g id="Artboard-1" sketch:type="MSArtboardGroup" transform="translate(-1.000000, -1.000000)" fill="#212E44">
            <g id="Imported-EPS" sketch:type="MSLayerGroup" transform="translate(1.000000, 1.000000)">
                <path d="M346.13069,166.999655 L289.419828,166.999655 C287.068966,145.485 278.539138,125.809138 265.652069,109.767414 L305.796724,69.6243103 C310.513966,64.9055172 310.513966,57.1841379 305.796724,52.4668966 C301.077931,47.7481034 293.358103,47.7481034 288.63931,52.4668966 L248.496207,92.61 C232.452931,79.722931 212.778621,71.1931034 191.262414,68.8422414 L191.262414,12.1313793 C191.262414,5.45896552 185.803448,0 179.131034,0 C172.458621,0 166.999655,5.45896552 166.999655,12.1313793 L166.999655,68.8422414 C145.483448,71.1931034 125.807586,79.722931 109.765862,92.61 L69.6227586,52.4668966 C64.9039655,47.7481034 57.1841379,47.7481034 52.4653448,52.4668966 C47.7481034,57.1841379 47.7481034,64.9055172 52.4653448,69.6243103 L92.61,109.767414 C79.722931,125.809138 71.1931034,145.485 68.8422414,166.999655 L12.1313793,166.999655 C5.45896552,166.999655 0,172.460172 0,179.131034 C0,185.805 5.45896552,191.263966 12.1313793,191.263966 L68.8422414,191.263966 C71.1931034,212.778621 79.722931,232.454483 92.6084483,248.496207 L52.4653448,288.640862 C47.7481034,293.358103 47.7481034,301.079483 52.4653448,305.796724 C57.1841379,310.515517 64.9039655,310.515517 69.6227586,305.796724 L109.765862,265.653621 C125.807586,278.54069 145.483448,287.070517 166.999655,289.421379 L166.999655,346.132241 C166.999655,352.804655 172.458621,358.263621 179.131034,358.263621 C185.803448,358.263621 191.262414,352.804655 191.262414,346.132241 L191.262414,289.421379 C212.778621,287.070517 232.452931,278.54069 248.496207,265.653621 L288.63931,305.796724 C293.358103,310.515517 301.077931,310.515517 305.796724,305.796724 C310.513966,301.079483 310.513966,293.358103 305.796724,288.640862 L265.652069,248.496207 C278.539138,232.454483 287.068966,212.778621 289.419828,191.263966 L346.13069,191.263966 C352.803103,191.263966 358.262069,185.805 358.262069,179.131034 C358.262069,172.460172 352.803103,166.999655 346.13069,166.999655 L346.13069,166.999655 Z M179.131034,265.886379 C131.294483,265.886379 92.3756897,226.969138 92.3756897,179.131034 C92.3756897,131.294483 131.294483,92.3772414 179.131034,92.3772414 C226.967586,92.3772414 265.886379,131.294483 265.886379,179.131034 C265.886379,226.969138 226.967586,265.886379 179.131034,265.886379 L179.131034,265.886379 Z" id="Page-1" sketch:type="MSShapeGroup"></path>
            </g>
        </g>
    </g>
</svg>