<?xml version="1.0" encoding="UTF-8" standalone="no"?>
<svg width="593px" height="604px" viewBox="0 0 593 604" version="1.1" xmlns="http://www.w3.org/2000/svg" xmlns:xlink="http://www.w3.org/1999/xlink" xmlns:sketch="http://www.bohemiancoding.com/sketch/ns">
    <!-- Generator: Sketch 3.3.3 (12081) - http://www.bohemiancoding.com/sketch -->
    <title>wall3-bg2</title>
    <desc>Created with Sketch.</desc>
    <defs></defs>
    <g id="Page-1" stroke="none" stroke-width="1" fill="none" fill-rule="evenodd" sketch:type="MSPage">
        <g id="wall3-bg2" sketch:type="MSLayerGroup">
            <g id="Page-1" sketch:type="MSShapeGroup">
                <g id="首页-copy">
                    <g id="Group">
                        <path d="M0.28125,38.5542574 L501.480723,38.5542574 C501.480723,38.5542574 582.281252,37.131678 582.28125,106.843077 C582.281248,176.554476 582.281248,603.55207 582.281248,603.55207" id="Path-553-Copy-2" stroke="#364A6B" stroke-width="2"></path>
                        <g id="Path-749-+-Path-749-Copy" transform="translate(33.000000, 0.000000)" fill="#212E44">
                            <path d="M18.3247768,0.564709734 L40.694385,0.564709734 L60,38.262366 L0.448964833,38.262366 L18.3247768,0.564709734 L18.3247768,0.564709734 Z" id="Path-749"></path>
                            <path d="M18.3247768,34.9176508 L40.694385,34.9176508 L60,72.6153071 L0.448964833,72.6153071 L18.3247768,34.9176508 L18.3247768,34.9176508 Z" id="Path-749-Copy" transform="translate(30.224482, 53.766479) scale(1, -1) translate(-30.224482, -53.766479) "></path>
                        </g>
                        <g transform="translate(236.000000, 19.000000)">
                            <path d="M47,35.9937109 L47,115.5" id="Line" stroke="#212E44" stroke-width="4"></path>
                            <rect id="Rectangle-9" fill="#212E44" x="35" y="76" width="25" height="8" rx="5"></rect>
                            <rect id="Rectangle-9-Copy" fill="#212E44" x="35" y="86" width="25" height="8" rx="5"></rect>
                            <circle id="Oval-16" fill="#212E44" cx="47" cy="83" r="5"></circle>
                            <path d="M47.5,128.898423 L2.18345521,128.898423 C-0.020070134,128.898423 -0.540821119,127.631921 1.02148846,126.069611 L37.0910996,90 L47.5,90.2775105 L57.9089004,90 L93.9785115,126.069611 C95.5408211,127.631921 95.0200701,128.898423 92.8165448,128.898423 L47.5,128.898423 L47.5,128.898423 Z" id="Path-752" fill="#212E44"></path>
                            <circle id="Oval-17" fill="#212E44" cx="48.5" cy="124.5" r="16.5"></circle>
                            <rect id="Rectangle-12" fill="#212E44" x="40" y="0" width="14" height="38" rx="5"></rect>
                        </g>
                        <g id="Shape" transform="translate(0.000000, 28.000000)" fill="#212E44">
                            <path d="M501.480723,20.5542574 C502.408386,20.546063 503.627443,20.5701147 505.247404,20.6550759 C507.821771,20.7900923 510.657775,21.04554 513.682193,21.4502217 C522.070302,22.5725907 530.392441,24.6254751 538.057623,27.7971246 C559.808308,36.7969821 572.281251,52.7191024 572.28125,78.843077 C572.281249,107.506218 572.281249,178.080573 572.281249,378.484388 L572.281249,479.593419 L572.281249,549.163441 C572.281248,560.858402 572.281248,560.858402 572.281248,568.655042 L572.281248,575.55207 L592.281248,575.55207 L592.281248,568.655042 C592.281248,560.858402 592.281248,560.858402 592.281249,549.163441 L592.281249,479.593419 C592.281249,383.634769 592.281249,493.634769 592.281249,378.484388 C592.281249,178.080573 592.281249,107.506219 592.28125,78.8430774 C592.281251,43.9695772 574.453996,21.2125026 545.70435,9.31666014 C536.29238,5.42223617 526.326231,2.96381136 516.33465,1.62689009 C512.75718,1.14820753 509.388346,0.844766201 506.294893,0.682525603 C504.252273,0.57539745 502.6257,0.543305509 501.4829,0.553566796 C501.362769,0.554843931 0.28125,0.554257421 0.28125,0.554257421 L0.28125,20.5542574 L501.480723,20.5542574 Z"></path>
                            <path d="M93.6499987,3.08657431 C93.6711791,3.23857106 93.7138249,3.51473859 93.7806803,3.90685688 C93.8901317,4.54880851 94.0292731,5.29016617 94.2008606,6.12271644 C94.6885968,8.48923303 95.3391442,11.1211465 96.1747741,13.9528226 C98.5614034,22.0403281 101.95616,30.1287883 106.543881,37.6916988 C119.716097,59.406244 139.89261,72.4982748 168.318588,72.4982751 C196.781429,72.4982754 216.462668,58.9454039 228.76592,36.486748 C233.047302,28.6714075 236.113601,20.3151159 238.171813,11.9607298 C238.892254,9.03642177 239.435761,6.31868776 239.827273,3.87529861 C239.964966,3.01596578 240.073924,2.25088325 240.157235,1.58853507 C240.208079,1.18430865 240.239426,0.899909082 240.254353,0.743828588 L236.272521,0.363023667 C236.261318,0.480165239 236.234317,0.725133429 236.188506,1.08934407 C236.110725,1.70772432 236.008108,2.42828678 235.877654,3.2424391 C235.503029,5.58043612 234.981048,8.1905324 234.287942,11.0038877 C232.307445,19.0428257 229.358297,27.079858 225.257828,34.5649532 C213.612934,55.8218285 195.204423,68.4982754 168.318588,68.4982751 C141.395889,68.4982748 122.454073,56.2074076 109.963843,35.6171231 C105.569708,28.3733432 102.306155,20.597492 100.011214,12.8206862 C99.2082936,10.0998533 98.5844228,7.57586567 98.1185213,5.31529145 C97.9563357,4.52835995 97.8256424,3.8320144 97.7237788,3.2345667 C97.6638451,2.8830454 97.6273838,2.64692788 97.61172,2.53451944 L93.6499987,3.08657431 L93.6499987,3.08657431 Z"></path>
                            <path d="M131.373815,2.97032479 C131.378876,3.03346595 131.388908,3.15231637 131.404252,3.32508414 C131.42951,3.6094684 131.460759,3.94417808 131.49834,4.32742173 C131.605293,5.41809611 131.741657,6.68135291 131.910159,8.10286734 C132.39078,12.1574702 133.032669,16.6726381 133.857756,21.5339209 C136.215928,35.42789 139.570488,49.3246654 144.102055,62.3132419 C149.954855,79.088794 157.353777,93.1005501 166.515039,103.436193 C177.468506,115.793782 190.618363,122.498275 206.055151,122.498275 C221.508971,122.498275 234.52108,115.655463 245.196268,103.049377 C254.119287,92.5123871 261.191847,78.2314929 266.653586,61.1344609 C270.881871,47.8985472 273.912087,33.7373975 275.946115,19.5792178 C276.65777,14.6256321 277.194318,10.0248028 277.580353,5.89337304 C277.715685,4.44501275 277.822572,3.15794396 277.904075,2.04676638 C277.93271,1.65636852 277.956145,1.31543503 277.974762,1.02579173 C277.986068,0.849898534 277.993319,0.728956292 277.996897,0.664791304 L274.003103,0.442060951 C274.000149,0.495029604 273.993574,0.604694219 273.982999,0.769220673 C273.965148,1.04694345 273.942539,1.37586797 273.914792,1.75415963 C273.835203,2.83923783 273.730515,4.09982574 273.597701,5.52123967 C273.217599,9.58916485 272.688659,14.1247595 271.986766,19.0103997 C269.982086,32.964294 266.996855,46.9152184 262.843288,59.9172404 C251.104326,96.6640317 232.614476,118.498275 206.055151,118.498275 C179.463976,118.498275 160.461036,97.0593526 147.878795,60.9955801 C143.428506,48.239966 140.124757,34.5536801 137.801358,20.864588 C136.987896,16.0717993 136.355367,11.6224722 135.88235,7.63201556 C135.717079,6.23775914 135.583608,5.00130101 135.479246,3.93704873 C135.442867,3.56606805 135.412754,3.24352509 135.388569,2.97121997 C135.374248,2.8099741 135.365181,2.70255722 135.36103,2.65076896 L131.373815,2.97032479 L131.373815,2.97032479 Z"></path>
                            <path d="M328.890719,2.19259937 C328.907695,2.35334528 328.942498,2.65073085 328.997409,3.07569902 C329.087784,3.77511741 329.202827,4.58391694 329.344828,5.49304936 C329.749121,8.08144293 330.288703,10.9618909 330.982062,14.0621448 C332.963665,22.9225993 335.782793,31.7856191 339.594005,40.0758144 C350.592973,64.0009048 367.525375,78.4982749 391.523867,78.4982751 C415.553366,78.4982753 432.065122,63.7008382 442.335695,39.3017907 C445.892284,30.8526603 448.438916,21.8207495 450.148136,12.791811 C450.746122,9.63295232 451.197105,6.69817105 451.52179,4.06108107 C451.635816,3.13495942 451.725971,2.31110065 451.794822,1.59872544 C451.836641,1.16604207 451.862274,0.863391241 451.87428,0.700003103 L447.885037,0.406849152 C447.875244,0.54012058 447.852196,0.81224766 447.813375,1.21391932 C447.747825,1.89213583 447.66146,2.68136345 447.551768,3.57228164 C447.237257,6.12673408 446.799291,8.97681435 446.217938,12.0478065 C444.557616,20.818442 442.085491,29.5861052 438.649007,37.7499106 C428.939366,60.816394 413.672405,74.4982753 391.523867,74.4982751 C369.34432,74.4982749 353.639851,61.0522503 343.228345,38.4050161 C339.545892,30.3948977 336.809915,21.7932957 334.88563,13.1891284 C334.211927,10.1767647 333.688248,7.38121055 333.29691,4.87575609 C333.160441,4.00204171 333.050357,3.22810989 332.964429,2.5631047 C332.91356,2.16941872 332.882362,1.90284254 332.868599,1.77251142 L328.890719,2.19259937 L328.890719,2.19259937 Z"></path>
                            <path d="M388.890719,1.75040911 C388.902939,1.8661236 388.927531,2.0762608 388.966078,2.37457811 C389.029178,2.86291174 389.109392,3.42685295 389.208312,4.06016795 C389.489516,5.86051175 389.864605,7.8628471 390.346471,10.0174413 C391.723809,16.1760109 393.683528,22.3371457 396.335423,28.1055817 C404.022059,44.8256456 415.905336,54.9999999 432.759799,55 C449.645271,55.0000001 461.240663,44.6084896 468.420173,27.5526531 C470.894891,21.6736466 472.66509,15.3954399 473.853021,9.12020556 C474.268556,6.92514328 474.582012,4.88531584 474.80781,3.05138956 C474.887226,2.40637521 474.950072,1.83207087 474.99813,1.3348288 C475.027473,1.03122531 475.045575,0.817496172 475.054209,0.700003103 L471.064966,0.406849152 C471.058545,0.494225512 471.043029,0.677430896 471.016683,0.950022677 C470.971926,1.41310605 470.91287,1.95277924 470.837788,2.56259013 C470.622165,4.31387887 470.321724,6.2690053 469.922822,8.37620103 C468.78379,14.3931324 467.088098,20.4070915 464.733485,26.000773 C458.114906,41.7240454 447.76431,51.0000001 432.759799,51 C417.72428,50.9999999 407.068937,41.8769911 399.969764,26.4347834 C397.446627,20.9464243 395.570059,15.0467072 394.250039,9.1444249 C393.787829,7.07772089 393.428643,5.16027937 393.160394,3.44287468 C393.067006,2.84497772 392.991751,2.31590422 392.933098,1.8619838 C392.898593,1.59494867 392.877607,1.41562086 392.868599,1.33032116 L388.890719,1.75040911 L388.890719,1.75040911 Z"></path>
                        </g>
                    </g>
                </g>
            </g>
        </g>
    </g>
</svg>