<?xml version="1.0" encoding="UTF-8" standalone="no"?>
<svg width="233px" height="123px" viewBox="0 0 233 123" version="1.1" xmlns="http://www.w3.org/2000/svg" xmlns:xlink="http://www.w3.org/1999/xlink" xmlns:sketch="http://www.bohemiancoding.com/sketch/ns">
    <!-- Generator: Sketch 3.3.3 (12081) - http://www.bohemiancoding.com/sketch -->
    <title>Group Copy 2</title>
    <desc>Created with Sketch.</desc>
    <defs></defs>
    <g id="Page-1" stroke="none" stroke-width="1" fill="none" fill-rule="evenodd" sketch:type="MSPage">
        <g id="首页" sketch:type="MSArtboardGroup" transform="translate(-800.000000, -271.000000)" fill="#F4F4F4">
            <g id="Group-Copy-2" sketch:type="MSLayerGroup" transform="translate(917.553670, 332.985319) scale(-1, 1) translate(-917.553670, -332.985319) translate(800.947835, 271.970637)">
                <rect id="Rectangle-56" sketch:type="MSShapeGroup" x="1.35588181" y="0" width="152.742834" height="16.4359331" rx="40"></rect>
                <rect id="Rectangle-56-Copy" sketch:type="MSShapeGroup" x="20.1549998" y="25.0452314" width="104.961742" height="16.4359331" rx="40"></rect>
                <rect id="Rectangle-56-Copy-8" sketch:type="MSShapeGroup" x="150.965529" y="39.1331741" width="54.8307609" height="8.6092983" rx="40"></rect>
                <rect id="Rectangle-56-Copy-2" sketch:type="MSShapeGroup" x="56.1866427" y="56.3517707" width="152.742834" height="14.8706062" rx="40"></rect>
                <rect id="Rectangle-56-Copy-9" sketch:type="MSShapeGroup" x="120.416963" y="79.8316751" width="112.794708" height="16.4359331" rx="40"></rect>
                <rect id="Rectangle-56-Copy-13" sketch:type="MSShapeGroup" x="24.3417752" y="86.7764356" width="65.1349723" height="9.49117264" rx="40"></rect>
                <rect id="Rectangle-56-Copy-11" sketch:type="MSShapeGroup" x="52.2701598" y="104.876907" width="112.794708" height="16.4359331" rx="40"></rect>
                <path d="M118.850369,16.4359331 L20.1549998,16.4359331 L20.1549998,16.4359331 L31.5158975,16.4359331 C33.8935021,16.4359331 35.8209315,18.3680277 35.8209315,20.7405823 C35.8209315,23.1179743 33.8896977,25.0452314 31.5158975,25.0452314 L20.1549998,25.0452314 L118.850369,25.0452314 L84.7738707,25.0452314 C82.3962661,25.0452314 80.4688368,23.1131368 80.4688368,20.7405823 C80.4688368,18.3631902 82.4000706,16.4359331 84.7738707,16.4359331 L118.850369,16.4359331 Z" id="Rectangle-56-Copy-5" sketch:type="MSShapeGroup"></path>
                <path d="M109.45081,41.4811645 L70.5884597,41.4811645 C70.2193627,41.4811645 69.8565691,41.508106 69.5019319,41.5601314 L69.5019319,41.5601314 C73.0892971,42.0870525 75.843657,45.1866534 75.843657,48.9164676 C75.843657,52.6534504 73.0908639,55.7465272 69.5034374,56.2728038 C69.8576084,56.3248253 70.2198988,56.3517707 70.5884597,56.3517707 L109.45081,56.3517707 L101.342176,56.3517707 C97.2404962,56.3517707 93.9154281,53.0145164 93.9154281,48.9164676 C93.9154281,44.8100631 97.2393807,41.4811645 101.342176,41.4811645 L109.45081,41.4811645 Z" id="Rectangle-56-Copy-6" sketch:type="MSShapeGroup"></path>
                <path d="M197.180028,47.7424724 L157.231902,47.7424724 L157.231902,47.7424724 L159.274582,47.7424724 C161.648463,47.7424724 163.572874,49.674567 163.572874,52.0471215 C163.572874,54.4245136 161.654796,56.3517707 159.274582,56.3517707 L157.231902,56.3517707 L197.180028,56.3517707 L185.942938,56.3517707 C183.569057,56.3517707 181.644646,54.4196761 181.644646,52.0471215 C181.644646,49.6697294 183.562724,47.7424724 185.942938,47.7424724 L197.180028,47.7424724 Z" id="Rectangle-56-Copy-7" sketch:type="MSShapeGroup"></path>
                <path d="M178.38091,71.2223768 L138.432784,71.2223768 L138.432784,71.2223768 L140.475464,71.2223768 C142.849345,71.2223768 144.773756,73.1544714 144.773756,75.527026 C144.773756,77.9044181 142.855678,79.8316751 140.475464,79.8316751 L138.432784,79.8316751 L178.38091,79.8316751 L167.14382,79.8316751 C164.769939,79.8316751 162.845528,77.8995805 162.845528,75.527026 C162.845528,73.1496339 164.763606,71.2223768 167.14382,71.2223768 L178.38091,71.2223768 Z" id="Rectangle-56-Copy-10" sketch:type="MSShapeGroup"></path>
                <path d="M96.1347685,96.2676082 L56.1866427,96.2676082 L56.1866427,96.2676082 L58.2293227,96.2676082 C60.603204,96.2676082 62.527615,98.1997028 62.527615,100.572257 C62.527615,102.949649 60.6095368,104.876907 58.2293227,104.876907 L56.1866427,104.876907 L96.1347685,104.876907 L84.8976785,104.876907 C82.5237972,104.876907 80.5993862,102.944812 80.5993862,100.572257 C80.5993862,98.1948653 82.5174645,96.2676082 84.8976785,96.2676082 L96.1347685,96.2676082 Z" id="Rectangle-56-Copy-14" sketch:type="MSShapeGroup"></path>
                <path d="M165.064868,96.2676082 L125.116742,96.2676082 L125.116742,96.2676082 L127.159422,96.2676082 C129.533303,96.2676082 131.457714,98.1997028 131.457714,100.572257 C131.457714,102.949649 129.539636,104.876907 127.159422,104.876907 L125.116742,104.876907 L165.064868,104.876907 L153.827778,104.876907 C151.453897,104.876907 149.529486,102.944812 149.529486,100.572257 C149.529486,98.1948653 151.447564,96.2676082 153.827778,96.2676082 L165.064868,96.2676082 Z" id="Rectangle-56-Copy-12" sketch:type="MSShapeGroup"></path>
            </g>
        </g>
    </g>
</svg>