<?xml version="1.0" encoding="utf-8"?>
<!-- Generator: Adobe Illustrator 19.0.0, SVG Export Plug-In . SVG Version: 6.00 Build 0)  -->
<svg version="1.1" id="图层_1" xmlns="http://www.w3.org/2000/svg" xmlns:xlink="http://www.w3.org/1999/xlink" x="0px" y="0px"
	 viewBox="0 0 1024 1024" enable-background="new 0 0 1024 1024" xml:space="preserve">
<rect id="XMLID_23_" x="-28.5" y="-1607.9" fill-rule="evenodd" clip-rule="evenodd" fill="none" width="1184" height="3453"/>
<rect id="XMLID_20_" x="-28.5" y="-1607.9" fill-rule="evenodd" clip-rule="evenodd" fill="none" width="1184" height="3453"/>
<rect id="XMLID_3_" x="-28.5" y="-1607.9" fill-rule="evenodd" clip-rule="evenodd" fill="none" width="1184" height="3453"/>
<g id="XMLID_4_">
	<path id="XMLID_5_" fill="none" d="M348,262.2c-30.8,0-55.9,25.1-55.9,55.9s25.1,55.9,55.9,55.9c30.8,0,55.9-25.1,55.9-55.9
		S378.8,262.2,348,262.2z"/>
	<path id="XMLID_19_" fill="#212E44" d="M455.6,310.3H419c-1.5-13.9-7-26.5-15.3-36.9l25.9-25.9c3-3,3-8,0-11.1c-3-3-8-3-11.1,0
		l-25.9,25.9c-10.3-8.3-23-13.8-36.9-15.3v-36.5c0-4.3-3.5-7.8-7.8-7.8h0c-4.3,0-7.8,3.5-7.8,7.8v36.5c-13.9,1.5-26.5,7-36.9,15.3
		l-25.9-25.9c-3-3-8-3-11.1,0c-3,3-3,8,0,11.1l25.9,25.9c-8.3,10.3-13.8,23-15.3,36.9h-36.5c-4.3,0-7.8,3.5-7.8,7.8
		c0,4.3,3.5,7.8,7.8,7.8h36.5c1.5,13.9,7,26.5,15.3,36.9l-25.9,25.9c-3,3-3,8,0,11.1c3,3,8,3,11.1,0l25.9-25.9
		c10.3,8.3,23,13.8,36.9,15.3v36.5c0,4.3,3.5,7.8,7.8,7.8h0c4.3,0,7.8-3.5,7.8-7.8v-36.5c13.9-1.5,26.5-7,36.9-15.3l25.9,25.9
		c3,3,8,3,11.1,0c3-3,3-8,0-11.1l-25.9-25.9c8.3-10.3,13.8-23,15.3-36.9h36.5c4.3,0,7.8-3.5,7.8-7.8
		C463.4,313.9,459.9,310.3,455.6,310.3z M348,374.1c-30.8,0-55.9-25.1-55.9-55.9s25.1-55.9,55.9-55.9c30.8,0,55.9,25.1,55.9,55.9
		S378.8,374.1,348,374.1z"/>
</g>
</svg>
