<?xml version="1.0" encoding="UTF-8" standalone="no"?>
<svg width="173px" height="73px" viewBox="0 0 173 73" version="1.1" xmlns="http://www.w3.org/2000/svg" xmlns:xlink="http://www.w3.org/1999/xlink" xmlns:sketch="http://www.bohemiancoding.com/sketch/ns">
    <!-- Generator: Sketch 3.3.3 (12081) - http://www.bohemiancoding.com/sketch -->
    <title>Group Copy + Group Copy 14 Copy</title>
    <desc>Created with Sketch.</desc>
    <defs></defs>
    <g id="Page-1" stroke="none" stroke-width="1" fill="none" fill-rule="evenodd" sketch:type="MSPage">
        <g id="首页-copy" sketch:type="MSArtboardGroup" transform="translate(-874.000000, -2757.000000)" fill="#F4F4F4">
            <g id="Group-Copy-+-Group-Copy-14-Copy" sketch:type="MSLayerGroup" transform="translate(960.038994, 2793.624638) scale(-1, 1) translate(-960.038994, -2793.624638) translate(873.511514, 2757.910276)">
                <g id="Group-Copy" transform="translate(0.000000, 0.000000)" sketch:type="MSShapeGroup">
                    <path d="M131.243024,52.8456424 L101.626235,52.8456424 L101.626235,52.8456424 L103.14064,52.8456424 C104.900591,52.8456424 106.327313,54.2792196 106.327313,56.0396098 C106.327313,57.8035893 104.905286,59.2335772 103.14064,59.2335772 L101.626235,59.2335772 L131.243024,59.2335772 L122.912057,59.2335772 C121.152106,59.2335772 119.725384,57.7999999 119.725384,56.0396098 C119.725384,54.2756303 121.147411,52.8456424 122.912057,52.8456424 L131.243024,52.8456424 Z M145.180336,35.424002 L115.563548,35.424002 L115.563548,35.424002 L117.077952,35.424002 C118.837903,35.424002 120.264625,36.8575793 120.264625,38.6179694 C120.264625,40.3819489 118.842598,41.8119368 117.077952,41.8119368 L115.563548,41.8119368 L145.180336,41.8119368 L136.849369,41.8119368 C135.089418,41.8119368 133.662696,40.3783596 133.662696,38.6179694 C133.662696,36.85399 135.084723,35.424002 136.849369,35.424002 L145.180336,35.424002 Z M80.1431331,30.7782313 L51.3391167,30.7782313 C51.0612693,30.7782313 50.7882984,30.7986871 50.5216173,30.8381721 L50.5216173,30.8381721 C53.1822588,31.2330496 55.2238346,33.5307982 55.2238346,36.2950841 C55.2238346,39.0646789 53.1876367,41.3576014 50.5238967,41.7519961 C50.7899218,41.791478 51.0621358,41.8119368 51.3391167,41.8119368 L80.1431331,41.8119368 L74.1465178,41.8119368 C71.0953587,41.8119368 68.6219056,39.3357579 68.6219056,36.2950841 C68.6219056,33.2482104 71.0883871,30.7782313 74.1465178,30.7782313 L80.1431331,30.7782313 Z M87.1082017,12.1951482 L13.9373123,12.1951482 L13.9373123,12.1951482 L22.360068,12.1951482 C24.1227793,12.1951482 25.5517392,13.6287255 25.5517392,15.3891156 C25.5517392,17.1530951 24.1199588,18.583083 22.360068,18.583083 L13.9373123,18.583083 L87.1082017,18.583083 L61.844527,18.583083 C60.0818157,18.583083 58.6528558,17.1495058 58.6528558,15.3891156 C58.6528558,13.6251362 60.0846362,12.1951482 61.844527,12.1951482 L87.1082017,12.1951482 Z M2.45282161e-13,6.09757412 C2.45282161e-13,2.72997692 2.72916808,0 6.08830984,0 L107.152352,0 C110.514833,0 113.240662,2.73682931 113.240662,6.09757412 C113.240662,9.46517132 110.511494,12.1951482 107.152352,12.1951482 L6.08830984,12.1951482 C2.72582916,12.1951482 2.45282161e-13,9.45831894 2.45282161e-13,6.09757412 Z M13.9373123,24.6806572 C13.9373123,21.31306 16.6612205,18.583083 20.0434551,18.583083 L85.6478297,18.583083 C89.0201592,18.583083 91.7539725,21.3199123 91.7539725,24.6806572 C91.7539725,28.0482544 89.0300643,30.7782313 85.6478297,30.7782313 L20.0434551,30.7782313 C16.6711255,30.7782313 13.9373123,28.041402 13.9373123,24.6806572 Z M110.917777,32.2300346 C110.917777,30.4660552 112.340714,29.0360672 114.107553,29.0360672 L148.378495,29.0360672 C150.14016,29.0360672 151.568271,30.4696445 151.568271,32.2300346 C151.568271,33.9940141 150.145334,35.424002 148.378495,35.424002 L114.107553,35.424002 C112.345888,35.424002 110.917777,33.9904248 110.917777,32.2300346 Z M40.6504941,47.3287896 C40.6504941,44.281916 43.1209997,41.8119368 46.1697752,41.8119368 L148.371875,41.8119368 C151.42009,41.8119368 153.891156,44.2881157 153.891156,47.3287896 C153.891156,50.3756633 151.420651,52.8456424 148.371875,52.8456424 L46.1697752,52.8456424 C43.1215605,52.8456424 40.6504941,50.3694635 40.6504941,47.3287896 Z M88.2696444,65.3311513 C88.2696444,61.9635541 91.0044171,59.2335772 94.3679172,59.2335772 L165.795245,59.2335772 C169.163228,59.2335772 171.893518,61.9704065 171.893518,65.3311513 C171.893518,68.6987485 169.158745,71.4287254 165.795245,71.4287254 L94.3679172,71.4287254 C90.9999341,71.4287254 88.2696444,68.6918961 88.2696444,65.3311513 Z" id="Rectangle-56"></path>
                </g>
            </g>
        </g>
    </g>
</svg>