<?xml version="1.0" encoding="UTF-8" standalone="no"?>
<svg width="297px" height="124px" viewBox="0 0 297 124" version="1.1" xmlns="http://www.w3.org/2000/svg" xmlns:xlink="http://www.w3.org/1999/xlink" xmlns:sketch="http://www.bohemiancoding.com/sketch/ns">
    <!-- Generator: Sketch 3.3.3 (12081) - http://www.bohemiancoding.com/sketch -->
    <title>Group Copy + Group Copy 14</title>
    <desc>Created with Sketch.</desc>
    <defs></defs>
    <g id="Page-1" stroke="none" stroke-width="1" fill="none" fill-rule="evenodd" sketch:type="MSPage">
        <g id="首页-copy" sketch:type="MSArtboardGroup" transform="translate(-84.000000, -2464.000000)" fill="#F4F4F4">
            <g id="Group-Copy-+-Group-Copy-14" sketch:type="MSLayerGroup" transform="translate(84.674296, 2464.627697)">
                <g id="Group-Copy" transform="translate(0.000000, 0.000000)" sketch:type="MSShapeGroup">
                    <path d="M226,91 L175,91 L175,91 L177.592161,91 C180.631427,91 183.095238,93.4686147 183.095238,96.5 C183.095238,99.5375661 180.624652,102 177.592161,102 L175,102 L226,102 L211.669743,102 C208.630478,102 206.166667,99.5313853 206.166667,96.5 C206.166667,93.4624339 208.637253,91 211.669743,91 L226,91 Z M250,61 L199,61 L199,61 L201.592161,61 C204.631427,61 207.095238,63.4686147 207.095238,66.5 C207.095238,69.5375661 204.624652,72 201.592161,72 L199,72 L250,72 L235.669743,72 C232.630478,72 230.166667,69.5313853 230.166667,66.5 C230.166667,63.4624339 232.637253,61 235.669743,61 L250,61 L250,61 Z M137.997061,53 L88.4057683,53 C87.9276289,53 87.4578755,53.0351789 86.9989377,53.1030846 L86.9989377,53.1030846 C91.5801127,53.7817575 95.0952381,57.7294682 95.0952381,62.5 C95.0952381,67.2695441 91.5884541,71.2181527 87.0010623,71.8969154 C87.4594427,71.9648217 87.9284958,72 88.4057683,72 L137.997061,72 L127.661796,72 C122.417781,72 118.166667,67.7478587 118.166667,62.5 C118.166667,57.2532949 122.413939,53 127.661796,53 L137.997061,53 L137.997061,53 Z M150,21 L24,21 L24,21 L38.5039541,21 C41.5393364,21 44,23.4686147 44,26.5 C44,29.5375661 41.5344795,32 38.5039541,32 L24,32 L150,32 L106.496046,32 C103.460664,32 101,29.5313853 101,26.5 C101,23.4624339 103.465521,21 106.496046,21 L150,21 L150,21 Z M4.26325641e-13,10.5 C4.26325641e-13,4.70101013 4.69961731,0 10.5013132,0 L184.498687,0 C190.298402,0 195,4.69973509 195,10.5 C195,16.2989899 190.300383,21 184.498687,21 L10.5013132,21 C4.70159807,21 4.26325641e-13,16.3002649 4.26325641e-13,10.5 Z M24,42.5 C24,36.7010101 28.710147,32 34.5007899,32 L147.49921,32 C153.298636,32 158,36.6997351 158,42.5 C158,48.2989899 153.289853,53 147.49921,53 L34.5007899,53 C28.7013638,53 24,48.3002649 24,42.5 Z M191,55.5 C191,52.4624339 193.470776,50 196.492783,50 L255.507217,50 C258.540797,50 261,52.4686147 261,55.5 C261,58.5375661 258.529224,61 255.507217,61 L196.492783,61 C193.459203,61 191,58.5313853 191,55.5 Z M70,81.5 C70,76.2532949 74.2542014,72 79.5041815,72 L255.495818,72 C260.744833,72 265,76.2521413 265,81.5 C265,86.7467051 260.745799,91 255.495818,91 L79.5041815,91 C74.255167,91 70,86.7478587 70,81.5 Z M152,112.5 C152,106.70101 156.709268,102 162.501203,102 L285.498797,102 C291.298451,102 296,106.699735 296,112.5 C296,118.29899 291.290732,123 285.498797,123 L162.501203,123 C156.701549,123 152,118.300265 152,112.5 Z" id="Rectangle-56"></path>
                </g>
            </g>
        </g>
    </g>
</svg>