<?xml version="1.0" encoding="UTF-8" standalone="no"?>
<svg width="186px" height="71px" viewBox="0 0 186 71" version="1.1" xmlns="http://www.w3.org/2000/svg" xmlns:xlink="http://www.w3.org/1999/xlink" xmlns:sketch="http://www.bohemiancoding.com/sketch/ns">
    <!-- Generator: Sketch 3.3.3 (12081) - http://www.bohemiancoding.com/sketch -->
    <title>Group Copy 3</title>
    <desc>Created with Sketch.</desc>
    <defs>
        <path id="path-1" d="M4.5490134,17.6822013 C2.61375643,19.3240291 1.21411754,21.4215877 0.591723335,23.7623522 C0.536366158,23.9733802 0.492978101,24.1537269 0.454826533,24.3355701 C0.406201986,24.5855111 0.374783048,24.7516395 0.349348669,24.9215096 L0.329150781,25.0809031 C0.309700962,25.2260784 0.289503073,25.3712537 0.276037814,25.516429 C0.267060974,25.6084731 0.263320625,25.7035106 0.257336065,25.796303 C0.249855365,25.906307 0.240130456,26.0148143 0.235642036,26.1263149 C0.228161337,26.3313563 0.226665197,26.539391 0.230405546,26.7474257 C0.375531118,33.5856311 6.9892176,38.9892951 15.0002988,38.8179284 C17.6739008,38.7588106 20.1642257,38.0890586 22.2917366,36.9643242 C29.0483045,43.2861845 32.134093,44.2605053 41.800653,44.0524706 C48.6028531,43.9072953 54.7385229,41.5186378 59.2553693,37.7373452 C66.1660395,42.7339197 75.1780383,45.6666103 84.9785028,45.454834 C93.5162252,45.2729907 101.353006,42.7339197 107.65774,38.5851989 C112.799973,42.4420725 119.596936,44.7154877 127.005073,44.5583391 C127.242211,44.5531009 127.479349,44.5456176 127.714991,44.535141 C128.124934,44.5141879 128.2738,44.507453 128.420421,44.498473 C128.861034,44.4670433 128.991199,44.4565668 129.121363,44.4460902 C129.572449,44.4041839 129.695132,44.3937074 129.817068,44.3794892 C130.272642,44.328603 130.390089,44.3151331 130.507536,44.2994183 C130.963859,44.2380555 131.078314,44.2223406 131.19202,44.2066258 C131.649091,44.1347865 131.759806,44.117575 131.87052,44.0981185 C132.326843,44.0172992 132.436061,43.9963461 132.544531,43.975393 C132.997861,43.8863422 133.104835,43.8638924 133.211061,43.8406942 C133.662896,43.7434118 133.766877,43.7187171 133.870859,43.6940223 C134.320449,43.585515 134.421438,43.5593236 134.522428,43.5331322 C134.97127,43.4156449 135.068519,43.3879569 135.166516,43.3617654 C135.920571,43.1417575 136.040262,43.1050895 136.159205,43.0676732 C136.546705,42.9419544 136.669389,42.9037898 136.791324,42.8618835 C137.493014,42.6186775 137.968038,42.4398275 138.435582,42.2527459 C138.737802,42.1307687 138.86273,42.0783859 138.988406,42.0237581 C139.33177,41.8770861 139.450713,41.8247033 139.569656,41.7700755 C139.920501,41.6114303 140.034955,41.5568025 140.14941,41.502923 C140.501003,41.3345496 140.613213,41.2791734 140.724676,41.223049 C141.074773,41.046444 141.183991,40.9888229 141.293957,40.9289568 C141.373253,40.8885471 141.4518,40.8466409 141.530347,40.8047346 C141.639565,40.7456168 141.747288,40.6857507 141.85501,40.6266329 C141.932809,40.5824817 142.010608,40.5390788 142.086911,40.4956758 C142.194633,40.4343131 142.301607,40.3729503 142.408581,40.3115876 C142.484136,40.2659397 142.558943,40.2225368 142.63375,40.1791338 C142.740724,40.1140294 142.84695,40.0496734 142.952428,39.984569 C143.025739,39.9411661 143.098302,39.8955182 143.170865,39.8498703 C143.277091,39.7832692 143.382568,39.7174165 143.488046,39.6485705 C143.557617,39.6036709 143.627187,39.558023 143.696758,39.5123751 C143.802236,39.4427808 143.908462,39.3724381 144.013191,39.3028438 L144.210682,39.168145 C144.317656,39.0948091 144.423882,39.0207248 144.52936,38.9458921 L144.708896,38.8164317 C144.818863,38.7378574 144.928081,38.6592832 145.035803,38.578464 C145.303612,38.3771642 145.418067,38.2903583 145.531773,38.2028042 C146.22299,37.6602676 146.790775,37.1761005 147.333126,36.6739736 C147.483488,36.5340366 147.597943,36.4255293 147.711649,36.3155253 C147.913628,36.1194638 148.01761,36.0161948 148.120844,35.9114291 C148.336288,35.6929179 148.434285,35.5911455 148.531534,35.4886248 C148.74997,35.257392 148.842731,35.1556196 148.93624,35.0530989 L149.059671,34.9161552 C149.150936,34.8128862 149.241452,34.7103655 149.331221,34.6070965 L149.452408,34.4656628 C149.541428,34.3623938 149.628953,34.2553831 149.716477,34.1506174 L149.83168,34.0084355 C149.919204,33.9021731 150.005232,33.7936658 150.089764,33.6851585 L150.197486,33.5474665 C150.283514,33.4352175 150.368794,33.3229686 150.452578,33.211468 C150.635107,32.9645203 150.718891,32.8477814 150.802674,32.7302942 C150.971738,32.4870882 151.05627,32.365111 151.140054,32.2408888 C151.291912,32.0111526 151.379436,31.8786989 151.463968,31.7440002 C152.309287,30.4059928 153.314693,30.0408096 153.847319,28.6414395 C153.916142,28.4595962 153.976735,28.2934678 154.036581,28.1235977 C154.108395,27.9193046 154.163753,27.7546729 154.216866,27.5900411 C154.286436,27.3715298 154.336557,27.209143 154.384433,27.0445112 C154.450263,26.819265 154.495896,26.6546332 154.539284,26.4885048 C154.58716,26.3044165 154.620075,26.1786977 154.651494,26.0514823 C155.219279,26.1704661 154.651494,23.0312375 155.31578,21.2951205 C155.979318,19.5590036 157.208397,17.3110315 158.47488,16.4482113 C159.520682,15.736553 161.450702,16.4946075 163.692668,17.2534104 C165.337674,17.8101651 167.150995,18.3669199 168.907463,18.3422251 C173.057756,18.2861006 176.379186,16.9840129 178.214202,13.8784589 C180.049965,10.7729049 173.366708,0.596416033 173.366708,0.596416033 C173.366708,0.596416033 3.19276257,18.0788142 4.5490134,17.6822013 L4.5490134,17.6822013 Z"></path>
        <path id="path-3" d="M73.228568,9.88464164 C71.7092379,9.91681967 70.2422727,10.1248544 68.8538549,10.4825543 C65.048423,4.32382916 57.391927,0.20429307 48.6559661,0.39062631 C39.2893822,0.59117775 31.3755501,5.68503464 28.2059777,12.7335197 C26.8385058,12.4132361 25.3947308,12.2560876 23.9030793,12.2882656 C17.6940987,12.419971 12.4441437,15.7762143 10.3046636,20.4323003 C9.7555803,20.3477395 9.18555099,20.3095748 8.6050487,20.3215481 C3.96028235,20.4210755 0.264816764,23.713711 0.350096739,27.6775952 C0.434628644,31.6399828 4.2677391,34.7724766 8.91100932,34.6744458 C10.4602622,34.6400228 11.9032891,34.2508932 13.1376046,33.6005976 C15.9234171,36.2062697 19.9712236,37.8046946 24.4431858,37.7089088 C28.3862625,37.624348 31.9418391,36.2399444 34.560832,34.0480967 C38.5659985,36.9441194 43.7890229,38.6443167 49.4698662,38.5215912 C54.4176009,38.4160772 58.9598817,36.9441194 62.6134553,34.5397471 C65.5945141,36.7742493 69.5345985,38.0928002 73.8292682,38.0015044 C75.7607848,37.9603465 77.6100137,37.6355729 79.3215978,37.0765731 C79.3215978,37.0765731 89.9845869,35.7954386 89.9845869,25.5538453 C89.9845869,15.3130004 79.3215978,10.7407269 79.3215978,10.7407269 C77.4282327,10.1450592 75.3732846,9.83899374 73.228568,9.88464164 L73.228568,9.88464164 Z"></path>
        <path id="path-5" d="M14.3120744,34.5006878 C15.3152362,34.4797346 16.2974521,34.544839 17.2475009,34.691511 C20.9362339,26.6597252 29.9961091,20.8684282 40.7069747,20.640937 C43.2803354,20.5855609 45.7729045,20.856455 48.1300729,21.4079714 C53.5999604,9.24617297 67.2544813,0.460074295 83.4157847,0.11434756 C98.4886462,-0.20818106 111.695821,6.89792515 118.260883,17.5249064 C120.659195,16.9075373 123.18842,16.5483407 125.809657,16.4937129 C141.505661,16.1577144 154.462981,26.744286 154.747247,40.1393262 C155.033758,53.5373596 142.54099,64.6694612 126.845734,65.0047113 C119.437597,65.1626082 112.639886,62.886948 107.498401,59.0308227 C101.193667,63.1795436 93.3568863,65.7201112 84.8191639,65.9004579 C75.0179513,66.1122342 66.0067006,63.1795436 59.0952823,58.1844657 C54.579184,61.9657584 48.4435142,64.3529191 41.640566,64.4980944 C33.9234764,64.6642229 26.9394953,61.9081372 22.1323977,57.4114447 C20.0048868,58.5361791 17.5145619,59.2044344 14.8409599,59.2635522 C6.8298787,59.4349189 0.216192217,54.0305066 0.0710666458,47.1923012 C-0.0755550656,40.3548441 6.30099324,34.6720545 14.3120744,34.5006878 L14.3120744,34.5006878 Z"></path>
        <path id="path-7" d="M43.297541,11.1755044 C42.1492536,8.67310141 39.3252895,6.86888679 35.9881494,6.79704747 C35.1854704,6.78058429 34.4089738,6.86439683 33.6751171,7.03651187 C31.9695176,3.24698766 27.7152438,0.50886186 22.6784888,0.401102878 C17.9821056,0.300078832 13.8662247,2.51512458 11.8202534,5.82721663 C11.0729315,5.63414845 10.2852138,5.52264784 9.46832143,5.50543633 C4.57744006,5.40067066 0.540106508,8.70004116 0.451086183,12.8734567 C0.362065859,17.0476206 4.25502191,20.5161129 9.14590328,20.6208786 C11.4544472,20.6702681 13.5722332,19.9608548 15.173851,18.7605395 C17.1390308,20.0528989 19.5814792,20.8438798 22.2416159,20.9015009 C25.2952375,20.9673536 28.1034921,20.0528989 30.2564374,18.495632 C31.6643051,19.6742458 33.57712,20.4180821 35.6964022,20.4644784 C38.1014471,20.5153646 40.2775826,19.6570343 41.7759667,18.2554192 C42.4387567,18.6048876 43.2145052,18.814419 44.0471071,18.8323788 C46.5434165,18.88551 48.6050973,17.2017759 48.6499815,15.071291 C48.6963619,12.9408061 46.7079919,11.1695178 44.2116825,11.1163867 C43.8997373,11.1096517 43.5937767,11.1306049 43.297541,11.1755044 L43.297541,11.1755044 Z"></path>
    </defs>
    <g id="Page-1" stroke="none" stroke-width="1" fill="none" fill-rule="evenodd" sketch:type="MSPage">
        <g id="首页" sketch:type="MSArtboardGroup" transform="translate(-801.000000, -648.000000)">
            <g id="Group-Copy-3" sketch:type="MSLayerGroup" transform="translate(800.947835, 647.380037)">
                <g id="Group-15" transform="translate(0.166836, 25.362667)">
                    <mask id="mask-2" sketch:name="Clip 14" fill="white">
                        <use xlink:href="#path-1"></use>
                    </mask>
                    <g id="Clip-14"></g>
                    <path d="M0.194498189,0.568727962 L178.564298,0.568727962 L178.564298,45.4683039 L0.194498189,45.4683039 L0.194498189,0.568727962 Z" id="Fill-13" fill="#E6E6E6" sketch:type="MSShapeGroup" mask="url(#mask-2)"></path>
                </g>
                <g id="Group-18" transform="translate(95.171720, 2.912879)">
                    <mask id="mask-4" sketch:name="Clip 17" fill="white">
                        <use xlink:href="#path-3"></use>
                    </mask>
                    <g id="Clip-17"></g>
                    <path d="M0.264816764,0.20429307 L89.9838389,0.20429307 L89.9838389,38.6435683 L0.264816764,38.6435683 L0.264816764,0.20429307 Z" id="Fill-16" fill="#E9E9E9" sketch:type="MSShapeGroup" mask="url(#mask-4)"></path>
                </g>
                <g id="Group-21" transform="translate(0.166836, 0.516885)">
                    <mask id="mask-6" sketch:name="Clip 20" fill="white">
                        <use xlink:href="#path-5"></use>
                    </mask>
                    <g id="Clip-20"></g>
                    <path d="M-0.0755550656,-0.20818106 L155.033758,-0.20818106 L155.033758,66.1122342 L-0.0755550656,66.1122342 L-0.0755550656,-0.20818106 Z" id="Fill-19" fill="#FFFFFF" sketch:type="MSShapeGroup" mask="url(#mask-6)"></path>
                </g>
                <g id="Group-24" transform="translate(126.590658, 47.812455)">
                    <mask id="mask-8" sketch:name="Clip 23" fill="white">
                        <use xlink:href="#path-7"></use>
                    </mask>
                    <g id="Clip-23"></g>
                    <path d="M0.362065859,0.300078832 L48.6963619,0.300078832 L48.6963619,20.9673536 L0.362065859,20.9673536 L0.362065859,0.300078832 Z" id="Fill-22" fill="#F6F6F6" sketch:type="MSShapeGroup" mask="url(#mask-8)"></path>
                </g>
            </g>
        </g>
    </g>
</svg>