<?xml version="1.0" encoding="UTF-8" standalone="no"?>
<svg width="706px" height="183px" viewBox="0 0 706 183" version="1.1" xmlns="http://www.w3.org/2000/svg" xmlns:xlink="http://www.w3.org/1999/xlink" xmlns:sketch="http://www.bohemiancoding.com/sketch/ns">
    <!-- Generator: Sketch 3.3.3 (12081) - http://www.bohemiancoding.com/sketch -->
    <title>Group</title>
    <desc>Created with Sketch.</desc>
    <defs>
        <path id="path-1" d="M0.482172719,20.2494231 C2.5987231,21.3105665 4.6676824,27.2990737 9.69355025,28.8651059 C14.7194181,30.432391 18.2950106,29.6293297 20.9025005,27.1199196 C24.8901315,30.4361495 30.0925873,32.3817879 35.7484106,32.2439771 C38.0841304,32.1863471 40.3259205,31.7741674 42.4286945,31.0663208 C39.4279521,33.9941747 37.2575486,37.7326068 36.2919508,41.9070223 C36.2067878,42.2841228 36.1391584,42.6048462 36.0802957,42.9293281 C36.0051519,43.3753341 35.9563085,43.671001 35.9174842,43.9741848 L35.8861743,44.2573234 C35.8548643,44.5166584 35.8248068,44.7747405 35.8035161,45.0340754 C35.7897397,45.1994484 35.7834777,45.3685799 35.7734586,45.5327001 C35.762187,45.7293937 35.7471582,45.9235817 35.7408962,46.122781 C35.7296247,46.4873533 35.7258675,46.8581898 35.7333819,47.2290262 C35.9575609,59.4215267 46.2121848,69.0582625 58.6322026,68.7525731 C62.7776356,68.6460829 66.6387746,67.4521399 69.9375874,65.4463658 C80.4138856,76.7192922 85.1980409,78.4569615 100.185472,78.0848723 C110.731904,77.8267902 120.245109,73.5671825 127.247259,66.8244742 C137.964017,75.7345711 151.935755,80.9638659 167.131084,80.5867654 C180.368916,80.2622835 192.519669,75.7345711 202.294625,68.3378877 C210.26613,75.2133956 220.8063,79.2675398 232.29203,78.9869068 C232.660235,78.9768842 233.027187,78.964356 233.392887,78.9455636 C234.027852,78.9079788 234.258293,78.8954506 234.486229,78.8804166 C235.170038,78.8240395 235.371673,78.8052471 235.573309,78.7864547 C236.273399,78.712538 236.462511,78.6937456 236.651623,78.6686891 C237.357975,78.5784856 237.540825,78.5534291 237.722422,78.5246141 C238.430026,78.4156183 238.606614,78.3880561 238.783202,78.3592411 C239.492059,78.2314529 239.663637,78.2001322 239.836468,78.166306 C240.542819,78.0234838 240.711893,77.985899 240.880966,77.9483143 C241.583561,77.7892054 241.748877,77.749115 241.914194,77.7077717 C242.614283,77.5336289 242.775843,77.48978 242.936149,77.4459311 C243.633734,77.252996 243.790284,77.2053886 243.948086,77.159034 C244.643166,76.9498121 244.794706,76.8996991 244.944994,76.8533445 C246.114732,76.4612101 246.301339,76.3948103 246.484189,76.3296634 C247.08534,76.1054075 247.275704,76.0365021 247.464816,75.9613326 C248.553148,75.5278549 249.289558,75.2096371 250.014695,74.8763855 C250.483092,74.6583938 250.677213,74.5644318 250.871335,74.4679643 C251.403603,74.2061237 251.587706,74.1121617 251.771808,74.0156942 C252.3166,73.7325555 252.494441,73.6360879 252.672281,73.5383675 C253.217074,73.240195 253.391157,73.1399689 253.563988,73.0397429 C254.106275,72.7252836 254.275349,72.6225519 254.445675,72.5160617 C254.56841,72.4446506 254.691145,72.3694811 254.812627,72.2943115 C254.981701,72.1890742 255.149522,72.082584 255.316091,71.9760938 C255.436321,71.8984186 255.556551,71.8207434 255.675528,71.7430682 C255.842097,71.6340723 256.008666,71.5238237 256.173982,71.4148278 C256.291708,71.3333942 256.406928,71.255719 256.523401,71.1780438 C256.688717,71.0627838 256.854034,70.9475238 257.016845,70.8322638 C257.130813,70.7545886 257.243529,70.673155 257.356245,70.5917213 C257.521561,70.4739557 257.684373,70.3549372 257.847184,70.2334131 L258.171555,69.9903649 C258.335619,69.8650823 258.499683,69.7410526 258.662494,69.61577 L258.968079,69.3752275 C259.133396,69.2449336 259.298712,69.1133869 259.462776,68.9793345 L259.740808,68.7488146 C259.911134,68.6084981 260.080207,68.4681816 260.248029,68.3253595 C260.662572,67.9657985 260.840412,67.8104481 261.017,67.6550977 C262.087799,66.6879162 262.968234,65.8247192 263.809845,64.9289488 C264.042791,64.6796365 264.219378,64.4867013 264.395966,64.2900076 C264.710318,63.9404692 264.870625,63.7563039 265.032184,63.5696328 C265.365321,63.180004 265.516861,62.9995971 265.668401,62.8141789 C266.006549,62.403252 266.150574,62.2228451 266.2946,62.0386797 L266.486216,61.7956315 C266.62899,61.6114661 266.768006,61.4273007 266.907022,61.2431353 L267.096134,60.9900645 C267.233897,60.807152 267.369156,60.6167225 267.504415,60.4287986 L267.683508,60.1769806 C267.818766,59.9865511 267.952773,59.7936159 268.084275,59.5994279 L268.250843,59.3538741 C268.383597,59.1534219 268.516351,58.9542226 268.645348,58.7550233 C268.92839,58.3152815 269.059892,58.1060596 269.187636,57.8968377 C269.450639,57.46336 269.582141,57.2453683 269.71239,57.0236181 C269.947841,56.6164497 270.0831,56.3784128 270.214601,56.1391231 C271.524608,53.7537428 273.083842,53.1010206 273.909172,50.6066445 C274.016878,50.2821626 274.110807,49.9864957 274.203485,49.6833119 C274.314948,49.3187396 274.400111,49.0255784 274.482769,48.7324171 C274.590475,48.3427883 274.668124,48.0533855 274.743268,47.7602243 C274.843459,47.3568144 274.914846,47.064906 274.982475,46.7679863 C275.056367,46.4409988 275.107715,46.2154901 275.156559,45.9887287 C276.035741,46.2004562 275.156559,40.6040835 276.186029,37.508351 C277.215499,34.4126185 279.120394,30.403576 281.085404,28.8651059 C282.706006,27.5959934 285.697981,28.9490453 289.174635,30.3020971 C291.724514,31.2943351 294.537397,32.2865731 297.260107,32.2439771 C303.693669,32.1424982 308.843524,29.8222648 311.690222,24.2835221 C314.535667,18.7460321 304.173337,0.602609199 304.173337,0.602609199 L3.75092803,14.0905315 L0.482172719,20.2494231 L0.482172719,20.2494231 Z"></path>
        <path id="path-3" d="M113.364442,17.2251016 C111.008684,17.2814788 108.734332,17.6523152 106.581462,18.2912564 C100.681421,7.30898559 88.8112053,-0.0363319476 75.2665352,0.296919709 C60.742491,0.653975056 48.4727608,9.73570912 43.5583563,22.3040573 C41.4393011,21.7340216 39.2000159,21.4533886 36.8880916,21.5097658 C27.2609184,21.745297 19.12034,27.7300458 15.8039936,36.0312694 C14.9523639,35.8796775 14.0681718,35.8120249 13.1676986,35.8333229 C5.96767015,36.0112242 0.237955368,41.8819658 0.369457018,48.949156 C0.500958669,56.0150934 6.44358088,61.6001907 13.6436094,61.4247951 C16.0444538,61.3634066 18.2824866,60.670594 20.1961487,59.5117301 C24.5156649,64.1572081 30.7914246,67.0061339 37.7246926,66.8357496 C43.8376407,66.6854105 49.3519433,64.2160909 53.4122133,60.3085273 C59.621596,65.4714223 67.7195929,68.5032607 76.5276987,68.285269 C84.1998807,68.0973452 91.2421072,65.4714223 96.9066973,61.1855054 C101.529293,65.1694913 107.637232,67.5197925 114.296225,67.358178 C117.290706,67.2842612 120.158694,66.7042029 122.812523,65.7082064 C122.812523,65.7082064 139.344159,63.424305 139.344159,45.1631165 C139.344159,26.9031808 122.812523,18.7510434 122.812523,18.7510434 C119.876905,17.6886472 116.689555,17.1424151 113.364442,17.2251016 L113.364442,17.2251016 Z"></path>
        <path id="path-5" d="M61.3123315,12.3841828 C57.5238316,5.32952086 49.900493,0.612631806 41.2013457,0.825612188 C31.8734953,1.05613213 23.9909107,6.88928895 20.834871,14.9599926 C19.4735159,14.5941675 18.0345121,14.4150134 16.550422,14.4500925 C14.1921591,14.5089753 11.9741646,15.1053204 10.0129114,16.115098 C10.0129114,16.115098 1.11338064,18.5217763 1.11338064,31.2103958 C1.11338064,43.8990153 10.0129114,41.9897088 10.0129114,41.9897088 C12.1294618,43.0508522 14.539073,43.6258992 17.0889526,43.563258 C21.0139638,43.4655375 24.556994,41.8807129 27.1644838,39.3713029 C31.1521148,42.6875327 36.3545706,44.6331712 42.010394,44.4941075 C46.9398273,44.3738362 51.4622317,42.6875327 55.100444,39.9338217 C58.0686241,42.4933447 61.9911305,44.0042526 66.2668127,43.8990153 C75.3266503,43.6735066 82.5366979,36.2868458 82.3713816,27.3942885 C82.2073176,18.5029839 74.7292571,11.4746313 65.6694195,11.6988871 C64.1565244,11.7352191 62.6962298,11.973256 61.3123315,12.3841828 L61.3123315,12.3841828 Z"></path>
        <path id="path-7" d="M22.4993062,61.8545143 C24.0535305,61.8181824 25.5764449,61.9334423 27.0492633,62.1952829 C32.7689589,47.8742315 46.81584,37.5484414 63.4226199,37.1425258 C67.4127557,37.0435526 71.2776518,37.5258905 74.9321453,38.5106116 C83.4133756,16.8254502 104.583889,1.15886384 129.640589,0.542473562 C153.010311,-0.0325734702 173.488249,12.6385065 183.666477,31.5874963 C187.386095,30.4862625 191.307349,29.8448157 195.371376,29.7483481 C219.707948,29.1482446 239.796391,48.0258234 240.238487,71.909694 C240.681835,95.798576 221.312268,115.645842 196.976949,116.244693 C185.491219,116.525326 174.952301,112.468676 166.980796,105.593168 C157.204588,112.989851 145.053835,117.520069 131.817255,117.842046 C116.620673,118.219146 102.648936,112.989851 91.9334302,104.083513 C84.930028,110.824968 75.4168228,115.08207 64.8703905,115.341405 C52.9049926,115.637072 42.076771,110.722237 34.6237584,102.705404 C31.3249456,104.711179 27.4638066,105.901363 23.3183737,106.007853 C10.8971034,106.313543 0.64373189,96.6780597 0.418300489,84.4855592 C0.191616691,72.2930587 10.078036,62.1614566 22.4993062,61.8545143 L22.4993062,61.8545143 Z"></path>
        <path id="path-9" d="M66.8278865,19.4025128 C65.0469784,14.9412002 60.669852,11.7239436 55.494949,11.5949026 C54.2500667,11.5660876 53.0465135,11.7164267 51.9093373,12.0221162 C49.2655279,5.26562675 42.6691546,0.383364688 34.859209,0.191682344 C27.5777747,0.011275432 21.1968137,3.96143511 18.0244929,9.866003 C16.866026,9.52147591 15.6449392,9.32352944 14.3775138,9.2922088 C6.79425195,9.10553776 0.534773379,14.9888076 0.397009745,22.4293399 C0.257993715,29.8723779 6.29329328,36.0575787 13.8778075,36.2442498 C17.4559048,36.3319476 20.7396889,35.0678464 23.2244439,32.9267671 C26.2702726,35.2319665 30.0575201,36.6426484 34.1816624,36.7441272 C38.9157218,36.8618929 43.270305,35.2319665 46.6091946,32.4544518 C48.792122,34.5566934 51.7565449,35.8821831 55.0440862,35.9648696 C58.7712187,36.0563259 62.1464277,34.5253728 64.4683711,32.0259854 C65.4965888,32.6498926 66.6988896,33.0232347 67.991363,33.0558082 C71.8612687,33.1497701 75.057385,30.1479995 75.1275192,26.3494318 C75.1989058,22.550864 72.1167576,19.3912374 68.2455995,19.2972755 C67.7621744,19.2847472 67.287516,19.322332 66.8278865,19.4025128 L66.8278865,19.4025128 Z"></path>
        <path id="path-11" d="M0.383116088,16.136259 C2.06484645,16.9818577 3.70876275,21.7539494 7.70212603,23.0018813 C11.6954893,24.2508116 14.536519,23.6108721 16.6083312,21.6111859 C19.776751,24.2538066 23.9104243,25.8042372 28.4043263,25.6944192 C30.2602003,25.6484953 32.0414413,25.3200396 33.7122255,24.7559744 C31.3279498,27.0891079 29.6034299,30.068171 28.8362026,33.3946584 C28.7685353,33.6951604 28.7147996,33.9507368 28.6680296,34.2093083 C28.6083231,34.5647194 28.569514,34.8003289 28.5386657,35.0419285 L28.513788,35.2675546 C28.4889103,35.4742121 28.4650278,35.6798713 28.448111,35.8865289 C28.4371648,36.0183105 28.4321893,36.1530871 28.4242284,36.2838704 C28.4152724,36.4406106 28.4033312,36.5953542 28.3983556,36.7540911 C28.3893997,37.0446097 28.3864143,37.34012 28.392385,37.6356302 C28.5705091,47.3515291 36.7184429,55.030803 46.5869163,54.7872067 C49.8807195,54.7023473 52.9486336,53.750924 55.5697447,52.1525728 C63.8938124,61.135686 67.6951201,62.5203912 79.6035622,62.2238826 C87.9833559,62.0182234 95.5421866,58.6238486 101.105828,53.2507529 C109.620956,60.3509864 120.722367,64.5180807 132.795997,64.2175786 C143.314275,63.9590071 152.9688,60.3509864 160.735608,54.4567543 C167.069463,59.9356746 175.444281,63.1663208 184.570405,62.9426914 C184.862966,62.9347046 185.154532,62.9247212 185.445103,62.909746 C185.949622,62.8797956 186.132722,62.8698122 186.313832,62.857832 C186.85716,62.8129065 187.017372,62.7979313 187.177584,62.7829561 C187.733849,62.7240537 187.88411,62.7090785 188.034371,62.6891116 C188.595611,62.6172307 188.740897,62.5972638 188.885187,62.5743019 C189.447423,62.4874458 189.587733,62.4654822 189.728043,62.4425203 C190.291273,62.340689 190.427603,62.3157304 190.564927,62.2887751 C191.126168,62.1749637 191.260507,62.1450133 191.394846,62.1150629 C191.953101,61.988273 192.084455,61.956326 192.21581,61.9233806 C192.772074,61.7846106 192.900443,61.7496685 193.027817,61.7147264 C193.582091,61.5609812 193.706479,61.523044 193.831863,61.4861052 C194.384147,61.3193815 194.504555,61.2794477 194.623968,61.2425089 C195.553397,60.9300268 195.701668,60.8771145 195.846954,60.8252005 C196.324605,60.6464966 196.475861,60.5915876 196.626122,60.5316869 C197.49087,60.1862593 198.075993,59.9326796 198.65216,59.6671197 C199.02433,59.4934075 199.178571,59.4185316 199.332813,59.341659 C199.755733,59.1330048 199.902014,59.0581289 200.048295,58.9812563 C200.481166,58.7556302 200.622471,58.6787576 200.763776,58.6008866 C201.196648,58.3632804 201.334968,58.2834127 201.472292,58.2035451 C201.903173,57.9529604 202.037513,57.871096 202.172847,57.7862367 C202.270368,57.729331 202.367888,57.6694302 202.464414,57.6095295 C202.598753,57.5256685 202.732097,57.4408091 202.864447,57.3559497 C202.959977,57.2940523 203.055507,57.2321549 203.150042,57.1702575 C203.282391,57.0834014 203.414741,56.995547 203.546095,56.9086909 C203.639635,56.8437985 203.731184,56.781901 203.823729,56.7200036 C203.955084,56.6281558 204.086438,56.536308 204.215801,56.4444603 C204.306356,56.3825628 204.395916,56.3176704 204.485475,56.2527779 C204.616829,56.1589334 204.746193,56.0640906 204.875557,55.9672511 L205.13329,55.773572 C205.263649,55.6737375 205.394008,55.5749013 205.523372,55.4750667 L205.766178,55.2833844 C205.897532,55.1795565 206.028886,55.0747302 206.159245,54.9679072 L206.380159,54.7842116 C206.515493,54.6723969 206.649833,54.5605822 206.783177,54.4467708 C207.112557,54.1602457 207.253862,54.0364508 207.394172,53.912656 C208.244989,53.1419332 208.944549,52.4540731 209.61326,51.7402561 C209.79835,51.5415853 209.93866,51.3878401 210.07897,51.2310998 C210.328742,50.9525614 210.456116,50.8058046 210.584484,50.6570511 C210.849183,50.3465657 210.969591,50.2028039 211.089999,50.0550488 C211.358678,49.7275914 211.473115,49.5838297 211.587552,49.4370729 L211.739803,49.2433939 C211.853246,49.0966371 211.963702,48.9498803 212.074159,48.8031235 L212.22442,48.6014577 C212.333882,48.4556992 212.441354,48.3039507 212.548825,48.1541989 L212.691125,47.9535314 C212.798597,47.8017829 212.905073,47.6480377 213.00956,47.4932941 L213.141909,47.2976184 C213.24739,47.1378831 213.352871,46.9791462 213.455367,46.8204092 C213.680261,46.4699899 213.784748,46.3032662 213.886249,46.1365425 C214.095221,45.791115 214.199707,45.6174029 214.303198,45.4406957 C214.490278,45.1162334 214.59775,44.9265477 214.702236,44.7358637 C215.743118,42.8350138 216.982026,42.3148758 217.637801,40.3271698 C217.72338,40.0685983 217.798013,39.8329888 217.871651,39.5913892 C217.960216,39.3008706 218.027883,39.0672577 218.09356,38.8336449 C218.179139,38.5231594 218.240836,38.2925416 218.300542,38.0589288 C218.380151,37.7374615 218.436872,37.504847 218.490607,37.2682391 C218.549319,37.0076709 218.590118,36.8279687 218.628927,36.6472682 C219.327492,36.8159886 218.628927,32.356379 219.446905,29.8894672 C220.264883,27.4225553 221.77844,24.2278496 223.339762,23.0018813 C224.627431,21.9905573 227.00474,23.0687704 229.767157,24.1469836 C231.793194,24.9376733 234.028204,25.728363 236.191566,25.6944192 C241.303429,25.6135532 245.395308,23.7646173 247.657185,19.3509316 C249.918068,14.9382443 241.684555,0.480204206 241.684555,0.480204206 L2.98034463,11.2283923 L0.383116088,16.136259 L0.383116088,16.136259 Z"></path>
        <path id="path-13" d="M90.0750703,13.7262529 C88.2032745,13.7711784 86.3961607,14.0666887 84.6855722,14.5758449 C79.9976245,5.82434789 70.566003,-0.0289520207 59.8039238,0.236607893 C48.2636711,0.521136373 38.5146106,7.75814321 34.6098118,17.7735457 C32.9260912,17.3192985 31.1468404,17.0956691 29.3098734,17.1405946 C21.660488,17.3282836 15.1922943,22.0973802 12.5572517,28.7124178 C11.8805792,28.591618 11.1780338,28.5377073 10.4625521,28.5546792 C4.74168353,28.6964443 0.189070277,33.3746915 0.293556483,39.0063587 C0.398042689,44.6370275 5.11982408,49.087652 10.8406926,48.9478836 C12.7483122,48.8989646 14.5265679,48.3468796 16.047091,47.4234099 C19.4792141,51.1252752 24.4656939,53.395513 29.9746047,53.259738 C34.8317206,53.1399365 39.2131755,51.1721974 42.4393115,48.0583577 C47.3730506,52.1725397 53.8074107,54.5885359 60.8059962,54.4148238 C66.90202,54.2650719 72.4975051,52.1725397 76.9983728,48.7571996 C80.6713117,51.9319384 85.5244472,53.8048346 90.8154297,53.6760481 C93.1947298,53.6171457 95.4735242,53.1549117 97.5821554,52.361227 C97.5821554,52.361227 110.717564,50.5412431 110.717564,35.9893584 C110.717564,21.4384722 97.5821554,14.9422377 97.5821554,14.9422377 C95.2496252,14.0956407 92.7170786,13.6603621 90.0750703,13.7262529 L90.0750703,13.7262529 Z"></path>
        <path id="path-15" d="M48.7164447,9.86864568 C45.7062468,4.24696194 39.6490322,0.48819097 32.7370209,0.657909712 C25.3254661,0.841605292 19.0622644,5.48990214 16.5545954,11.9212441 C15.4729144,11.6297272 14.3295368,11.4869638 13.1503353,11.5149175 C11.2765494,11.5618397 9.51421537,12.0370522 7.95587824,12.8417187 C7.95587824,12.8417187 0.884649876,14.7595405 0.884649876,24.8707841 C0.884649876,34.9820278 7.95587824,33.4605492 7.95587824,33.4605492 C9.6376086,34.3061479 11.5521939,34.7643885 13.5782312,34.7144712 C16.6968957,34.6366002 19.5120526,33.3736931 21.5838648,31.374007 C24.7522846,34.0166277 28.8859579,35.5670583 33.3798599,35.4562419 C37.2965999,35.3604008 40.8899303,34.0166277 43.7807153,31.8222642 C46.1391183,33.8618841 49.2557925,35.0658888 52.6530869,34.9820278 C59.8516889,34.8023256 65.5805183,28.9160803 65.4491642,21.8298236 C65.3188052,14.7445653 59.377023,9.14384682 52.178421,9.32255067 C50.976332,9.35150269 49.8160376,9.54118834 48.7164447,9.86864568 L48.7164447,9.86864568 Z"></path>
        <path id="path-17" d="M17.8770923,49.2903161 C19.1120197,49.2613641 20.3220695,49.3532119 21.492315,49.5618661 C26.0369674,38.1497782 37.1980844,29.9214142 50.3931995,29.5979503 C53.5636095,29.519081 56.6345089,29.903444 59.5382303,30.6881436 C66.277093,13.4077806 83.098377,0.923469626 103.007477,0.43228362 C121.576169,-0.0259569841 137.847159,10.0713098 145.934391,25.1712862 C148.889858,24.2937404 152.005537,23.7825875 155.234658,23.7057149 C174.571572,23.2275074 190.533084,38.270578 190.884357,57.3030374 C191.236624,76.3394902 175.846304,92.1552803 156.510385,92.6324895 C147.384261,92.8561189 139.010438,89.623476 132.676584,84.1445557 C124.908781,90.0387877 115.254256,93.6488052 104.736973,93.90538 C92.6623477,94.205882 81.5609371,90.0387877 73.046804,82.9415493 C67.4821672,88.3136466 59.9233366,91.7060248 51.5435429,91.9126823 C42.0362933,92.1482919 33.4326005,88.2317823 27.5107204,81.8433692 C24.8896093,83.4417204 21.8216953,84.3901487 18.5278921,84.475008 C8.65842359,84.7186043 0.511484855,77.0403288 0.332365645,67.32443 C0.152251328,57.6085312 8.00762379,49.5349108 17.8770923,49.2903161 L17.8770923,49.2903161 Z"></path>
        <path id="path-19" d="M53.0988947,15.4613774 C51.6838529,11.9062689 48.2059549,9.34251758 44.094174,9.23968799 C43.1050379,9.21672604 42.1487403,9.33652751 41.2451834,9.58012382 C39.1445131,4.19604631 33.903286,0.305493736 27.6978005,0.152746868 C21.91225,0.00898510988 16.8421813,3.1567686 14.3215759,7.86197114 C13.4011022,7.58742612 12.4308732,7.42968752 11.4238252,7.40472889 C5.39845397,7.2559754 0.42491057,11.9442061 0.315448831,17.8733802 C0.204991985,23.8045511 5.00041128,28.733383 11.0267776,28.8821365 C13.8697975,28.9520207 16.4789673,27.9446901 18.4532591,26.2385175 C20.8733586,28.0754733 23.8825613,29.1996104 27.1594478,29.2804764 C30.9209512,29.3743209 34.3809372,28.0754733 37.0338918,25.8621413 C38.7683628,27.5373651 41.1237804,28.5936147 43.7359355,28.6595055 C46.6973731,28.7323847 49.3791858,27.5124064 51.2241136,25.5207071 C52.0410962,26.0178832 52.9963987,26.3153901 54.0233488,26.3413471 C57.0982286,26.416223 59.6377409,24.0241871 59.6934669,20.9972034 C59.750188,17.9702198 57.3012304,15.4523923 54.2253555,15.3775164 C53.8412443,15.3675329 53.4640988,15.3974833 53.0988947,15.4613774 L53.0988947,15.4613774 Z"></path>
        <path id="path-21" d="M4.9878587,19.4821275 C2.86590664,21.2910821 1.33124398,23.6021576 0.648807142,26.1811959 C0.588109635,26.4137051 0.540535912,26.6124097 0.498703846,26.8127634 C0.445388468,27.0881467 0.410938531,27.2711858 0.383050487,27.4583475 L0.360904099,27.6339661 C0.339577948,27.7939193 0.31743156,27.9538724 0.302667301,28.1138256 C0.292824462,28.2152391 0.288723279,28.3199507 0.282161387,28.4221888 C0.273959021,28.5433904 0.263295945,28.662943 0.258374526,28.7857936 C0.25017216,29.0117068 0.248531687,29.240918 0.25263287,29.4701292 C0.411758768,37.0044168 7.66347045,42.9581365 16.4473841,42.7693259 C19.3789097,42.7041903 22.1094773,41.9662622 24.4422301,40.7270376 C31.850607,47.6924197 35.2340829,48.7659196 45.8331801,48.5367084 C53.2915914,48.3767553 60.019172,45.744949 64.9717605,41.5787468 C72.5491061,47.0839381 82.4304963,50.3151564 93.1764158,50.0818227 C102.537776,49.8814691 111.130575,47.0839381 118.043529,42.5129061 C123.681835,46.7623828 131.134504,49.267216 139.257307,49.0940709 C139.517322,49.0882994 139.777337,49.0800544 140.035712,49.0685114 C140.485202,49.0454253 140.648429,49.0380048 140.809195,49.0281108 C141.292314,48.9934818 141.435036,48.9819388 141.577757,48.9703958 C142.072359,48.9242237 142.206878,48.9126807 142.340577,48.8970152 C142.840101,48.8409492 142.968878,48.8261081 143.097655,48.8087936 C143.597999,48.7411846 143.723496,48.7238701 143.848172,48.7065555 C144.349336,48.6274035 144.470731,48.60844 144.592126,48.5870029 C145.092471,48.4979569 145.212225,48.4748708 145.331159,48.4517848 C145.828223,48.3536692 145.945517,48.3289342 146.06199,48.3033747 C146.557413,48.1961896 146.671426,48.1689811 146.785439,48.1417725 C147.278401,48.0222199 147.389133,47.9933624 147.499865,47.9645049 C147.992007,47.8350583 148.098638,47.8045518 148.206089,47.7756942 C149.032887,47.533291 149.164125,47.4928905 149.294543,47.4516654 C149.719425,47.3131493 149.853944,47.2710998 149.987642,47.2249277 C150.757024,46.956965 151.277875,46.7599093 151.790523,46.5537842 C152.121898,46.4193905 152.258878,46.3616755 152.396677,46.3014869 C152.773166,46.1398848 152.903584,46.0821697 153.034001,46.0219812 C153.418692,45.847187 153.544188,45.7869985 153.669685,45.7276344 C154.055196,45.5421218 154.178231,45.4811087 154.300446,45.4192712 C154.684317,45.224689 154.804072,45.1612024 154.924647,45.0952424 C155.011592,45.0507193 155.097716,45.0045473 155.183841,44.9583753 C155.303596,44.8932397 155.42171,44.8272797 155.539824,44.7621441 C155.625129,44.7134986 155.710433,44.6656775 155.794097,44.6178565 C155.912211,44.5502474 156.029505,44.4826384 156.146799,44.4150293 C156.229643,44.3647347 156.311667,44.3169137 156.39369,44.2690927 C156.510984,44.1973611 156.627458,44.126454 156.743111,44.0547225 C156.823494,44.0069014 156.903057,43.9566069 156.98262,43.9063123 C157.099094,43.8329318 157.214747,43.7603757 157.3304,43.6845217 C157.406682,43.6350516 157.482964,43.5847571 157.559246,43.5344625 C157.6749,43.457784 157.791373,43.3802809 157.906207,43.3036023 L158.122749,43.1551922 C158.240043,43.0743911 158.356516,42.9927656 158.47217,42.9103155 L158.669027,42.7676769 C158.789601,42.6811043 158.909356,42.5945317 159.02747,42.5054856 C159.321115,42.2836949 159.446611,42.1880528 159.571287,42.0915863 C160.329185,41.4938232 160.951745,40.9603713 161.546417,40.4071313 C161.711284,40.2529497 161.83678,40.1333971 161.961456,40.0121954 C162.18292,39.7961763 162.296933,39.6823952 162.410126,39.5669651 C162.646354,39.3262108 162.753805,39.2140788 162.860436,39.1011222 C163.099945,38.8463514 163.201654,38.7342193 163.304184,38.6212627 L163.439523,38.4703791 C163.539591,38.356598 163.63884,38.2436414 163.737268,38.1298603 L163.870147,37.9740297 C163.967755,37.8602486 164.063723,37.742345 164.15969,37.6269149 L164.286007,37.4702597 C164.381974,37.3531806 164.476302,37.233628 164.568988,37.1140754 L164.687102,36.9623673 C164.78143,36.8386922 164.874937,36.7150171 164.966803,36.5921665 C165.166941,36.3200812 165.258807,36.1914591 165.350674,36.0620125 C165.536047,35.7940498 165.628734,35.6596561 165.720601,35.522789 C165.887109,35.2696673 165.983076,35.1237307 166.075763,34.9753205 C167.00263,33.5011133 168.105028,33.0987569 168.689037,31.5569406 C168.764498,31.3565869 168.830938,31.1735477 168.896557,30.9863861 C168.975299,30.7612974 169.035997,30.5799072 169.094234,30.3985171 C169.170516,30.1577628 169.225471,29.9788462 169.277967,29.797456 C169.350147,29.5492813 169.400182,29.3678912 169.447756,29.184852 C169.500251,28.9820248 169.536341,28.8435087 169.570791,28.7033436 C170.193351,28.8344392 169.570791,25.3756587 170.299161,23.462817 C171.026711,21.5499753 172.37436,19.0731752 173.76302,18.1225258 C174.909711,17.3384256 177.025921,18.1736449 179.48417,19.0096886 C181.287871,19.6231171 183.276124,20.2365457 185.20204,20.2093372 C189.752712,20.1474996 193.394563,18.7128683 195.406603,15.2911904 C197.419464,11.8695124 190.09147,0.657127074 190.09147,0.657127074 C190.09147,0.657127074 3.50076976,19.9191129 4.9878587,19.4821275 L4.9878587,19.4821275 Z"></path>
        <path id="path-23" d="M80.2929597,10.89083 C78.6270592,10.9262835 77.0185753,11.1554947 75.4962162,11.5496061 C71.3236726,4.76396516 62.9285511,0.225088697 53.3498282,0.430389376 C43.0796459,0.651355569 34.402363,6.26373197 30.9270206,14.0297043 C29.4276281,13.6768179 27.8445715,13.5036728 26.2090197,13.5391263 C19.401056,13.6842385 13.6446357,17.3821242 11.298759,22.5121677 C10.6967054,22.4189991 10.0716851,22.3769495 9.43518149,22.3901416 C4.3423325,22.4998002 0.290363753,26.1276033 0.383870724,30.4949836 C0.476557458,34.8607149 4.67944974,38.312075 9.77065825,38.2040654 C11.4693682,38.1661383 13.0516046,37.737398 14.404995,37.0209068 C17.459556,39.8918183 21.8978562,41.6529519 26.8012306,41.5474158 C31.1246976,41.4542472 35.0232821,39.9289209 37.8949304,37.5139583 C42.2864771,40.7047761 48.013369,42.5780417 54.2422457,42.4428236 C59.6672905,42.326569 64.647767,40.7047761 68.6538025,38.0556552 C71.9224453,40.5176144 76.2426315,41.9703847 80.9516097,41.8697956 C83.0694606,41.824448 85.0970854,41.4666147 86.9737868,40.8507127 C86.9737868,40.8507127 98.6654391,39.4391674 98.6654391,28.1550506 C98.6654391,16.8717582 86.9737868,11.8340588 86.9737868,11.8340588 C84.8977679,11.1777563 82.644578,10.8405355 80.2929597,10.89083 L80.2929597,10.89083 Z"></path>
        <path id="path-25" d="M15.6927664,38.6707328 C16.7927037,38.6476468 17.8696743,38.7193783 18.9113748,38.8809805 C22.9559614,30.0316142 32.8898468,23.6508032 44.6339942,23.4001549 C47.4556081,23.3391419 50.1886364,23.6376111 52.7732019,24.2452682 C58.7707719,10.8454825 73.7425503,1.16501952 91.4629416,0.784100185 C107.989889,0.428740374 122.471166,8.25819921 129.669562,19.9669339 C132.29924,19.2867208 135.07246,18.8909605 137.946569,18.8307719 C155.156773,18.4605711 169.364091,30.1247828 169.675781,44.8833457 C169.989932,59.6452066 156.291981,71.9104793 139.082597,72.2798556 C130.959794,72.4538253 123.506304,69.9465186 117.868818,65.6978664 C110.955864,70.2688984 102.363066,73.0680783 93.0017054,73.266783 C82.2549657,73.5001167 72.3743957,70.2688984 64.7962298,64.7653561 C59.8444616,68.9315582 53.1168811,71.5617155 45.6576495,71.7216686 C37.1960889,71.9047078 29.5383601,68.8680717 24.2675197,63.9136468 C21.9347669,65.1528714 19.2041993,65.8891505 16.2726737,65.9542861 C7.48876006,66.1430968 0.237048374,60.1885526 0.077922476,52.654265 C-0.0828438955,45.1208019 6.90885279,38.8595434 15.6927664,38.6707328 L15.6927664,38.6707328 Z"></path>
        <path id="path-27" d="M47.4744736,12.3130938 C46.2154104,9.55596335 43.1190173,7.56809211 39.4599418,7.48894004 C38.579828,7.47080103 37.7284224,7.56314511 36.9237703,7.75278027 C35.0536309,3.57750862 30.3889454,0.56066049 24.8662924,0.441932386 C19.7168471,0.330624789 15.2039054,2.77114692 12.9605583,6.42038711 C12.141142,6.20766592 11.2774329,6.08481531 10.3817345,6.0658518 C5.01902769,5.9504217 0.592210818,9.58564537 0.494602663,14.1838859 C0.396994509,18.7829509 4.66550572,22.6045117 10.0282125,22.7199418 C12.5594627,22.7743589 14.8815524,21.9927322 16.637679,20.6702331 C18.7924405,22.0941458 21.470513,22.9656431 24.3872743,23.0291296 C27.73548,23.1016857 30.8146482,22.0941458 33.1752891,20.3783598 C34.7189744,21.6769484 36.8163193,22.4965021 39.1400496,22.5476212 C41.7771102,22.6036872 44.1631784,21.6579849 45.8061123,20.1136951 C46.5328419,20.4987369 47.3834273,20.7295971 48.2963506,20.7493851 C51.0334801,20.8079247 53.2940522,18.9527981 53.3432664,16.6054445 C53.394121,14.258091 51.2139322,12.3064977 48.4768027,12.2479582 C48.134764,12.2405377 47.7992872,12.2636237 47.4744736,12.3130938 L47.4744736,12.3130938 Z"></path>
        <path id="path-29" d="M7.61582417,29.6030203 C4.37587397,32.3517201 2.0326398,35.8633907 0.990645768,39.7822298 C0.897968414,40.1355266 0.825329407,40.4374576 0.761457177,40.7418943 C0.680051393,41.1603381 0.627450733,41.4384654 0.584869246,41.7228569 L0.551054536,41.9897088 C0.518492223,42.232757 0.484677512,42.4758052 0.462134372,42.7188534 C0.447105612,42.872951 0.440843629,43.0320598 0.430824455,43.1874102 C0.418300489,43.3715756 0.402019332,43.5532354 0.394504952,43.7399064 C0.381980985,44.0831807 0.379476192,44.4314662 0.385738175,44.7797518 C0.62870313,56.2280738 11.7011421,65.2747287 25.1130581,64.9878316 C29.5891238,64.8888584 33.7583523,63.7675793 37.3201685,61.8845821 C48.6318152,72.4684543 53.7979515,74.0996335 69.9814213,73.7513479 C81.3694642,73.5082997 91.6416217,69.5092798 99.2035928,63.1787512 C110.773233,71.5438689 125.860856,76.4536931 142.268505,76.0991434 C156.562108,75.7947068 169.682216,71.5438689 180.237415,64.5982028 C188.846389,71.0552668 200.225666,74.8613516 212.62815,74.5982581 C213.02516,74.5894884 213.422169,74.5769601 213.816674,74.5594205 C214.502988,74.5243414 214.752215,74.513066 214.997684,74.4980321 C215.735346,74.4454134 215.953263,74.4278738 216.17118,74.4103343 C216.926375,74.340176 217.131768,74.3226365 217.335909,74.2988328 C218.098619,74.2136406 218.295245,74.1910898 218.491871,74.1647804 C219.255833,74.0620487 219.44745,74.0357394 219.637814,74.00943 C220.403028,73.8891587 220.588383,73.8603438 220.773738,73.8277703 C221.5377,73.6924651 221.72055,73.657386 221.902147,73.6223069 C222.6611,73.4732206 222.840192,73.4356358 223.018033,73.3967982 C223.77448,73.2339309 223.948563,73.1925876 224.122647,73.1512444 C224.875337,72.9695846 225.044411,72.9257357 225.213484,72.8818868 C225.964922,72.6851932 226.127734,72.6388386 226.291798,72.5949897 C227.554213,72.2266589 227.754597,72.1652705 227.953728,72.1026292 C228.602469,71.8921545 228.807863,71.8282603 229.012003,71.7581021 C230.186751,71.3509337 230.982023,71.0515084 231.764771,70.7383019 C232.270739,70.5340913 232.47989,70.4463935 232.690292,70.3549372 C233.265142,70.1093834 233.464273,70.0216856 233.663404,69.9302293 C234.250778,69.6646302 234.442395,69.5731739 234.634012,69.4829705 C235.222638,69.2010847 235.410498,69.1083756 235.597105,69.0144136 C236.183227,68.7187468 236.366076,68.6222792 236.550179,68.5220531 C236.682933,68.4544005 236.814434,68.3842423 236.945936,68.314084 C237.128786,68.2151108 237.309131,68.1148847 237.489476,68.0159115 C237.619726,67.9419948 237.749975,67.8693309 237.877719,67.796667 C238.058064,67.6939353 238.237157,67.5912036 238.41625,67.4884718 C238.542742,67.4120495 238.667982,67.3393856 238.793221,67.2667217 C238.972314,67.1577258 239.150154,67.0499828 239.326742,66.940987 C239.449477,66.8683231 239.57096,66.7919007 239.692442,66.7154783 C239.870282,66.6039768 240.04687,66.4937282 240.223458,66.3784682 C240.339931,66.3032987 240.456404,66.2268763 240.572877,66.1504539 C240.749465,66.0339411 240.927305,65.9161755 241.102641,65.7996627 L241.433273,65.5741541 C241.612366,65.4513771 241.790206,65.3273474 241.966794,65.2020648 L242.26737,64.9853259 C242.451472,64.8537792 242.634322,64.7222325 242.814667,64.5869273 C243.263025,64.2499172 243.454642,64.1045894 243.645006,63.9580088 C244.80222,63.0497101 245.75279,62.2391318 246.660777,61.3984857 C246.912509,61.1642073 247.104126,60.9825476 247.29449,60.7983822 C247.632637,60.4701418 247.80672,60.2972519 247.979551,60.1218563 C248.340241,59.7560311 248.504305,59.5856468 248.667117,59.4140097 C249.032816,59.0268865 249.188114,58.8565022 249.344663,58.6848651 L249.551309,58.455598 C249.704101,58.282708 249.855641,58.1110709 250.005929,57.9381809 L250.208817,57.7013969 C250.357852,57.5285069 250.504382,57.3493528 250.650913,57.1739572 L250.843782,56.9359203 C250.990312,56.7580191 251.134338,56.5763593 251.275859,56.3946996 L251.456204,56.1641796 C251.60023,55.9762558 251.743003,55.7883319 251.883271,55.6016609 C252.188856,55.1882284 252.329124,54.9927875 252.469393,54.7960939 C252.752435,54.3889255 252.893955,54.1847149 253.034224,53.9767458 C253.28846,53.5921283 253.434991,53.3703782 253.576512,53.1448695 C254.99172,50.904817 256.674941,50.293438 257.566647,47.9506538 C257.681868,47.6462172 257.783312,47.3680898 257.883504,47.0836984 C258.003734,46.741677 258.096411,46.4660553 258.185331,46.1904336 C258.301804,45.8246085 258.385715,45.5527453 258.465868,45.2771236 C258.576079,44.9000231 258.652475,44.6244014 258.725114,44.3462741 C258.805268,44.0380789 258.860373,43.8276042 258.912974,43.6146238 C259.863543,43.8138231 258.912974,38.558219 260.025102,35.6516632 C261.135978,32.7451074 263.193666,28.9816187 265.313973,27.5371106 C267.064824,26.3456733 270.296007,27.6147858 274.04944,28.8851511 C276.80346,29.8172535 279.83927,30.7493559 282.779897,30.7080126 C289.728194,30.6140507 295.288835,28.4341339 298.360964,23.2349069 C301.434346,18.0356799 290.245434,0.998502145 290.245434,0.998502145 C290.245434,0.998502145 5.345229,30.267018 7.61582417,29.6030203 L7.61582417,29.6030203 Z"></path>
        <path id="path-31" d="M122.59711,16.5485757 C120.053493,16.6024472 117.597543,16.9507328 115.273095,17.5495835 C108.902153,7.23882735 96.0838727,0.342021437 81.4583844,0.653975056 C65.7771257,0.989732365 52.5280212,9.51771744 47.2216165,21.3180834 C44.9322354,20.781874 42.5151099,20.5187806 40.0178309,20.5726521 C29.6229385,20.7931494 20.8336187,26.4120731 17.2517642,34.207155 C16.332505,34.0655857 15.3781787,34.0016916 14.4063189,34.0217368 C6.63018799,34.1883627 0.443348422,39.7007961 0.586121643,46.3370142 C0.727642467,52.9707267 7.14492302,58.2150554 14.9185492,58.0509353 C17.5122627,57.9933053 19.9281359,57.3418359 21.9945904,56.2531303 C26.6585156,60.6154696 33.435234,63.2915055 40.9220613,63.1311438 C47.5234441,62.9895745 53.4760855,60.6718468 57.8607263,57.0023201 C64.5660581,61.8507558 73.3102916,64.697176 82.820992,64.4917126 C91.1043436,64.3150641 98.7088962,61.8507558 104.825602,57.8254266 C109.816402,61.5663644 116.412776,63.7738434 123.602785,63.6209987 C126.836473,63.5520933 129.932398,63.0083669 132.797881,62.072506 C132.797881,62.072506 150.649543,59.9276683 150.649543,42.7814947 C150.649543,25.6365739 132.797881,17.9818084 132.797881,17.9818084 C129.628065,16.9845591 126.187732,16.4721533 122.59711,16.5485757 L122.59711,16.5485757 Z"></path>
        <path id="path-33" d="M23.9608531,57.7600346 C25.6403171,57.7249555 27.2847139,57.8339514 28.8752577,58.0795052 C35.0508257,44.6329261 50.2186018,34.9373074 68.1504173,34.5564484 C72.4586619,34.4637393 76.6316476,34.9172622 80.5779495,35.8405948 C89.735474,15.4796703 112.59547,0.770242825 139.652248,0.191437315 C164.886789,-0.348530595 186.997852,11.548303 197.988885,29.3396819 C202.004069,28.3061006 206.238422,27.7047442 210.62682,27.6132879 C236.904607,27.0507692 258.59737,44.7744955 259.073281,67.2000769 C259.552948,89.6306696 238.637924,108.267706 212.361389,108.828972 C199.958905,109.093318 188.578377,105.283475 179.970654,98.8276637 C169.415455,105.77333 156.295348,110.026673 142.001744,110.328604 C125.592843,110.683154 110.506473,105.77333 98.93558,97.4107177 C91.3748612,103.741246 81.1027037,107.737761 69.7134084,107.980809 C56.7936843,108.258936 45.101309,103.644779 37.053408,96.1165487 C33.4915918,97.9995458 29.3223633,99.1183192 24.8462976,99.2172925 C11.4343816,99.5041896 0.361942638,90.4562818 0.118977684,79.0079598 C-0.126492064,67.5608907 10.5489372,58.0469318 23.9608531,57.7600346 L23.9608531,57.7600346 Z"></path>
        <path id="path-35" d="M72.487467,18.7097002 C70.5650381,14.5202508 65.8372407,11.4996878 60.2502991,11.3794165 C58.9064775,11.3518544 57.6064898,11.4921709 56.3778886,11.7803208 C53.5224242,5.43601105 46.4000443,0.851921529 37.9676575,0.671514617 C30.1051112,0.502383137 23.2144247,4.21074744 19.7891198,9.75575433 C18.5379756,9.43252528 17.2192019,9.24585424 15.8515847,9.21703925 C7.66341524,9.04164364 0.904230398,14.5653525 0.755195194,21.5523619 C0.60615999,28.5406241 7.12363227,34.3474715 15.3118017,34.5228671 C19.1766979,34.6055536 22.7222328,33.4178748 25.4036141,31.4083423 C28.6936602,33.5719724 32.7827353,34.8962092 37.2362579,34.9926768 C42.3485411,35.1029255 47.0500382,33.5719724 50.6544358,30.9648419 C53.0114464,32.9380425 56.2138247,34.1833514 59.7618644,34.2610266 C63.7883197,34.3462187 67.4315417,32.9092275 69.9400922,30.5626849 C71.0497156,31.1477545 72.348451,31.4985457 73.7423685,31.5286135 C77.9216162,31.6175642 81.3732214,28.7987062 81.4483652,25.2319112 C81.5260138,21.6651162 78.1971435,18.6996776 74.0178958,18.6107269 C73.4956463,18.5994515 72.9834161,18.6345306 72.487467,18.7097002 L72.487467,18.7097002 Z"></path>
    </defs>
    <g id="Page-1" stroke="none" stroke-width="1" fill="none" fill-rule="evenodd" sketch:type="MSPage">
        <g id="首页" sketch:type="MSArtboardGroup" transform="translate(-162.000000, -534.000000)">
            <g id="Group" sketch:type="MSLayerGroup" transform="translate(162.000000, 533.000000)">
                <g>
                    <g transform="translate(231.000000, 0.000000)">
                        <g id="Group-39" transform="translate(7.229707, 45.980027)">
                            <mask id="mask-2" sketch:name="Clip 38" fill="white">
                                <use xlink:href="#path-1"></use>
                            </mask>
                            <g id="Clip-38"></g>
                            <path d="M0.482172719,0.602609199 L314.535667,0.602609199 L314.535667,80.9638659 L0.482172719,80.9638659 L0.482172719,0.602609199 Z" id="Fill-37" fill="#E0E0E0" sketch:type="MSShapeGroup" mask="url(#mask-2)"></path>
                        </g>
                        <g id="Group-42" transform="translate(190.079622, 5.889602)">
                            <mask id="mask-4" sketch:name="Clip 41" fill="white">
                                <use xlink:href="#path-3"></use>
                            </mask>
                            <g id="Clip-41"></g>
                            <path d="M0.237955368,-0.0363319476 L139.344159,-0.0363319476 L139.344159,68.5020079 L0.237955368,68.5020079 L0.237955368,-0.0363319476 Z" id="Fill-40" fill="#ECECEC" sketch:type="MSShapeGroup" mask="url(#mask-4)"></path>
                        </g>
                        <g id="Group-45" transform="translate(0.967724, 27.187640)">
                            <mask id="mask-6" sketch:name="Clip 44" fill="white">
                                <use xlink:href="#path-5"></use>
                            </mask>
                            <g id="Clip-44"></g>
                            <path d="M1.11338064,0.612631806 L82.5366979,0.612631806 L82.5366979,44.6331712 L1.11338064,44.6331712 L1.11338064,0.612631806 Z" id="Fill-43" fill="#EFEEEE" sketch:type="MSShapeGroup" mask="url(#mask-6)"></path>
                        </g>
                        <g id="Group-48" transform="translate(42.296814, 0.878299)">
                            <mask id="mask-8" sketch:name="Clip 47" fill="white">
                                <use xlink:href="#path-7"></use>
                            </mask>
                            <g id="Clip-47"></g>
                            <path d="M0.191616691,-0.0325734702 L240.683088,-0.0325734702 L240.683088,118.219146 L0.191616691,118.219146 L0.191616691,-0.0325734702 Z" id="Fill-46" fill="#F4F4F4" sketch:type="MSShapeGroup" mask="url(#mask-8)"></path>
                        </g>
                        <g id="Group-51" transform="translate(238.923092, 86.070452)">
                            <mask id="mask-10" sketch:name="Clip 50" fill="white">
                                <use xlink:href="#path-9"></use>
                            </mask>
                            <g id="Clip-50"></g>
                            <path d="M0.257993715,0.011275432 L75.1989058,0.011275432 L75.1989058,36.8618929 L0.257993715,36.8618929 L0.257993715,0.011275432 Z" id="Fill-49" fill="#F6F6F6" sketch:type="MSShapeGroup" mask="url(#mask-10)"></path>
                        </g>
                    </g>
                    <g id="Group-Copy-4" transform="translate(265.000000, 83.000000)">
                        <g id="Group-39" transform="translate(5.744450, 36.640334)">
                            <mask id="mask-12" sketch:name="Clip 38" fill="white">
                                <use xlink:href="#path-11"></use>
                            </mask>
                            <g id="Clip-38"></g>
                            <path d="M0.383116088,0.480204206 L249.918068,0.480204206 L249.918068,64.5180807 L0.383116088,64.5180807 L0.383116088,0.480204206 Z" id="Fill-37" fill="#E0E0E0" sketch:type="MSShapeGroup" mask="url(#mask-12)"></path>
                        </g>
                        <g id="Group-42" transform="translate(151.030032, 4.693277)">
                            <mask id="mask-14" sketch:name="Clip 41" fill="white">
                                <use xlink:href="#path-13"></use>
                            </mask>
                            <g id="Clip-41"></g>
                            <path d="M0.189070277,-0.0289520207 L110.717564,-0.0289520207 L110.717564,54.5875375 L0.189070277,54.5875375 L0.189070277,-0.0289520207 Z" id="Fill-40" fill="#ECECEC" sketch:type="MSShapeGroup" mask="url(#mask-14)"></path>
                        </g>
                        <g id="Group-45" transform="translate(0.768917, 21.665151)">
                            <mask id="mask-16" sketch:name="Clip 44" fill="white">
                                <use xlink:href="#path-15"></use>
                            </mask>
                            <g id="Clip-44"></g>
                            <path d="M0.884649876,0.48819097 L65.5805183,0.48819097 L65.5805183,35.5670583 L0.884649876,35.5670583 L0.884649876,0.48819097 Z" id="Fill-43" fill="#EFEEEE" sketch:type="MSShapeGroup" mask="url(#mask-16)"></path>
                        </g>
                        <g id="Group-48" transform="translate(33.607439, 0.699895)">
                            <mask id="mask-18" sketch:name="Clip 47" fill="white">
                                <use xlink:href="#path-17"></use>
                            </mask>
                            <g id="Clip-47"></g>
                            <path d="M0.152251328,-0.0259569841 L191.23762,-0.0259569841 L191.23762,94.205882 L0.152251328,94.205882 L0.152251328,-0.0259569841 Z" id="Fill-46" fill="#FFFFFF" sketch:type="MSShapeGroup" mask="url(#mask-18)"></path>
                        </g>
                        <g id="Group-51" transform="translate(189.839194, 68.587391)">
                            <mask id="mask-20" sketch:name="Clip 50" fill="white">
                                <use xlink:href="#path-19"></use>
                            </mask>
                            <g id="Clip-50"></g>
                            <path d="M0.204991985,0.00898510988 L59.750188,0.00898510988 L59.750188,29.3743209 L0.204991985,29.3743209 L0.204991985,0.00898510988 Z" id="Fill-49" fill="#F6F6F6" sketch:type="MSShapeGroup" mask="url(#mask-20)"></path>
                        </g>
                    </g>
                    <g id="Group-Copy-2" transform="translate(502.135635, 68.920025)">
                        <g transform="translate(0.762936, 0.750000)">
                            <g id="Group-15" transform="translate(0.182930, 28.602525)">
                                <mask id="mask-22" sketch:name="Clip 14" fill="white">
                                    <use xlink:href="#path-21"></use>
                                </mask>
                                <g id="Clip-14"></g>
                                <path d="M0.213261513,0.626620547 L195.790474,0.626620547 L195.790474,50.0966638 L0.213261513,50.0966638 L0.213261513,0.626620547 Z" id="Fill-13" fill="#E6E6E6" sketch:type="MSShapeGroup" mask="url(#mask-22)"></path>
                            </g>
                            <g id="Group-18" transform="translate(104.352977, 3.867503)">
                                <mask id="mask-24" sketch:name="Clip 17" fill="white">
                                    <use xlink:href="#path-23"></use>
                                </mask>
                                <g id="Clip-17"></g>
                                <path d="M0.290363753,0.225088697 L98.6646189,0.225088697 L98.6646189,42.5772172 L0.290363753,42.5772172 L0.290363753,0.225088697 Z" id="Fill-16" fill="#E9E9E9" sketch:type="MSShapeGroup" mask="url(#mask-24)"></path>
                            </g>
                            <g id="Group-21" transform="translate(0.182930, 0.569500)">
                                <mask id="mask-26" sketch:name="Clip 20" fill="white">
                                    <use xlink:href="#path-25"></use>
                                </mask>
                                <g id="Clip-20"></g>
                                <path d="M-0.0828438955,0.428740374 L169.989932,0.428740374 L169.989932,73.5001167 L-0.0828438955,73.5001167 L-0.0828438955,0.428740374 Z" id="Fill-19" fill="#F9F9F9" sketch:type="MSShapeGroup" mask="url(#mask-26)"></path>
                            </g>
                            <g id="Group-24" transform="translate(138.802914, 53.337547)">
                                <mask id="mask-28" sketch:name="Clip 23" fill="white">
                                    <use xlink:href="#path-27"></use>
                                </mask>
                                <g id="Clip-23"></g>
                            </g>
                        </g>
                    </g>
                    <g transform="translate(0.000000, 46.000000)">
                        <g transform="translate(0.052594, 0.357812)">
                            <g id="Group-15" transform="translate(0.279311, 42.461430)">
                                <mask id="mask-30" sketch:name="Clip 14" fill="white">
                                    <use xlink:href="#path-29"></use>
                                </mask>
                                <g id="Clip-14"></g>
                                <path d="M0.325623135,0.952147591 L298.947086,0.952147591 L298.947086,76.1216943 L0.325623135,76.1216943 L0.325623135,0.952147591 Z" id="Fill-13" fill="#E6E6E6" sketch:type="MSShapeGroup" mask="url(#mask-30)"></path>
                            </g>
                            <g id="Group-18" transform="translate(159.333689, 4.876657)">
                                <mask id="mask-32" sketch:name="Clip 17" fill="white">
                                    <use xlink:href="#path-31"></use>
                                </mask>
                                <g id="Clip-17"></g>
                                <path d="M0.443348422,0.342021437 L150.648291,0.342021437 L150.648291,64.6959232 L0.443348422,64.6959232 L0.443348422,0.342021437 Z" id="Fill-16" fill="#E9E9E9" sketch:type="MSShapeGroup" mask="url(#mask-32)"></path>
                            </g>
                            <g id="Group-21" transform="translate(0.279311, 0.865354)">
                                <mask id="mask-34" sketch:name="Clip 20" fill="white">
                                    <use xlink:href="#path-33"></use>
                                </mask>
                                <g id="Clip-20"></g>
                                <path d="M-0.126492064,-0.348530595 L259.552948,-0.348530595 L259.552948,110.683154 L-0.126492064,110.683154 L-0.126492064,-0.348530595 Z" id="Fill-19" fill="#FFFFFF" sketch:type="MSShapeGroup" mask="url(#mask-34)"></path>
                            </g>
                            <g id="Group-24" transform="translate(211.934349, 80.046204)">
                                <mask id="mask-36" sketch:name="Clip 23" fill="white">
                                    <use xlink:href="#path-35"></use>
                                </mask>
                                <g id="Clip-23"></g>
                                <path d="M0.60615999,0.502383137 L81.5260138,0.502383137 L81.5260138,35.1029255 L0.60615999,35.1029255 L0.60615999,0.502383137 Z" id="Fill-22" fill="#F6F6F6" sketch:type="MSShapeGroup" mask="url(#mask-36)"></path>
                            </g>
                        </g>
                    </g>
                </g>
            </g>
        </g>
    </g>
</svg>