<?xml version="1.0" encoding="utf-8"?>
<!-- Generator: Adobe Illustrator 19.0.0, SVG Export Plug-In . SVG Version: 6.00 Build 0)  -->
<svg version="1.1" id="图层_1" xmlns:sketch="http://www.bohemiancoding.com/sketch/ns"
	 xmlns="http://www.w3.org/2000/svg" xmlns:xlink="http://www.w3.org/1999/xlink" x="0px" y="0px" viewBox="-466 446 90 134"
	 style="enable-background:new -466 446 90 134;" xml:space="preserve">
<style type="text/css">
	.st0{fill:#FFFFFF;}
	.st1{opacity:0.2537;fill:#FFFFFF;enable-background:new    ;}
	.st2{fill:#EFEDED;}
	.st3{filter:url(#Adobe_OpacityMaskFilter);}
	.st4{mask:url(#mask-2);fill:#42EDFF;}
	.st5{filter:url(#Adobe_OpacityMaskFilter_1_);}
	.st6{mask:url(#mask-4);fill:#42EDFF;}
	.st7{filter:url(#Adobe_OpacityMaskFilter_2_);}
	.st8{mask:url(#mask-6);fill:#FFB803;}
	.st9{filter:url(#Adobe_OpacityMaskFilter_3_);}
	.st10{mask:url(#mask-8);fill:#FFB803;}
	.st11{filter:url(#Adobe_OpacityMaskFilter_4_);}
	.st12{mask:url(#mask-10);fill:#FFDD03;}
	.st13{filter:url(#Adobe_OpacityMaskFilter_5_);}
	.st14{mask:url(#mask-12);fill:#F9BB10;}
	.st15{filter:url(#Adobe_OpacityMaskFilter_6_);}
	.st16{mask:url(#mask-14);fill:#F88C17;}
	.st17{filter:url(#Adobe_OpacityMaskFilter_7_);}
	.st18{mask:url(#mask-16);fill:#FFAB03;}
	.st19{filter:url(#Adobe_OpacityMaskFilter_8_);}
	.st20{mask:url(#mask-18);fill:#FFAB03;}
	.st21{filter:url(#Adobe_OpacityMaskFilter_9_);}
	.st22{mask:url(#mask-20);fill:#FFAB03;}
	.st23{filter:url(#Adobe_OpacityMaskFilter_10_);}
	.st24{mask:url(#mask-22);fill:#FFAB03;}
	.st25{filter:url(#Adobe_OpacityMaskFilter_11_);}
	.st26{mask:url(#mask-24);fill:#FFAB03;}
	.st27{filter:url(#Adobe_OpacityMaskFilter_12_);}
	.st28{mask:url(#mask-26);fill:#FFAB03;}
	.st29{filter:url(#Adobe_OpacityMaskFilter_13_);}
	.st30{mask:url(#mask-28);fill:#FFAB03;}
	.st31{filter:url(#Adobe_OpacityMaskFilter_14_);}
	.st32{mask:url(#mask-30);fill:#FFAB03;}
	.st33{filter:url(#Adobe_OpacityMaskFilter_15_);}
	.st34{mask:url(#mask-32);fill:#F88C17;}
	.st35{filter:url(#Adobe_OpacityMaskFilter_16_);}
	.st36{mask:url(#mask-34);fill:#D46F01;}
	.st37{filter:url(#Adobe_OpacityMaskFilter_17_);}
	.st38{mask:url(#mask-36);fill:#D46F01;}
	.st39{clip-path:url(#SVGID_3_);}
	.st40{clip-path:url(#SVGID_7_);}
	.st41{clip-path:url(#SVGID_11_);}
	.st42{clip-path:url(#SVGID_15_);}
	.st43{clip-path:url(#SVGID_19_);}
	.st44{filter:url(#Adobe_OpacityMaskFilter_18_);}
	.st45{mask:url(#mask-38);fill:#FFFFFF;}
	.st46{filter:url(#Adobe_OpacityMaskFilter_19_);}
	.st47{mask:url(#mask-40);fill:#545454;}
	.st48{filter:url(#Adobe_OpacityMaskFilter_20_);}
	.st49{mask:url(#mask-42);fill:#463F3F;}
	.st50{fill:#E34747;}
	.st51{filter:url(#Adobe_OpacityMaskFilter_21_);}
	.st52{mask:url(#mask-44);fill:#B0541A;}
	.st53{filter:url(#Adobe_OpacityMaskFilter_22_);}
	.st54{mask:url(#mask-46);fill:#A1D57F;}
	.st55{fill:#B0FFF2;}
	.st56{filter:url(#Adobe_OpacityMaskFilter_23_);}
	.st57{mask:url(#mask-48);fill:#F9BB10;}
</style>
<title>Oval 32 Copy + Oval 32 Copy 3 Copy Copy + Oval 26 + Oval 26 Copy + Group + Path 1046 Copy Copy Copy Copy + Group Copy 4
	</title>
<desc>Created with Sketch.</desc>
<g id="Page-1" sketch:type="MSPage">
	<g id="首页" transform="translate(-889.000000, -2671.000000)" sketch:type="MSArtboardGroup">
		
			<g id="Oval-32-Copy-_x2B_-Oval-32-Copy-3-Copy-Copy-_x2B_-Oval-26-_x2B_-Oval-26-Copy-_x2B_-Group-_x2B_-Path-1046-Copy-Copy-Copy-Copy-_x2B_-Group-Copy-4" transform="translate(889.000000, 2671.000000)" sketch:type="MSLayerGroup">
			<g id="Oval-32-Copy-_x2B_-Oval-32-Copy-3-Copy-Copy" transform="translate(34.000000, 110.000000)" sketch:type="MSShapeGroup">
				<ellipse id="Oval-32-Copy" class="st0" cx="-454.8" cy="458" rx="6.6" ry="6.6"/>
				<ellipse id="Oval-32-Copy-3" class="st1" cx="-454.8" cy="458" rx="11.1" ry="11.1"/>
			</g>
			
				<g id="Oval-26-_x2B_-Oval-26-Copy-_x2B_-Group-_x2B_-Path-1046-Copy-Copy-Copy-Copy-_x2B_-Group-Copy-4" transform="translate(0.805929, 0.933070)">
				<g id="Oval-26-_x2B_-Oval-26-Copy-_x2B_-Group-_x2B_-Path-1046-Copy-Copy-Copy-Copy" sketch:type="MSShapeGroup">
					<g id="Oval-26-_x2B_-Oval-26-Copy-_x2B_-Group">
						<ellipse id="Oval-26" class="st0" cx="-421.5" cy="490.4" rx="44.5" ry="44.4"/>
						<ellipse id="Oval-26-Copy" class="st2" cx="-421.5" cy="490.4" rx="36.3" ry="36.2"/>
					</g>
					<path id="Path-1046" class="st0" d="M-430.6,532.7l9.1,10.3v-11L-430.6,532.7z M-412.4,532.7l-9.1,10.3v-11L-412.4,532.7z"/>
				</g>
				<g id="Group-Copy-4" transform="translate(17.695906, 19.711230)">
					<g id="Group-54" transform="translate(11.504270, 48.995343)">
						<g id="Clip-53">
						</g>
						<defs>
							<filter id="Adobe_OpacityMaskFilter" filterUnits="userSpaceOnUse" x="-466.8" y="446.1" width="7.7" height="3.3">
								<feColorMatrix  type="matrix" values="1 0 0 0 0  0 1 0 0 0  0 0 1 0 0  0 0 0 1 0"/>
							</filter>
						</defs>
						<mask maskUnits="userSpaceOnUse" x="-466.8" y="446.1" width="7.7" height="3.3" id="mask-2">
							<g class="st3">
								<path id="path-1" class="st0" d="M-465.5,447.6c-1.3,0.7,0.6,1.9,1.6,1.9s0.8-0.4,2.3-0.8c1.5-0.4,1.7-0.1,2.2-0.8
									c0.4-0.7-0.8-1.7-1.4-1.7C-461.4,446.1-464.2,446.8-465.5,447.6L-465.5,447.6z"/>
							</g>
						</mask>
						<path id="Fill-52" sketch:type="MSShapeGroup" class="st4" d="M-466.8,446.1h7.7v3.3h-7.7V446.1z"/>
					</g>
					<g id="Group-57" transform="translate(35.051023, 49.328637)">
						<g id="Clip-56">
						</g>
						<defs>
							<filter id="Adobe_OpacityMaskFilter_1_" filterUnits="userSpaceOnUse" x="-466.3" y="446.2" width="6.4" height="3.5">
								<feColorMatrix  type="matrix" values="1 0 0 0 0  0 1 0 0 0  0 0 1 0 0  0 0 0 1 0"/>
							</filter>
						</defs>
						<mask maskUnits="userSpaceOnUse" x="-466.3" y="446.2" width="6.4" height="3.5" id="mask-4">
							<g class="st5">
								<path id="path-3" class="st0" d="M-460.3,447.2c0.4,0.2,0.4,0.7,0.3,1c-0.2,0.7-0.6,1.4-1.2,1.4c-1,0-0.8-0.5-2.3-1
									c-1.5-0.4-1.9,0-2.3-0.7c-0.4-0.7,0.7-1.8,1.3-1.8S-461.6,446.5-460.3,447.2L-460.3,447.2z"/>
							</g>
						</mask>
						<path id="Fill-55" sketch:type="MSShapeGroup" class="st6" d="M-466.3,446.2h6.4v3.5h-6.4V446.2z"/>
					</g>
					<g id="Group-60" transform="translate(11.840653, 38.996527)">
						<g id="Clip-59">
						</g>
						<defs>
							<filter id="Adobe_OpacityMaskFilter_2_" filterUnits="userSpaceOnUse" x="-465.7" y="446.2" width="5.7" height="13.1">
								<feColorMatrix  type="matrix" values="1 0 0 0 0  0 1 0 0 0  0 0 1 0 0  0 0 0 1 0"/>
							</filter>
						</defs>
						<mask maskUnits="userSpaceOnUse" x="-465.7" y="446.2" width="5.7" height="13.1" id="mask-6">
							<g class="st7">
								<path id="path-5" class="st0" d="M-465,458.7c-0.1-0.1,0.4-0.8,0.3-1c0,0-0.2,0.1-0.3,0.2c-0.3,0.2-0.6,0.4-0.6,0
									c0-0.6,3.4-1.8,3.8-3.1c0.7-1.9,0.1-7.3,0.1-7.3c-0.1-0.8,0.5-1.4,1.3-1.4h-0.9c0.8,0,1.4,0.6,1.4,1.4v9.2
									c0,0.8-0.6,1.4-1.4,1.4h0.9c-0.8,0-2,0.2-2.7,0.5C-463.2,458.7-464.1,459.3-465,458.7L-465,458.7z"/>
							</g>
						</mask>
						<path id="Fill-58" sketch:type="MSShapeGroup" class="st8" d="M-465.7,446.2h5.7v13.1h-5.7V446.2z"/>
					</g>
					<g id="Group-63" transform="translate(35.387405, 39.663115)">
						<g id="Clip-62">
						</g>
						<defs>
							<filter id="Adobe_OpacityMaskFilter_3_" filterUnits="userSpaceOnUse" x="-465.9" y="446" width="5.7" height="13.1">
								<feColorMatrix  type="matrix" values="1 0 0 0 0  0 1 0 0 0  0 0 1 0 0  0 0 0 1 0"/>
							</filter>
						</defs>
						<mask maskUnits="userSpaceOnUse" x="-465.9" y="446" width="5.7" height="13.1" id="mask-8">
							<g class="st9">
								<path id="path-7" class="st0" d="M-465.9,447.4c0-0.8,0.6-1.4,1.4-1.4h-0.8c0.8,0,1.4,0.6,1.4,1.4v7c0,1.8,3.7,2,3,3.2
									c-0.1,0.1-0.3,0-0.5-0.1c-0.2-0.1-0.5-0.2-0.5-0.1c-0.2,0.2,0.8,0.4,0.5,0.9c-0.4,0.8-1.2,0.2-1.2,0.2
									c-0.7-0.3-1.9-0.5-2.7-0.5h0.8c-0.8,0-1.4-0.6-1.4-1.4V447.4L-465.9,447.4z"/>
							</g>
						</mask>
						<path id="Fill-61" sketch:type="MSShapeGroup" class="st10" d="M-465.9,446h5.7v13.1h-5.7V446z"/>
					</g>
					<g id="Group-66" transform="translate(0.067276, 3.334084)">
						<g id="Clip-65">
						</g>
						<defs>
							<filter id="Adobe_OpacityMaskFilter_4_" filterUnits="userSpaceOnUse" x="-465.8" y="446.3" width="52.9" height="44.4">
								<feColorMatrix  type="matrix" values="1 0 0 0 0  0 1 0 0 0  0 0 1 0 0  0 0 0 1 0"/>
							</filter>
						</defs>
						<mask maskUnits="userSpaceOnUse" x="-465.8" y="446.3" width="52.9" height="44.4" id="mask-10">
							<g class="st11">
								<path id="path-9" class="st0" d="M-438.6,490.7c13.9,0,25.8-7.9,25.8-20.2c0-12.2-11.9-24.2-25.8-24.2
									c-13.9,0-27.1,11.9-27.1,24.2C-465.8,482.7-452.6,490.7-438.6,490.7L-438.6,490.7z"/>
							</g>
						</mask>
						<path id="Fill-64" sketch:type="MSShapeGroup" class="st12" d="M-465.8,446.3h52.9v44.4h-52.9V446.3z"/>
					</g>
					<g id="Group-69" transform="translate(15.204474, 32.663944)">
						<g id="Clip-68">
						</g>
						<defs>
							<filter id="Adobe_OpacityMaskFilter_5_" filterUnits="userSpaceOnUse" x="-465.9" y="446.3" width="21.8" height="8.7">
								<feColorMatrix  type="matrix" values="1 0 0 0 0  0 1 0 0 0  0 0 1 0 0  0 0 0 1 0"/>
							</filter>
						</defs>
						<mask maskUnits="userSpaceOnUse" x="-465.9" y="446.3" width="21.8" height="8.7" id="mask-12">
							<g class="st13">
								<path id="path-11" class="st0" d="M-460.4,453.1c3.1,2,6.8,2.7,10.4,0.9c2.3-1.2,4.2-3.3,5.3-5.5c0.5-1,0.8-1.7,0.7-2.1
									c-0.3-0.9-2.6,2.6-4.1,3.5c-2.5,1.6-3.9,2.6-7.9,2.5c-1.4-0.1-3.7-1-5-1.9c-2.4-1.6-4.3-3.6-4.8-3.6c-0.1,0,0.5,1.1,0.8,1.6
									C-464.1,450.6-462.1,452-460.4,453.1"/>
							</g>
						</mask>
						<path id="Fill-67" sketch:type="MSShapeGroup" class="st14" d="M-444.3,446.3c-0.6,0-2.6,2.8-3.9,3.6
							c-2.3,1.5-3.7,2.5-7.1,2.5c-0.2,0-0.5,0-0.7,0c-1.4-0.1-3.7-1-5-1.9c-2.4-1.6-4.3-3.6-4.8-3.6c0,0,0,0,0,0
							c-0.1,0,0.5,1.1,0.8,1.6c1,2,3,3.4,4.7,4.5c1.9,1.2,3.9,2,6.1,2c1.4,0,2.9-0.3,4.3-1c2.3-1.2,4.2-3.3,5.3-5.5
							c0.5-1,0.8-1.7,0.7-2.1C-444.1,446.3-444.2,446.3-444.3,446.3"/>
					</g>
					<g id="Group-72" transform="translate(43.460577, 23.665009)">
						<g id="Clip-71">
						</g>
						<defs>
							<filter id="Adobe_OpacityMaskFilter_6_" filterUnits="userSpaceOnUse" x="-466.1" y="446" width="4.8" height="14.9">
								<feColorMatrix  type="matrix" values="1 0 0 0 0  0 1 0 0 0  0 0 1 0 0  0 0 0 1 0"/>
							</filter>
						</defs>
						<mask maskUnits="userSpaceOnUse" x="-466.1" y="446" width="4.8" height="14.9" id="mask-14">
							<g class="st15">
								<path id="path-13" class="st0" d="M-463.7,446c0,0,0.7,4.3,0.9,6.4c0.2,1.9-0.3,5.5-0.3,5.5s1.7,0.4,1.5,1.3
									c-0.2,0.9-1.5-0.2-1.5-0.2s0.6,0.9,0.1,1.4c-0.5,0.5-1.1-1.7-1.1-1.7s-1.1,1.3-1.6,0.9s0.3-1.1,0.7-1.5
									c0.2-0.2,0.6-3,0.6-5.6c-0.1-3-0.7-5.9-0.7-5.9L-463.7,446L-463.7,446z"/>
							</g>
						</mask>
						<path id="Fill-70" sketch:type="MSShapeGroup" class="st16" d="M-466.1,446h4.8V461h-4.8V446z"/>
					</g>
					<g id="Group-75" transform="translate(35.723787, 18.998895)">
						<g id="Clip-74">
						</g>
						<defs>
							<filter id="Adobe_OpacityMaskFilter_7_" filterUnits="userSpaceOnUse" x="-465.8" y="446.1" width="2" height="2.2">
								<feColorMatrix  type="matrix" values="1 0 0 0 0  0 1 0 0 0  0 0 1 0 0  0 0 0 1 0"/>
							</filter>
						</defs>
						<mask maskUnits="userSpaceOnUse" x="-465.8" y="446.1" width="2" height="2.2" id="mask-16">
							<g class="st17">
								<path id="path-15" class="st0" d="M-464.8,448.3c0.5,0,1-0.5,1-1.1c0-0.6-0.4-1.1-1-1.1c-0.5,0-1,0.5-1,1.1
									C-465.8,447.8-465.4,448.3-464.8,448.3L-464.8,448.3z"/>
							</g>
						</mask>
						<path id="Fill-73" sketch:type="MSShapeGroup" class="st18" d="M-465.8,446.1h2v2.2h-2V446.1z"/>
					</g>
					<g id="Group-78" transform="translate(36.732934, 13.666194)">
						<g id="Clip-77">
						</g>
						<defs>
							<filter id="Adobe_OpacityMaskFilter_8_" filterUnits="userSpaceOnUse" x="-465.7" y="446.2" width="2" height="2.2">
								<feColorMatrix  type="matrix" values="1 0 0 0 0  0 1 0 0 0  0 0 1 0 0  0 0 0 1 0"/>
							</filter>
						</defs>
						<mask maskUnits="userSpaceOnUse" x="-465.7" y="446.2" width="2" height="2.2" id="mask-18">
							<g class="st19">
								<path id="path-17" class="st0" d="M-464.8,448.4c0.5,0,1-0.5,1-1.1c0-0.6-0.4-1.1-1-1.1c-0.5,0-1,0.5-1,1.1
									C-465.7,447.9-465.3,448.4-464.8,448.4L-464.8,448.4z"/>
							</g>
						</mask>
						<path id="Fill-76" sketch:type="MSShapeGroup" class="st20" d="M-465.7,446.2h2v2.2h-2V446.2z"/>
					</g>
					<g id="Group-81" transform="translate(38.751227, 10.333255)">
						<g id="Clip-80">
						</g>
						<defs>
							<filter id="Adobe_OpacityMaskFilter_9_" filterUnits="userSpaceOnUse" x="-465.8" y="446.3" width="1.4" height="1.6">
								<feColorMatrix  type="matrix" values="1 0 0 0 0  0 1 0 0 0  0 0 1 0 0  0 0 0 1 0"/>
							</filter>
						</defs>
						<mask maskUnits="userSpaceOnUse" x="-465.8" y="446.3" width="1.4" height="1.6" id="mask-20">
							<g class="st21">
								<path id="path-19" class="st0" d="M-465.1,447.9c0.4,0,0.7-0.4,0.7-0.8c0-0.4-0.3-0.8-0.7-0.8c-0.4,0-0.7,0.4-0.7,0.8
									C-465.8,447.5-465.5,447.9-465.1,447.9L-465.1,447.9z"/>
							</g>
						</mask>
						<path id="Fill-79" sketch:type="MSShapeGroup" class="st22" d="M-465.8,446.3h1.4v1.6h-1.4V446.3z"/>
					</g>
					<g id="Group-84" transform="translate(34.714641, 11.999724)">
						<g id="Clip-83">
						</g>
						<defs>
							<filter id="Adobe_OpacityMaskFilter_10_" filterUnits="userSpaceOnUse" x="-465.9" y="446.2" width="1.4" height="1.6">
								<feColorMatrix  type="matrix" values="1 0 0 0 0  0 1 0 0 0  0 0 1 0 0  0 0 0 1 0"/>
							</filter>
						</defs>
						<mask maskUnits="userSpaceOnUse" x="-465.9" y="446.2" width="1.4" height="1.6" id="mask-22">
							<g class="st23">
								<path id="path-21" class="st0" d="M-465.1,447.8c0.4,0,0.7-0.4,0.7-0.8c0-0.4-0.3-0.8-0.7-0.8c-0.4,0-0.7,0.4-0.7,0.8
									C-465.9,447.5-465.5,447.8-465.1,447.8L-465.1,447.8z"/>
							</g>
						</mask>
						<path id="Fill-82" sketch:type="MSShapeGroup" class="st24" d="M-465.9,446.2h1.4v1.6h-1.4V446.2z"/>
					</g>
					<g id="Group-87" transform="translate(12.177035, 12.999606)">
						<g id="Clip-86">
						</g>
						<defs>
							<filter id="Adobe_OpacityMaskFilter_11_" filterUnits="userSpaceOnUse" x="-466" y="446" width="1.4" height="1.6">
								<feColorMatrix  type="matrix" values="1 0 0 0 0  0 1 0 0 0  0 0 1 0 0  0 0 0 1 0"/>
							</filter>
						</defs>
						<mask maskUnits="userSpaceOnUse" x="-466" y="446" width="1.4" height="1.6" id="mask-24">
							<g class="st25">
								<path id="path-23" class="st0" d="M-465.3,447.7c0.4,0,0.7-0.4,0.7-0.8s-0.3-0.8-0.7-0.8c-0.4,0-0.7,0.4-0.7,0.8
									S-465.7,447.7-465.3,447.7L-465.3,447.7z"/>
							</g>
						</mask>
						<path id="Fill-85" sketch:type="MSShapeGroup" class="st26" d="M-466,446h1.4v1.6h-1.4V446z"/>
					</g>
					<g id="Group-90" transform="translate(39.423991, 15.999251)">
						<g id="Clip-89">
						</g>
						<defs>
							<filter id="Adobe_OpacityMaskFilter_12_" filterUnits="userSpaceOnUse" x="-465.9" y="446.1" width="0.9" height="1">
								<feColorMatrix  type="matrix" values="1 0 0 0 0  0 1 0 0 0  0 0 1 0 0  0 0 0 1 0"/>
							</filter>
						</defs>
						<mask maskUnits="userSpaceOnUse" x="-465.9" y="446.1" width="0.9" height="1" id="mask-26">
							<g class="st27">
								<path id="path-25" class="st0" d="M-465.5,447.1c0.2,0,0.4-0.2,0.4-0.5c0-0.3-0.2-0.5-0.4-0.5c-0.2,0-0.4,0.2-0.4,0.5
									C-465.9,446.8-465.7,447.1-465.5,447.1L-465.5,447.1z"/>
							</g>
						</mask>
						<path id="Fill-88" sketch:type="MSShapeGroup" class="st28" d="M-465.9,446.1h0.9v1h-0.9V446.1z"/>
					</g>
					<g id="Group-93" transform="translate(7.467684, 16.665838)">
						<g id="Clip-92">
						</g>
						<defs>
							<filter id="Adobe_OpacityMaskFilter_13_" filterUnits="userSpaceOnUse" x="-465.8" y="446.1" width="0.9" height="1">
								<feColorMatrix  type="matrix" values="1 0 0 0 0  0 1 0 0 0  0 0 1 0 0  0 0 0 1 0"/>
							</filter>
						</defs>
						<mask maskUnits="userSpaceOnUse" x="-465.8" y="446.1" width="0.9" height="1" id="mask-28">
							<g class="st29">
								<path id="path-27" class="st0" d="M-465.3,447.1c0.2,0,0.4-0.2,0.4-0.5c0-0.3-0.2-0.5-0.4-0.5c-0.2,0-0.4,0.2-0.4,0.5
									C-465.8,446.9-465.6,447.1-465.3,447.1L-465.3,447.1z"/>
							</g>
						</mask>
						<path id="Fill-91" sketch:type="MSShapeGroup" class="st30" d="M-465.8,446.1h0.9v1h-0.9V446.1z"/>
					</g>
					<g id="Group-96" transform="translate(40.433138, 20.332071)">
						<g id="Clip-95">
						</g>
						<defs>
							<filter id="Adobe_OpacityMaskFilter_14_" filterUnits="userSpaceOnUse" x="-465.9" y="446.1" width="0.9" height="1">
								<feColorMatrix  type="matrix" values="1 0 0 0 0  0 1 0 0 0  0 0 1 0 0  0 0 0 1 0"/>
							</filter>
						</defs>
						<mask maskUnits="userSpaceOnUse" x="-465.9" y="446.1" width="0.9" height="1" id="mask-30">
							<g class="st31">
								<path id="path-29" class="st0" d="M-465.5,447.1c0.2,0,0.4-0.2,0.4-0.5c0-0.3-0.2-0.5-0.4-0.5c-0.2,0-0.4,0.2-0.4,0.5
									C-465.9,446.8-465.7,447.1-465.5,447.1L-465.5,447.1z"/>
							</g>
						</mask>
						<path id="Fill-94" sketch:type="MSShapeGroup" class="st32" d="M-465.9,446.1h0.9v1h-0.9V446.1z"/>
					</g>
					<g id="Group-99" transform="translate(5.785773, 21.665246)">
						<g id="Clip-98">
						</g>
						<defs>
							<filter id="Adobe_OpacityMaskFilter_15_" filterUnits="userSpaceOnUse" x="-466" y="446.3" width="4.9" height="15">
								<feColorMatrix  type="matrix" values="1 0 0 0 0  0 1 0 0 0  0 0 1 0 0  0 0 0 1 0"/>
							</filter>
						</defs>
						<mask maskUnits="userSpaceOnUse" x="-466" y="446.3" width="4.9" height="15" id="mask-32">
							<g class="st33">
								<path id="path-31" class="st0" d="M-464.1,446.3c0,0-0.8,4.4-0.8,6.5c0,1.9,0.6,5.5,0.6,5.5s-1.7,0.5-1.5,1.4
									c0.2,0.9,1.5-0.3,1.5-0.3s-0.5,0.9,0,1.4c0.5,0.5,1-1.8,1-1.8s1.2,1.3,1.6,0.8c0.5-0.5-0.4-1.1-0.8-1.5
									c-0.2-0.2-0.8-2.9-0.9-5.5c-0.1-3,0.3-5.9,0.3-5.9s0.3-0.3-0.4-0.6L-464.1,446.3L-464.1,446.3z"/>
							</g>
						</mask>
						<path id="Fill-97" sketch:type="MSShapeGroup" class="st34" d="M-466,446.3h4.9v15h-4.9V446.3z"/>
					</g>
					<g id="Group-102" transform="translate(35.051023, 45.662404)">
						<g id="Clip-101">
						</g>
						<defs>
							<filter id="Adobe_OpacityMaskFilter_16_" filterUnits="userSpaceOnUse" x="-465.9" y="446.2" width="2" height="2.1">
								<feColorMatrix  type="matrix" values="1 0 0 0 0  0 1 0 0 0  0 0 1 0 0  0 0 0 1 0"/>
							</filter>
						</defs>
						<mask maskUnits="userSpaceOnUse" x="-465.9" y="446.2" width="2" height="2.1" id="mask-34">
							<g class="st35">
								<path id="path-33" class="st0" d="M-465.9,447.3v1c0,0,0.6-0.1,1.2-0.3c0.5-0.2,0.8-0.4,0.8-0.4v-1.4L-465.9,447.3
									L-465.9,447.3z"/>
							</g>
						</mask>
						<path id="Fill-100" sketch:type="MSShapeGroup" class="st36" d="M-465.9,446.2h2v2.1h-2V446.2z"/>
					</g>
					<g id="Group-105" transform="translate(15.877239, 45.329110)">
						<g id="Clip-104">
						</g>
						<defs>
							<filter id="Adobe_OpacityMaskFilter_17_" filterUnits="userSpaceOnUse" x="-465.9" y="446.2" width="1.7" height="1.8">
								<feColorMatrix  type="matrix" values="1 0 0 0 0  0 1 0 0 0  0 0 1 0 0  0 0 0 1 0"/>
							</filter>
						</defs>
						<mask maskUnits="userSpaceOnUse" x="-465.9" y="446.2" width="1.7" height="1.8" id="mask-36">
							<g class="st37">
								<path id="path-35" class="st0" d="M-464.2,446.9v1.1c0,0-0.4,0-1-0.2c-0.5-0.2-0.7-0.4-0.7-0.4l0.1-1.1L-464.2,446.9
									L-464.2,446.9z"/>
							</g>
						</mask>
						<path id="Fill-103" sketch:type="MSShapeGroup" class="st38" d="M-465.9,446.2h1.7v1.8h-1.7V446.2z"/>
					</g>
					<g>
						<defs>
							<polygon id="SVGID_1_" points="-465,447 -464,447 -465,448 							"/>
						</defs>
						<defs>
							<polygon id="SVGID_2_" points="-467,445 -468,445 -467,444 							"/>
						</defs>
						<clipPath id="SVGID_3_">
							<use xlink:href="#SVGID_1_"  style="overflow:visible;"/>
						</clipPath>
						<clipPath id="SVGID_4_" class="st39">
							<use xlink:href="#SVGID_2_"  style="overflow:visible;"/>
						</clipPath>
						<g transform="matrix(0.1162 0 0 0 -451.8214 453.3341)" style="clip-path:url(#SVGID_4_);enable-background:new    ;">
							
								<image style="overflow:visible;" width="206" height="14" id="Image-106" xlink:href="39731CE01D11DD75.png"  sketch:type="MSBitmapLayer" transform="matrix(0.1162 0 0 0 -451.8214 453.3341)">
							</image>
						</g>
					</g>
					<g>
						<defs>
							<polygon id="SVGID_5_" points="-465,447 -464,447 -465,448 							"/>
						</defs>
						<defs>
							<polygon id="SVGID_6_" points="-467,445 -468,445 -467,444 							"/>
						</defs>
						<clipPath id="SVGID_7_">
							<use xlink:href="#SVGID_5_"  style="overflow:visible;"/>
						</clipPath>
						<clipPath id="SVGID_8_" class="st40">
							<use xlink:href="#SVGID_6_"  style="overflow:visible;"/>
						</clipPath>
						<g transform="matrix(0.1162 0 0 0 -451.8214 474.9861)" style="clip-path:url(#SVGID_8_);enable-background:new    ;">
							
								<image style="overflow:visible;" width="206" height="202" id="Image-107" xlink:href="39731CE01D11DD77.png"  sketch:type="MSBitmapLayer" transform="matrix(0.1162 0 0 0 -451.8214 474.9861)">
							</image>
						</g>
					</g>
					<g>
						<defs>
							<polygon id="SVGID_9_" points="-465,447 -464,447 -465,448 							"/>
						</defs>
						<defs>
							<polygon id="SVGID_10_" points="-467,445 -468,445 -467,444 							"/>
						</defs>
						<clipPath id="SVGID_11_">
							<use xlink:href="#SVGID_9_"  style="overflow:visible;"/>
						</clipPath>
						<clipPath id="SVGID_12_" class="st41">
							<use xlink:href="#SVGID_10_"  style="overflow:visible;"/>
						</clipPath>
						<g transform="matrix(0.1162 0 0 0 -430.2012 467.6151)" style="clip-path:url(#SVGID_12_);enable-background:new    ;">
							
								<image style="overflow:visible;" width="20" height="24" id="Image-108" xlink:href="39731CE01D11DD72.png"  sketch:type="MSBitmapLayer" transform="matrix(0.1162 0 0 0 -430.2012 467.6151)">
							</image>
						</g>
					</g>
					<g>
						<defs>
							<polygon id="SVGID_13_" points="-465,447 -464,447 -465,448 							"/>
						</defs>
						<defs>
							<polygon id="SVGID_14_" points="-467,445 -468,445 -467,444 							"/>
						</defs>
						<clipPath id="SVGID_15_">
							<use xlink:href="#SVGID_13_"  style="overflow:visible;"/>
						</clipPath>
						<clipPath id="SVGID_16_" class="st42">
							<use xlink:href="#SVGID_14_"  style="overflow:visible;"/>
						</clipPath>
						<g transform="matrix(0.1162 0 0 0 -429.2713 462.3174)" style="clip-path:url(#SVGID_16_);enable-background:new    ;">
							
								<image style="overflow:visible;" width="12" height="24" id="Image-109" xlink:href="39731CE01D11DD73.png"  sketch:type="MSBitmapLayer" transform="matrix(0.1162 0 0 0 -429.2713 462.3174)">
							</image>
						</g>
					</g>
					<g>
						<defs>
							<polygon id="SVGID_17_" points="-465,447 -464,447 -465,448 							"/>
						</defs>
						<defs>
							<polygon id="SVGID_18_" points="-467,445 -468,445 -467,444 							"/>
						</defs>
						<clipPath id="SVGID_19_">
							<use xlink:href="#SVGID_17_"  style="overflow:visible;"/>
						</clipPath>
						<clipPath id="SVGID_20_" class="st43">
							<use xlink:href="#SVGID_18_"  style="overflow:visible;"/>
						</clipPath>
						<g transform="matrix(0.1162 0 0 0 -431.3636 460.0139)" style="clip-path:url(#SVGID_20_);enable-background:new    ;">
							
								<image style="overflow:visible;" width="16" height="18" id="Image-110" xlink:href="39731CE01D11DD7D.png"  sketch:type="MSBitmapLayer" transform="matrix(0.1162 0 0 0 -431.3636 460.0139)">
							</image>
						</g>
					</g>
					<g id="Group-113" transform="translate(18.231914, 10.999843)">
						<g id="Clip-112">
						</g>
						<defs>
							<filter id="Adobe_OpacityMaskFilter_18_" filterUnits="userSpaceOnUse" x="-465.9" y="446.2" width="15.4" height="12">
								<feColorMatrix  type="matrix" values="1 0 0 0 0  0 1 0 0 0  0 0 1 0 0  0 0 0 1 0"/>
							</filter>
						</defs>
						<mask maskUnits="userSpaceOnUse" x="-465.9" y="446.2" width="15.4" height="12" id="mask-38">
							<g class="st44">
								<path id="path-37" class="st0" d="M-450.6,452.3c0-3.3-3.4-6-7.7-6c-4.2,0-7.7,2.7-7.7,6c0,3.3,3.4,6,7.7,6
									C-454,458.3-450.6,455.6-450.6,452.3L-450.6,452.3z"/>
							</g>
						</mask>
						<path id="Fill-111" sketch:type="MSShapeGroup" class="st45" d="M-465.9,446.2h15.4v12h-15.4V446.2z"/>
					</g>
					<g id="Group-116" transform="translate(23.277647, 14.666075)">
						<g id="Clip-115">
						</g>
						<defs>
							<filter id="Adobe_OpacityMaskFilter_19_" filterUnits="userSpaceOnUse" x="-465.9" y="446.2" width="5.1" height="4.7">
								<feColorMatrix  type="matrix" values="1 0 0 0 0  0 1 0 0 0  0 0 1 0 0  0 0 0 1 0"/>
							</filter>
						</defs>
						<mask maskUnits="userSpaceOnUse" x="-465.9" y="446.2" width="5.1" height="4.7" id="mask-40">
							<g class="st46">
								<path id="path-39" class="st0" d="M-463.2,446.3c-1.4,0-2.6,0.9-2.6,2.2c0,1.3,1,2.3,2.4,2.4c1.4,0,2.6-0.9,2.6-2.2
									C-460.7,447.4-461.8,446.3-463.2,446.3L-463.2,446.3z"/>
							</g>
						</mask>
						<path id="Fill-114" sketch:type="MSShapeGroup" class="st47" d="M-465.9,446.2h5.1v4.7h-5.1V446.2z"/>
					</g>
					<g id="Group-119" transform="translate(15.877239, 23.998303)">
						<g id="Clip-118">
						</g>
						<defs>
							<filter id="Adobe_OpacityMaskFilter_20_" filterUnits="userSpaceOnUse" x="-466.8" y="445.1" width="22.2" height="11.9">
								<feColorMatrix  type="matrix" values="1 0 0 0 0  0 1 0 0 0  0 0 1 0 0  0 0 0 1 0"/>
							</filter>
						</defs>
						<mask maskUnits="userSpaceOnUse" x="-466.8" y="445.1" width="22.2" height="11.9" id="mask-42">
							<g class="st48">
								<path id="path-41" class="st0" d="M-462.1,447.2c0,0,1.8,3.2,6.4,3.2c4.7,0,5.7-4.3,7.9-4.3c2.2,0,3.2,5-0.7,7.9
									c-3.9,3-11,2.4-14,0.4c-3-2.1-4.4-6.3-2.9-7.8C-463.9,445.1-462.1,447.2-462.1,447.2L-462.1,447.2z"/>
							</g>
						</mask>
						<path id="Fill-117" sketch:type="MSShapeGroup" class="st49" d="M-466.8,445.1h22.2V457h-22.2V445.1z"/>
					</g>
					<path id="Fill-120" sketch:type="MSShapeGroup" class="st50" d="M-446.2,471.2l-0.8,0.4c0,0.1,0.5,1,1.7,1.9
						c0.6,0.4,1.3,0.9,2.2,1.2c0.9,0.3,2,0.6,3.3,0.6c1.3,0,2.4-0.3,3.3-0.8c1.4-0.7,2.3-1.7,3-2.4c0.4-0.4,0.7-0.7,0.9-0.8
						c0.1-0.1,0.2-0.1,0.3-0.2c0.1,0,0.2,0,0.3,0c0.1,0,0.2,0,0.3,0.1c0.1,0.1,0.3,0.3,0.5,0.7c0.1,0.3,0.2,0.8,0.2,1.3
						c0,0.7-0.2,1.4-0.5,2.1c-0.4,0.7-0.9,1.4-1.7,2.1c-0.8,0.6-1.9,1.1-3,1.4c-1.1,0.3-2.4,0.5-3.6,0.5c-1.3,0-2.5-0.2-3.6-0.4
						c-1.1-0.3-2-0.7-2.7-1.1c-1-0.7-1.8-1.6-2.3-2.6c-0.5-1-0.8-2-0.8-2.7c0-0.3,0-0.5,0.1-0.7c0.1-0.2,0.1-0.3,0.2-0.4
						c0.1-0.1,0.2-0.2,0.3-0.2c0.1,0,0.1,0,0.2,0c0.1,0,0.3,0,0.4,0.1c0.2,0.1,0.5,0.3,0.7,0.5c0.1,0.1,0.2,0.2,0.2,0.2l0.1,0.1l0,0
						l0,0l0.4-0.3l-0.4,0.3l0,0l0.4-0.3l-0.4,0.3L-446.2,471.2l-0.8,0.4L-446.2,471.2l0.7-0.6c0,0-0.3-0.4-0.8-0.7
						c-0.2-0.2-0.5-0.4-0.9-0.5c-0.3-0.1-0.7-0.3-1.2-0.3c-0.3,0-0.6,0.1-1,0.2c-0.3,0.1-0.6,0.3-0.9,0.6c-0.3,0.3-0.5,0.7-0.7,1.1
						c-0.1,0.4-0.2,0.8-0.2,1.3c0,1.2,0.4,2.4,1.1,3.6c0.7,1.2,1.6,2.3,2.9,3.2c0.9,0.6,2,1.1,3.3,1.4c1.3,0.3,2.6,0.5,4.1,0.5
						c1.4,0,2.8-0.2,4.1-0.5c1.3-0.4,2.6-0.9,3.7-1.7c1.1-0.8,1.8-1.8,2.3-2.7c0.5-1,0.7-2,0.7-2.9c0-1-0.2-1.9-0.7-2.6
						c-0.2-0.4-0.5-0.7-0.9-0.9c-0.4-0.2-0.8-0.4-1.3-0.4c-0.4,0-0.8,0.1-1.2,0.3c-0.6,0.3-1.1,0.7-1.5,1.2
						c-0.7,0.7-1.3,1.4-2.1,1.9c-0.4,0.3-0.8,0.5-1.3,0.7c-0.5,0.2-1.1,0.3-1.7,0.3c-1.1,0-1.9-0.2-2.7-0.4c-1.1-0.4-1.8-1-2.3-1.5
						c-0.2-0.2-0.4-0.5-0.5-0.6c-0.1-0.1-0.1-0.1-0.1-0.2l0,0l0,0l-0.4,0.2l0.4-0.2l0,0l-0.4,0.2l0.4-0.2l0-0.1l-0.1-0.1
						L-446.2,471.2"/>
					<g id="Group-123" transform="translate(21.595736, 30.664180)">
						<g id="Clip-122">
						</g>
						<defs>
							<filter id="Adobe_OpacityMaskFilter_21_" filterUnits="userSpaceOnUse" x="-465.9" y="446" width="10" height="2.6">
								<feColorMatrix  type="matrix" values="1 0 0 0 0  0 1 0 0 0  0 0 1 0 0  0 0 0 1 0"/>
							</filter>
						</defs>
						<mask maskUnits="userSpaceOnUse" x="-465.9" y="446" width="10" height="2.6" id="mask-44">
							<g class="st51">
								<path id="path-43" class="st0" d="M-464.7,448.2c-1.2-0.3-1.1-0.3-1.1-0.3s1.7-1.9,4.5-1.9c2.8,0,5.4,1.5,5.4,1.5
									s-1.8,1.2-4.5,1.2C-462,448.7-463.5,448.5-464.7,448.2L-464.7,448.2z"/>
							</g>
						</mask>
						<path id="Fill-121" sketch:type="MSShapeGroup" class="st52" d="M-465.9,446h10v2.6h-10V446z"/>
					</g>
					<g id="Group-126" transform="translate(12.849799, 0.001145)">
						<g id="Clip-125">
						</g>
						<defs>
							<filter id="Adobe_OpacityMaskFilter_22_" filterUnits="userSpaceOnUse" x="-466.6" y="445.5" width="17.2" height="8.4">
								<feColorMatrix  type="matrix" values="1 0 0 0 0  0 1 0 0 0  0 0 1 0 0  0 0 0 1 0"/>
							</filter>
						</defs>
						<mask maskUnits="userSpaceOnUse" x="-466.6" y="445.5" width="17.2" height="8.4" id="mask-46">
							<g class="st53">
								<path id="path-45" class="st0" d="M-453.8,449.1c3.1,1,4.4,0.6,4.4,0.6s-3.1,4.3-7.7,2.6c-3-1.1-4.9-1.1-6.3-1
									c-0.8,0-1.4,0.1-1.8-0.1c-1.3-0.5,0.6-4.5,3.6-5C-458.5,445.5-456.7,448.2-453.8,449.1L-453.8,449.1z"/>
							</g>
						</mask>
						<path id="Fill-124" sketch:type="MSShapeGroup" class="st54" d="M-466.6,445.5h17.2v8.4h-17.2V445.5z"/>
					</g>
					<path id="Fill-127" sketch:type="MSShapeGroup" class="st55" d="M-453.4,495.7c0,0,0.1,0,0.3,0c0.3,0,0.7,0.1,1.1,0.1
						c0.2,0,0.4,0.1,0.5,0.1c0.1,0,0.2,0.1,0.3,0.1c0.1,0.1,0.2,0.1,0.3,0c0.1-0.1,0.1-0.2,0-0.3c-0.1-0.1-0.2-0.1-0.3-0.2
						c-0.2-0.1-0.4-0.1-0.6-0.2c-0.7-0.1-1.5-0.2-1.5-0.2c-0.1,0-0.2,0.1-0.2,0.2C-453.6,495.6-453.5,495.7-453.4,495.7"/>
					<path id="Fill-128" sketch:type="MSShapeGroup" class="st55" d="M-453.1,495.5c0,0,0.3-0.2,0.5-0.4c0.1-0.1,0.3-0.3,0.4-0.5
						c0.1-0.2,0.2-0.4,0.2-0.6c0-0.1-0.1-0.2-0.2-0.2c-0.1,0-0.2,0.1-0.2,0.2c0,0.1,0,0.3-0.1,0.4c-0.1,0.2-0.3,0.4-0.5,0.5
						c-0.1,0.1-0.1,0.1-0.2,0.1l-0.1,0l0,0l0,0c-0.1,0.1-0.1,0.2-0.1,0.3C-453.4,495.6-453.2,495.6-453.1,495.5"/>
					<path id="Fill-129" sketch:type="MSShapeGroup" class="st55" d="M-426.3,495.3c0,0-0.5,0-1,0.1c-0.3,0-0.6,0.1-0.8,0.1
						c-0.1,0-0.2,0.1-0.3,0.1c-0.1,0-0.2,0.1-0.3,0.2c-0.1,0.1-0.1,0.2,0,0.3c0.1,0.1,0.2,0.1,0.3,0c0,0,0.1,0,0.1-0.1
						c0.1-0.1,0.3-0.1,0.5-0.1c0.3-0.1,0.7-0.1,1-0.1c0.1,0,0.3,0,0.4,0c0.1,0,0.1,0,0.1,0c0.1,0,0.2-0.1,0.2-0.2
						C-426.1,495.4-426.2,495.3-426.3,495.3"/>
					<path id="Fill-130" sketch:type="MSShapeGroup" class="st55" d="M-426.3,495.2L-426.3,495.2c-0.1,0-0.3-0.2-0.5-0.4
						c-0.1-0.1-0.2-0.2-0.3-0.3c-0.1-0.1-0.1-0.2-0.1-0.4c0-0.1-0.1-0.2-0.2-0.2c-0.1,0-0.2,0.1-0.2,0.2c0,0.2,0.1,0.4,0.2,0.6
						c0.2,0.3,0.4,0.5,0.6,0.6c0.2,0.1,0.3,0.2,0.3,0.2c0.1,0.1,0.3,0,0.3-0.1C-426.2,495.4-426.2,495.2-426.3,495.2"/>
					<g id="Group-133" transform="translate(0.067276, 23.665009)">
						<g id="Clip-132">
						</g>
						<defs>
							<filter id="Adobe_OpacityMaskFilter_23_" filterUnits="userSpaceOnUse" x="-466" y="446" width="48.5" height="22.7">
								<feColorMatrix  type="matrix" values="1 0 0 0 0  0 1 0 0 0  0 0 1 0 0  0 0 0 1 0"/>
							</filter>
						</defs>
						<mask maskUnits="userSpaceOnUse" x="-466" y="446" width="48.5" height="22.7" id="mask-48">
							<g class="st56">
								<path id="path-47" class="st0" d="M-435.9,467.4c4.7-0.5,9-1.5,13.6-4.4c2-1.3,4.8-3.3,4.7-4.2c-0.1-1.8-6.4,1.2-9.5,2.3
									c-5.5,2-11.1,2.7-19.2,1.5c-2.8-0.4-6.7-1.3-11.2-5.3c-2-1.7-4.6-4.1-5.7-6.3c-1.5-2.7-1.4-5.1-2-5
									c-0.4,0.1-0.9,2.7-0.2,5.5C-462.4,463.2-447.6,468.7-435.9,467.4L-435.9,467.4z"/>
							</g>
						</mask>
						<path id="Fill-131" sketch:type="MSShapeGroup" class="st57" d="M-466,446h48.5v22.7H-466V446z"/>
					</g>
				</g>
			</g>
		</g>
	</g>
</g>
</svg>
