<?xml version="1.0" encoding="UTF-8" standalone="no"?>
<svg width="233px" height="186px" viewBox="0 0 233 186" version="1.1" xmlns="http://www.w3.org/2000/svg" xmlns:xlink="http://www.w3.org/1999/xlink" xmlns:sketch="http://www.bohemiancoding.com/sketch/ns">
    <!-- Generator: Sketch 3.3.3 (12081) - http://www.bohemiancoding.com/sketch -->
    <title>Group</title>
    <desc>Created with Sketch.</desc>
    <defs></defs>
    <g id="Page-1" stroke="none" stroke-width="1" fill="none" fill-rule="evenodd" sketch:type="MSPage">
        <g id="首页-copy" sketch:type="MSArtboardGroup" transform="translate(-951.000000, -907.000000)">
            <g id="Group" sketch:type="MSLayerGroup" transform="translate(951.000000, 907.000000)">
                <rect id="Rectangle-5-Copy-2" fill="#182741" sketch:type="MSShapeGroup" x="0.580031934" y="0.225978648" width="346.710938" height="185" rx="5"></rect>
                <path d="M8.58003193,5.22214827 L8.58003193,5.22214827 L8.58003193,180.229809 C8.58003193,178.568006 7.23708396,177.225979 5.58132376,177.225979 L342.289678,177.225979 C340.636341,177.225979 339.290969,178.570414 339.290969,180.229809 L339.290969,5.22214827 C339.290969,6.88395141 340.633917,8.22597865 342.289678,8.22597865 L5.58132376,8.22597865 C7.23466077,8.22597865 8.58003193,6.88154348 8.58003193,5.22214827 L8.58003193,5.22214827 Z M0.580031934,5.22214827 C0.580031934,2.46283998 2.81680674,0.225978648 5.58132376,0.225978648 L342.289678,0.225978648 C345.051815,0.225978648 347.290969,2.46529131 347.290969,5.22214827 L347.290969,180.229809 C347.290969,182.989117 345.054195,185.225979 342.289678,185.225979 L5.58132376,185.225979 C2.81918655,185.225979 0.580031934,182.986666 0.580031934,180.229809 L0.580031934,5.22214827 L0.580031934,5.22214827 Z" id="Shape" fill="#364A6B" sketch:type="MSShapeGroup"></path>
                <path d="M62.0377535,69.588968 L63.5011324,63.7354523 L59.5592379,63.7354523 L59.8888277,62.1006867 L63.9098238,62.1006867 L65.0567965,57.5523469 L60.7853121,57.5523469 L61.114902,55.9307648 L65.4523043,55.9307648 L66.9288668,50.0772492 L68.6031832,50.0772492 L67.1398043,55.9307648 L70.6070895,55.9307648 L72.0704684,50.0772492 L73.7579684,50.0772492 L72.2945895,55.9307648 L76.236484,55.9307648 L75.9200777,57.5523469 L71.885898,57.5523469 L70.7389254,62.1006867 L75.0104098,62.1006867 L74.6808199,63.7354523 L70.3434176,63.7354523 L68.8800387,69.588968 L67.1925387,69.588968 L68.6559176,63.7354523 L65.1886324,63.7354523 L63.7252535,69.588968 L62.0377535,69.588968 Z M65.5973238,62.1006867 L69.064609,62.1006867 L70.2115816,57.5523469 L66.7311129,57.5523469 L65.5973238,62.1006867 Z M81.0748629,59.4771516 C82.3141269,57.8687451 83.8741699,57.0645539 85.7550387,57.0645539 C87.4601253,57.0645539 88.855375,57.6292455 89.9408297,58.7586457 C91.0262843,59.8880459 91.5690035,61.3360295 91.5690035,63.1026398 C91.5690035,65.1329234 90.960367,66.8028286 89.7430758,68.1124055 C88.5257845,69.4219823 86.9811222,70.0767609 85.1090426,70.0767609 C82.9557115,70.0767609 81.2726229,69.2110469 80.0597262,67.479593 C78.8468295,65.748139 78.2403902,63.3443544 78.2403902,60.2681672 C78.2403902,56.8843612 78.9369165,54.2564578 80.3299898,52.3843781 C81.7230632,50.5122985 83.6852018,49.5762727 86.2164645,49.5762727 C87.3766265,49.5762727 88.8268073,49.8223639 90.5670504,50.3145539 L90.5670504,52.582132 C88.7301271,51.8790035 87.2272125,51.5274445 86.0582613,51.5274445 C82.7359791,51.5274445 81.0748629,54.1773204 81.0748629,59.4771516 L81.0748629,59.4771516 Z M88.958652,63.682718 C88.958652,62.2061481 88.6268682,61.0460034 87.9632906,60.2022492 C87.2997131,59.358495 86.379068,58.9366242 85.2013277,58.9366242 C84.1026894,58.9366242 83.1578747,59.3057612 82.3668551,60.0440461 C81.5758355,60.782331 81.1803316,61.6700175 81.1803316,62.707132 C81.1803316,64.3419058 81.5560603,65.6536603 82.3075289,66.6424348 C83.0589975,67.6312092 84.0543489,68.1255891 85.2936129,68.1255891 C86.4098294,68.1255891 87.2997131,67.7234935 87.9632906,66.9192902 C88.6268682,66.115087 88.958652,65.0362404 88.958652,63.682718 L88.958652,63.682718 Z M98.1476168,59.4771516 C99.3868808,57.8687451 100.946924,57.0645539 102.827793,57.0645539 C104.532879,57.0645539 105.928129,57.6292455 107.013584,58.7586457 C108.099038,59.8880459 108.641757,61.3360295 108.641757,63.1026398 C108.641757,65.1329234 108.033121,66.8028286 106.81583,68.1124055 C105.598538,69.4219823 104.053876,70.0767609 102.181796,70.0767609 C100.028465,70.0767609 98.3453768,69.2110469 97.1324801,67.479593 C95.9195834,65.748139 95.3131441,63.3443544 95.3131441,60.2681672 C95.3131441,56.8843612 96.0096704,54.2564578 97.4027437,52.3843781 C98.7958171,50.5122985 100.757956,49.5762727 103.289218,49.5762727 C104.44938,49.5762727 105.899561,49.8223639 107.639804,50.3145539 L107.639804,52.582132 C105.802881,51.8790035 104.299966,51.5274445 103.131015,51.5274445 C99.808733,51.5274445 98.1476168,54.1773204 98.1476168,59.4771516 L98.1476168,59.4771516 Z M106.031406,63.682718 C106.031406,62.2061481 105.699622,61.0460034 105.036045,60.2022492 C104.372467,59.358495 103.451822,58.9366242 102.274082,58.9366242 C101.175443,58.9366242 100.230629,59.3057612 99.439609,60.0440461 C98.6485894,60.782331 98.2530855,61.6700175 98.2530855,62.707132 C98.2530855,64.3419058 98.6288142,65.6536603 99.3802828,66.6424348 C100.131751,67.6312092 101.127103,68.1255891 102.366367,68.1255891 C103.482583,68.1255891 104.372467,67.7234935 105.036045,66.9192902 C105.699622,66.115087 106.031406,65.0362404 106.031406,63.682718 L106.031406,63.682718 Z M115.220371,59.4771516 C116.459635,57.8687451 118.019678,57.0645539 119.900546,57.0645539 C121.605633,57.0645539 123.000883,57.6292455 124.086337,58.7586457 C125.171792,59.8880459 125.714511,61.3360295 125.714511,63.1026398 C125.714511,65.1329234 125.105875,66.8028286 123.888584,68.1124055 C122.671292,69.4219823 121.12663,70.0767609 119.25455,70.0767609 C117.101219,70.0767609 115.418131,69.2110469 114.205234,67.479593 C112.992337,65.748139 112.385898,63.3443544 112.385898,60.2681672 C112.385898,56.8843612 113.082424,54.2564578 114.475498,52.3843781 C115.868571,50.5122985 117.83071,49.5762727 120.361972,49.5762727 C121.522134,49.5762727 122.972315,49.8223639 124.712558,50.3145539 L124.712558,52.582132 C122.875635,51.8790035 121.37272,51.5274445 120.203769,51.5274445 C116.881487,51.5274445 115.220371,54.1773204 115.220371,59.4771516 L115.220371,59.4771516 Z M123.10416,63.682718 C123.10416,62.2061481 122.772376,61.0460034 122.108798,60.2022492 C121.445221,59.358495 120.524576,58.9366242 119.346836,58.9366242 C118.248197,58.9366242 117.303382,59.3057612 116.512363,60.0440461 C115.721343,60.782331 115.325839,61.6700175 115.325839,62.707132 C115.325839,64.3419058 115.701568,65.6536603 116.453037,66.6424348 C117.204505,67.6312092 118.199857,68.1255891 119.439121,68.1255891 C120.555337,68.1255891 121.445221,67.7234935 122.108798,66.9192902 C122.772376,66.115087 123.10416,65.0362404 123.10416,63.682718 L123.10416,63.682718 Z" id="#666" opacity="0.303404851" fill="#FFFFFF" sketch:type="MSShapeGroup"></path>
                <path d="M57.0126953,142 L27.5283203,127.257812 L57.0126953,112.515625 L57.0126953,116.624512 L35.7709961,127.257812 L57.0126953,137.866211 L57.0126953,142 Z M67.347168,149.371094 L80.6201172,105.144531 L84.4799805,105.144531 L71.2070312,149.371094 L67.347168,149.371094 Z M94.1918945,142 L94.1918945,102.679199 L99.0976562,102.679199 L99.0976562,120.036133 C101.687513,116.250958 104.85838,114.358398 108.610352,114.358398 C110.951184,114.358398 112.818841,115.101311 114.213379,116.587158 C115.607917,118.073005 116.305176,120.069323 116.305176,122.576172 L116.305176,142 L111.399414,142 L111.399414,124.169922 C111.399414,122.161123 111.104739,120.729252 110.515381,119.874268 C109.926022,119.019283 108.95069,118.591797 107.589355,118.591797 C104.584458,118.591797 101.75392,120.559062 99.0976562,124.493652 L99.0976562,142 L94.1918945,142 Z M133.960938,142.622559 C131.470691,142.622559 129.528327,141.908699 128.133789,140.480957 C126.739251,139.053216 126.041992,137.069349 126.041992,134.529297 L126.041992,118.641602 L122.655273,118.641602 L122.655273,114.956055 L126.041992,114.956055 L126.041992,110.050293 L130.947754,109.577148 L130.947754,114.956055 L138.02002,114.956055 L138.02002,118.641602 L130.947754,118.641602 L130.947754,133.632812 C130.947754,137.168963 132.475082,138.937012 135.529785,138.937012 C136.177249,138.937012 136.965816,138.829103 137.895508,138.613281 L137.895508,142 C136.384758,142.415041 135.073248,142.622559 133.960938,142.622559 L133.960938,142.622559 Z M144.917969,142 L144.917969,114.956055 L149.82373,114.956055 L149.82373,120.036133 C152.214367,116.250958 155.285626,114.358398 159.037598,114.358398 C162.656756,114.358398 165.122064,116.250958 166.433594,120.036133 C168.757824,116.234356 171.779278,114.333496 175.498047,114.333496 C177.888684,114.333496 179.73974,115.034905 181.05127,116.437744 C182.3628,117.840583 183.018555,119.803698 183.018555,122.327148 L183.018555,142 L178.087891,142 L178.087891,123.099121 C178.087891,120.011215 176.867688,118.467285 174.427246,118.467285 C171.887194,118.467285 169.22267,120.268537 166.433594,123.871094 L166.433594,142 L161.50293,142 L161.50293,123.099121 C161.50293,119.994613 160.257825,118.442383 157.767578,118.442383 C155.293933,118.442383 152.64601,120.251935 149.82373,123.871094 L149.82373,142 L144.917969,142 Z M192.53125,142 L192.53125,102.679199 L197.437012,102.679199 L197.437012,142 L192.53125,142 Z M207.895996,142 L237.380371,127.257812 L207.895996,112.515625 L207.895996,116.624512 L229.137695,127.257812 L207.895996,137.866211 L207.895996,142 Z" id="&lt;/html&gt;" opacity="0.212628265" fill="#FFFFFF" sketch:type="MSShapeGroup"></path>
                <path d="M141.113748,83.3710938 L131.863748,78.7460938 L141.113748,74.1210938 L141.113748,75.4101562 L134.449686,78.7460938 L141.113748,82.0742188 L141.113748,83.3710938 Z M144.387186,83.3710938 L144.387186,71.0351562 L145.926248,71.0351562 L145.926248,76.4804688 C146.738752,75.2929628 147.733534,74.6992188 148.910623,74.6992188 C149.645002,74.6992188 150.230934,74.9322893 150.668436,75.3984375 C151.105938,75.8645857 151.324686,76.4908815 151.324686,77.2773438 L151.324686,83.3710938 L149.785623,83.3710938 L149.785623,77.7773438 C149.785623,77.1471323 149.693176,76.697918 149.50828,76.4296875 C149.323383,76.161457 149.017396,76.0273438 148.590311,76.0273438 C147.647598,76.0273438 146.759586,76.6445251 145.926248,77.8789062 L145.926248,83.3710938 L144.387186,83.3710938 Z M160.535623,83.0976562 C159.504368,83.4101578 158.621564,83.5664062 157.887186,83.5664062 C156.63718,83.5664062 155.617658,83.1510458 154.828592,82.3203125 C154.039526,81.4895792 153.644998,80.412767 153.644998,79.0898438 C153.644998,77.803379 153.992651,76.748702 154.687967,75.9257812 C155.383283,75.1028605 156.272597,74.6914062 157.355936,74.6914062 C158.381983,74.6914062 159.174943,75.0559859 159.734842,75.7851562 C160.294741,76.5143266 160.574686,77.5507745 160.574686,78.8945312 L160.566873,79.3710938 L155.215311,79.3710938 C155.43927,81.3867288 156.42624,82.3945312 158.176248,82.3945312 C158.816876,82.3945312 159.603327,82.222658 160.535623,81.8789062 L160.535623,83.0976562 Z M155.285623,78.2148438 L159.027811,78.2148438 C159.027811,76.6367109 158.439275,75.8476562 157.262186,75.8476562 C156.079888,75.8476562 155.421041,76.6367109 155.285623,78.2148438 L155.285623,78.2148438 Z M167.605936,82.2929688 C166.684056,83.1419313 165.796044,83.5664062 164.941873,83.5664062 C164.238745,83.5664062 163.655417,83.3463564 163.191873,82.90625 C162.728329,82.4661436 162.496561,81.9101596 162.496561,81.2382812 C162.496561,80.3111933 162.88588,79.5989608 163.66453,79.1015625 C164.443179,78.6041642 165.559054,78.3554688 167.012186,78.3554688 L167.379373,78.3554688 L167.379373,77.3320312 C167.379373,76.3476513 166.87417,75.8554688 165.863748,75.8554688 C165.051244,75.8554688 164.173649,76.1054662 163.230936,76.6054688 L163.230936,75.3320312 C164.267399,74.9101541 165.238744,74.6992188 166.144998,74.6992188 C167.09292,74.6992188 167.792131,74.9127583 168.242655,75.3398438 C168.693178,75.7669292 168.918436,76.4309851 168.918436,77.3320312 L168.918436,81.1757812 C168.918436,82.055994 169.189266,82.4960938 169.730936,82.4960938 C169.798644,82.4960938 169.897602,82.4856772 170.027811,82.4648438 L170.137186,83.3164062 C169.788226,83.4830738 169.402813,83.5664062 168.980936,83.5664062 C168.262182,83.5664062 167.803853,83.1419313 167.605936,82.2929688 L167.605936,82.2929688 Z M167.379373,81.4570312 L167.379373,79.2617188 L166.863748,79.2460938 C166.019994,79.2460938 165.337709,79.4062484 164.816873,79.7265625 C164.296037,80.0468766 164.035623,80.4674453 164.035623,80.9882812 C164.035623,81.3580748 164.16583,81.6705716 164.426248,81.9257812 C164.686666,82.1809909 165.004371,82.3085938 165.379373,82.3085938 C166.020001,82.3085938 166.686661,82.0247424 167.379373,81.4570312 L167.379373,81.4570312 Z M177.512186,83.3710938 L177.512186,81.7773438 C176.887183,82.970058 175.944484,83.5664062 174.684061,83.5664062 C173.663222,83.5664062 172.859845,83.1940141 172.273905,82.4492188 C171.687964,81.7044234 171.394998,80.6862044 171.394998,79.3945312 C171.394998,77.9830659 171.727026,76.8476605 172.391092,75.9882812 C173.055158,75.128902 173.928847,74.6992188 175.012186,74.6992188 C176.017399,74.6992188 176.850724,75.0846316 177.512186,75.8554688 L177.512186,71.0351562 L179.059061,71.0351562 L179.059061,83.3710938 L177.512186,83.3710938 Z M177.512186,76.9101562 C176.715307,76.2070277 175.960106,75.8554688 175.246561,75.8554688 C173.772595,75.8554688 173.035623,76.9830616 173.035623,79.2382812 C173.035623,81.2226662 173.691867,82.2148438 175.004373,82.2148438 C175.858544,82.2148438 176.694473,81.7487026 177.512186,80.8164062 L177.512186,76.9101562 Z M182.332498,83.3710938 L191.582498,78.7460938 L182.332498,74.1210938 L182.332498,75.4101562 L188.996561,78.7460938 L182.332498,82.0742188 L182.332498,83.3710938 Z" id="&lt;head&gt;" opacity="0.126166045" fill="#FFFFFF" sketch:type="MSShapeGroup"></path>
                <path d="M29.984375,32.588968 L20.734375,27.963968 L29.984375,23.338968 L29.984375,24.6280305 L23.3203125,27.963968 L29.984375,31.292093 L29.984375,32.588968 Z M33.2578125,32.588968 L33.2578125,20.2530305 L34.796875,20.2530305 L34.796875,25.698343 C35.6093791,24.510837 36.6041608,23.917093 37.78125,23.917093 C38.5156287,23.917093 39.1015603,24.1501636 39.5390625,24.6163117 C39.9765647,25.0824599 40.1953125,25.7087557 40.1953125,26.495218 L40.1953125,32.588968 L38.65625,32.588968 L38.65625,26.995218 C38.65625,26.3650065 38.563803,25.9157922 38.3789062,25.6475617 C38.1940095,25.3793312 37.888023,25.245218 37.4609375,25.245218 C36.5182245,25.245218 35.6302125,25.8623993 34.796875,27.0967805 L34.796875,32.588968 L33.2578125,32.588968 Z M44.0546875,32.588968 L44.0546875,31.432718 L46.3671875,31.432718 L46.3671875,22.307718 L44.0546875,22.885843 L44.0546875,21.698343 L47.9140625,20.7374055 L47.9140625,31.432718 L50.2265625,31.432718 L50.2265625,32.588968 L44.0546875,32.588968 Z M53.5,32.588968 L62.75,27.963968 L53.5,23.338968 L53.5,24.6280305 L60.1640625,27.963968 L53.5,31.292093 L53.5,32.588968 Z" id="&lt;h1&gt;" opacity="0.163479478" fill="#FFFFFF" sketch:type="MSShapeGroup"></path>
            </g>
        </g>
    </g>
</svg>