<?xml version="1.0" encoding="UTF-8" standalone="no"?>
<svg width="455px" height="115px" viewBox="0 0 455 115" version="1.1" xmlns="http://www.w3.org/2000/svg" xmlns:xlink="http://www.w3.org/1999/xlink" xmlns:sketch="http://www.bohemiancoding.com/sketch/ns">
    <!-- Generator: Sketch 3.3.3 (12081) - http://www.bohemiancoding.com/sketch -->
    <title>Group Copy 3 + Group Copy 2 + Group 30 Copy</title>
    <desc>Created with Sketch.</desc>
    <defs>
        <path id="path-1" d="M4.5490134,17.6822013 C2.61375643,19.3240291 1.21411754,21.4215877 0.591723335,23.7623522 C0.536366158,23.9733802 0.492978101,24.1537269 0.454826533,24.3355701 C0.406201986,24.5855111 0.374783048,24.7516395 0.349348669,24.9215096 L0.329150781,25.0809031 C0.309700962,25.2260784 0.289503073,25.3712537 0.276037814,25.516429 C0.267060974,25.6084731 0.263320625,25.7035106 0.257336065,25.796303 C0.249855365,25.906307 0.240130456,26.0148143 0.235642036,26.1263149 C0.228161337,26.3313563 0.226665197,26.539391 0.230405546,26.7474257 C0.375531118,33.5856311 6.9892176,38.9892951 15.0002988,38.8179284 C17.6739008,38.7588106 20.1642257,38.0890586 22.2917366,36.9643242 C29.0483045,43.2861845 32.134093,44.2605053 41.800653,44.0524706 C48.6028531,43.9072953 54.7385229,41.5186378 59.2553693,37.7373452 C66.1660395,42.7339197 75.1780383,45.6666103 84.9785028,45.454834 C93.5162252,45.2729907 101.353006,42.7339197 107.65774,38.5851989 C112.799973,42.4420725 119.596936,44.7154877 127.005073,44.5583391 C127.242211,44.5531009 127.479349,44.5456176 127.714991,44.535141 C128.124934,44.5141879 128.2738,44.507453 128.420421,44.498473 C128.861034,44.4670433 128.991199,44.4565668 129.121363,44.4460902 C129.572449,44.4041839 129.695132,44.3937074 129.817068,44.3794892 C130.272642,44.328603 130.390089,44.3151331 130.507536,44.2994183 C130.963859,44.2380555 131.078314,44.2223406 131.19202,44.2066258 C131.649091,44.1347865 131.759806,44.117575 131.87052,44.0981185 C132.326843,44.0172992 132.436061,43.9963461 132.544531,43.975393 C132.997861,43.8863422 133.104835,43.8638924 133.211061,43.8406942 C133.662896,43.7434118 133.766877,43.7187171 133.870859,43.6940223 C134.320449,43.585515 134.421438,43.5593236 134.522428,43.5331322 C134.97127,43.4156449 135.068519,43.3879569 135.166516,43.3617654 C135.920571,43.1417575 136.040262,43.1050895 136.159205,43.0676732 C136.546705,42.9419544 136.669389,42.9037898 136.791324,42.8618835 C137.493014,42.6186775 137.968038,42.4398275 138.435582,42.2527459 C138.737802,42.1307687 138.86273,42.0783859 138.988406,42.0237581 C139.33177,41.8770861 139.450713,41.8247033 139.569656,41.7700755 C139.920501,41.6114303 140.034955,41.5568025 140.14941,41.502923 C140.501003,41.3345496 140.613213,41.2791734 140.724676,41.223049 C141.074773,41.046444 141.183991,40.9888229 141.293957,40.9289568 C141.373253,40.8885471 141.4518,40.8466409 141.530347,40.8047346 C141.639565,40.7456168 141.747288,40.6857507 141.85501,40.6266329 C141.932809,40.5824817 142.010608,40.5390788 142.086911,40.4956758 C142.194633,40.4343131 142.301607,40.3729503 142.408581,40.3115876 C142.484136,40.2659397 142.558943,40.2225368 142.63375,40.1791338 C142.740724,40.1140294 142.84695,40.0496734 142.952428,39.984569 C143.025739,39.9411661 143.098302,39.8955182 143.170865,39.8498703 C143.277091,39.7832692 143.382568,39.7174165 143.488046,39.6485705 C143.557617,39.6036709 143.627187,39.558023 143.696758,39.5123751 C143.802236,39.4427808 143.908462,39.3724381 144.013191,39.3028438 L144.210682,39.168145 C144.317656,39.0948091 144.423882,39.0207248 144.52936,38.9458921 L144.708896,38.8164317 C144.818863,38.7378574 144.928081,38.6592832 145.035803,38.578464 C145.303612,38.3771642 145.418067,38.2903583 145.531773,38.2028042 C146.22299,37.6602676 146.790775,37.1761005 147.333126,36.6739736 C147.483488,36.5340366 147.597943,36.4255293 147.711649,36.3155253 C147.913628,36.1194638 148.01761,36.0161948 148.120844,35.9114291 C148.336288,35.6929179 148.434285,35.5911455 148.531534,35.4886248 C148.74997,35.257392 148.842731,35.1556196 148.93624,35.0530989 L149.059671,34.9161552 C149.150936,34.8128862 149.241452,34.7103655 149.331221,34.6070965 L149.452408,34.4656628 C149.541428,34.3623938 149.628953,34.2553831 149.716477,34.1506174 L149.83168,34.0084355 C149.919204,33.9021731 150.005232,33.7936658 150.089764,33.6851585 L150.197486,33.5474665 C150.283514,33.4352175 150.368794,33.3229686 150.452578,33.211468 C150.635107,32.9645203 150.718891,32.8477814 150.802674,32.7302942 C150.971738,32.4870882 151.05627,32.365111 151.140054,32.2408888 C151.291912,32.0111526 151.379436,31.8786989 151.463968,31.7440002 C152.309287,30.4059928 153.314693,30.0408096 153.847319,28.6414395 C153.916142,28.4595962 153.976735,28.2934678 154.036581,28.1235977 C154.108395,27.9193046 154.163753,27.7546729 154.216866,27.5900411 C154.286436,27.3715298 154.336557,27.209143 154.384433,27.0445112 C154.450263,26.819265 154.495896,26.6546332 154.539284,26.4885048 C154.58716,26.3044165 154.620075,26.1786977 154.651494,26.0514823 C155.219279,26.1704661 154.651494,23.0312375 155.31578,21.2951205 C155.979318,19.5590036 157.208397,17.3110315 158.47488,16.4482113 C159.520682,15.736553 161.450702,16.4946075 163.692668,17.2534104 C165.337674,17.8101651 167.150995,18.3669199 168.907463,18.3422251 C173.057756,18.2861006 176.379186,16.9840129 178.214202,13.8784589 C180.049965,10.7729049 173.366708,0.596416033 173.366708,0.596416033 C173.366708,0.596416033 3.19276257,18.0788142 4.5490134,17.6822013 L4.5490134,17.6822013 Z"></path>
        <path id="path-3" d="M73.228568,9.88464164 C71.7092379,9.91681967 70.2422727,10.1248544 68.8538549,10.4825543 C65.048423,4.32382916 57.391927,0.20429307 48.6559661,0.39062631 C39.2893822,0.59117775 31.3755501,5.68503464 28.2059777,12.7335197 C26.8385058,12.4132361 25.3947308,12.2560876 23.9030793,12.2882656 C17.6940987,12.419971 12.4441437,15.7762143 10.3046636,20.4323003 C9.7555803,20.3477395 9.18555099,20.3095748 8.6050487,20.3215481 C3.96028235,20.4210755 0.264816764,23.713711 0.350096739,27.6775952 C0.434628644,31.6399828 4.2677391,34.7724766 8.91100932,34.6744458 C10.4602622,34.6400228 11.9032891,34.2508932 13.1376046,33.6005976 C15.9234171,36.2062697 19.9712236,37.8046946 24.4431858,37.7089088 C28.3862625,37.624348 31.9418391,36.2399444 34.560832,34.0480967 C38.5659985,36.9441194 43.7890229,38.6443167 49.4698662,38.5215912 C54.4176009,38.4160772 58.9598817,36.9441194 62.6134553,34.5397471 C65.5945141,36.7742493 69.5345985,38.0928002 73.8292682,38.0015044 C75.7607848,37.9603465 77.6100137,37.6355729 79.3215978,37.0765731 C79.3215978,37.0765731 89.9845869,35.7954386 89.9845869,25.5538453 C89.9845869,15.3130004 79.3215978,10.7407269 79.3215978,10.7407269 C77.4282327,10.1450592 75.3732846,9.83899374 73.228568,9.88464164 L73.228568,9.88464164 Z"></path>
        <path id="path-5" d="M14.3120744,34.5006878 C15.3152362,34.4797346 16.2974521,34.544839 17.2475009,34.691511 C20.9362339,26.6597252 29.9961091,20.8684282 40.7069747,20.640937 C43.2803354,20.5855609 45.7729045,20.856455 48.1300729,21.4079714 C53.5999604,9.24617297 67.2544813,0.460074295 83.4157847,0.11434756 C98.4886462,-0.20818106 111.695821,6.89792515 118.260883,17.5249064 C120.659195,16.9075373 123.18842,16.5483407 125.809657,16.4937129 C141.505661,16.1577144 154.462981,26.744286 154.747247,40.1393262 C155.033758,53.5373596 142.54099,64.6694612 126.845734,65.0047113 C119.437597,65.1626082 112.639886,62.886948 107.498401,59.0308227 C101.193667,63.1795436 93.3568863,65.7201112 84.8191639,65.9004579 C75.0179513,66.1122342 66.0067006,63.1795436 59.0952823,58.1844657 C54.579184,61.9657584 48.4435142,64.3529191 41.640566,64.4980944 C33.9234764,64.6642229 26.9394953,61.9081372 22.1323977,57.4114447 C20.0048868,58.5361791 17.5145619,59.2044344 14.8409599,59.2635522 C6.8298787,59.4349189 0.216192217,54.0305066 0.0710666458,47.1923012 C-0.0755550656,40.3548441 6.30099324,34.6720545 14.3120744,34.5006878 L14.3120744,34.5006878 Z"></path>
        <path id="path-7" d="M43.297541,11.1755044 C42.1492536,8.67310141 39.3252895,6.86888679 35.9881494,6.79704747 C35.1854704,6.78058429 34.4089738,6.86439683 33.6751171,7.03651187 C31.9695176,3.24698766 27.7152438,0.50886186 22.6784888,0.401102878 C17.9821056,0.300078832 13.8662247,2.51512458 11.8202534,5.82721663 C11.0729315,5.63414845 10.2852138,5.52264784 9.46832143,5.50543633 C4.57744006,5.40067066 0.540106508,8.70004116 0.451086183,12.8734567 C0.362065859,17.0476206 4.25502191,20.5161129 9.14590328,20.6208786 C11.4544472,20.6702681 13.5722332,19.9608548 15.173851,18.7605395 C17.1390308,20.0528989 19.5814792,20.8438798 22.2416159,20.9015009 C25.2952375,20.9673536 28.1034921,20.0528989 30.2564374,18.495632 C31.6643051,19.6742458 33.57712,20.4180821 35.6964022,20.4644784 C38.1014471,20.5153646 40.2775826,19.6570343 41.7759667,18.2554192 C42.4387567,18.6048876 43.2145052,18.814419 44.0471071,18.8323788 C46.5434165,18.88551 48.6050973,17.2017759 48.6499815,15.071291 C48.6963619,12.9408061 46.7079919,11.1695178 44.2116825,11.1163867 C43.8997373,11.1096517 43.5937767,11.1306049 43.297541,11.1755044 L43.297541,11.1755044 Z"></path>
        <path id="path-9" d="M4.9878587,19.4821275 C2.86590664,21.2910821 1.33124398,23.6021576 0.648807142,26.1811959 C0.588109635,26.4137051 0.540535912,26.6124097 0.498703846,26.8127634 C0.445388468,27.0881467 0.410938531,27.2711858 0.383050487,27.4583475 L0.360904099,27.6339661 C0.339577948,27.7939193 0.31743156,27.9538724 0.302667301,28.1138256 C0.292824462,28.2152391 0.288723279,28.3199507 0.282161387,28.4221888 C0.273959021,28.5433904 0.263295945,28.662943 0.258374526,28.7857936 C0.25017216,29.0117068 0.248531687,29.240918 0.25263287,29.4701292 C0.411758768,37.0044168 7.66347045,42.9581365 16.4473841,42.7693259 C19.3789097,42.7041903 22.1094773,41.9662622 24.4422301,40.7270376 C31.850607,47.6924197 35.2340829,48.7659196 45.8331801,48.5367084 C53.2915914,48.3767553 60.019172,45.744949 64.9717605,41.5787468 C72.5491061,47.0839381 82.4304963,50.3151564 93.1764158,50.0818227 C102.537776,49.8814691 111.130575,47.0839381 118.043529,42.5129061 C123.681835,46.7623828 131.134504,49.267216 139.257307,49.0940709 C139.517322,49.0882994 139.777337,49.0800544 140.035712,49.0685114 C140.485202,49.0454253 140.648429,49.0380048 140.809195,49.0281108 C141.292314,48.9934818 141.435036,48.9819388 141.577757,48.9703958 C142.072359,48.9242237 142.206878,48.9126807 142.340577,48.8970152 C142.840101,48.8409492 142.968878,48.8261081 143.097655,48.8087936 C143.597999,48.7411846 143.723496,48.7238701 143.848172,48.7065555 C144.349336,48.6274035 144.470731,48.60844 144.592126,48.5870029 C145.092471,48.4979569 145.212225,48.4748708 145.331159,48.4517848 C145.828223,48.3536692 145.945517,48.3289342 146.06199,48.3033747 C146.557413,48.1961896 146.671426,48.1689811 146.785439,48.1417725 C147.278401,48.0222199 147.389133,47.9933624 147.499865,47.9645049 C147.992007,47.8350583 148.098638,47.8045518 148.206089,47.7756942 C149.032887,47.533291 149.164125,47.4928905 149.294543,47.4516654 C149.719425,47.3131493 149.853944,47.2710998 149.987642,47.2249277 C150.757024,46.956965 151.277875,46.7599093 151.790523,46.5537842 C152.121898,46.4193905 152.258878,46.3616755 152.396677,46.3014869 C152.773166,46.1398848 152.903584,46.0821697 153.034001,46.0219812 C153.418692,45.847187 153.544188,45.7869985 153.669685,45.7276344 C154.055196,45.5421218 154.178231,45.4811087 154.300446,45.4192712 C154.684317,45.224689 154.804072,45.1612024 154.924647,45.0952424 C155.011592,45.0507193 155.097716,45.0045473 155.183841,44.9583753 C155.303596,44.8932397 155.42171,44.8272797 155.539824,44.7621441 C155.625129,44.7134986 155.710433,44.6656775 155.794097,44.6178565 C155.912211,44.5502474 156.029505,44.4826384 156.146799,44.4150293 C156.229643,44.3647347 156.311667,44.3169137 156.39369,44.2690927 C156.510984,44.1973611 156.627458,44.126454 156.743111,44.0547225 C156.823494,44.0069014 156.903057,43.9566069 156.98262,43.9063123 C157.099094,43.8329318 157.214747,43.7603757 157.3304,43.6845217 C157.406682,43.6350516 157.482964,43.5847571 157.559246,43.5344625 C157.6749,43.457784 157.791373,43.3802809 157.906207,43.3036023 L158.122749,43.1551922 C158.240043,43.0743911 158.356516,42.9927656 158.47217,42.9103155 L158.669027,42.7676769 C158.789601,42.6811043 158.909356,42.5945317 159.02747,42.5054856 C159.321115,42.2836949 159.446611,42.1880528 159.571287,42.0915863 C160.329185,41.4938232 160.951745,40.9603713 161.546417,40.4071313 C161.711284,40.2529497 161.83678,40.1333971 161.961456,40.0121954 C162.18292,39.7961763 162.296933,39.6823952 162.410126,39.5669651 C162.646354,39.3262108 162.753805,39.2140788 162.860436,39.1011222 C163.099945,38.8463514 163.201654,38.7342193 163.304184,38.6212627 L163.439523,38.4703791 C163.539591,38.356598 163.63884,38.2436414 163.737268,38.1298603 L163.870147,37.9740297 C163.967755,37.8602486 164.063723,37.742345 164.15969,37.6269149 L164.286007,37.4702597 C164.381974,37.3531806 164.476302,37.233628 164.568988,37.1140754 L164.687102,36.9623673 C164.78143,36.8386922 164.874937,36.7150171 164.966803,36.5921665 C165.166941,36.3200812 165.258807,36.1914591 165.350674,36.0620125 C165.536047,35.7940498 165.628734,35.6596561 165.720601,35.522789 C165.887109,35.2696673 165.983076,35.1237307 166.075763,34.9753205 C167.00263,33.5011133 168.105028,33.0987569 168.689037,31.5569406 C168.764498,31.3565869 168.830938,31.1735477 168.896557,30.9863861 C168.975299,30.7612974 169.035997,30.5799072 169.094234,30.3985171 C169.170516,30.1577628 169.225471,29.9788462 169.277967,29.797456 C169.350147,29.5492813 169.400182,29.3678912 169.447756,29.184852 C169.500251,28.9820248 169.536341,28.8435087 169.570791,28.7033436 C170.193351,28.8344392 169.570791,25.3756587 170.299161,23.462817 C171.026711,21.5499753 172.37436,19.0731752 173.76302,18.1225258 C174.909711,17.3384256 177.025921,18.1736449 179.48417,19.0096886 C181.287871,19.6231171 183.276124,20.2365457 185.20204,20.2093372 C189.752712,20.1474996 193.394563,18.7128683 195.406603,15.2911904 C197.419464,11.8695124 190.09147,0.657127074 190.09147,0.657127074 C190.09147,0.657127074 3.50076976,19.9191129 4.9878587,19.4821275 L4.9878587,19.4821275 Z"></path>
        <path id="path-11" d="M80.2929597,10.89083 C78.6270592,10.9262835 77.0185753,11.1554947 75.4962162,11.5496061 C71.3236726,4.76396516 62.9285511,0.225088697 53.3498282,0.430389376 C43.0796459,0.651355569 34.402363,6.26373197 30.9270206,14.0297043 C29.4276281,13.6768179 27.8445715,13.5036728 26.2090197,13.5391263 C19.401056,13.6842385 13.6446357,17.3821242 11.298759,22.5121677 C10.6967054,22.4189991 10.0716851,22.3769495 9.43518149,22.3901416 C4.3423325,22.4998002 0.290363753,26.1276033 0.383870724,30.4949836 C0.476557458,34.8607149 4.67944974,38.312075 9.77065825,38.2040654 C11.4693682,38.1661383 13.0516046,37.737398 14.404995,37.0209068 C17.459556,39.8918183 21.8978562,41.6529519 26.8012306,41.5474158 C31.1246976,41.4542472 35.0232821,39.9289209 37.8949304,37.5139583 C42.2864771,40.7047761 48.013369,42.5780417 54.2422457,42.4428236 C59.6672905,42.326569 64.647767,40.7047761 68.6538025,38.0556552 C71.9224453,40.5176144 76.2426315,41.9703847 80.9516097,41.8697956 C83.0694606,41.824448 85.0970854,41.4666147 86.9737868,40.8507127 C86.9737868,40.8507127 98.6654391,39.4391674 98.6654391,28.1550506 C98.6654391,16.8717582 86.9737868,11.8340588 86.9737868,11.8340588 C84.8977679,11.1777563 82.644578,10.8405355 80.2929597,10.89083 L80.2929597,10.89083 Z"></path>
        <path id="path-13" d="M15.6927664,38.6707328 C16.7927037,38.6476468 17.8696743,38.7193783 18.9113748,38.8809805 C22.9559614,30.0316142 32.8898468,23.6508032 44.6339942,23.4001549 C47.4556081,23.3391419 50.1886364,23.6376111 52.7732019,24.2452682 C58.7707719,10.8454825 73.7425503,1.16501952 91.4629416,0.784100185 C107.989889,0.428740374 122.471166,8.25819921 129.669562,19.9669339 C132.29924,19.2867208 135.07246,18.8909605 137.946569,18.8307719 C155.156773,18.4605711 169.364091,30.1247828 169.675781,44.8833457 C169.989932,59.6452066 156.291981,71.9104793 139.082597,72.2798556 C130.959794,72.4538253 123.506304,69.9465186 117.868818,65.6978664 C110.955864,70.2688984 102.363066,73.0680783 93.0017054,73.266783 C82.2549657,73.5001167 72.3743957,70.2688984 64.7962298,64.7653561 C59.8444616,68.9315582 53.1168811,71.5617155 45.6576495,71.7216686 C37.1960889,71.9047078 29.5383601,68.8680717 24.2675197,63.9136468 C21.9347669,65.1528714 19.2041993,65.8891505 16.2726737,65.9542861 C7.48876006,66.1430968 0.237048374,60.1885526 0.077922476,52.654265 C-0.0828438955,45.1208019 6.90885279,38.8595434 15.6927664,38.6707328 L15.6927664,38.6707328 Z"></path>
        <path id="path-15" d="M47.4744736,12.3130938 C46.2154104,9.55596335 43.1190173,7.56809211 39.4599418,7.48894004 C38.579828,7.47080103 37.7284224,7.56314511 36.9237703,7.75278027 C35.0536309,3.57750862 30.3889454,0.56066049 24.8662924,0.441932386 C19.7168471,0.330624789 15.2039054,2.77114692 12.9605583,6.42038711 C12.141142,6.20766592 11.2774329,6.08481531 10.3817345,6.0658518 C5.01902769,5.9504217 0.592210818,9.58564537 0.494602663,14.1838859 C0.396994509,18.7829509 4.66550572,22.6045117 10.0282125,22.7199418 C12.5594627,22.7743589 14.8815524,21.9927322 16.637679,20.6702331 C18.7924405,22.0941458 21.470513,22.9656431 24.3872743,23.0291296 C27.73548,23.1016857 30.8146482,22.0941458 33.1752891,20.3783598 C34.7189744,21.6769484 36.8163193,22.4965021 39.1400496,22.5476212 C41.7771102,22.6036872 44.1631784,21.6579849 45.8061123,20.1136951 C46.5328419,20.4987369 47.3834273,20.7295971 48.2963506,20.7493851 C51.0334801,20.8079247 53.2940522,18.9527981 53.3432664,16.6054445 C53.394121,14.258091 51.2139322,12.3064977 48.4768027,12.2479582 C48.134764,12.2405377 47.7992872,12.2636237 47.4744736,12.3130938 L47.4744736,12.3130938 Z"></path>
        <path id="path-17" d="M69.7039311,9.23613253 C68.2551064,9.26668475 66.8568664,9.46527421 65.533072,9.80612246 C61.9043292,3.93436688 54.6048486,0.00745132365 46.2764925,0.185036126 C37.3449367,0.375987527 29.8001676,5.23188165 26.7784422,11.9524162 C25.4746909,11.6478487 24.0984028,11.4969971 22.6753477,11.5285041 C16.7559729,11.6535773 11.7499876,14.8539227 9.71132515,19.2925881 C9.18734309,19.2114337 8.64427243,19.1751529 8.0897486,19.18661 C3.66214787,19.2820857 0.138392349,22.4213268 0.220473328,26.200255 C0.300645447,29.9782285 3.95515788,32.9656631 8.38180418,32.8711422 C9.8592618,32.8386804 11.2345954,32.4682347 12.4114076,31.8476427 C15.0675863,34.3319204 18.9273011,35.8557126 23.1907399,35.7640559 C26.9502396,35.6838563 30.340375,34.3643821 32.8371638,32.274419 C36.6558382,35.0355763 41.6360539,36.6557989 47.0524441,36.5393186 C51.7692371,36.4390691 56.1004404,35.0355763 59.5831555,32.7432047 C62.425448,34.8732676 66.1820844,36.1306826 70.2765891,36.0437997 C72.118639,36.0036999 73.8814711,35.6943586 75.5135464,35.1616042 C75.5135464,35.1616042 85.6791803,33.94047 85.6791803,24.1761701 C85.6791803,14.4118703 75.5135464,10.0524498 75.5135464,10.0524498 C73.7087193,9.48436935 71.7483201,9.19221371 69.7039311,9.23613253 L69.7039311,9.23613253 Z"></path>
    </defs>
    <g id="Page-1" stroke="none" stroke-width="1" fill="none" fill-rule="evenodd" sketch:type="MSPage">
        <g id="Group-Copy-3-+-Group-Copy-2-+-Group-30-Copy" sketch:type="MSLayerGroup" transform="translate(-1.000000, -2.000000)">
            <g id="Group-Copy-3" transform="translate(137.478622, 45.579132)">
                <g id="Group-15" transform="translate(0.166836, 25.362667)">
                    <mask id="mask-2" sketch:name="Clip 14" fill="white">
                        <use xlink:href="#path-1"></use>
                    </mask>
                    <g id="Clip-14"></g>
                    <path d="M0.194498189,0.568727962 L178.564298,0.568727962 L178.564298,45.4683039 L0.194498189,45.4683039 L0.194498189,0.568727962 Z" id="Fill-13" fill="#E6E6E6" sketch:type="MSShapeGroup" mask="url(#mask-2)"></path>
                </g>
                <g id="Group-18" transform="translate(95.171720, 2.912879)">
                    <mask id="mask-4" sketch:name="Clip 17" fill="white">
                        <use xlink:href="#path-3"></use>
                    </mask>
                    <g id="Clip-17"></g>
                    <path d="M0.264816764,0.20429307 L89.9838389,0.20429307 L89.9838389,38.6435683 L0.264816764,38.6435683 L0.264816764,0.20429307 Z" id="Fill-16" fill="#E9E9E9" sketch:type="MSShapeGroup" mask="url(#mask-4)"></path>
                </g>
                <g id="Group-21" transform="translate(0.166836, 0.516885)">
                    <mask id="mask-6" sketch:name="Clip 20" fill="white">
                        <use xlink:href="#path-5"></use>
                    </mask>
                    <g id="Clip-20"></g>
                    <path d="M-0.0755550656,-0.20818106 L155.033758,-0.20818106 L155.033758,66.1122342 L-0.0755550656,66.1122342 L-0.0755550656,-0.20818106 Z" id="Fill-19" fill="#FFFFFF" sketch:type="MSShapeGroup" mask="url(#mask-6)"></path>
                </g>
                <g id="Group-24" transform="translate(126.590658, 47.812455)">
                    <mask id="mask-8" sketch:name="Clip 23" fill="white">
                        <use xlink:href="#path-7"></use>
                    </mask>
                    <g id="Clip-23"></g>
                    <path d="M0.362065859,0.300078832 L48.6963619,0.300078832 L48.6963619,20.9673536 L0.362065859,20.9673536 L0.362065859,0.300078832 Z" id="Fill-22" fill="#F6F6F6" sketch:type="MSShapeGroup" mask="url(#mask-8)"></path>
                </g>
            </g>
            <g id="Group-Copy-2" transform="translate(0.666422, 0.119120)">
                <g transform="translate(0.762936, 0.750000)">
                    <g id="Group-15" transform="translate(0.182930, 28.602525)">
                        <mask id="mask-10" sketch:name="Clip 14" fill="white">
                            <use xlink:href="#path-9"></use>
                        </mask>
                        <g id="Clip-14"></g>
                        <path d="M0.213261513,0.626620547 L195.790474,0.626620547 L195.790474,50.0966638 L0.213261513,50.0966638 L0.213261513,0.626620547 Z" id="Fill-13" fill="#E6E6E6" sketch:type="MSShapeGroup" mask="url(#mask-10)"></path>
                    </g>
                    <g id="Group-18" transform="translate(104.352977, 3.867503)">
                        <mask id="mask-12" sketch:name="Clip 17" fill="white">
                            <use xlink:href="#path-11"></use>
                        </mask>
                        <g id="Clip-17"></g>
                        <path d="M0.290363753,0.225088697 L98.6646189,0.225088697 L98.6646189,42.5772172 L0.290363753,42.5772172 L0.290363753,0.225088697 Z" id="Fill-16" fill="#E9E9E9" sketch:type="MSShapeGroup" mask="url(#mask-12)"></path>
                    </g>
                    <g id="Group-21" transform="translate(0.182930, 0.569500)">
                        <mask id="mask-14" sketch:name="Clip 20" fill="white">
                            <use xlink:href="#path-13"></use>
                        </mask>
                        <g id="Clip-20"></g>
                        <path d="M-0.0828438955,0.428740374 L169.989932,0.428740374 L169.989932,73.5001167 L-0.0828438955,73.5001167 L-0.0828438955,0.428740374 Z" id="Fill-19" fill="#F9F9F9" sketch:type="MSShapeGroup" mask="url(#mask-14)"></path>
                    </g>
                    <g id="Group-24" transform="translate(138.802914, 53.337547)">
                        <mask id="mask-16" sketch:name="Clip 23" fill="white">
                            <use xlink:href="#path-15"></use>
                        </mask>
                        <g id="Clip-23"></g>
                    </g>
                </g>
            </g>
            <g id="Group-30-Copy" transform="translate(412.530787, 65.199096) scale(-1, 1) translate(-412.530787, -65.199096) translate(369.530787, 46.699096)">
                <mask id="mask-18" sketch:name="Clip 29" fill="white">
                    <use xlink:href="#path-17"></use>
                </mask>
                <g id="Clip-29"></g>
                <path d="M0.138392349,0.00745132365 L85.6791803,0.00745132365 L85.6791803,36.6567537 L0.138392349,36.6567537 L0.138392349,0.00745132365 Z" id="Fill-28" fill="#FFFFFF" sketch:type="MSShapeGroup" mask="url(#mask-18)"></path>
            </g>
        </g>
    </g>
</svg>