<?xml version="1.0" encoding="utf-8"?>
<!-- Generator: Adobe Illustrator 19.0.0, SVG Export Plug-In . SVG Version: 6.00 Build 0)  -->
<svg version="1.1" id="图层_1" xmlns="http://www.w3.org/2000/svg" xmlns:xlink="http://www.w3.org/1999/xlink" x="0px" y="0px"
	 viewBox="0 0 1024 1024" enable-background="new 0 0 1024 1024" xml:space="preserve">
<g id="XMLID_24_">
	<defs>
		<circle id="XMLID_25_" cx="512" cy="512.2" r="63.7"/>
	</defs>
	<clipPath id="XMLID_2_">
		<use xlink:href="#XMLID_25_"  overflow="visible"/>
	</clipPath>
	<rect id="XMLID_26_" x="441.7" y="441.9" clip-path="url(#XMLID_2_)" fill="#364A6B" width="140.4" height="140.4"/>
</g>
<g id="XMLID_4_">
	<defs>
		<path id="XMLID_5_" d="M512,519.5c-5.6,0-10.2-4.5-10.2-10.1c0-5.6,4.6-10.1,10.2-10.1c5.6,0,10.2,4.5,10.2,10.1
			C522.1,515,517.6,519.5,512,519.5z M512,484c-14,0-25.4,11.4-25.4,25.4l0,30.7l14.9-7.6c3.2,1.4,6.7,2.2,10.5,2.2
			c14,0,25.4-11.4,25.4-25.4C537.4,495.4,526,484,512,484z"/>
	</defs>
	<clipPath id="XMLID_3_">
		<use xlink:href="#XMLID_5_"  overflow="visible"/>
	</clipPath>
	<g id="XMLID_8_" clip-path="url(#XMLID_3_)" enable-background="new    ">
		<g id="XMLID_9_">
			<defs>
				<rect id="XMLID_10_" x="486.3" y="484" width="52" height="57.2"/>
			</defs>
			<clipPath id="XMLID_19_">
				<use xlink:href="#XMLID_10_"  overflow="visible"/>
			</clipPath>
			<g id="XMLID_11_" clip-path="url(#XMLID_19_)">
				<defs>
					<rect id="XMLID_12_" x="486.3" y="484" width="52" height="57.2"/>
				</defs>
				<clipPath id="XMLID_20_">
					<use xlink:href="#XMLID_12_"  overflow="visible"/>
				</clipPath>
				<g id="XMLID_13_" opacity="0.6244" clip-path="url(#XMLID_20_)" enable-background="new    ">
					<g id="XMLID_14_">
						<defs>
							<rect id="XMLID_15_" x="486.3" y="484" width="52" height="57.2"/>
						</defs>
						<clipPath id="XMLID_21_">
							<use xlink:href="#XMLID_15_"  overflow="visible"/>
						</clipPath>
						<g id="XMLID_16_" clip-path="url(#XMLID_21_)">
							<defs>
								<rect id="XMLID_17_" x="486.3" y="484" width="52" height="57.2"/>
							</defs>
							<clipPath id="XMLID_22_">
								<use xlink:href="#XMLID_17_"  overflow="visible"/>
							</clipPath>
							<rect id="XMLID_18_" x="480" y="477.5" clip-path="url(#XMLID_22_)" fill="#212E44" width="63.8" height="69.1"/>
						</g>
					</g>
				</g>
			</g>
		</g>
	</g>
</g>
</svg>
