<?xml version="1.0" encoding="utf-8"?>
<!-- Generator: Adobe Illustrator 19.0.0, SVG Export Plug-In . SVG Version: 6.00 Build 0)  -->
<svg version="1.1" id="图层_1" xmlns:sketch="http://www.bohemiancoding.com/sketch/ns"
	 xmlns="http://www.w3.org/2000/svg" xmlns:xlink="http://www.w3.org/1999/xlink" x="0px" y="0px" viewBox="80 419 1184 188"
	 style="enable-background:new 80 419 1184 188;" xml:space="preserve">
<style type="text/css">
	.st0{fill:#3B465A;}
	.st1{fill:#59719B;}
</style>
<title>Imported Layers + Imported Layers Copy 5</title>
<desc>Created with Sketch.</desc>
<g id="Page-1" sketch:type="MSPage">
	<g id="首页" transform="translate(0.000000, -2737.000000)" sketch:type="MSArtboardGroup">
		<g id="Imported-Layers-_x2B_-Imported-Layers-Copy-5" transform="translate(-2.000000, 2737.000000)" sketch:type="MSLayerGroup">
			<path id="Shape" sketch:type="MSShapeGroup" class="st0" d="M84,582.8c29.9,10.1,69.7,7.7,117.9-4.7
				c24.5-6.3,50.4-14.9,78.3-25.8c18.3-7.1,30.6-12.2,58.4-24.2c33.9-14.6,67.2-22.2,100.8-20.9c41.2,1.5,80.9,16.4,119,47.2
				c37.3,30.2,82.2,46.9,128,49c43.5,2.1,85.3-9.2,117-31.6c8.3-5.9,17.5-14.7,30.7-29.1c0.2-0.2,27.6-30.6,36.3-39.9
				c32.5-34.3,59.8-55.9,89.2-66.7c36.8-13.6,73.8-8.2,112.9,20.1c21.5,15.5,40.2,31.5,60.4,51c7.3,7,38.4,38.1,46.6,45.9
				c30.9,29.1,56.5,45.3,91.5,54.7c2.4,0.7,4.9-0.8,5.6-3.2c0.7-2.4-0.8-4.9-3.2-5.6c-33.4-9-57.7-24.4-87.6-52.5
				c-8.1-7.6-39.1-38.7-46.6-45.8c-20.5-19.7-39.6-36-61.4-51.8c-41.5-30.1-81.7-35.9-121.4-21.2c-31,11.4-59.3,33.7-92.7,69
				c-8.8,9.3-36.3,39.8-36.4,40c-12.8,13.9-21.5,22.4-29.2,27.8c-30,21.1-69.8,31.9-111.4,29.9c-43.9-2.1-86.9-18.1-122.7-47
				c-39.6-32-81.2-47.6-124.4-49.2c-35.1-1.3-69.7,6.6-104.8,21.7c-27.8,12-39.9,17.1-58.1,24.1c-27.6,10.7-53.2,19.2-77.3,25.4
				c-46.7,12-84.9,14.3-112.7,4.9c-2.4-0.8-5,0.5-5.8,2.9C80.3,579.4,81.6,582,84,582.8L84,582.8z"/>
			<path id="Shape_1_" sketch:type="MSShapeGroup" class="st1" d="M84.9,580.2c29.3,9.9,68.6,7.5,116.3-4.7
				c24.4-6.3,50.2-14.9,78-25.7c18.3-7.1,30.5-12.2,58.3-24.2c34.2-14.7,68-22.4,102-21.2c41.8,1.6,82.1,16.7,120.6,47.8
				c36.9,29.8,81.2,46.3,126.4,48.4c42.9,2,84.1-9.1,115.3-31.1c8.1-5.7,17.2-14.4,30.2-28.7c0.2-0.2,27.6-30.6,36.3-39.9
				c32.7-34.6,60.4-56.4,90.3-67.4c37.6-13.9,75.6-8.4,115.4,20.4c21.6,15.6,40.4,31.7,60.7,51.2c7.4,7.1,38.4,38.2,46.6,45.9
				c30.6,28.8,55.8,44.7,90.3,54.1c1,0.3,2-0.3,2.2-1.3c0.3-1-0.3-2-1.3-2.2c-33.8-9.1-58.6-24.7-88.8-53.2
				c-8.1-7.7-39.2-38.7-46.6-45.8c-20.5-19.6-39.4-35.8-61.1-51.6c-40.8-29.5-80-35.2-118.8-20.9c-30.5,11.3-58.6,33.3-91.7,68.3
				c-8.8,9.3-36.2,39.8-36.3,39.9c-12.9,14.1-21.8,22.6-29.6,28.2c-30.5,21.5-70.9,32.4-113.1,30.4c-44.4-2.1-88-18.3-124.3-47.6
				c-39.1-31.6-80.2-47-122.7-48.6c-34.7-1.3-68.9,6.5-103.6,21.5c-27.8,12-40,17.1-58.2,24.2c-27.7,10.7-53.4,19.3-77.6,25.5
				c-47.1,12.1-85.8,14.4-114.3,4.8c-1-0.3-2,0.2-2.3,1.1C83.4,578.8,83.9,579.9,84.9,580.2L84.9,580.2z"/>
		</g>
	</g>
</g>
</svg>
