<?xml version="1.0" encoding="utf-8"?>
<!-- Generator: Adobe Illustrator 19.0.0, SVG Export Plug-In . SVG Version: 6.00 Build 0)  -->
<svg version="1.1" id="图层_1" xmlns:sketch="http://www.bohemiancoding.com/sketch/ns"
	 xmlns="http://www.w3.org/2000/svg" xmlns:xlink="http://www.w3.org/1999/xlink" x="0px" y="0px" viewBox="-220 251 583 524"
	 enable-background="new -220 251 583 524" xml:space="preserve">
<g>
	<title>Group</title>
	<desc>Created with Sketch.</desc>
	<g transform="translate(21.000000, 0.000000)" sketch:type="MSShapeGroup">
		<path opacity="0.4215" fill="#212E44" enable-background="new    " d="M-208.3,775h-20V327.5c0-16.9,5.7-31,16.9-42.1
			c24.7-24.4,68-24.3,70.8-24.3h481.9v20l-482.2,0c-0.4,0-37.6-0.2-56.6,18.6c-7.3,7.3-10.9,16.3-10.9,27.8V775z"/>
		<path opacity="0.4215" fill="#212E44" enable-background="new    " d="M-216.3,775h-6V327.5c0-14.9,5-27.4,14.8-37.1
			c12.1-11.9,29.4-17.3,41.8-19.8c13.3-2.6,23.7-2.5,24.1-2.5l482,0v6h-482c-0.4,0-40.5-0.3-61.7,20.6c-8.7,8.5-13,19.6-13,32.8V775
			z"/>
		<rect x="46" y="287.5" fill="#2D3E5B" width="4" height="52.3"/>
		<path id="Rectangle-9-Copy-2" fill="#2D3E5B" d="M45.2,338.1h6.3c2.8,0,5,1.1,5,2.4l0,0c0,1.3-2.2,2.4-5,2.4h-6.3
			c-2.8,0-5-1.1-5-2.4l0,0C40.2,339.1,42.4,338.1,45.2,338.1z"/>
		<path id="Rectangle-9-Copy-3" fill="#2D3E5B" d="M45.2,344.1h6.3c2.8,0,5,1.1,5,2.4l0,0c0,1.3-2.2,2.4-5,2.4h-6.3
			c-2.8,0-5-1.1-5-2.4l0,0C40.2,345.2,42.4,344.1,45.2,344.1z"/>
		<ellipse id="Oval-16-Copy-33" fill="#2D3E5B" cx="48" cy="342.3" rx="3.3" ry="3"/>
		<path id="Path-752-Copy-2" fill="#2D3E5B" d="M48.3,370.2H20.2c-2.2,0-2.7-1.2-1.1-2.7l22.4-20.9l6.8,0.2l6.8-0.2l22.4,20.9
			c1.6,1.5,1.1,2.7-1.1,2.7H48.3z"/>
		<ellipse id="Oval-17-Copy" fill="#2D3E5B" cx="48.9" cy="367.5" rx="10.7" ry="10"/>
		<path id="Rectangle-12-Copy-4" fill="#2D3E5B" d="M48,267.6L48,267.6c2.5,0,4.6,2.2,4.6,5v13.1c0,2.8-2,5-4.6,5h0
			c-2.5,0-4.6-2.2-4.6-5v-13.1C43.4,269.9,45.5,267.6,48,267.6z"/>
		<path fill="#2D3E5B" d="M-75.4,337.4c-32,0-49.6-16.8-58.8-30.9c-9.9-15.2-12.2-30.2-12.3-30.8l4-0.6c0,0.1,2.3,14.9,11.8,29.3
			c12.6,19.2,31.2,29,55.4,29c24.2,0,42.4-10.1,54.1-30c8.8-14.9,10.4-30,10.4-30.2l4,0.4c-0.1,0.7-1.7,16.1-11,31.8
			C-26.4,320-43.4,337.4-75.4,337.4z"/>
		<path fill="#2D3E5B" d="M-39.5,381.7c-25.5,0-45.9-18.5-59-53.4c-9.7-26-12.1-52.4-12.1-52.7l4-0.3c0,0.3,2.3,26.2,11.9,51.7
			c12.6,33.7,31.2,50.8,55.2,50.8c57.6,0,64.5-103.4,64.5-104.4l4,0.2c0,0.3-1.7,27.2-10.8,53.7C6,362.9-14,381.7-39.5,381.7z"/>
		<path fill="#2D3E5B" d="M136.9,342.7c-21.3,0-38.4-11.8-49.4-34.1c-8.2-16.6-10.1-33-10.2-33.7l4-0.5c0,0.2,1.9,16.4,9.9,32.5
			c10.4,21.1,25.9,31.8,45.8,31.8c20,0,35-10.9,44.7-32.5c7.4-16.3,8.7-32.8,8.8-33l4,0.3c-0.1,0.7-1.4,17.4-9.1,34.3
			C175,330.7,158.2,342.7,136.9,342.7z"/>
		<path fill="#2D3E5B" d="M176.1,321.9c-36,0-41.8-46.9-41.8-47.4l4-0.5c0,0.4,5.4,43.8,37.8,43.8c32.4,0,36.3-44.2,36.3-44.6l4,0.3
			C216.4,274.1,212.2,321.9,176.1,321.9z"/>
		<path id="Rectangle-16-Copy-10" fill="#2D3E5B" d="M-138.4,257v28.4c0,2.8-2.2,5-5,5h-8.6c-2.8,0-5-2.2-5-5V257c0-2.8,2.2-5,5-5
			h8.6C-140.7,252-138.4,254.2-138.4,257z"/>
		<path id="Rectangle-16-Copy-11" fill="#2D3E5B" d="M-81.1,257v28.4c0,2.8-2.2,5-4.9,5l0,0c-2.7,0-4.9-2.2-4.9-5V257
			c0-2.8,2.2-5,4.9-5l0,0C-83.2,252-81.1,254.2-81.1,257z"/>
		<path id="Rectangle-16-Copy-12" fill="#2D3E5B" d="M-62,257v28.4c0,2.8-2.2,5-4.9,5l0,0c-2.7,0-4.9-2.2-4.9-5V257
			c0-2.8,2.2-5,4.9-5l0,0C-64.2,252-62,254.2-62,257z"/>
	</g>
	<g>
		<path fill="none" d="M334.5,628v-20h-16.2v19c0,7.9-2.1,14.8-5.1,18h25.6C336.2,641.5,334.5,635.2,334.5,628z"/>
		<path fill="#2D3E5B" d="M151.6,584L151.6,584C151.6,584,151.6,584,151.6,584z"/>
		<path fill="#2D3E5B" d="M232.2,567.4L232.2,567.4C232.2,567.4,232.2,567.4,232.2,567.4z"/>
		<path fill="#2D3E5B" d="M352.5,628v-20h4.5c3.3,0,6-1.8,6-4c0-2.2-2.7-4-6-4h-4.5v-5c0-11-4-20-9-20h0c-5,0-9,9-9,20v5h-16.2v-6
			c0-11-4-20-9-20s-9,9-9,20v6h-6.4c-3.3,0-6,1.8-6,4c0,2.2,2.7,4,6,4h6.4v19c0,7.9,2.1,14.8,5.1,18H248c18.2-0.4,35.7-3.3,35.7-9
			c0-11.6-31.7-21.6-31.7-42c0-20.5,6-26.5,6-26.5h-25.8c0.2,0,2.5,0.6,4.2,24.5c1.8,25-34.4,36.6-29.1,46.2
			c2.3,4.2,17.1,6.5,33.1,6.8h-55.8c5.4-1.2,9-3,9-5.3c0-9.4-25.8-17.5-25.8-34.1c0-16.6,4.9-21.6,4.9-21.6h-21
			c0.2,0,2,0.5,3.4,19.9c1.4,20.3-27.9,29.7-23.7,37.5c0.8,1.5,3.5,2.6,7.3,3.5h-25.8v130H363V645h-14.8
			C350.8,641.5,352.5,635.2,352.5,628z M318.3,627v-19h16.2v20c0,7.2,1.7,13.5,4.3,17h-25.6C316.2,641.8,318.3,634.9,318.3,627z"/>
	</g>
	<path id="Rectangle-246-Copy-3" sketch:type="MSShapeGroup" fill="#2D3E5B" d="M-212,473h30c4.4,0,8,1.8,8,4l0,0c0,2.2-3.6,4-8,4
		h-30c-4.4,0-8-1.8-8-4l0,0C-220,474.8-216.4,473-212,473z"/>
	<path id="Rectangle-246-Copy-4" sketch:type="MSShapeGroup" fill="#2D3E5B" d="M-212,454h30c4.4,0,8,1.8,8,4l0,0c0,2.2-3.6,4-8,4
		h-30c-4.4,0-8-1.8-8-4l0,0C-220,455.8-216.4,454-212,454z"/>
</g>
</svg>
