<?xml version="1.0" encoding="UTF-8" standalone="no"?>
<svg width="499px" height="372px" viewBox="0 0 499 372" version="1.1" xmlns="http://www.w3.org/2000/svg" xmlns:xlink="http://www.w3.org/1999/xlink" xmlns:sketch="http://www.bohemiancoding.com/sketch/ns">
    <!-- Generator: Sketch 3.3.3 (12081) - http://www.bohemiancoding.com/sketch -->
    <title>Group</title>
    <desc>Created with Sketch.</desc>
    <defs>
        <path id="path-1" d="M112.353558,221.858124 C174.404714,221.858124 224.707116,172.193492 224.707116,110.929062 C224.707116,49.6646328 174.404714,0 112.353558,0 C50.3024013,0 0,49.6646328 0,110.929062 C0,172.193492 50.3024013,221.858124 112.353558,221.858124 Z"></path>
        <path id="path-3" d="M112.353558,221.858124 C174.404714,221.858124 224.707116,172.193492 224.707116,110.929062 C224.707116,49.6646328 174.404714,0 112.353558,0 C50.3024013,0 0,49.6646328 0,110.929062 C0,172.193492 50.3024013,221.858124 112.353558,221.858124 Z"></path>
        <path id="path-5" d="M112.353558,221.858124 C174.404714,221.858124 224.707116,172.193492 224.707116,110.929062 C224.707116,49.6646328 174.404714,0 112.353558,0 C50.3024013,0 0,49.6646328 0,110.929062 C0,172.193492 50.3024013,221.858124 112.353558,221.858124 Z"></path>
        <path id="path-7" d="M28.7765743,23.1757723 C4.81368873,23.1757723 7.81029825,1.46697696 6.20498833,0.286938587 C4.59967841,-0.893099789 -12.5810074,28.7651724 20.4373029,40.3251067 C45.7031751,49.1708598 52.7394599,23.1757723 28.7765743,23.1757723 Z"></path>
        <path id="path-9" d="M26.3813891,0.231446629 C26.3813891,0.231446629 38.4745063,18.491904 102.077402,19.4010336 C165.680297,20.3101632 185.286685,0.178165898 185.010448,3.38178412 C184.734211,6.58540234 184.024835,12.8813272 194.182513,40.1550296 C204.34019,67.4287319 214.261862,61.9724809 239.836948,73.7142261 C265.412033,85.4559713 281.539958,112.607448 281.539958,112.607448 C281.539958,112.607448 259.526608,148.337486 233.211753,150.548812 C216.799394,151.927999 212.007303,144.088788 204.394702,142.938886 C199.801593,142.245086 193.658214,147.214263 184.800643,148.959892 C161.262566,153.59872 163.878501,167.927856 137.297391,168.925719 C110.716282,169.923582 124.093363,149.180863 91.1391657,146.255546 C58.1849682,143.330229 45.2462063,165.7403 45.2462063,165.7403 C45.2462063,165.7403 7.06687776,145.480836 2.49328357,119.1992 C-2.08031062,92.9175639 2.52659291,69.8233898 8.47169831,49.8654466 C14.4168037,29.9075035 26.3813891,0.231446629 26.3813891,0.231446629 L26.3813891,0.231446629 Z"></path>
        <linearGradient x1="100%" y1="35.5818379%" x2="44.6355278%" y2="0%" id="linearGradient-11">
            <stop stop-color="#FF6969" offset="0%"></stop>
            <stop stop-color="#D75151" offset="100%"></stop>
        </linearGradient>
    </defs>
    <g id="Page-1" stroke="none" stroke-width="1" fill="none" fill-rule="evenodd" sketch:type="MSPage">
        <g id="课程介绍-进阶课程" sketch:type="MSArtboardGroup" transform="translate(-609.000000, -190.000000)">
            <g id="Group" sketch:type="MSLayerGroup" transform="translate(609.000000, 189.000000)">
                <g transform="translate(0.000000, 191.540541)" sketch:type="MSShapeGroup">
                    <path d="M8.73948307,100.426956 C11.9632416,101.840824 15.114031,109.819798 22.7695701,111.906592 C30.4251092,113.993386 35.8721399,112.924779 39.8432693,109.580189 C45.9179258,113.998787 53.8416241,116.592194 62.457424,116.407307 C66.0148597,116.330859 69.4308229,115.781183 72.6331337,114.838881 C68.0618803,118.739795 64.7572804,123.721363 63.2864612,129.282107 C63.1569499,129.784834 63.0538358,130.212776 62.9639203,130.644872 C62.848845,131.239004 62.7746029,131.633707 62.7147967,132.03672 C62.6958237,132.161363 62.6838625,132.290161 62.6669518,132.414804 C62.6203442,132.75965 62.5737367,133.104496 62.5415651,133.449341 C62.5205298,133.669544 62.5118682,133.893902 62.4966073,134.114105 C62.4792842,134.375855 62.4561866,134.633451 62.4467001,134.899356 C62.428552,135.385464 62.424015,135.879882 62.4347389,136.374299 C62.7774901,152.619449 78.3963857,165.457688 97.3165817,165.05052 C103.630875,164.909258 109.51209,163.317981 114.537045,160.646464 C130.49333,175.665957 137.781021,177.980164 160.610478,177.485746 C176.675651,177.1409 191.166479,171.465485 201.833424,162.482872 C218.156382,174.35305 239.438303,181.320599 262.585764,180.817871 C282.749103,180.385775 301.257255,174.35305 316.147753,164.497936 C328.291292,173.659203 344.344092,179.060404 361.840488,178.686475 C362.401429,178.67401 362.96072,178.657391 363.517948,178.632463 C364.485983,178.582605 364.836158,178.565986 365.183859,178.545212 C366.224074,178.470427 366.531766,178.445498 366.838221,178.420569 C367.904833,178.320855 368.193553,178.295926 368.481447,178.262688 C369.557133,178.1422 369.835129,178.108962 370.111887,178.071569 C371.19046,177.926152 371.459794,177.888759 371.728303,177.851366 C372.808527,177.68102 373.070436,177.639473 373.331934,177.59377 C374.408857,177.402651 374.666642,177.352793 374.923603,177.302936 C375.993927,177.091043 376.24635,177.037031 376.497536,176.983019 C377.564148,176.750352 377.809972,176.692185 378.054971,176.634018 C379.117871,176.376423 379.356271,176.314101 379.595083,176.251779 C380.654271,175.97341 380.884834,175.906934 381.114984,175.844612 C382.896795,175.321111 383.179328,175.233861 383.459798,175.146611 C384.375039,174.847467 384.664996,174.756062 384.95289,174.656348 C386.61014,174.078835 387.731196,173.655048 388.836579,173.210488 C389.550541,172.919654 389.845859,172.795011 390.142416,172.666213 C390.952892,172.317213 391.233362,172.192569 391.513833,172.063772 C392.342458,171.685688 392.613029,171.55689 392.884425,171.428092 C393.715112,171.029234 393.979084,170.896281 394.243056,170.763329 C395.068794,170.343697 395.327816,170.206589 395.586839,170.065327 C395.773269,169.969768 395.960112,169.870053 396.145305,169.770339 C396.402265,169.629076 396.657575,169.487814 396.912061,169.346552 C397.095604,169.242683 397.278322,169.138814 397.460215,169.034944 C397.714289,168.889527 397.967537,168.744111 398.219135,168.598694 C398.397316,168.49067 398.57426,168.3868 398.751204,168.282931 C399.003215,168.129205 399.2544,167.975478 399.503524,167.821752 C399.676756,167.717882 399.848337,167.609858 400.020332,167.501834 C400.270693,167.343953 400.520229,167.186072 400.768115,167.024036 C400.933098,166.916012 401.097255,166.807988 401.261,166.699964 C401.511774,166.533773 401.76131,166.367582 402.009196,166.201391 C402.165517,166.093367 402.320188,165.985343 402.474859,165.881474 C402.727283,165.706974 402.979293,165.532473 403.228417,165.353818 C403.370714,165.254104 403.511362,165.150235 403.652835,165.046365 C403.911032,164.859401 404.16923,164.672436 404.424128,164.481317 C405.056836,164.003518 405.32782,163.79578 405.595916,163.588041 C407.227593,162.300063 408.568076,161.149191 409.850403,159.956772 C410.205115,159.624391 410.474449,159.366795 410.743371,159.105045 C411.22182,158.63971 411.466407,158.394579 411.710993,158.145293 C412.219552,157.625947 412.450528,157.38497 412.680266,157.139839 C413.195424,156.591409 413.415675,156.350432 413.635102,156.105301 C413.732854,155.997277 413.831019,155.889253 413.927534,155.781229 C414.143661,155.536097 414.356901,155.290966 414.568903,155.045835 C414.664181,154.933656 414.760283,154.821477 414.854736,154.709298 C415.065088,154.464167 415.272554,154.210726 415.478369,153.96144 C415.569522,153.849261 415.660263,153.737082 415.750591,153.624903 C415.956406,153.371462 416.16016,153.113867 416.361026,152.856271 C416.446404,152.748247 416.530958,152.636068 416.615099,152.528044 C416.817615,152.262139 417.018481,151.996234 417.21646,151.730328 C417.647477,151.144506 417.846694,150.866136 418.043023,150.587767 C418.442693,150.010254 418.643559,149.71942 418.840301,149.424431 C419.200375,148.880156 419.405778,148.564394 419.606645,148.244477 C421.602521,145.066078 423.976046,144.197463 425.234038,140.873647 C425.397371,140.441551 425.540905,140.046848 425.681141,139.643835 C425.851073,139.157727 425.980996,138.767179 426.106795,138.376631 C426.271778,137.857284 426.389741,137.470891 426.503578,137.080342 C426.657837,136.544377 426.765901,136.153829 426.869427,135.759126 C426.981615,135.322875 427.059982,135.023731 427.134224,134.720433 C428.47407,135.003123 427.134209,127.546067 428.702342,123.421549 C430.270476,119.297031 433.17184,113.956082 436.164053,111.906594 C440.445137,108.974306 451.000362,116.541784 460.801883,116.407306 C470.603404,116.272827 478.448187,113.180307 482.783089,105.802178 C487.117992,98.4240493 471.333604,74.2487917 471.333604,74.2487917 L13.7174615,92.2207301 L8.73948307,100.426956 Z" id="Fill-2" fill="#D4D4D4"></path>
                    <path d="M459.210164,42.9804208 C455.621794,43.0568686 452.157161,43.5504552 448.878133,44.4013521 C439.89071,29.7690839 421.808625,19.9833547 401.177561,20.4262532 C379.054641,20.9023898 360.365009,33.0031567 352.878926,49.7481253 C349.650631,48.9886334 346.239617,48.6147041 342.71724,48.6907364 C328.054006,49.004006 315.653919,56.9774247 310.602567,68.0386682 C309.304154,67.8367464 307.958722,67.7465879 306.586892,67.7748403 C295.618854,68.0120777 286.890866,75.8342627 287.092145,85.2502174 C287.291361,94.6645102 296.343952,102.106534 307.310341,101.872205 C310.968416,101.790356 314.376955,100.867581 317.291783,99.3224226 C323.871286,105.51303 333.431199,109.309243 343.992968,109.081146 C353.304581,108.88047 361.703429,105.591555 367.888212,100.384797 C377.34666,107.264265 389.682403,111.303117 403.099607,111.012698 C414.784494,110.76175 425.512483,107.264265 434.141069,101.552703 C441.181698,106.861252 450.486713,109.993949 460.629014,109.776654 C465.19078,109.678602 469.558693,108.907061 473.600765,107.579197 C473.600765,107.579197 498.782988,104.535343 498.782988,80.2058519 C498.782988,55.876361 473.600765,45.0145961 473.600765,45.0145961 C469.129738,43.5986505 464.275127,42.8715658 459.210164,42.9804208 Z" id="Fill-6" fill="#E9E9E9"></path>
                    <path d="M91.8593722,64.9085201 C86.0882835,55.5096 74.475576,49.2250952 61.2245921,49.5084505 C47.016297,49.8146571 35.0105187,57.5865694 30.202103,68.3411909 C28.12951,67.8530054 25.9377171,67.6145217 23.6758067,67.661886 C20.0845496,67.7395802 16.705295,68.5343877 13.7174615,69.8797021 C13.7174615,69.8797021 0.162056444,73.0852835 0.162056444,89.9913679 C0.162056444,106.897452 13.7174615,104.35432 13.7174615,104.35432 C16.9412201,105.768188 20.6120812,106.534327 24.4974197,106.450401 C30.4763864,106.320357 35.8721399,104.209318 39.8432693,100.865144 C45.9179258,105.283326 53.8416241,107.876734 62.457424,107.691846 C69.9657787,107.531057 76.8558614,105.283326 82.3976244,101.614665 C86.9177331,105.025315 92.8938126,107.038716 99.4056729,106.897454 C113.206874,106.598311 124.189348,96.7552458 123.938162,84.9079198 C123.686564,73.0614248 112.296995,63.6965738 98.4962067,63.9953017 C96.1926382,64.044328 93.9682613,64.3609215 91.8593722,64.9085201 Z" id="Fill-7" fill="#E6E6E6"></path>
                    <path d="M159.563368,25.8972256 C158.824659,25.8806065 158.101623,25.9296328 157.404159,26.0368258 C154.688547,20.0934277 148.02119,15.8052898 140.138325,15.6374371 C138.245151,15.5954739 136.410545,15.7969803 134.675754,16.2033167 C130.65018,7.2011771 120.600682,0.697300519 108.707504,0.439289317 C97.6153168,0.20246744 87.8945465,5.46406787 83.0630332,13.3319554 C81.29937,12.8736843 79.4354799,12.6081945 77.5068342,12.5670623 C65.9555827,12.3177761 56.4212426,20.1540873 56.2121273,30.0706918 C56.0017745,39.9893736 65.1950133,48.2295285 76.7462648,48.4775683 C82.1985248,48.5951482 87.1995576,46.9112201 90.9842567,44.0573087 C95.6235653,47.1268526 101.390529,49.0097943 107.675126,49.1435778 C114.888162,49.2989662 121.51881,47.1268526 126.604809,43.429523 C129.929207,46.2281759 134.444778,47.9960304 139.451173,48.1053009 C145.131521,48.2270356 150.26949,46.1862127 153.807952,42.8561648 C155.372812,43.6887806 157.207005,44.1869375 159.174834,44.2280697 C165.070484,44.3547902 169.934994,40.3545779 170.044295,35.2919909 C170.150709,30.228573 165.459018,26.0243615 159.563368,25.8972256" id="Fill-9" fill="#DADADA"></path>
                    <path d="M95.6914464,95.7682581 C98.060183,95.7188164 100.379837,95.8733738 102.6236,96.221128 C111.335502,77.1399324 132.732498,63.3826588 158.028444,62.8412923 C164.105575,62.7095861 169.992151,63.3531599 175.560312,64.6639898 C188.478443,35.7717209 220.725515,14.8985731 258.894222,14.0771751 C294.492089,13.311451 325.68451,30.1939425 341.188743,55.4399855 C346.853831,53.9729363 352.827436,53.1191311 359.01758,52.9895023 C396.087503,52.1909555 426.68805,77.3422697 427.360353,109.164482 C428.036782,140.993758 398.532544,167.438867 361.463858,168.236583 C343.967461,168.610513 327.914662,163.205157 315.771123,154.04389 C300.880625,163.899004 282.372473,169.935884 262.209134,170.363825 C239.061673,170.866553 217.779752,163.899004 201.456794,152.032981 C190.789849,161.015593 176.299021,166.686854 160.233848,167.0317 C142.007403,167.426403 125.513688,160.878486 114.160415,150.196573 C109.13546,152.86809 103.254245,154.455212 96.9399516,154.596474 C78.0197557,155.003642 62.40086,142.165403 62.0581088,125.920253 C61.7108206,109.675103 76.7712504,96.1762565 95.6914464,95.7682581" id="Fill-12" fill="#F4F4F4"></path>
                </g>
                <path d="M462.724391,344.25442 C460.012078,338.309776 453.343484,334.022884 445.461032,333.852123 C443.565795,333.813068 441.732014,334.013328 439.99846,334.420911 C435.971649,325.418772 425.923801,318.914064 414.028149,318.658546 C402.937198,318.4184 393.216428,323.68 388.383677,331.548303 C386.619602,331.089201 384.759011,330.824542 382.828716,330.78341 C371.278702,330.53454 361.742712,338.373344 361.532772,348.287455 C361.322419,358.203644 370.51607,366.445046 382.067321,366.693916 C387.519169,366.811081 392.521439,365.126322 396.304488,362.274072 C400.945034,365.344863 406.713648,367.224065 412.996595,367.359926 C420.207569,367.516561 426.840692,365.344863 431.925453,361.64504 C435.251088,364.444939 439.767485,366.212378 444.773467,366.321649 C450.452578,366.443799 455.592196,364.403807 459.130246,361.073759 C460.697168,361.904298 462.528062,362.401624 464.495478,362.444833 C470.390304,362.570723 475.260175,358.57051 475.365352,353.50917 C475.475065,348.448245 470.779663,344.239879 464.8836,344.114405 C464.146953,344.097785 463.424742,344.147227 462.724391,344.25442 Z" id="Fill-3-Copy" fill="#F6F6F6" sketch:type="MSShapeGroup"></path>
                <g transform="translate(98.405280, 0.571602)">
                    <rect id="Rectangle-7-Copy-7" fill="#FC8B51" sketch:type="MSShapeGroup" x="98.0688687" y="233.114097" width="19.2881644" height="47.6090396" rx="40"></rect>
                    <rect id="Rectangle-7-Copy-4" fill="#E2733B" sketch:type="MSShapeGroup" x="98.0688687" y="236.17727" width="4.82204111" height="36.5002637" rx="40"></rect>
                    <rect id="Rectangle-7-Copy-5" fill="#FC8B51" sketch:type="MSShapeGroup" x="197.081446" y="233.431491" width="19.2881644" height="47.6090396" rx="40"></rect>
                    <rect id="Rectangle-7-Copy-6" fill="#E2733B" sketch:type="MSShapeGroup" x="197.081446" y="233.431491" width="4.82204111" height="47.6090396" rx="40"></rect>
                    <g id="Path-5-+-Path-5-Copy-+-Path-5-+-Path-5-Copy-2-Mask-Copy" transform="translate(44.383478, 35.060493)">
                        <mask id="mask-2" sketch:name="Mask" fill="white">
                            <use xlink:href="#path-1"></use>
                        </mask>
                        <use id="Mask" fill="#F7A175" sketch:type="MSShapeGroup" xlink:href="#path-1"></use>
                        <mask id="mask-4" sketch:name="Mask Copy" fill="white">
                            <use xlink:href="#path-3"></use>
                        </mask>
                        <use id="Mask-Copy" fill="#F7A175" sketch:type="MSShapeGroup" xlink:href="#path-3"></use>
                        <mask id="mask-6" sketch:name="Mask Copy 2" fill="white">
                            <use xlink:href="#path-5"></use>
                        </mask>
                        <use id="Mask-Copy-2" fill="#FC8B51" sketch:type="MSShapeGroup" xlink:href="#path-5"></use>
                    </g>
                    <g id="Path-12-Copy" transform="translate(125.072299, 0.464590)">
                        <mask id="mask-8" sketch:name="Mask" fill="white">
                            <use xlink:href="#path-7"></use>
                        </mask>
                        <use id="Mask" fill="#E2733B" sketch:type="MSShapeGroup" xlink:href="#path-7"></use>
                    </g>
                    <path d="M131.625438,0.539450952 C131.625438,0.539450952 124.488853,10.0789721 127.974391,19.4359077 C129.727475,24.1420664 131.004382,28.2332184 135.521649,32.5090368 C140.038916,36.7848553 149.152907,38.3323645 156.789235,38.3323645 C164.425563,38.3323645 166.73645,37.5927212 167.9134,35.6423863 C169.09035,33.6920513 169.137837,28.6398393 164.425563,25.9803127 C159.713289,23.320786 157.790185,23.0161167 151.089663,23.0161167 C144.389142,23.0161167 141.401742,20.7386198 137.272617,17.1386075 C133.143493,13.5385953 131.625438,0.539450952 131.625438,0.539450952 Z" id="Path-9-Copy-4" fill="#FC8B51" sketch:type="MSShapeGroup"></path>
                    <g id="Path-9-Copy-3-+-Path-9-Copy-2-Copy-Copy" transform="translate(37.534412, 80.873783) scale(-1, 1) rotate(171.000000) translate(-37.534412, -80.873783) translate(6.877513, 38.762410)" sketch:type="MSShapeGroup">
                        <path d="M49.2390126,0.821963953 C47.8570128,0.553399331 47.1404664,11.6180482 47.7863809,12.3723076 C48.0601918,12.6920473 48.666744,11.8714753 50.0100457,12.5102784 C51.3533475,13.1490815 50.9748367,13.8862963 51.3659306,13.5656236 C55.2238193,10.4023949 52.1659865,1.39076404 49.2390126,0.821963953 Z" id="Path-9-Copy-3" fill="#E2733B"></path>
                        <path d="M53.0558748,13.2850122 C49.9585744,12.6829579 11.9171314,0.861956763 2.86075408,19.8323141 C-4.73151134,35.7358022 11.515941,78.140618 16.2378869,81.9246273 C26.8726425,90.4469644 33.6994959,69.6579095 26.0026728,68.2514353 C21.7580905,67.4758042 17.8346325,40.7867378 17.7136419,30.8818786 C17.5926513,20.9770193 35.7404535,38.6839625 44.5622992,37.8150434 C71.9196159,35.120449 58.7497462,14.3917888 53.0558748,13.2850122 Z" id="Path-9-Copy-2" fill="#FC8B51"></path>
                    </g>
                    <g id="Path-9-Copy-3-+-Path-9-Copy-2-Copy" transform="translate(280.003650, 80.440523) rotate(171.000000) translate(-280.003650, -80.440523) translate(249.346751, 38.767811)" sketch:type="MSShapeGroup">
                        <path d="M52.6995226,0.493616196 C51.3175228,0.225051573 50.6009764,11.2897004 51.2468909,12.0439599 C51.5207018,12.3636996 52.127254,11.5431275 53.4705557,12.1819306 C54.8138575,12.8207338 54.4353467,13.5579485 54.8264406,13.2372759 C58.6843293,10.0740472 55.6264965,1.06241629 52.6995226,0.493616196 Z" id="Path-9-Copy-3" fill="#E2733B"></path>
                        <path d="M53.0558748,12.4076919 C49.9585744,11.8056376 11.9171314,-0.0153634964 2.86075408,18.9549939 C-4.73151134,34.8584819 11.515941,77.2632978 16.2378869,81.047307 C26.8726425,89.5696442 33.6994959,68.7805892 26.0026728,67.374115 C21.7580905,66.5984839 17.8346325,39.9094176 17.7136419,30.0045583 C17.5926513,20.099699 35.7404535,37.8066422 44.5622992,36.9377231 C71.9196159,34.2431288 58.7497462,13.5144685 53.0558748,12.4076919 Z" id="Path-9-Copy-2" fill="#FC8B51"></path>
                    </g>
                    <path d="M98.9426774,268.163794 C100.241925,269.709746 100.965054,267.409366 106.525636,266.828851 C112.086218,266.248336 113.18455,269.435627 115.40616,268.799711 C117.62777,268.163794 117.595797,273.177064 115.406161,276.854174 C113.216524,280.531283 109.778511,281.134085 107.062371,281.134085 C104.346232,281.134085 100.486243,278.925239 99.7144603,276.854174 C98.9426775,274.783109 97.64343,266.617842 98.9426774,268.163794 Z" id="Path-17-Copy-4" fill="#E2733B" sketch:type="MSShapeGroup"></path>
                    <path d="M110.249458,277.176978 C102.892713,277.625374 94.568695,274.683447 94.568695,274.683447 C94.568695,274.683447 92.2824194,284.745341 92.2824193,288.636035 C92.2824193,292.52673 98.26469,293.668424 107.338253,293.668423 C116.411815,293.668423 121.979152,292.957027 123.415229,288.970471 C124.851305,284.983914 121.564219,273.10569 120.706489,273.10569 C120.350986,273.10569 115.456939,276.85958 110.249458,277.176978 Z" id="Path-18-Copy-4" fill="#7A0000" sketch:type="MSShapeGroup"></path>
                    <path d="M110.342843,273.317448 C103.211118,273.690335 95.1417041,271.243821 95.1417041,271.243821 C95.1417041,271.243821 92.9253582,279.611318 92.9253582,282.846829 C92.9253582,286.082341 98.7246506,287.031776 107.520682,287.031776 C116.316714,287.031776 121.713764,286.440177 123.105916,283.124947 C124.498068,279.809716 121.311523,269.931754 120.480028,269.931754 C120.135399,269.931754 115.391045,273.053499 110.342843,273.317448 Z" id="Path-18-Copy-5" fill="#B62A2A" sketch:type="MSShapeGroup"></path>
                    <path d="M98.1784263,266.951724 C98.1784263,268.190912 98.0436869,269.341598 99.3429344,270.887549 C100.642182,272.433501 101.365311,270.133121 106.925893,269.552606 C112.486475,268.972091 113.584807,272.159382 115.806417,271.523466 C118.028027,270.887549 117.42397,266.951724 117.42397,266.951724 C117.42397,266.951724 122.642038,269.553846 121.35725,274.390288 C120.072462,279.226729 117.996054,275.90082 115.806418,279.577929 C113.616781,283.255039 110.178768,283.85784 107.462628,283.85784 C104.746489,283.85784 100.8865,281.648994 100.114717,279.577929 C99.3429345,277.506864 96.4756494,279.474936 95.1142925,275.061475 C93.7529356,270.648015 98.1784263,265.712536 98.1784263,266.951724 Z" id="Path-17-Copy-5" fill="#4996A5" sketch:type="MSShapeGroup"></path>
                    <text id="SPORTS-Copy-2" sketch:type="MSTextLayer" font-family="San Francisco Display" font-size="3.166781" font-weight="normal" fill="#6B5150">
                        <tspan x="102.89091" y="277.375265">SPOR</tspan>
                        <tspan x="102.89091" y="281.375265">TS</tspan>
                    </text>
                    <path d="M198.276724,269.115975 C199.575972,270.661927 200.299101,268.361546 205.859683,267.781032 C211.420265,267.200517 212.518597,270.387808 214.740207,269.751891 C216.961817,269.115975 216.929844,274.129245 214.740207,277.806355 C212.550571,281.483464 209.112558,282.086266 206.396418,282.086266 C203.680279,282.086266 199.82029,279.87742 199.048507,277.806355 C198.276724,275.73529 196.977477,267.570023 198.276724,269.115975 Z" id="Path-17-Copy-6" fill="#E2733B" sketch:type="MSShapeGroup"></path>
                    <path d="M210.137946,277.176978 C202.781202,277.625374 194.457184,274.683447 194.457184,274.683447 C194.457184,274.683447 192.170908,284.745341 192.170908,288.636035 C192.170908,292.52673 198.153179,293.668424 207.226741,293.668423 C216.300304,293.668423 221.867641,292.957027 223.303717,288.970471 C224.739794,284.983914 221.452708,273.10569 220.594978,273.10569 C220.239475,273.10569 215.345428,276.85958 210.137946,277.176978 Z" id="Path-18-Copy-6" fill="#7A0000" sketch:type="MSShapeGroup"></path>
                    <path d="M210.231332,273.317448 C203.099606,273.690335 195.030193,271.243821 195.030193,271.243821 C195.030193,271.243821 192.813847,279.611318 192.813847,282.846829 C192.813847,286.082341 198.613139,287.031776 207.409171,287.031776 C216.205203,287.031776 221.602253,286.440177 222.994405,283.124947 C224.386557,279.809716 221.200012,269.931754 220.368517,269.931754 C220.023888,269.931754 215.279534,273.053499 210.231332,273.317448 Z" id="Path-18-Copy-7" fill="#B62B2B" sketch:type="MSShapeGroup"></path>
                    <path d="M197.64087,266.951724 C197.64087,268.190912 197.505512,269.341598 198.810722,270.887549 C200.115932,272.433501 200.84238,270.133121 206.42848,269.552606 C212.01458,268.972091 213.156557,272.222493 215.349758,270.88755 C217.54296,269.552606 214.856837,265.791392 216.704069,266.951724 C218.551301,268.112057 222.216749,269.553846 220.926065,274.390288 C219.635381,279.226729 217.549444,275.90082 215.349759,279.577929 C213.150074,283.255039 209.696283,283.85784 206.967678,283.85784 C204.239074,283.85784 200.361371,281.648994 199.586046,279.577929 C198.810722,277.506864 195.930278,279.474936 194.562674,275.061475 C193.195069,270.648015 197.64087,265.712536 197.64087,266.951724 Z" id="Path-17-Copy-7" fill="#4996A5" sketch:type="MSShapeGroup"></path>
                    <text id="SPORTS-Copy-3" opacity="0.561916978" sketch:type="MSTextLayer" font-family="San Francisco Display" font-size="3.166781" font-weight="normal" fill="#484646">
                        <tspan x="202.546426" y="277.375265">SPOR</tspan>
                        <tspan x="202.546426" y="281.375265">TS</tspan>
                    </text>
                    <path d="M105.558834,236.60274 C123.430575,244.582679 125.213864,251.376197 133.490559,253.748136 C139.191548,255.381928 141.832872,255.967293 151.317884,255.967289 C160.802895,255.967285 165.58755,255.455865 172.067029,252.971423 C185.002638,248.011491 181.977396,238.670629 198.967399,230.205995 C215.957402,221.741361 224.506801,225.521714 231.432524,221.741361 C238.358246,217.961008 251.446933,187.916506 251.446933,187.916506 L59.2986188,189.63689 C59.2986188,189.63689 64.8457304,215.642558 80.1532406,225.242734 C88.1374365,230.25006 87.6870916,228.622802 105.558834,236.60274 Z" id="Path-155" fill="#E2733B" sketch:type="MSShapeGroup"></path>
                    <path d="M115.019265,239.589961 C129.779247,246.125799 127.615263,246.447178 137.035065,254.540782 C139.753206,256.876241 147.964252,256.844614 157.449264,256.844609 C166.934275,256.844605 174.286982,256.870633 178.198409,253.848743 C189.244418,245.314819 186.390034,246.083788 203.380038,237.619153 C220.370041,229.154519 230.638181,226.399034 237.563904,222.618681 C244.489626,218.838328 257.578313,188.793826 257.578313,188.793826 L53.2085285,188.793826 C53.2085285,188.793826 64.7472449,215.895403 80.0547551,225.495579 C88.038951,230.502905 100.259284,233.054124 115.019265,239.589961 Z" id="Path-155-Copy" fill="#4996A5" sketch:type="MSShapeGroup"></path>
                    <path d="M79.9910694,77.2507718 C79.9910694,77.2507718 92.0712146,94.236024 156.735607,95.1952949 C221.399999,96.1545659 231.433453,80.8942864 231.157516,83.9381813 C230.881579,86.9820761 234.419206,90.0521095 244.787942,115.984776 C255.156678,141.917442 270.855084,135.817935 296.87442,147.014129 C322.893756,158.210322 320.137096,192.473089 320.137096,192.473089 C320.137096,192.473089 292.90386,219.731433 264.369719,211.389203 C235.835578,203.046972 258.398069,182.47277 234.474771,186.845632 C210.551473,191.218494 214.921097,221.851773 202.515616,225.347103 C190.110134,228.842432 174.499078,230.491984 160.210784,221.775085 C137.711688,208.048998 128.419568,196.559076 116.456213,198.900092 C101.899958,201.748493 95.6358143,220.149899 95.6358143,220.149899 C95.6358143,220.149899 62.8224637,196.239579 66.0207653,160.958689 C69.2190669,125.6778 62.6481198,148.520897 65.3662427,118.536922 C68.0843656,88.5529465 79.9910694,77.2507718 79.9910694,77.2507718 L79.9910694,77.2507718 Z" id="Path-153-Copy" fill="#9B2E2E" sketch:type="MSShapeGroup"></path>
                    <g id="Path-157-+-Path-157-Copy-Mask" transform="translate(53.302587, 64.939473)">
                        <mask id="mask-10" sketch:name="Mask" fill="white">
                            <use xlink:href="#path-9"></use>
                        </mask>
                        <use id="Mask" fill="#DB4E4E" sketch:type="MSShapeGroup" xlink:href="#path-9"></use>
                        <path d="M109.797746,149.013209 C109.797746,149.013209 101.910391,130.496761 73.476871,122.633498 C45.0433516,114.770236 5.47474059,125.107484 5.47474059,125.107484 L-10.24489,149.143595 L26.2612358,172.175066 L73.7355548,157.174019 L109.797746,149.013209 Z" id="Path-157" fill="url(#linearGradient-11)" sketch:type="MSShapeGroup" mask="url(#mask-10)"></path>
                        <path d="M203.419265,139.463511 C203.419265,139.463511 190.892746,128.501711 163.059908,132.76875 C135.22707,137.03579 127.77396,149.978607 127.77396,149.978607 L127.77396,155.876914 L135.416739,168.174624 L173.103907,159.616645 L203.419265,139.463511 Z" id="Path-157-Copy" fill="url(#linearGradient-11)" sketch:type="MSShapeGroup" mask="url(#mask-10)"></path>
                    </g>
                    <g id="Oval-2-Copy-3-+-Group-Copy-3" transform="translate(146.081820, 110.435126)" sketch:type="MSShapeGroup">
                        <g id="Oval-2-Copy-3" stroke="#C97D7D" stroke-width="3" fill="#54AABB">
                            <ellipse cx="14.5731134" cy="14.5296339" rx="14.4661233" ry="14.2827119"></ellipse>
                        </g>
                        <g id="Group-Copy-3" transform="translate(2.035807, 11.355698)">
                            <g id="Oval-1" transform="translate(19.502477, 0.000000)" fill="#FF7C44">
                                <path d="M2.7860682,5.55438795 C4.32477117,5.55438795 5.57213639,4.31099585 5.57213639,2.77719397 C5.57213639,1.2433921 4.32477117,0 2.7860682,0 C1.24736522,0 0,1.2433921 0,2.77719397 C0,4.31099585 1.24736522,5.55438795 2.7860682,5.55438795 Z M2.7860682,3.88807156 C3.40154939,3.88807156 3.90049547,3.39071473 3.90049547,2.77719397 C3.90049547,2.16367322 3.40154939,1.66631638 2.7860682,1.66631638 C2.17058701,1.66631638 1.67164092,2.16367322 1.67164092,2.77719397 C1.67164092,3.39071473 2.17058701,3.88807156 2.7860682,3.88807156 Z"></path>
                                <path d="M0,2.77719397 L1.67164092,2.77719397 L1.67364749,5.29128474 L0.00200656767,6.13932087 L0,2.77719397 Z" id="Rectangle-1"></path>
                            </g>
                            <path d="M2.23908203,0.0205956712 L3.36079245,0.0211870198 L5.57996194,6.11732219 C5.57996194,6.11732219 4.6022407,6.11157912 4.11338008,6.10870758 C4.08567994,6.10854487 4.06115538,6.10840082 4.03569157,6.10825124 C3.96821166,6.10785487 3.89413568,6.10741975 3.89413568,6.10741975 L2.79701929,2.78539809 L1.68127903,6.12027936 L0.0141646094,6.12082278 L2.23908203,0.0205956712 Z" id="Path-1" fill="#FFFFFF"></path>
                            <rect id="Rectangle-2" fill="#FFFFFF" x="1.67164092" y="3.88807156" width="2.22885456" height="1.11087759"></rect>
                            <g id="Path-2" transform="translate(6.686564, 0.000000)" fill="#FFFFFF">
                                <path d="M0.0352968947,0.00225263501 L0.0225225704,6.10940811 L1.65541064,6.11227095 L1.67963606,2.79638504 L3.92745608,6.11227095 L5.58394136,6.11310139 L5.56928667,1.69735634 C5.56742292,1.13576967 5.5636954,0.0125963365 5.5636954,0.0125963365 L3.91395581,0.0203024458 L3.91485085,3.32178739 L1.68791129,0.0182464742 L0.0352968947,0.00225263501 Z"></path>
                            </g>
                            <g id="Rectangle-3-+-Rectangle-4" transform="translate(13.373127, 0.000000)" fill="#FFFFFF">
                                <rect id="Rectangle-3" x="0" y="0" width="5.01492275" height="1.66631638"></rect>
                                <rect id="Rectangle-4" x="1.67164092" y="1.11087759" width="1.67164092" height="4.99894915"></rect>
                            </g>
                        </g>
                    </g>
                    <ellipse id="Oval-39" stroke="#979797" fill="#D8D8D8" sketch:type="MSShapeGroup" cx="87.750565" cy="82.6338239" rx="2.18977856" ry="2.19330065"></ellipse>
                    <ellipse id="Oval-39-Copy" stroke="#979797" fill="#D8D8D8" sketch:type="MSShapeGroup" cx="129.205135" cy="93.8631835" rx="2.18977856" ry="2.19330065"></ellipse>
                    <ellipse id="Oval-39-Copy-2" stroke="#979797" fill="#D8D8D8" sketch:type="MSShapeGroup" cx="178.052587" cy="93.8631835" rx="2.18977856" ry="2.19330065"></ellipse>
                    <ellipse id="Oval-39-Copy-3" stroke="#979797" fill="#D8D8D8" sketch:type="MSShapeGroup" cx="224.086254" cy="83.3353404" rx="2.18977856" ry="2.19330065"></ellipse>
                    <path d="M338.033563,222.804434 C338.033563,223.280592 337.861515,223.66603 337.647504,223.66603 L318.250365,223.66603 C318.038219,223.66603 317.865238,223.280592 317.865238,222.804434 C317.865238,222.328746 318.038219,221.941898 318.250365,221.941898 L337.647504,221.941898 C337.861515,221.941898 338.033563,222.328746 338.033563,222.804434" id="Fill-124" fill="#F2F2F1" sketch:type="MSShapeGroup"></path>
                </g>
                <g id="Rectangle-59-+-Rectangle-59-Copy-+-Rectangle-59-Copy-2-Copy-Copy" transform="translate(369.213509, 79.485447) rotate(5.000000) translate(-369.213509, -79.485447) translate(361.077640, 76.771310)" fill="#FC8B51" sketch:type="MSShapeGroup">
                    <rect id="Rectangle-59" x="1.54968944" y="-7.01244618e-14" width="1.54968944" height="5.42827443" rx="40"></rect>
                    <rect id="Rectangle-59-Copy" x="7.7484472" y="8.67361738e-19" width="1.54968944" height="3.45435645" rx="40"></rect>
                    <rect id="Rectangle-59-Copy-2" x="13.947205" y="-1.40235046e-14" width="1.54968944" height="4.44131544" rx="40"></rect>
                </g>
            </g>
        </g>
    </g>
</svg>