<?xml version="1.0" encoding="UTF-8" standalone="no"?>
<svg width="475px" height="379px" viewBox="0 0 475 379" version="1.1" xmlns="http://www.w3.org/2000/svg" xmlns:xlink="http://www.w3.org/1999/xlink" xmlns:sketch="http://www.bohemiancoding.com/sketch/ns">
    <!-- Generator: Sketch 3.3.3 (12081) - http://www.bohemiancoding.com/sketch -->
    <title>Group Copy 2</title>
    <desc>Created with Sketch.</desc>
    <defs>
        <path id="path-1" d="M130.596712,257.261202 C202.723285,257.261202 261.193425,199.67132 261.193425,128.630601 C261.193425,57.5898816 202.723285,0 130.596712,0 C58.4701397,0 0,57.5898816 0,128.630601 C0,199.67132 58.4701397,257.261202 130.596712,257.261202 Z"></path>
        <path id="path-3" d="M130.596712,257.261202 C202.723285,257.261202 261.193425,199.67132 261.193425,128.630601 C261.193425,57.5898816 202.723285,0 130.596712,0 C58.4701397,0 0,57.5898816 0,128.630601 C0,199.67132 58.4701397,257.261202 130.596712,257.261202 Z"></path>
        <path id="path-5" d="M130.596712,257.261202 C202.723285,257.261202 261.193425,199.67132 261.193425,128.630601 C261.193425,57.5898816 202.723285,0 130.596712,0 C58.4701397,0 0,57.5898816 0,128.630601 C0,199.67132 58.4701397,257.261202 130.596712,257.261202 Z"></path>
        <path id="path-7" d="M33.4491054,26.8740531 C5.59530053,26.8740531 9.07847774,1.70107025 7.21250926,0.332726898 C5.34654077,-1.03561646 -14.62382,33.3553835 23.7557637,46.7599978 C53.1241246,57.0173146 61.3029103,26.8740531 33.4491054,26.8740531 Z"></path>
        <path id="path-9" d="M10.8864443,2.68666995 C14.9880031,-0.125562761 17.7865987,0.000860401819 19.2341259,0.000860287099 C20.6816531,0.000860172379 19.2341255,0.658728814 19.2341258,1.94086492 C19.2341261,3.22300102 26.8691929,3.24835472 26.8691931,10.0392938 C26.8691933,16.8302328 22.5459969,19.9372466 19.9552013,19.9372466 C17.3644057,19.9372466 28.9152756,22.3597377 30.7537575,19.937246 C32.5922393,17.5147543 34.7483092,16.8288943 36.3694244,18.3830702 C37.9905396,19.937246 38.5840631,30.8671724 34.7990661,36.142475 C31.0140692,41.4177776 2.94127868,43.9143522 0.740302099,32.604131 C-1.46067448,21.2939098 12.0906021,19.9372451 12.0906022,19.9372458 C12.0906023,19.9372466 8.13946055,19.2017639 6.70569776,17.5147527 C5.27193496,15.8277415 3.56828053,18.4583318 2.63247672,17.5147535 C1.69667291,16.5711752 2.97867057,13.114927 5.36058793,13.1149267 C7.74250528,13.1149265 2.54812382,13.3726141 1.34603007,12.0200861 C0.143936312,10.6675581 -0.659162808,8.5376803 0.740302093,7.55452099 C2.13976699,6.57136169 4.85812123,9.33071048 6.28091054,7.55452098 C7.70369985,5.77833148 6.78488546,5.49890267 10.8864443,2.68666995 Z"></path>
        <path id="path-11" d="M7.16213439,1.76927046 C9.86052835,-0.0826876722 11.7017097,0.000566606076 12.6540302,0.000566530529 C13.6063507,0.000566454981 12.6540299,0.433797024 12.6540301,1.27813055 C12.6540303,2.12246408 17.6771006,2.13916043 17.6771007,6.61124224 C17.6771009,11.0833241 14.8328927,13.1294063 13.1284219,13.1294063 C11.4239511,13.1294063 19.0232076,14.7247053 20.2327352,13.1294059 C21.4422627,11.5341065 22.8607297,11.0824426 23.9272529,12.1059243 C24.9937761,13.1294059 25.3842521,20.3271623 22.8941225,23.8011421 C20.4039929,27.2751218 1.93505176,28.9192075 0.487040854,21.4710131 C-0.960970054,14.0228186 7.95434351,13.1294053 7.95434355,13.1294058 C7.95434359,13.1294063 5.35490826,12.645064 4.41164326,11.5341054 C3.46837826,10.4231469 2.34755298,12.1554868 1.73189258,11.534106 C1.11623218,10.9127251 1.95965169,8.63665927 3.52670258,8.63665908 C5.09375347,8.63665888 1.67639725,8.80635564 0.885546096,7.91566648 C0.0946949419,7.02497731 -0.433659742,5.62237483 0.487040851,4.97492846 C1.40774144,4.32748209 3.19613239,6.14461422 4.13217799,4.97492845 C5.06822358,3.80524268 4.46374043,3.62122859 7.16213439,1.76927046 Z"></path>
        <path id="path-13" d="M6.30267827,1.556958 C8.67726495,-0.0727651515 10.2975045,0.000498613347 11.1355466,0.000498546865 C11.9735886,0.000498480384 11.1355463,0.381741381 11.1355465,1.12475489 C11.1355467,1.86776839 15.5558485,1.88246117 15.5558486,5.81789317 C15.5558488,9.75332517 13.0529455,11.5538775 11.5530113,11.5538775 C10.053077,11.5538775 16.7404227,12.9577407 17.804807,11.5538772 C18.8691912,10.1500137 20.1174421,9.75254948 21.0559825,10.6532133 C21.9945229,11.5538772 22.3381418,17.8879028 20.1468278,20.945005 C17.9555137,24.0021072 1.70284555,25.4489026 0.428595952,18.8944915 C-0.845653648,12.3400804 6.99982229,11.5538767 6.99982233,11.5538771 C6.99982236,11.5538775 4.71231927,11.1276563 3.88224607,10.1500128 C3.05217287,9.17236923 2.06584663,10.6968284 1.52406547,10.1500132 C0.982284318,9.60319812 1.72449349,7.60026016 3.10349827,7.60025999 C4.48250306,7.60025982 1.47522958,7.74959296 0.779280564,6.9657865 C0.0833315489,6.18198004 -0.381620573,4.94768985 0.428595949,4.37793704 C1.23881247,3.80818424 2.8125965,5.40726051 3.63631663,4.37793704 C4.46003675,3.34861356 3.92809158,3.18668116 6.30267827,1.556958 Z"></path>
    </defs>
    <g id="Page-1" stroke="none" stroke-width="1" fill="none" fill-rule="evenodd" sketch:type="MSPage">
        <g id="课程介绍-基础课程--" sketch:type="MSArtboardGroup" transform="translate(-677.000000, -186.000000)">
            <g id="Group-Copy-2" sketch:type="MSLayerGroup" transform="translate(667.000000, 186.000000)">
                <g id="Group">
                    <g transform="translate(0.158986, 0.000000)">
                        <rect id="Rectangle-7" fill="#FC8B51" sketch:type="MSShapeGroup" x="106.663634" y="270.437687" width="22.4200364" height="55.2062664" rx="40"></rect>
                        <rect id="Rectangle-7-Copy-2" fill="#E2733B" sketch:type="MSShapeGroup" x="106.663634" y="281.110899" width="5.60500911" height="42.3248043" rx="40"></rect>
                        <rect id="Rectangle-7-Copy" fill="#FC8B51" sketch:type="MSShapeGroup" x="221.753154" y="270.805729" width="22.4200364" height="55.2062664" rx="40"></rect>
                        <rect id="Rectangle-7-Copy-3" fill="#E2733B" sketch:type="MSShapeGroup" x="221.753154" y="270.805729" width="5.60500911" height="55.2062664" rx="40"></rect>
                        <path d="M100.624703,335.707758 L48.1825503,378.321506 L125.777599,378.321506 L136.06661,334.476956 L100.624703,335.707758 Z" id="Path-25" fill="#E0E3E6" sketch:type="MSShapeGroup"></path>
                        <path d="M290.860102,378.058503 L212.0393,376.704233 L213.824121,334.672428 L253.922269,334.512086 L290.860102,378.058503 L290.860102,378.058503 Z" id="Path-25-Copy" fill="#E1E3E6" sketch:type="MSShapeGroup"></path>
                        <path d="M340.298384,378.108242 L333.915433,340.452725 L359.813006,340.309078 L386.125146,378.108242 L340.298384,378.108242 Z" id="Path-25-Copy-2" fill="#E1E3E6" sketch:type="MSShapeGroup"></path>
                        <path d="M416.298743,378.46552 L407.524218,349.41988 L424.632683,349.309078 L446.858023,378.46552 L416.298743,378.46552 Z" id="Path-25-Copy-3" fill="#E1E3E6" sketch:type="MSShapeGroup"></path>
                        <path d="M457.406095,378.108243 L435.841369,340.607213 L448.896571,340.607214 L484.462001,378.108243 L457.406095,378.108243 Z" id="Path-25-Copy-4" fill="#E1E3E6" sketch:type="MSShapeGroup"></path>
                        <g id="Path-5-+-Path-5-Copy-+-Path-5-+-Path-5-Copy-2-Mask" transform="translate(44.261199, 40.779619)">
                            <mask id="mask-2" sketch:name="Mask" fill="white">
                                <use xlink:href="#path-1"></use>
                            </mask>
                            <use id="Mask" fill="#F7A175" sketch:type="MSShapeGroup" xlink:href="#path-1"></use>
                            <mask id="mask-4" sketch:name="Mask Copy" fill="white">
                                <use xlink:href="#path-3"></use>
                            </mask>
                            <use id="Mask-Copy" fill="#F7A175" sketch:type="MSShapeGroup" xlink:href="#path-3"></use>
                            <mask id="mask-6" sketch:name="Mask Copy 2" fill="white">
                                <use xlink:href="#path-5"></use>
                            </mask>
                            <use id="Mask-Copy-2" fill="#FC8B51" sketch:type="MSShapeGroup" xlink:href="#path-5"></use>
                            <g id="Path-5-+-Path-5-Copy" mask="url(#mask-6)" sketch:type="MSShapeGroup">
                                <g transform="translate(131.826535, 42.744910) rotate(-6.000000) translate(-131.826535, -42.744910) translate(42.230606, 2.560813)">
                                    <path d="M0.0788859478,15.9098465 C0.0788859478,15.9098465 4.59589592,48.8786937 1.44648389,57.0045789 C-1.70292813,65.1304641 29.269143,60.7623799 29.269143,60.7623799 C29.269143,60.7623799 34.739535,11.2973103 23.4375958,2.30825889 C12.1356566,-6.68079254 0.0788859478,15.9098465 0.0788859478,15.9098465 Z" id="Path-5-Copy-3" fill="#DC7743"></path>
                                    <path d="M3.05184823,16.2176133 C3.05184823,16.2176133 7.56885821,49.1864604 4.41944618,57.3123456 C1.27003416,65.4382308 32.2421053,61.0701467 32.2421053,61.0701467 C32.2421053,61.0701467 37.7124973,11.6050771 26.4105581,2.61602562 C15.1086189,-6.37302581 3.05184823,16.2176133 3.05184823,16.2176133 Z" id="Path-5" fill="#7A7A7A"></path>
                                    <path d="M171.08252,76.8287733 C172.322386,85.3021568 148.170865,75.3057354 148.170865,75.3057354 C148.170865,75.3057354 151.613203,26.2716939 162.101533,19.6461993 C172.589863,13.0207046 178.684669,37.1909374 178.684669,37.1909374 C178.684669,37.1909374 169.842654,68.3553898 171.08252,76.8287733 Z" id="Path-5-Copy-2" fill="#DC7743"></path>
                                    <path d="M7.76763841,10.3875418 C7.76763841,10.3875418 12.7515709,36.4444218 10.0435362,54.6415412 C7.33550151,72.8386606 25.4923195,63.5378068 28.1365131,53.6752649 C30.7807067,43.812723 31.0600404,13.8624434 21.8109409,3.77546685 C12.5618414,-6.31150974 7.76763841,10.3875418 7.76763841,10.3875418 L7.76763841,10.3875418 Z" id="Path-5-Copy" fill="#989898"></path>
                                </g>
                            </g>
                            <g id="Path-5-+-Path-5-Copy-2" mask="url(#mask-6)" sketch:type="MSShapeGroup">
                                <g transform="translate(201.032993, 45.453159) rotate(192.000000) translate(-201.032993, -45.453159) translate(185.712635, 12.513420)">
                                    <path d="M0.0625100404,16.2176133 C0.0625100404,16.2176133 4.57952001,49.1864604 1.43010799,57.3123456 C-1.71930404,65.4382308 29.2527671,61.0701467 29.2527671,61.0701467 C29.2527671,61.0701467 34.7231591,11.6050771 23.4212199,2.61602562 C12.1192807,-6.37302581 0.0625100404,16.2176133 0.0625100404,16.2176133 Z" id="Path-5" fill="#7A7A7A"></path>
                                    <path d="M4.77830021,10.3875418 C4.77830021,10.3875418 9.76223273,36.4444218 7.05419802,54.6415412 C4.34616332,72.8386606 22.5029813,63.5378068 25.1471749,53.6752649 C27.7913685,43.812723 28.0707022,13.8624434 18.8216027,3.77546685 C9.57250325,-6.31150974 4.77830021,10.3875418 4.77830021,10.3875418 L4.77830021,10.3875418 Z" id="Path-5-Copy" fill="#989898"></path>
                                </g>
                            </g>
                            <g id="Path-5-+-Path-5-Copy-3" mask="url(#mask-6)" sketch:type="MSShapeGroup">
                                <g transform="translate(200.502098, 45.734552) rotate(192.000000) translate(-200.502098, -45.734552) translate(184.720996, 13.180347)">
                                    <path d="M0.0625100404,16.2176133 C0.0625100404,16.2176133 4.57952001,49.1864604 1.43010799,57.3123456 C-1.71930404,65.4382308 29.2527671,61.0701467 29.2527671,61.0701467 C29.2527671,61.0701467 34.7231591,11.6050771 23.4212199,2.61602562 C12.1192807,-6.37302581 0.0625100404,16.2176133 0.0625100404,16.2176133 Z" id="Path-5" fill="#7A7A7A"></path>
                                    <path d="M4.77830021,10.3875418 C4.77830021,10.3875418 9.76223273,36.4444218 7.05419802,54.6415412 C4.34616332,72.8386606 22.5029813,63.5378068 25.1471749,53.6752649 C27.7913685,43.812723 28.0707022,13.8624434 18.8216027,3.77546685 C9.57250325,-6.31150974 4.77830021,10.3875418 4.77830021,10.3875418 L4.77830021,10.3875418 Z" id="Path-5-Copy" fill="#989898"></path>
                                </g>
                            </g>
                        </g>
                        <g id="Path-12" transform="translate(138.051685, 0.663065)">
                            <mask id="mask-8" sketch:name="Mask" fill="white">
                                <use xlink:href="#path-7"></use>
                            </mask>
                            <use id="Mask" fill="#E2733B" sketch:type="MSShapeGroup" xlink:href="#path-7"></use>
                        </g>
                        <path d="M145.668875,0.749871668 C145.668875,0.749871668 137.373503,11.8116648 141.424997,22.6617362 C143.462734,28.1188816 144.946977,32.8628804 150.197725,37.8210138 C155.448473,42.7791473 166.042327,44.5736008 174.918587,44.5736008 C183.794846,44.5736008 186.480959,43.7159287 187.849013,41.4543685 C189.217068,39.1928083 189.272265,33.334388 183.794846,30.2504666 C178.317428,27.1665451 176.082063,26.8132582 168.29356,26.8132582 C160.505057,26.8132582 157.032584,24.172329 152.233003,19.9978437 C147.433421,15.8233583 145.668875,0.749871668 145.668875,0.749871668 Z" id="Path-9" fill="#FC8B51" sketch:type="MSShapeGroup"></path>
                        <rect id="Rectangle-1" fill="#9A9A9A" sketch:type="MSShapeGroup" x="62.5708956" y="104.450846" width="224.574032" height="178.868303" rx="40"></rect>
                        <rect id="Rectangle-11" fill="#D1BC6D" sketch:type="MSShapeGroup" x="113.389645" y="181.003536" width="22.4200364" height="39.0124283" rx="40"></rect>
                        <rect id="Rectangle-11-Copy" fill="#D1BC6D" sketch:type="MSShapeGroup" x="210.543136" y="181.003536" width="22.4200364" height="39.0124283" rx="40"></rect>
                        <rect id="Rectangle-1-Copy" fill="#616161" sketch:type="MSShapeGroup" x="62.5708956" y="104.082804" width="224.574032" height="89.4341516" rx="40"></rect>
                        <path d="M96.1940396,192.693543 C103.016926,193.794241 245.189415,194.705926 254.859718,192.693543 C264.53002,190.68116 265.926064,186.156121 263.931174,186.156121 C261.936284,186.156121 89.1872481,186.15612 89.1872481,186.15612 C87.052768,186.15612 86.4505015,187.471745 88.0062397,188.910805 C88.0062397,188.910805 89.1395833,191.555488 96.1940396,192.693543 Z" id="Rectangle-1-Copy-2" opacity="0.707672575" fill="#D0BC6D" sketch:type="MSShapeGroup"></path>
                        <path d="M88.0272591,274.306305 C98.3284344,274.306305 250.716896,274.306305 259.778765,274.306305 C268.840635,274.306305 262.592419,279.834548 262.592419,279.834548 C261.038481,281.75904 257.7605,283.319149 255.273111,283.319149 L92.532913,283.319149 C90.0445091,283.319149 86.5786563,281.910892 84.960754,280.014276 C84.960754,280.014276 77.7260837,274.306305 88.0272591,274.306305 Z" id="Rectangle-1-Copy-3" fill="#D0BC6D" sketch:type="MSShapeGroup"></path>
                        <ellipse id="Oval-2" fill="#404040" sketch:type="MSShapeGroup" cx="174.671078" cy="164.441656" rx="16.8150273" ry="16.5618799"></ellipse>
                        <ellipse id="Oval-2-Copy" fill="#404040" sketch:type="MSShapeGroup" cx="221.753154" cy="210.814919" rx="5.23134184" ry="5.15258487"></ellipse>
                        <ellipse id="Oval-2-Copy-2" fill="#404040" sketch:type="MSShapeGroup" cx="124.599663" cy="210.814919" rx="5.23134184" ry="5.15258487"></ellipse>
                        <g transform="translate(160.098054, 160.761238)" sketch:type="MSShapeGroup">
                            <g id="Oval-1" transform="translate(22.669148, 0.000000)" fill="#FF7C44">
                                <path d="M3.23844971,6.44073108 C5.0269961,6.44073108 6.47689942,4.99892432 6.47689942,3.22036554 C6.47689942,1.44180676 5.0269961,0 3.23844971,0 C1.44990332,0 0,1.44180676 0,3.22036554 C0,4.99892432 1.44990332,6.44073108 3.23844971,6.44073108 Z M3.23844971,4.50851176 C3.95386826,4.50851176 4.53382959,3.93178905 4.53382959,3.22036554 C4.53382959,2.50894203 3.95386826,1.93221933 3.23844971,1.93221933 C2.52303115,1.93221933 1.94306983,2.50894203 1.94306983,3.22036554 C1.94306983,3.93178905 2.52303115,4.50851176 3.23844971,4.50851176 Z"></path>
                                <path d="M0,3.22036554 L1.94306983,3.22036554 L1.94540221,6.1356431 L0.00233237955,7.11900485 L0,3.22036554 Z" id="Rectangle-1"></path>
                            </g>
                            <path d="M2.6026479,0.0238822316 L3.90649352,0.0245679449 L6.48599563,7.09349572 L4.78128086,7.08350644 C4.74908297,7.08331776 4.72057629,7.08315072 4.69097785,7.08297728 C4.61254104,7.08251766 4.52643714,7.0820131 4.52643714,7.0820131 L3.25117897,3.22987883 L1.95427291,7.09692478 L0.0164645558,7.09755493 L2.6026479,0.0238822316 Z" id="Path-1" fill="#FFFFFF"></path>
                            <rect id="Rectangle-2" fill="#FFFFFF" x="1.94306983" y="4.50851176" width="2.59075977" height="1.28814622"></rect>
                            <g id="Path-2" transform="translate(7.772279, 0.000000)" fill="#FFFFFF">
                                <path d="M0.041028148,0.00261209992 L0.0261796217,7.08431876 L1.92420419,7.08763844 L1.95236317,3.24261903 L4.56516787,7.08763844 L6.49062119,7.08860139 C6.49062119,7.08860139 6.47926505,3.67500879 6.47358698,1.96821249 C6.4714206,1.31701046 6.46708784,0.0146064007 6.46708784,0.0146064007 L4.54947552,0.0235422147 L4.55051589,3.85186262 L1.96198206,0.0211581608 L0.041028148,0.00261209992 Z"></path>
                            </g>
                            <g id="Rectangle-3-+-Rectangle-4" transform="translate(15.544559, 0.000000)" fill="#FFFFFF">
                                <rect id="Rectangle-3" x="0" y="0" width="5.82920948" height="1.93221933"></rect>
                                <rect id="Rectangle-4" x="1.94306983" y="1.28814622" width="1.94306983" height="5.79665798"></rect>
                            </g>
                        </g>
                        <path d="M297.771813,164.011844 C297.577685,168.164471 299.058181,170.363777 299.058181,172.645165 C299.058181,174.926553 298.948524,179.116474 299.058181,179.845257 C299.269022,181.246509 304.886103,177.374101 306.319612,166.444553 C306.879024,162.179408 303.842274,151.20427 303.842274,151.20427 C303.842274,151.20427 298.514483,148.125276 297.771813,164.011844 Z" id="Path-9" fill="#E2733B" sketch:type="MSShapeGroup" transform="translate(302.071328, 165.542231) scale(-1, 1) translate(-302.071328, -165.542231) "></path>
                        <path d="M344.48315,136.639274 C344.48315,136.639274 304.11657,203.472337 298.17108,225.935969 C292.225591,248.3996 309.871894,237.826236 311.651838,226.743241 C313.431782,215.660245 326.203446,182.074554 339.083946,169.697224 C351.964446,157.319893 346.862145,137.673322 346.862145,137.673322 L344.48315,136.639274 L344.48315,136.639274 Z" id="Path-9-Copy" fill="#FC8B51" sketch:type="MSShapeGroup" transform="translate(322.405755, 187.907016) scale(-1, 1) translate(-322.405755, -187.907016) "></path>
                        <g id="Path-9-Copy-3-+-Path-9-Copy-2" transform="translate(34.817697, 104.972770) scale(-1, 1) rotate(171.000000) translate(-34.817697, -104.972770) translate(9.364308, 46.476932)" sketch:type="MSShapeGroup">
                            <path d="M44.937828,0.889354019 C43.3314292,0.577181639 42.6409225,12.7059087 43.7984461,14.3149653 C44.9559698,15.9240219 46.1439311,16.7099585 47.4165601,15.6689994 C51.8988144,12.0026968 48.3400625,1.55051213 44.937828,0.889354019 Z" id="Path-9-Copy-3" fill="#E2733B"></path>
                            <path d="M43.3228066,14.3955805 C36.7044057,13.1090936 0.942848952,82.9827917 0.222724925,103.376421 C-0.497399102,123.770051 18.3101888,116.263549 16.831772,106.604891 C15.3533552,96.9462335 29.0689592,56.5981928 42.2502113,47.5806098 C55.4314634,38.5630267 49.9412075,15.6820675 43.3228066,14.3955805 Z" id="Path-9-Copy-2" fill="#FC8B51"></path>
                        </g>
                        <path d="M107.679325,311.08045 C109.189535,312.873098 110.030081,310.205634 116.49355,309.532483 C122.957018,308.859332 124.23369,312.555236 126.816029,311.817843 C129.398367,311.08045 129.361203,316.893715 126.816029,321.1576 C124.270856,325.421485 120.274603,326.120479 117.117436,326.120479 C113.96027,326.120479 109.473524,323.559156 108.576425,321.1576 C107.679326,318.756044 106.169116,309.287803 107.679325,311.08045 Z" id="Path-17-Copy-2" fill="#E2733B" sketch:type="MSShapeGroup"></path>
                        <path d="M120.822018,321.531916 C112.270739,322.051865 102.595128,318.640479 102.595128,318.640479 C102.595128,318.640479 99.9376231,330.308002 99.937623,334.819555 C99.937623,339.331108 106.891251,340.654989 117.438113,340.654988 C127.984975,340.654988 134.456295,339.830071 136.125552,335.207358 C137.794808,330.584646 133.973989,316.810951 132.976987,316.810951 C132.56376,316.810951 126.875053,321.163869 120.822018,321.531916 Z" id="Path-18-Copy" fill="#B4B2B2" sketch:type="MSShapeGroup"></path>
                        <path d="M120.930567,317.0565 C112.640844,317.488891 103.261178,314.651973 103.261178,314.651973 C103.261178,314.651973 100.684958,324.354716 100.684958,328.106535 C100.684958,331.858354 107.425897,332.959296 117.650164,332.959296 C127.874432,332.959296 134.147816,332.273293 135.766015,328.429033 C137.384214,324.584774 133.680261,313.130533 132.713754,313.130533 C132.313167,313.130533 126.798459,316.750431 120.930567,317.0565 Z" id="Path-18" fill="#D8D8D8" sketch:type="MSShapeGroup"></path>
                        <path d="M106.790981,309.674964 C106.790981,311.111896 106.634363,312.446202 108.144573,314.23885 C109.654783,316.031497 110.495329,313.364033 116.958798,312.690882 C123.422266,312.017732 124.698938,315.713636 127.281276,314.976243 C129.863615,314.23885 129.161476,309.674964 129.161476,309.674964 C129.161476,309.674964 135.226816,312.69232 133.733414,318.300538 C132.240011,323.908756 129.826451,320.052114 127.281277,324.315999 C124.736104,328.579885 120.739851,329.278879 117.582684,329.278879 C114.425517,329.278879 109.938772,326.717555 109.041673,324.315999 C108.144573,321.914443 104.811719,324.196571 103.229315,319.078831 C101.646911,313.961091 106.790981,308.238032 106.790981,309.674964 Z" id="Path-17" fill="#454545" sketch:type="MSShapeGroup"></path>
                        <text id="SPORTS" opacity="0.318796642" sketch:type="MSTextLayer" font-family="San Francisco Display" font-size="3.6784712" font-weight="normal" fill="#FFFFFF">
                            <tspan x="112.268643" y="322.283118">SPOR</tspan>
                            <tspan x="112.268643" y="327.283118">TS</tspan>
                        </text>
                        <path d="M223.142513,312.184576 C224.652723,313.977223 225.493269,311.309759 231.956738,310.636608 C238.420206,309.963457 239.696878,313.659362 242.279216,312.921969 C244.861555,312.184576 244.824391,317.99784 242.279217,322.261725 C239.734044,326.525611 235.737791,327.224605 232.580624,327.224605 C229.423457,327.224605 224.936712,324.663281 224.039613,322.261725 C223.142513,319.860169 221.632303,310.391928 223.142513,312.184576 Z" id="Path-17-Copy-3" fill="#E2733B" sketch:type="MSShapeGroup"></path>
                        <path d="M235.911539,321.531916 C227.36026,322.051865 217.684648,318.640479 217.684648,318.640479 C217.684648,318.640479 215.027143,330.308002 215.027143,334.819555 C215.027143,339.331108 221.980772,340.654989 232.527633,340.654988 C243.074495,340.654988 249.545816,339.830071 251.215072,335.207358 C252.884329,330.584646 249.063509,316.810951 248.066507,316.810951 C247.653281,316.810951 241.964574,321.163869 235.911539,321.531916 Z" id="Path-18-Copy-3" fill="#B4B2B2" sketch:type="MSShapeGroup"></path>
                        <path d="M236.020088,317.0565 C227.730364,317.488891 218.350698,314.651973 218.350698,314.651973 C218.350698,314.651973 215.774478,324.354716 215.774478,328.106535 C215.774478,331.858354 222.515417,332.959296 232.739685,332.959296 C242.963952,332.959296 249.237336,332.273293 250.855535,328.429033 C252.473735,324.584774 248.769782,313.130533 247.803275,313.130533 C247.402687,313.130533 241.88798,316.750431 236.020088,317.0565 Z" id="Path-18-Copy-2" fill="#D8D8D8" sketch:type="MSShapeGroup"></path>
                        <path d="M221.506834,309.674964 C221.506834,311.111896 221.350217,312.446202 222.860426,314.23885 C224.370636,316.031497 225.211182,313.364033 231.674651,312.690882 C238.138119,312.017732 239.414791,315.713636 241.997129,314.976243 C244.579468,314.23885 243.877329,309.674964 243.877329,309.674964 C243.877329,309.674964 249.942669,312.69232 248.449267,318.300538 C246.955864,323.908756 244.542304,320.052114 241.99713,324.315999 C239.451957,328.579885 235.455704,329.278879 232.298537,329.278879 C229.141371,329.278879 224.654625,326.717555 223.757526,324.315999 C222.860427,321.914443 219.527573,324.196571 217.945168,319.078831 C216.362764,313.961091 221.506834,308.238032 221.506834,309.674964 Z" id="Path-17-Copy" fill="#454545" sketch:type="MSShapeGroup"></path>
                        <text id="SPORTS-Copy" opacity="0.318796642" sketch:type="MSTextLayer" font-family="San Francisco Display" font-size="3.6784712" font-weight="normal" fill="#FFFFFF">
                            <tspan x="228.105498" y="322.283118">SPOR</tspan>
                            <tspan x="228.105498" y="327.283118">TS</tspan>
                        </text>
                        <g id="Rectangle-59-+-Rectangle-59-Copy-+-Rectangle-59-Copy-2" transform="translate(20.442669, 36.114821) rotate(-12.000000) translate(-20.442669, -36.114821) translate(9.752246, 30.519567)" fill="#FC8B51" sketch:type="MSShapeGroup">
                            <rect id="Rectangle-59" x="2.03627111" y="-1.44606549e-13" width="2.03627111" height="11.190508" rx="40"></rect>
                            <rect id="Rectangle-59-Copy" x="10.1813556" y="0" width="2.03627111" height="7.12123233" rx="40"></rect>
                            <rect id="Rectangle-59-Copy-2" x="18.32644" y="-2.89351876e-14" width="2.03627111" height="9.15587014" rx="40"></rect>
                        </g>
                    </g>
                </g>
                <g id="Path-980-+-Oval-34" transform="translate(331.000000, 313.000000)">
                    <g id="Path-980">
                        <mask id="mask-10" sketch:name="Mask" fill="white">
                            <use xlink:href="#path-9"></use>
                        </mask>
                        <use id="Mask" fill="#FBDD44" sketch:type="MSShapeGroup" xlink:href="#path-9"></use>
                        <path d="M-0.855640561,5.56377392 L0.990635183,18.5953427 L5.82646677,17.8643732 C5.82646677,17.8643732 8.55878486,14.9696853 8.5587846,12.6630569 C8.55878434,10.3564284 7.04454659,9.21983775 5.97545807,8.31372744 C4.90636954,7.40761714 -0.855640561,5.56377392 -0.855640561,5.56377392 Z" fill="#FC9C13" sketch:type="MSShapeGroup" mask="url(#mask-10)"></path>
                    </g>
                    <ellipse id="Oval-34" fill="#907E45" sketch:type="MSShapeGroup" cx="14" cy="10.5" rx="3" ry="3.5"></ellipse>
                </g>
                <g id="Path-980-+-Oval-34-Copy" transform="translate(405.000000, 334.000000)">
                    <g id="Path-980">
                        <mask id="mask-12" sketch:name="Mask" fill="white">
                            <use xlink:href="#path-11"></use>
                        </mask>
                        <use id="Mask" fill="#FBDD44" sketch:type="MSShapeGroup" xlink:href="#path-11"></use>
                        <path d="M-0.562921421,3.66394868 L0.651733673,12.2457135 L3.83320183,11.7643433 C3.83320183,11.7643433 5.63077952,9.85808544 5.63077934,8.33908623 C5.63077917,6.82008701 4.63457013,6.07160047 3.93122241,5.47489368 C3.2278747,4.8781869 -0.562921421,3.66394868 -0.562921421,3.66394868 Z" fill="#FC9C13" sketch:type="MSShapeGroup" mask="url(#mask-12)"></path>
                    </g>
                    <ellipse id="Oval-34" fill="#907E45" sketch:type="MSShapeGroup" cx="9.21052632" cy="6.91463415" rx="1.97368421" ry="2.30487805"></ellipse>
                </g>
                <g id="Path-980-+-Oval-34-Copy-2" transform="translate(432.000000, 319.000000)">
                    <g id="Path-980">
                        <mask id="mask-14" sketch:name="Mask" fill="white">
                            <use xlink:href="#path-13"></use>
                        </mask>
                        <use id="Mask" fill="#FBDD44" sketch:type="MSShapeGroup" xlink:href="#path-13"></use>
                        <path d="M-0.495370851,3.22427484 L0.573525632,10.7762279 L3.37321761,10.3526221 C3.37321761,10.3526221 4.95508597,8.67511519 4.95508582,7.33839588 C4.95508567,6.00167657 4.07842171,5.34300841 3.45947572,4.81790644 C2.84052973,4.29280447 -0.495370851,3.22427484 -0.495370851,3.22427484 Z" fill="#FC9C13" sketch:type="MSShapeGroup" mask="url(#mask-14)"></path>
                    </g>
                    <ellipse id="Oval-34" fill="#907E45" sketch:type="MSShapeGroup" cx="8.10526316" cy="6.08487805" rx="1.73684211" ry="2.02829268"></ellipse>
                </g>
            </g>
        </g>
    </g>
</svg>