<?xml version="1.0" encoding="UTF-8" standalone="no"?>
<svg width="589px" height="378px" viewBox="0 0 589 378" version="1.1" xmlns="http://www.w3.org/2000/svg" xmlns:xlink="http://www.w3.org/1999/xlink" xmlns:sketch="http://www.bohemiancoding.com/sketch/ns">
    <!-- Generator: Sketch 3.3.3 (12081) - http://www.bohemiancoding.com/sketch -->
    <title>Group</title>
    <desc>Created with Sketch.</desc>
    <defs>
        <path id="path-1" d="M17.8451494,209.69252 L269.641342,208.436502 C269.641342,208.436502 286.789766,165.627773 286.789766,141.349474 C286.789766,63.2843153 222.58969,0 143.394883,0 C64.200076,0 0,63.2843153 0,141.349474 C0,166.138584 17.8451494,209.69252 17.8451494,209.69252 Z"></path>
        <path id="path-3" d="M286.789766,141.349474 C286.789766,63.2843153 222.58969,0 143.394883,0 C64.200076,0 0,63.2843153 0,141.349474 C0,219.414634 286.789766,219.414634 286.789766,141.349474 Z"></path>
        <path id="path-5" d="M19.1891778,212.033576 L269.195379,209.243939 C269.195379,209.243939 286.789766,165.95579 286.789766,141.349474 C286.789766,63.2843153 222.58969,0 143.394883,0 C64.200076,0 -0.285426567,63.2846005 -6.25277607e-13,141.349474 C0.183386266,191.506073 19.1891778,212.033576 19.1891778,212.033576 Z"></path>
        <path id="path-7" d="M36.7270391,29.5313344 C6.14362683,29.5313344 9.96814722,1.86927049 7.91931821,0.365626623 C5.8704892,-1.13801725 -16.0569199,36.6535327 26.0837727,51.3835827 C58.330164,62.6551334 67.3104514,29.5313344 36.7270391,29.5313344 Z"></path>
    </defs>
    <g id="Page-1" stroke="none" stroke-width="1" fill="none" fill-rule="evenodd" sketch:type="MSPage">
        <g id="Group" sketch:type="MSLayerGroup" transform="translate(-17.000000, 0.000000)">
            <g>
                <g>
                    <g transform="translate(0.000000, 144.000000)" sketch:type="MSShapeGroup">
                        <path d="M143.768231,145.72779 L61.1872261,168.57992 L30.9957226,59.6862168 L113.577339,36.8334762 L143.768231,145.72779" id="Fill-1" fill="#E3E5E5" transform="translate(87.381977, 102.706698) rotate(314.000000) translate(-87.381977, -102.706698) "></path>
                        <path d="M81.4396222,73.9207243 L19.3425856,91.9196936 L18.7200804,89.7771919 L80.817117,71.7776117 L81.4396222,73.9207243" id="Fill-2" fill="#B6B7B6" transform="translate(50.079851, 81.848653) rotate(314.000000) translate(-50.079851, -81.848653) "></path>
                        <path d="M71.0707764,93.3172739 L33.9112503,104.08782 L33.2905795,101.948984 L70.4501057,91.1790486 L71.0707764,93.3172739" id="Fill-3" fill="#B6B7B6" transform="translate(52.180678, 97.633434) rotate(314.000000) translate(-52.180678, -97.633434) "></path>
                        <path d="M98.6079884,82.9833544 L36.5109518,100.981713 L35.8835546,98.8208834 L97.9805912,80.8213032 L98.6079884,82.9833544" id="Fill-4" fill="#B6B7B6" transform="translate(67.245772, 90.901508) rotate(314.000000) translate(-67.245772, -90.901508) "></path>
                        <path d="M107.102719,87.4627774 L45.005071,105.461747 L44.3776738,103.300306 L106.47471,85.3013371 L107.102719,87.4627774" id="Fill-5" fill="#B6B7B6" transform="translate(75.740196, 95.381542) rotate(314.000000) translate(-75.740196, -95.381542) "></path>
                        <path d="M115.304569,91.7880363 L53.2069205,109.787617 L52.5789117,107.625565 L114.67656,89.6265961 L115.304569,91.7880363" id="Fill-6" fill="#B6B7B6" transform="translate(83.941740, 99.707106) rotate(314.000000) translate(-83.941740, -99.707106) "></path>
                        <path d="M124.276364,96.5195168 L62.1781049,114.518486 L61.5507077,112.357046 L123.648356,94.3586874 L124.276364,96.5195168" id="Fill-7" fill="#B6B7B6" transform="translate(92.913536, 104.438587) rotate(314.000000) translate(-92.913536, -104.438587) "></path>
                        <path d="M144.689596,147.386877 L67.3674753,114.727014 L106.069812,23.2720651 L183.391932,55.9319285 L144.689596,147.386877" id="Fill-10" fill="#EBEBEB" transform="translate(125.379704, 85.329471) rotate(314.000000) translate(-125.379704, -85.329471) "></path>
                    </g>
                    <g transform="translate(61.000000, 150.000000)" sketch:type="MSShapeGroup">
                        <path d="M180.236637,113.946456 C180.236637,117.044439 177.631043,119.555938 174.415785,119.555938 L-0.297216796,119.555938 C-3.51186314,119.555938 -6.11868021,117.044439 -6.11868021,113.946456 L-6.11868021,63.4617363 C-6.11868021,60.3637534 -3.51186314,57.8522551 -0.297216796,57.8522551 L174.415785,57.8522551 C177.631043,57.8522551 180.236637,60.3637534 180.236637,63.4617363 L180.236637,113.946456" id="Fill-49" fill="#D1D1C5" transform="translate(87.058978, 88.704096) rotate(314.000000) translate(-87.058978, -88.704096) "></path>
                        <path d="M36.1078752,118.875182 C36.1078752,119.322988 35.6963369,119.685875 35.1863474,119.685875 L24.1280129,119.685875 C23.6192463,119.685875 23.206485,119.322988 23.206485,118.875182 L23.206485,115.6318 C23.206485,115.183384 23.6192463,114.820496 24.1280129,114.820496 L35.1863474,114.820496 C35.6963369,114.820496 36.1078752,115.183384 36.1078752,115.6318 L36.1078752,118.875182" id="Fill-50" fill="#B6B7B6" transform="translate(29.657180, 117.253186) rotate(314.000000) translate(-29.657180, -117.253186) "></path>
                        <path d="M25.439559,129.922864 C25.439559,130.370669 25.0267977,130.733557 24.5180312,130.733557 L13.4590852,130.733557 C12.9497071,130.733557 12.5375573,130.370669 12.5375573,129.922864 L12.5375573,126.679482 C12.5375573,126.231065 12.9497071,125.868178 13.4590852,125.868178 L24.5180312,125.868178 C25.0267977,125.868178 25.439559,126.231065 25.439559,126.679482 L25.439559,129.922864" id="Fill-51" fill="#B6B7B6" transform="translate(18.988558, 128.300867) rotate(314.000000) translate(-18.988558, -128.300867) "></path>
                        <path d="M57.375973,96.8517391 C57.375973,97.2995445 56.9638231,97.6624319 56.4538336,97.6624319 L45.3954991,97.6624319 C44.8867325,97.6624319 44.4739712,97.2995445 44.4739712,96.8517391 L44.4739712,93.6083568 C44.4739712,93.1599404 44.8867325,92.7970531 45.3954991,92.7970531 L56.4538336,92.7970531 C56.9638231,92.7970531 57.375973,93.1599404 57.375973,93.6083568 L57.375973,96.8517391" id="Fill-52" fill="#B6B7B6" transform="translate(50.924972, 95.229742) rotate(314.000000) translate(-50.924972, -95.229742) "></path>
                        <path d="M46.7075634,107.899201 C46.7075634,108.347006 46.2941906,108.709893 45.785424,108.709893 L34.7270895,108.709893 C34.2171,108.709893 33.8055617,108.347006 33.8055617,107.899201 L33.8055617,104.655818 C33.8055617,104.207402 34.2171,103.844515 34.7270895,103.844515 L45.785424,103.844515 C46.2941906,103.844515 46.7075634,104.207402 46.7075634,104.655818 L46.7075634,107.899201" id="Fill-53" fill="#B6B7B6" transform="translate(40.256563, 106.277204) rotate(314.000000) translate(-40.256563, -106.277204) "></path>
                        <path d="M78.8069071,74.6587239 C78.8069071,75.1065294 78.3953687,75.4694168 77.8859907,75.4694168 L66.8276562,75.4694168 C66.3188896,75.4694168 65.9061283,75.1065294 65.9061283,74.6587239 L65.9061283,71.4153417 C65.9061283,70.9669253 66.3188896,70.6040379 66.8276562,70.6040379 L77.8859907,70.6040379 C78.3953687,70.6040379 78.8069071,70.9669253 78.8069071,71.4153417 L78.8069071,74.6587239" id="Fill-54" fill="#B6B7B6" transform="translate(72.356518, 73.036727) rotate(314.000000) translate(-72.356518, -73.036727) "></path>
                        <path d="M68.1165022,85.7292789 C68.1165022,86.1770843 67.7043523,86.5399717 67.1949743,86.5399717 L56.1366398,86.5399717 C55.6272618,86.5399717 55.2151119,86.1770843 55.2151119,85.7292789 L55.2151119,82.4858966 C55.2151119,82.0374802 55.6272618,81.6745929 56.1366398,81.6745929 L67.1949743,81.6745929 C67.7043523,81.6745929 68.1165022,82.0374802 68.1165022,82.4858966 L68.1165022,85.7292789" id="Fill-55" fill="#B6B7B6" transform="translate(61.665807, 84.107282) rotate(314.000000) translate(-61.665807, -84.107282) "></path>
                        <path d="M100.075523,52.6350607 C100.075523,53.0828662 99.6633731,53.4457535 99.1533835,53.4457535 L88.0950491,53.4457535 C87.5862825,53.4457535 87.1735212,53.0828662 87.1735212,52.6350607 L87.1735212,49.3916784 C87.1735212,48.9432621 87.5862825,48.5803747 88.0950491,48.5803747 L99.1533835,48.5803747 C99.6633731,48.5803747 100.075523,48.9432621 100.075523,49.3916784 L100.075523,52.6350607" id="Fill-56" fill="#B6B7B6" transform="translate(93.624522, 51.013064) rotate(314.000000) translate(-93.624522, -51.013064) "></path>
                        <path d="M89.4065952,63.6827421 C89.4065952,64.1305476 88.9950569,64.493435 88.4856788,64.493435 L77.4267329,64.493435 C76.9185778,64.493435 76.505205,64.1305476 76.505205,63.6827421 L76.505205,60.4393599 C76.505205,59.9909435 76.9185778,59.6280561 77.4267329,59.6280561 L88.4856788,59.6280561 C88.9950569,59.6280561 89.4065952,59.9909435 89.4065952,60.4393599 L89.4065952,63.6827421" id="Fill-57" fill="#B6B7B6" transform="translate(82.955900, 62.060746) rotate(314.000000) translate(-82.955900, -62.060746) "></path>
                        <path d="M121.298832,30.6573644 C121.298832,31.1051699 120.887293,31.4680572 120.377304,31.4680572 L109.318969,31.4680572 C108.810203,31.4680572 108.397442,31.1051699 108.397442,30.6573644 L108.397442,27.4139821 C108.397442,26.9655658 108.810203,26.6026784 109.318969,26.6026784 L120.377304,26.6026784 C120.887293,26.6026784 121.298832,26.9655658 121.298832,27.4139821 L121.298832,30.6573644" id="Fill-58" fill="#B6B7B6" transform="translate(114.848137, 29.035368) rotate(314.000000) translate(-114.848137, -29.035368) "></path>
                        <path d="M110.630422,41.7048259 C110.630422,42.1526314 110.218272,42.5155187 109.708894,42.5155187 L98.6505599,42.5155187 C98.1411818,42.5155187 97.729032,42.1526314 97.729032,41.7048259 L97.729032,38.4614436 C97.729032,38.0130273 98.1411818,37.6501399 98.6505599,37.6501399 L109.708894,37.6501399 C110.218272,37.6501399 110.630422,38.0130273 110.630422,38.4614436 L110.630422,41.7048259" id="Fill-59" fill="#B6B7B6" transform="translate(104.179727, 40.082829) rotate(314.000000) translate(-104.179727, -40.082829) "></path>
                        <path d="M39.4029023,138.627346 C39.4029023,139.490578 38.8201445,140.188251 38.100411,140.188251 L22.47235,140.188251 C21.7520051,140.188251 21.1698587,139.490578 21.1698587,138.627346 L21.1698587,132.383728 C21.1698587,131.521718 21.7520051,130.822824 22.47235,130.822824 L38.100411,130.822824 C38.8201445,130.822824 39.4029023,131.521718 39.4029023,132.383728 L39.4029023,138.627346" id="Fill-60" fill="#B6B7B6" transform="translate(30.286381, 135.505537) rotate(314.000000) translate(-30.286381, -135.505537) "></path>
                        <path d="M48.7955592,125.515111 C48.7955592,126.378343 48.4219337,127.076016 47.9602526,127.076016 L37.9371846,127.076016 C37.4748919,127.076016 37.101878,126.378343 37.101878,125.515111 L37.101878,119.271494 C37.101878,118.409483 37.4748919,117.710589 37.9371846,117.710589 L47.9602526,117.710589 C48.4219337,117.710589 48.7955592,118.409483 48.7955592,119.271494 L48.7955592,125.515111" id="Fill-61" fill="#B6B7B6" transform="translate(42.948719, 122.393302) rotate(314.000000) translate(-42.948719, -122.393302) "></path>
                        <path d="M59.0435275,114.903346 C59.0435275,115.766578 58.6692906,116.46425 58.2082209,116.46425 L48.1845415,116.46425 C47.7228603,116.46425 47.3492349,115.766578 47.3492349,114.903346 L47.3492349,108.659728 C47.3492349,107.797718 47.7228603,107.098824 48.1845415,107.098824 L58.2082209,107.098824 C58.6692906,107.098824 59.0435275,107.797718 59.0435275,108.659728 L59.0435275,114.903346" id="Fill-62" fill="#B6B7B6" transform="translate(53.196381, 111.781537) rotate(314.000000) translate(-53.196381, -111.781537) "></path>
                        <path d="M69.2909778,104.291801 C69.2909778,105.155033 68.9167408,105.852705 68.4550596,105.852705 L58.4326032,105.852705 C57.9703105,105.852705 57.5966851,105.155033 57.5966851,104.291801 L57.5966851,98.0481829 C57.5966851,97.1861727 57.9703105,96.4872785 58.4326032,96.4872785 L68.4550596,96.4872785 C68.9167408,96.4872785 69.2909778,97.1861727 69.2909778,98.0481829 L69.2909778,104.291801" id="Fill-63" fill="#B6B7B6" transform="translate(63.443831, 101.169992) rotate(314.000000) translate(-63.443831, -101.169992) "></path>
                        <path d="M79.6271141,93.5881015 C79.6271141,94.4513336 79.2528772,95.149006 78.7930305,95.149006 L68.7693511,95.149006 C68.3070584,95.149006 67.9334329,94.4513336 67.9334329,93.5881015 L67.9334329,87.3444838 C67.9334329,86.4824735 68.3070584,85.7835793 68.7693511,85.7835793 L78.7930305,85.7835793 C79.2528772,85.7835793 79.6271141,86.4824735 79.6271141,87.3444838 L79.6271141,93.5881015" id="Fill-64" fill="#B6B7B6" transform="translate(73.780274, 90.466293) rotate(314.000000) translate(-73.780274, -90.466293) "></path>
                        <path d="M89.8756006,82.9761163 C89.8756006,83.8393484 89.5013637,84.5370207 89.0396825,84.5370207 L79.0166146,84.5370207 C78.5543219,84.5370207 78.1806964,83.8393484 78.1806964,82.9761163 L78.1806964,76.7324986 C78.1806964,75.8704883 78.5543219,75.1715941 79.0166146,75.1715941 L89.0396825,75.1715941 C89.5013637,75.1715941 89.8756006,75.8704883 89.8756006,76.7324986 L89.8756006,82.9761163" id="Fill-65" fill="#B6B7B6" transform="translate(84.028149, 79.854307) rotate(314.000000) translate(-84.028149, -79.854307) "></path>
                        <path d="M100.122864,72.3641311 C100.122864,73.2273632 99.7492387,73.9250355 99.286946,73.9250355 L89.2632666,73.9250355 C88.8028084,73.9250355 88.4291829,73.2273632 88.4291829,72.3641311 L88.4291829,66.1205133 C88.4291829,65.2585031 88.8028084,64.5596089 89.2632666,64.5596089 L99.286946,64.5596089 C99.7492387,64.5596089 100.122864,65.2585031 100.122864,66.1205133 L100.122864,72.3641311" id="Fill-66" fill="#B6B7B6" transform="translate(94.276024, 69.242322) rotate(314.000000) translate(-94.276024, -69.242322) "></path>
                        <path d="M110.070087,62.0637973 C110.070087,62.9270294 109.696461,63.6247018 109.23478,63.6247018 L99.211712,63.6247018 C98.7494193,63.6247018 98.3757939,62.9270294 98.3757939,62.0637973 L98.3757939,55.8201796 C98.3757939,54.9581694 98.7494193,54.2592752 99.211712,54.2592752 L109.23478,54.2592752 C109.696461,54.2592752 110.070087,54.9581694 110.070087,55.8201796 L110.070087,62.0637973" id="Fill-67" fill="#B6B7B6" transform="translate(104.222940, 58.941988) rotate(314.000000) translate(-104.222940, -58.941988) "></path>
                        <path d="M120.406223,51.3600982 C120.406223,52.2233303 120.031986,52.9210026 119.572139,52.9210026 L109.549071,52.9210026 C109.086779,52.9210026 108.712542,52.2233303 108.712542,51.3600982 L108.712542,45.1164804 C108.712542,44.2544702 109.086779,43.555576 109.549071,43.555576 L119.572139,43.555576 C120.031986,43.555576 120.406223,44.2544702 120.406223,45.1164804 L120.406223,51.3600982" id="Fill-68" fill="#B6B7B6" transform="translate(114.559382, 48.238289) rotate(314.000000) translate(-114.559382, -48.238289) "></path>
                        <path d="M130.654616,40.747893 C130.654616,41.6111251 130.280379,42.3087975 129.818698,42.3087975 L119.79563,42.3087975 C119.333949,42.3087975 118.960323,41.6111251 118.960323,40.747893 L118.960323,34.5042753 C118.960323,33.642265 119.333949,32.9433709 119.79563,32.9433709 L129.818698,32.9433709 C130.280379,32.9433709 130.654616,33.642265 130.654616,34.5042753 L130.654616,40.747893" id="Fill-69" fill="#B6B7B6" transform="translate(124.807470, 37.626084) rotate(314.000000) translate(-124.807470, -37.626084) "></path>
                        <path d="M141.057112,29.9757933 C141.057112,30.8390254 140.682263,31.5366977 140.221194,31.5366977 L130.198126,31.5366977 C129.736445,31.5366977 129.362819,30.8390254 129.362819,29.9757933 L129.362819,23.7321756 C129.362819,22.8701653 129.736445,22.1712711 130.198126,22.1712711 L140.221194,22.1712711 C140.682263,22.1712711 141.057112,22.8701653 141.057112,23.7321756 L141.057112,29.9757933" id="Fill-70" fill="#B6B7B6" transform="translate(135.209966, 26.853984) rotate(314.000000) translate(-135.209966, -26.853984) "></path>
                        <path d="M131.795204,19.7880523 C131.795204,20.2358578 131.383666,20.5987451 130.873677,20.5987451 L119.815342,20.5987451 C119.306576,20.5987451 118.893814,20.2358578 118.893814,19.7880523 L118.893814,16.54467 C118.893814,16.0962537 119.306576,15.7333663 119.815342,15.7333663 L130.873677,15.7333663 C131.383666,15.7333663 131.795204,16.0962537 131.795204,16.54467 L131.795204,19.7880523" id="Fill-71" fill="#B6B7B6" transform="translate(125.344509, 18.166056) rotate(314.000000) translate(-125.344509, -18.166056) "></path>
                        <path d="M51.2466403,147.184428 C51.2466403,148.046438 50.5862222,148.744722 49.7692605,148.744722 L32.0449835,148.744722 C31.2280218,148.744722 30.5676037,148.046438 30.5676037,147.184428 L30.5676037,140.9402 C30.5676037,140.077578 31.2280218,139.378684 32.0449835,139.378684 L49.7692605,139.378684 C50.5862222,139.378684 51.2466403,140.077578 51.2466403,140.9402 L51.2466403,147.184428" id="Fill-72" fill="#B6B7B6" transform="translate(40.907122, 144.061703) rotate(314.000000) translate(-40.907122, -144.061703) "></path>
                        <path d="M60.2654407,133.192883 C60.2654407,134.054893 59.8918152,134.753177 59.4307455,134.753177 L49.4082891,134.753177 C48.9453849,134.753177 48.5717595,134.054893 48.5717595,133.192883 L48.5717595,126.948654 C48.5717595,126.086033 48.9453849,125.387139 49.4082891,125.387139 L59.4307455,125.387139 C59.8918152,125.387139 60.2654407,126.086033 60.2654407,126.948654 L60.2654407,133.192883" id="Fill-73" fill="#B6B7B6" transform="translate(54.418600, 130.070158) rotate(314.000000) translate(-54.418600, -130.070158) "></path>
                        <path d="M70.5138338,122.580678 C70.5138338,123.442688 70.1395969,124.140971 69.6785272,124.140971 L59.6548477,124.140971 C59.1931666,124.140971 58.8195411,123.442688 58.8195411,122.580678 L58.8195411,116.336449 C58.8195411,115.473828 59.1931666,114.774934 59.6548477,114.774934 L69.6785272,114.774934 C70.1395969,114.774934 70.5138338,115.473828 70.5138338,116.336449 L70.5138338,122.580678" id="Fill-74" fill="#B6B7B6" transform="translate(64.666687, 119.457953) rotate(314.000000) translate(-64.666687, -119.457953) "></path>
                        <path d="M80.761284,111.969133 C80.761284,112.831143 80.3870471,113.529426 79.9253659,113.529426 L69.9029094,113.529426 C69.4406168,113.529426 69.0669913,112.831143 69.0669913,111.969133 L69.0669913,105.724904 C69.0669913,104.862283 69.4406168,104.163389 69.9029094,104.163389 L79.9253659,104.163389 C80.3870471,104.163389 80.761284,104.862283 80.761284,105.724904 L80.761284,111.969133" id="Fill-75" fill="#B6B7B6" transform="translate(74.914138, 108.846407) rotate(314.000000) translate(-74.914138, -108.846407) "></path>
                        <path d="M91.0974204,101.265433 C91.0974204,102.127444 90.7231835,102.825727 90.2633368,102.825727 L80.2396573,102.825727 C79.7773646,102.825727 79.4037392,102.127444 79.4037392,101.265433 L79.4037392,95.0212048 C79.4037392,94.1585836 79.7773646,93.4596894 80.2396573,93.4596894 L90.2633368,93.4596894 C90.7231835,93.4596894 91.0974204,94.1585836 91.0974204,95.0212048 L91.0974204,101.265433" id="Fill-76" fill="#B6B7B6" transform="translate(85.250580, 98.142708) rotate(314.000000) translate(-85.250580, -98.142708) "></path>
                        <path d="M101.345907,90.6534482 C101.345907,91.5154585 100.97167,92.2137417 100.509989,92.2137417 L90.4869208,92.2137417 C90.0246281,92.2137417 89.6510027,91.5154585 89.6510027,90.6534482 L89.6510027,84.4092196 C89.6510027,83.5465984 90.0246281,82.8477042 90.4869208,82.8477042 L100.509989,82.8477042 C100.97167,82.8477042 101.345907,83.5465984 101.345907,84.4092196 L101.345907,90.6534482" id="Fill-77" fill="#B6B7B6" transform="translate(95.498455, 87.530723) rotate(314.000000) translate(-95.498455, -87.530723) "></path>
                        <path d="M111.59317,80.041463 C111.59317,80.9034733 111.219545,81.6017565 110.757252,81.6017565 L100.734184,81.6017565 C100.273115,81.6017565 99.8994892,80.9034733 99.8994892,80.041463 L99.8994892,73.7972344 C99.8994892,72.9346132 100.273115,72.235719 100.734184,72.235719 L110.757252,72.235719 C111.219545,72.235719 111.59317,72.9346132 111.59317,73.7972344 L111.59317,80.041463" id="Fill-78" fill="#B6B7B6" transform="translate(105.746330, 76.918738) rotate(314.000000) translate(-105.746330, -76.918738) "></path>
                        <path d="M121.540393,69.7411293 C121.540393,70.6031395 121.166767,71.3014228 120.705086,71.3014228 L110.682018,71.3014228 C110.219726,71.3014228 109.8461,70.6031395 109.8461,69.7411293 L109.8461,63.4969006 C109.8461,62.6342794 110.219726,61.9353852 110.682018,61.9353852 L120.705086,61.9353852 C121.166767,61.9353852 121.540393,62.6342794 121.540393,63.4969006 L121.540393,69.7411293" id="Fill-79" fill="#B6B7B6" transform="translate(115.693246, 66.618404) rotate(314.000000) translate(-115.693246, -66.618404) "></path>
                        <path d="M131.876529,59.0374301 C131.876529,59.8994404 131.502292,60.5977236 131.042446,60.5977236 L121.019378,60.5977236 C120.557085,60.5977236 120.182848,59.8994404 120.182848,59.0374301 L120.182848,52.7932014 C120.182848,51.9305803 120.557085,51.2316861 121.019378,51.2316861 L131.042446,51.2316861 C131.502292,51.2316861 131.876529,51.9305803 131.876529,52.7932014 L131.876529,59.0374301" id="Fill-80" fill="#B6B7B6" transform="translate(126.029689, 55.914705) rotate(314.000000) translate(-126.029689, -55.914705) "></path>
                        <path d="M152.741099,43.9189252 C152.741099,44.7809354 151.965108,45.4792187 151.009336,45.4792187 L130.248359,45.4792187 C129.291364,45.4792187 128.517819,44.7809354 128.517819,43.9189252 L128.517819,37.6746965 C128.517819,36.8120753 129.291364,36.1131811 130.248359,36.1131811 L151.009336,36.1131811 C151.965108,36.1131811 152.741099,36.8120753 152.741099,37.6746965 L152.741099,43.9189252" id="Fill-81" fill="#B6B7B6" transform="translate(140.629459, 40.796200) rotate(314.000000) translate(-140.629459, -40.796200) "></path>
                        <path d="M53.6413268,159.773545 C53.6413268,160.636777 53.2677013,161.334449 52.8066316,161.334449 L42.7835637,161.334449 C42.3206595,161.334449 41.9476456,160.636777 41.9476456,159.773545 L41.9476456,153.529316 C41.9476456,152.667917 42.3206595,151.968412 42.7835637,151.968412 L52.8066316,151.968412 C53.2677013,151.968412 53.6413268,152.667917 53.6413268,153.529316 L53.6413268,159.773545" id="Fill-82" fill="#B6B7B6" transform="translate(47.794486, 156.651430) rotate(314.000000) translate(-47.794486, -156.651430) "></path>
                        <path d="M63.8897199,149.16134 C63.8897199,150.024572 63.515483,150.722244 63.0544133,150.722244 L53.0301223,150.722244 C52.5684412,150.722244 52.1954272,150.024572 52.1954272,149.16134 L52.1954272,142.917111 C52.1954272,142.055712 52.5684412,141.356206 53.0301223,141.356206 L63.0544133,141.356206 C63.515483,141.356206 63.8897199,142.055712 63.8897199,142.917111 L63.8897199,149.16134" id="Fill-83" fill="#B6B7B6" transform="translate(58.042574, 146.039225) rotate(314.000000) translate(-58.042574, -146.039225) "></path>
                        <path d="M74.1371701,138.549794 C74.1371701,139.413026 73.7629332,140.110699 73.301252,140.110699 L63.2781841,140.110699 C62.8158914,140.110699 62.4428774,139.413026 62.4428774,138.549794 L62.4428774,132.305566 C62.4428774,131.444166 62.8158914,130.744661 63.2781841,130.744661 L73.301252,130.744661 C73.7629332,130.744661 74.1371701,131.444166 74.1371701,132.305566 L74.1371701,138.549794" id="Fill-84" fill="#B6B7B6" transform="translate(68.290024, 135.427680) rotate(314.000000) translate(-68.290024, -135.427680) "></path>
                        <path d="M128.781453,81.3469051 C128.781453,82.2101372 128.44574,82.9078095 128.031145,82.9078095 L119.028667,82.9078095 C118.614071,82.9078095 118.27897,82.2101372 118.27897,81.3469051 L118.27897,75.1026764 C118.27897,74.2412771 118.614071,73.541772 119.028667,73.541772 L128.031145,73.541772 C128.44574,73.541772 128.781453,74.2412771 128.781453,75.1026764 L128.781453,81.3469051" id="Fill-85" fill="#B6B7B6" transform="translate(123.530212, 78.224791) rotate(314.000000) translate(-123.530212, -78.224791) "></path>
                        <path d="M137.669263,72.1594552 C137.669263,73.0226873 137.332328,73.7203596 136.917732,73.7203596 L127.888349,73.7203596 C127.471918,73.7203596 127.135594,73.0226873 127.135594,72.1594552 L127.135594,65.9152265 C127.135594,65.0538272 127.471918,64.3543221 127.888349,64.3543221 L136.917732,64.3543221 C137.332328,64.3543221 137.669263,65.0538272 137.669263,65.9152265 L137.669263,72.1594552" id="Fill-86" fill="#B6B7B6" transform="translate(132.402429, 69.037341) rotate(314.000000) translate(-132.402429, -69.037341) "></path>
                        <path d="M151.756546,50.5962281 C151.756546,50.9566718 151.494213,51.2474704 151.171954,51.2474704 L144.166018,51.2474704 C143.842536,51.2474704 143.580814,50.9566718 143.580814,50.5962281 L143.580814,47.9949243 C143.580814,47.6369243 143.842536,47.3449039 144.166018,47.3449039 L151.171954,47.3449039 C151.494213,47.3449039 151.756546,47.6369243 151.756546,47.9949243 L151.756546,50.5962281" id="Fill-87" fill="#B6B7B6" transform="translate(147.668680, 49.296187) rotate(314.000000) translate(-147.668680, -49.296187) "></path>
                        <path d="M155.729486,54.3934467 C155.729486,54.7428938 155.467153,55.0245287 155.144893,55.0245287 L148.138958,55.0245287 C147.815475,55.0245287 147.553754,54.7428938 147.553754,54.3934467 L147.553754,51.8709519 C147.553754,51.5239484 147.815475,51.2410918 148.138958,51.2410918 L155.144893,51.2410918 C155.467153,51.2410918 155.729486,51.5239484 155.729486,51.8709519 L155.729486,54.3934467" id="Fill-88" fill="#B6B7B6" transform="translate(151.641620, 53.132810) rotate(314.000000) translate(-151.641620, -53.132810) "></path>
                        <path d="M148.645296,61.7290228 C148.645296,62.0784699 148.382964,62.3601047 148.060704,62.3601047 L141.054769,62.3601047 C140.731286,62.3601047 140.470176,62.0784699 140.470176,61.7290228 L140.470176,59.2065279 C140.470176,58.8595245 140.731286,58.5766678 141.054769,58.5766678 L148.060704,58.5766678 C148.382964,58.5766678 148.645296,58.8595245 148.645296,59.2065279 L148.645296,61.7290228" id="Fill-89" fill="#B6B7B6" transform="translate(144.557736, 60.468386) rotate(314.000000) translate(-144.557736, -60.468386) "></path>
                        <path d="M162.612235,47.2661516 C162.612235,47.6155987 162.349902,47.8972335 162.027642,47.8972335 L155.021707,47.8972335 C154.698224,47.8972335 154.436503,47.6155987 154.436503,47.2661516 L154.436503,44.7436567 C154.436503,44.3966533 154.698224,44.1137966 155.021707,44.1137966 L162.027642,44.1137966 C162.349902,44.1137966 162.612235,44.3966533 162.612235,44.7436567 L162.612235,47.2661516" id="Fill-90" fill="#B6B7B6" transform="translate(158.524369, 46.005515) rotate(314.000000) translate(-158.524369, -46.005515) "></path>
                        <path d="M127.818531,109.694768 C127.818531,110.434594 127.249838,111.034519 126.549672,111.034519 L66.1874561,111.034519 C65.4872906,111.034519 64.9185972,110.434594 64.9185972,109.694768 L64.9185972,103.008843 C64.9185972,102.269017 65.4872906,101.668481 66.1874561,101.668481 L126.549672,101.668481 C127.249838,101.668481 127.818531,102.269017 127.818531,103.008843 L127.818531,109.694768" id="Fill-91" fill="#B6B7B6" transform="translate(96.368564, 106.351500) rotate(314.000000) translate(-96.368564, -106.351500) "></path>
                        <path d="M33.77476,118.568264 C33.77476,119.015458 33.3632217,119.378957 32.8532321,119.378957 L21.7948976,119.378957 C21.2861311,119.378957 20.8733698,119.015458 20.8733698,118.568264 L20.8733698,115.324271 C20.8733698,114.876465 21.2861311,114.512967 21.7948976,114.512967 L32.8532321,114.512967 C33.3632217,114.512967 33.77476,114.876465 33.77476,115.324271 L33.77476,118.568264" id="Fill-95" fill="#E3E5E5" transform="translate(27.324065, 116.945962) rotate(314.000000) translate(-27.324065, -116.945962) "></path>
                        <path d="M23.1064438,129.615945 C23.1064438,130.06314 22.6936825,130.426638 22.1849159,130.426638 L11.1259699,130.426638 C10.6165919,130.426638 10.2044421,130.06314 10.2044421,129.615945 L10.2044421,126.371952 C10.2044421,125.924147 10.6165919,125.560648 11.1259699,125.560648 L22.1849159,125.560648 C22.6936825,125.560648 23.1064438,125.924147 23.1064438,126.371952 L23.1064438,129.615945" id="Fill-96" fill="#E3E5E5" transform="translate(16.655443, 127.993643) rotate(314.000000) translate(-16.655443, -127.993643) "></path>
                        <path d="M55.0428577,96.5448204 C55.0428577,96.992015 54.6307079,97.3555133 54.1207184,97.3555133 L43.0623839,97.3555133 C42.5536173,97.3555133 42.140856,96.992015 42.140856,96.5448204 L42.140856,93.3008273 C42.140856,92.8530218 42.5536173,92.4895235 43.0623839,92.4895235 L54.1207184,92.4895235 C54.6307079,92.4895235 55.0428577,92.8530218 55.0428577,93.3008273 L55.0428577,96.5448204" id="Fill-97" fill="#E3E5E5" transform="translate(48.591857, 94.922518) rotate(314.000000) translate(-48.591857, -94.922518) "></path>
                        <path d="M44.37393,107.592502 C44.37393,108.039696 43.9611687,108.403195 43.4524022,108.403195 L32.3940677,108.403195 C31.8840781,108.403195 31.4725398,108.039696 31.4725398,107.592502 L31.4725398,104.348509 C31.4725398,103.900703 31.8840781,103.537205 32.3940677,103.537205 L43.4524022,103.537205 C43.9611687,103.537205 44.37393,103.900703 44.37393,104.348509 L44.37393,107.592502" id="Fill-98" fill="#E3E5E5" transform="translate(37.923235, 105.970200) rotate(314.000000) translate(-37.923235, -105.970200) "></path>
                        <path d="M76.4737918,74.3518053 C76.4737918,74.7989998 76.0622535,75.1624981 75.5528754,75.1624981 L64.4945409,75.1624981 C63.9857744,75.1624981 63.5730131,74.7989998 63.5730131,74.3518053 L63.5730131,71.1078121 C63.5730131,70.6600067 63.9857744,70.2965084 64.4945409,70.2965084 L75.5528754,70.2965084 C76.0622535,70.2965084 76.4737918,70.6600067 76.4737918,71.1078121 L76.4737918,74.3518053" id="Fill-99" fill="#E3E5E5" transform="translate(70.023402, 72.729503) rotate(314.000000) translate(-70.023402, -72.729503) "></path>
                        <path d="M65.7833869,85.4223602 C65.7833869,85.8695548 65.3712371,86.2330531 64.8618591,86.2330531 L53.8035246,86.2330531 C53.294758,86.2330531 52.8819967,85.8695548 52.8819967,85.4223602 L52.8819967,82.1783671 C52.8819967,81.7305616 53.294758,81.3670633 53.8035246,81.3670633 L64.8618591,81.3670633 C65.3712371,81.3670633 65.7833869,81.7305616 65.7833869,82.1783671 L65.7833869,85.4223602" id="Fill-100" fill="#E3E5E5" transform="translate(59.332692, 83.800058) rotate(314.000000) translate(-59.332692, -83.800058) "></path>
                        <path d="M97.7424077,52.3281421 C97.7424077,52.7753366 97.3302579,53.1388349 96.8202683,53.1388349 L85.7619338,53.1388349 C85.2531673,53.1388349 84.8404059,52.7753366 84.8404059,52.3281421 L84.8404059,49.0841489 C84.8404059,48.6363434 85.2531673,48.2728451 85.7619338,48.2728451 L96.8202683,48.2728451 C97.3302579,48.2728451 97.7424077,48.6363434 97.7424077,49.0841489 L97.7424077,52.3281421" id="Fill-101" fill="#E3E5E5" transform="translate(91.291407, 50.705840) rotate(314.000000) translate(-91.291407, -50.705840) "></path>
                        <path d="M87.07348,63.3758235 C87.07348,63.823018 86.6619417,64.1865163 86.1525636,64.1865163 L75.0936176,64.1865163 C74.5854626,64.1865163 74.1720897,63.823018 74.1720897,63.3758235 L74.1720897,60.1318303 C74.1720897,59.6840249 74.5854626,59.3205266 75.0936176,59.3205266 L86.1525636,59.3205266 C86.6619417,59.3205266 87.07348,59.6840249 87.07348,60.1318303 L87.07348,63.3758235" id="Fill-102" fill="#E3E5E5" transform="translate(80.622785, 61.753521) rotate(314.000000) translate(-80.622785, -61.753521) "></path>
                        <path d="M118.965717,30.3504458 C118.965717,30.7976403 118.554178,31.1611386 118.044189,31.1611386 L106.985854,31.1611386 C106.477088,31.1611386 106.064326,30.7976403 106.064326,30.3504458 L106.064326,27.1064526 C106.064326,26.6586471 106.477088,26.2951488 106.985854,26.2951488 L118.044189,26.2951488 C118.554178,26.2951488 118.965717,26.6586471 118.965717,27.1064526 L118.965717,30.3504458" id="Fill-103" fill="#E3E5E5" transform="translate(112.515021, 28.728144) rotate(314.000000) translate(-112.515021, -28.728144) "></path>
                        <path d="M108.297307,41.3979073 C108.297307,41.8451018 107.885157,42.2086001 107.375779,42.2086001 L96.3174446,42.2086001 C95.8086781,42.2086001 95.3959167,41.8451018 95.3959167,41.3979073 L95.3959167,38.1539141 C95.3959167,37.7061086 95.8086781,37.3426103 96.3174446,37.3426103 L107.375779,37.3426103 C107.885157,37.3426103 108.297307,37.7061086 108.297307,38.1539141 L108.297307,41.3979073" id="Fill-104" fill="#E3E5E5" transform="translate(101.846612, 39.775605) rotate(314.000000) translate(-101.846612, -39.775605) "></path>
                        <path d="M37.0695673,138.31991 C37.0695673,139.183142 36.4868095,139.880814 35.767076,139.880814 L20.1390151,139.880814 C19.4186701,139.880814 18.8365238,139.183142 18.8365238,138.31991 L18.8365238,132.076292 C18.8365238,131.214282 19.4186701,130.515388 20.1390151,130.515388 L35.767076,130.515388 C36.4868095,130.515388 37.0695673,131.214282 37.0695673,132.076292 L37.0695673,138.31991" id="Fill-105" fill="#E3E5E5" transform="translate(27.953046, 135.198101) rotate(314.000000) translate(-27.953046, -135.198101) "></path>
                        <path d="M46.4622242,125.207675 C46.4622242,126.070907 46.0879873,126.768579 45.6269176,126.768579 L35.6038497,126.768579 C35.141557,126.768579 34.768543,126.070907 34.768543,125.207675 L34.768543,118.964057 C34.768543,118.102047 35.141557,117.403153 35.6038497,117.403153 L45.6269176,117.403153 C46.0879873,117.403153 46.4622242,118.102047 46.4622242,118.964057 L46.4622242,125.207675" id="Fill-106" fill="#E3E5E5" transform="translate(40.615384, 122.085866) rotate(314.000000) translate(-40.615384, -122.085866) "></path>
                        <path d="M56.7101926,114.59591 C56.7101926,115.459142 56.3353441,116.156814 55.874886,116.156814 L45.8512065,116.156814 C45.3895253,116.156814 45.0158999,115.459142 45.0158999,114.59591 L45.0158999,108.352292 C45.0158999,107.490282 45.3895253,106.791388 45.8512065,106.791388 L55.874886,106.791388 C56.3353441,106.791388 56.7101926,107.490282 56.7101926,108.352292 L56.7101926,114.59591" id="Fill-107" fill="#E3E5E5" transform="translate(50.863046, 111.474101) rotate(314.000000) translate(-50.863046, -111.474101) "></path>
                        <path d="M66.9576428,103.984364 C66.9576428,104.847596 66.5834059,105.545269 66.1217247,105.545269 L56.0986567,105.545269 C55.6369755,105.545269 55.2633501,104.847596 55.2633501,103.984364 L55.2633501,97.7407466 C55.2633501,96.8787364 55.6369755,96.1798422 56.0986567,96.1798422 L66.1217247,96.1798422 C66.5834059,96.1798422 66.9576428,96.8787364 66.9576428,97.7407466 L66.9576428,103.984364" id="Fill-108" fill="#E3E5E5" transform="translate(61.110496, 100.862556) rotate(314.000000) translate(-61.110496, -100.862556) "></path>
                        <path d="M77.2937792,93.2806652 C77.2937792,94.1438973 76.9195422,94.8415697 76.4596955,94.8415697 L66.4354046,94.8415697 C65.9737234,94.8415697 65.600098,94.1438973 65.600098,93.2806652 L65.600098,87.0370475 C65.600098,86.1750373 65.9737234,85.4761431 66.4354046,85.4761431 L76.4596955,85.4761431 C76.9195422,85.4761431 77.2937792,86.1750373 77.2937792,87.0370475 L77.2937792,93.2806652" id="Fill-109" fill="#E3E5E5" transform="translate(71.446939, 90.158856) rotate(314.000000) translate(-71.446939, -90.158856) "></path>
                        <path d="M87.5422657,82.66868 C87.5422657,83.5319121 87.1680287,84.2295845 86.7063475,84.2295845 L76.6826681,84.2295845 C76.2209869,84.2295845 75.8473615,83.5319121 75.8473615,82.66868 L75.8473615,76.4250623 C75.8473615,75.563052 76.2209869,74.8641578 76.6826681,74.8641578 L86.7063475,74.8641578 C87.1680287,74.8641578 87.5422657,75.563052 87.5422657,76.4250623 L87.5422657,82.66868" id="Fill-110" fill="#E3E5E5" transform="translate(81.694814, 79.546871) rotate(314.000000) translate(-81.694814, -79.546871) "></path>
                        <path d="M97.7895292,72.0566948 C97.7895292,72.9199269 97.4159037,73.6175993 96.953611,73.6175993 L86.9305431,73.6175993 C86.4694734,73.6175993 86.095848,72.9199269 86.095848,72.0566948 L86.095848,65.8130771 C86.095848,64.9510668 86.4694734,64.2521726 86.9305431,64.2521726 L96.953611,64.2521726 C97.4159037,64.2521726 97.7895292,64.9510668 97.7895292,65.8130771 L97.7895292,72.0566948" id="Fill-111" fill="#E3E5E5" transform="translate(91.942689, 68.934886) rotate(314.000000) translate(-91.942689, -68.934886) "></path>
                        <path d="M107.736752,61.7563611 C107.736752,62.6195931 107.363126,63.3172655 106.901445,63.3172655 L96.8777655,63.3172655 C96.4160843,63.3172655 96.0424589,62.6195931 96.0424589,61.7563611 L96.0424589,55.5127433 C96.0424589,54.6507331 96.4160843,53.9518389 96.8777655,53.9518389 L106.901445,53.9518389 C107.363126,53.9518389 107.736752,54.6507331 107.736752,55.5127433 L107.736752,61.7563611" id="Fill-112" fill="#E3E5E5" transform="translate(101.889605, 58.634552) rotate(314.000000) translate(-101.889605, -58.634552) "></path>
                        <path d="M118.072888,51.0526619 C118.072888,51.915894 117.698651,52.6135663 117.238804,52.6135663 L107.215125,52.6135663 C106.753444,52.6135663 106.379207,51.915894 106.379207,51.0526619 L106.379207,44.8090442 C106.379207,43.9470339 106.753444,43.2481397 107.215125,43.2481397 L117.238804,43.2481397 C117.698651,43.2481397 118.072888,43.9470339 118.072888,44.8090442 L118.072888,51.0526619" id="Fill-113" fill="#E3E5E5" transform="translate(112.226047, 47.930853) rotate(314.000000) translate(-112.226047, -47.930853) "></path>
                        <path d="M128.321281,40.4404568 C128.321281,41.3036888 127.947044,42.0013612 127.485363,42.0013612 L117.462295,42.0013612 C117.000614,42.0013612 116.626988,41.3036888 116.626988,40.4404568 L116.626988,34.196839 C116.626988,33.3348288 117.000614,32.6359346 117.462295,32.6359346 L127.485363,32.6359346 C127.947044,32.6359346 128.321281,33.3348288 128.321281,34.196839 L128.321281,40.4404568" id="Fill-114" fill="#E3E5E5" transform="translate(122.474135, 37.318648) rotate(314.000000) translate(-122.474135, -37.318648) "></path>
                        <path d="M138.72387,29.668577 C138.72387,30.5318091 138.349022,31.2294814 137.887952,31.2294814 L127.864884,31.2294814 C127.403203,31.2294814 127.028966,30.5318091 127.028966,29.668577 L127.028966,23.4249592 C127.028966,22.562949 127.403203,21.8640548 127.864884,21.8640548 L137.887952,21.8640548 C138.349022,21.8640548 138.72387,22.562949 138.72387,23.4249592 L138.72387,29.668577" id="Fill-115" fill="#E3E5E5" transform="translate(132.876418, 26.546768) rotate(314.000000) translate(-132.876418, -26.546768) "></path>
                        <path d="M129.462089,19.4811337 C129.462089,19.9283282 129.050551,20.2918265 128.540561,20.2918265 L117.482227,20.2918265 C116.97346,20.2918265 116.560699,19.9283282 116.560699,19.4811337 L116.560699,16.2371405 C116.560699,15.789335 116.97346,15.4258367 117.482227,15.4258367 L128.540561,15.4258367 C129.050551,15.4258367 129.462089,15.789335 129.462089,16.2371405 L129.462089,19.4811337" id="Fill-116" fill="#E3E5E5" transform="translate(123.011394, 17.858832) rotate(314.000000) translate(-123.011394, -17.858832) "></path>
                        <path d="M48.9137448,146.876805 C48.9137448,147.738816 48.2533267,148.43771 47.436365,148.43771 L29.712088,148.43771 C28.8951263,148.43771 28.2347082,147.738816 28.2347082,146.876805 L28.2347082,140.633188 C28.2347082,139.769956 28.8951263,139.071672 29.712088,139.071672 L47.436365,139.071672 C48.2533267,139.071672 48.9137448,139.769956 48.9137448,140.633188 L48.9137448,146.876805" id="Fill-117" fill="#E3E5E5" transform="translate(38.574227, 143.754691) rotate(314.000000) translate(-38.574227, -143.754691) "></path>
                        <path d="M57.9325452,132.88526 C57.9325452,133.747271 57.5589197,134.446165 57.09785,134.446165 L47.0747821,134.446165 C46.6124894,134.446165 46.238864,133.747271 46.238864,132.88526 L46.238864,126.641643 C46.238864,125.77841 46.6124894,125.080127 47.0747821,125.080127 L57.09785,125.080127 C57.5589197,125.080127 57.9325452,125.77841 57.9325452,126.641643 L57.9325452,132.88526" id="Fill-118" fill="#E3E5E5" transform="translate(52.085705, 129.763146) rotate(314.000000) translate(-52.085705, -129.763146) "></path>
                        <path d="M68.1809383,122.273055 C68.1809383,123.135065 67.8067014,123.83396 67.3456317,123.83396 L57.3213407,123.83396 C56.860271,123.83396 56.4866456,123.135065 56.4866456,122.273055 L56.4866456,116.029437 C56.4866456,115.166205 56.860271,114.467922 57.3213407,114.467922 L67.3456317,114.467922 C67.8067014,114.467922 68.1809383,115.166205 68.1809383,116.029437 L68.1809383,122.273055" id="Fill-119" fill="#E3E5E5" transform="translate(62.333792, 119.150941) rotate(314.000000) translate(-62.333792, -119.150941) "></path>
                        <path d="M78.4283885,111.66151 C78.4283885,112.52352 78.0541516,113.222414 77.5924704,113.222414 L67.5694024,113.222414 C67.1077213,113.222414 66.7340958,112.52352 66.7340958,111.66151 L66.7340958,105.417892 C66.7340958,104.55466 67.1077213,103.856377 67.5694024,103.856377 L77.5924704,103.856377 C78.0541516,103.856377 78.4283885,104.55466 78.4283885,105.417892 L78.4283885,111.66151" id="Fill-120" fill="#E3E5E5" transform="translate(72.581242, 108.539395) rotate(314.000000) translate(-72.581242, -108.539395) "></path>
                        <path d="M88.7645249,100.957811 C88.7645249,101.819821 88.390288,102.518715 87.9304413,102.518715 L77.9061503,102.518715 C77.4444691,102.518715 77.0708437,101.819821 77.0708437,100.957811 L77.0708437,94.7141929 C77.0708437,93.8509608 77.4444691,93.1526775 77.9061503,93.1526775 L87.9304413,93.1526775 C88.390288,93.1526775 88.7645249,93.8509608 88.7645249,94.7141929 L88.7645249,100.957811" id="Fill-121" fill="#E3E5E5" transform="translate(82.917684, 97.835696) rotate(314.000000) translate(-82.917684, -97.835696) "></path>
                        <path d="M99.0130114,90.3458254 C99.0130114,91.2078357 98.6387744,91.9067299 98.1770933,91.9067299 L88.1534138,91.9067299 C87.6917326,91.9067299 87.3181072,91.2078357 87.3181072,90.3458254 L87.3181072,84.1022077 C87.3181072,83.2389756 87.6917326,82.5406923 88.1534138,82.5406923 L98.1770933,82.5406923 C98.6387744,82.5406923 99.0130114,83.2389756 99.0130114,84.1022077 L99.0130114,90.3458254" id="Fill-122" fill="#E3E5E5" transform="translate(93.165559, 87.223711) rotate(314.000000) translate(-93.165559, -87.223711) "></path>
                        <path d="M109.260275,79.7338402 C109.260275,80.5958504 108.886649,81.2947446 108.424357,81.2947446 L98.4012888,81.2947446 C97.9402191,81.2947446 97.5665937,80.5958504 97.5665937,79.7338402 L97.5665937,73.4902225 C97.5665937,72.6269904 97.9402191,71.9287071 98.4012888,71.9287071 L108.424357,71.9287071 C108.886649,71.9287071 109.260275,72.6269904 109.260275,73.4902225 L109.260275,79.7338402" id="Fill-123" fill="#E3E5E5" transform="translate(103.413434, 76.611726) rotate(314.000000) translate(-103.413434, -76.611726) "></path>
                        <path d="M119.207497,69.4335065 C119.207497,70.2955167 118.833872,70.9944109 118.372191,70.9944109 L108.348511,70.9944109 C107.88683,70.9944109 107.513205,70.2955167 107.513205,69.4335065 L107.513205,63.1898887 C107.513205,62.3266566 107.88683,61.6283733 108.348511,61.6283733 L118.372191,61.6283733 C118.833872,61.6283733 119.207497,62.3266566 119.207497,63.1898887 L119.207497,69.4335065" id="Fill-124" fill="#E3E5E5" transform="translate(113.360351, 66.311392) rotate(314.000000) translate(-113.360351, -66.311392) "></path>
                        <path d="M129.543634,58.7298073 C129.543634,59.5918175 129.169397,60.2907117 128.70955,60.2907117 L118.685871,60.2907117 C118.224189,60.2907117 117.849953,59.5918175 117.849953,58.7298073 L117.849953,52.4861895 C117.849953,51.6229575 118.224189,50.9246742 118.685871,50.9246742 L128.70955,50.9246742 C129.169397,50.9246742 129.543634,51.6229575 129.543634,52.4861895 L129.543634,58.7298073" id="Fill-125" fill="#E3E5E5" transform="translate(123.696793, 55.607693) rotate(314.000000) translate(-123.696793, -55.607693) "></path>
                        <path d="M150.408204,43.6113024 C150.408204,44.4733126 149.632213,45.1722068 148.675829,45.1722068 L127.915463,45.1722068 C126.958469,45.1722068 126.184923,44.4733126 126.184923,43.6113024 L126.184923,37.3676846 C126.184923,36.5044525 126.958469,35.8061692 127.915463,35.8061692 L148.675829,35.8061692 C149.632213,35.8061692 150.408204,36.5044525 150.408204,37.3676846 L150.408204,43.6113024" id="Fill-126" fill="#E3E5E5" transform="translate(138.296564, 40.489188) rotate(314.000000) translate(-138.296564, -40.489188) "></path>
                        <path d="M51.3084313,159.465922 C51.3084313,160.329154 50.9348058,161.027437 50.4737361,161.027437 L40.4506682,161.027437 C39.987764,161.027437 39.6147501,160.329154 39.6147501,159.465922 L39.6147501,153.221693 C39.6147501,152.360294 39.987764,151.6614 40.4506682,151.6614 L50.4737361,151.6614 C50.9348058,151.6614 51.3084313,152.360294 51.3084313,153.221693 L51.3084313,159.465922" id="Fill-127" fill="#E3E5E5" transform="translate(45.461591, 156.344418) rotate(314.000000) translate(-45.461591, -156.344418) "></path>
                        <path d="M61.5568244,148.853717 C61.5568244,149.716949 61.1825875,150.415232 60.7215178,150.415232 L50.6972268,150.415232 C50.2355457,150.415232 49.8625317,149.716949 49.8625317,148.853717 L49.8625317,142.609488 C49.8625317,141.748089 50.2355457,141.049195 50.6972268,141.049195 L60.7215178,141.049195 C61.1825875,141.049195 61.5568244,141.748089 61.5568244,142.609488 L61.5568244,148.853717" id="Fill-128" fill="#E3E5E5" transform="translate(55.709678, 145.732213) rotate(314.000000) translate(-55.709678, -145.732213) "></path>
                        <path d="M71.8042746,138.242171 C71.8042746,139.105403 71.4300377,139.803687 70.9683565,139.803687 L60.9452886,139.803687 C60.4829959,139.803687 60.1099819,139.105403 60.1099819,138.242171 L60.1099819,131.997943 C60.1099819,131.136543 60.4829959,130.437649 60.9452886,130.437649 L70.9683565,130.437649 C71.4300377,130.437649 71.8042746,131.136543 71.8042746,131.997943 L71.8042746,138.242171" id="Fill-129" fill="#E3E5E5" transform="translate(65.957128, 135.120668) rotate(314.000000) translate(-65.957128, -135.120668) "></path>
                        <path d="M126.448557,81.0392823 C126.448557,81.9025144 126.112845,82.6007976 125.698249,82.6007976 L116.695772,82.6007976 C116.281176,82.6007976 115.946075,81.9025144 115.946075,81.0392823 L115.946075,74.7950536 C115.946075,73.9336543 116.281176,73.2347601 116.695772,73.2347601 L125.698249,73.2347601 C126.112845,73.2347601 126.448557,73.9336543 126.448557,74.7950536 L126.448557,81.0392823" id="Fill-130" fill="#E3E5E5" transform="translate(121.197316, 77.917779) rotate(314.000000) translate(-121.197316, -77.917779) "></path>
                        <path d="M135.336368,71.8518324 C135.336368,72.7150645 134.999432,73.4133477 134.584837,73.4133477 L125.555453,73.4133477 C125.139023,73.4133477 124.802699,72.7150645 124.802699,71.8518324 L124.802699,65.6076037 C124.802699,64.7462044 125.139023,64.0473102 125.555453,64.0473102 L134.584837,64.0473102 C134.999432,64.0473102 135.336368,64.7462044 135.336368,65.6076037 L135.336368,71.8518324" id="Fill-131" fill="#E3E5E5" transform="translate(130.069533, 68.730329) rotate(314.000000) translate(-130.069533, -68.730329) "></path>
                        <path d="M149.423431,50.2893095 C149.423431,50.6497532 149.161098,50.9399409 148.838227,50.9399409 L141.832291,50.9399409 C141.50942,50.9399409 141.247699,50.6497532 141.247699,50.2893095 L141.247699,47.6873948 C141.247699,47.3293948 141.50942,47.0379852 141.832291,47.0379852 L148.838227,47.0379852 C149.161098,47.0379852 149.423431,47.3293948 149.423431,47.6873948 L149.423431,50.2893095" id="Fill-132" fill="#E3E5E5" transform="translate(145.335565, 48.988963) rotate(314.000000) translate(-145.335565, -48.988963) "></path>
                        <path d="M153.39637,54.0865281 C153.39637,54.4359752 153.134038,54.71761 152.811166,54.71761 L145.805231,54.71761 C145.48236,54.71761 145.220639,54.4359752 145.220639,54.0865281 L145.220639,51.5634223 C145.220639,51.2164189 145.48236,50.9335622 145.805231,50.9335622 L152.811166,50.9335622 C153.134038,50.9335622 153.39637,51.2164189 153.39637,51.5634223 L153.39637,54.0865281" id="Fill-133" fill="#E3E5E5" transform="translate(149.308504, 52.825586) rotate(314.000000) translate(-149.308504, -52.825586) "></path>
                        <path d="M146.312181,61.4221041 C146.312181,61.7715512 146.049848,62.053186 145.727589,62.053186 L138.721653,62.053186 C138.398171,62.053186 138.137061,61.7715512 138.137061,61.4221041 L138.137061,58.8989983 C138.137061,58.5519949 138.398171,58.2691383 138.721653,58.2691383 L145.727589,58.2691383 C146.049848,58.2691383 146.312181,58.5519949 146.312181,58.8989983 L146.312181,61.4221041" id="Fill-134" fill="#E3E5E5" transform="translate(142.224621, 60.161162) rotate(314.000000) translate(-142.224621, -60.161162) "></path>
                        <path d="M160.279026,46.959013 C160.279026,47.3084601 160.016693,47.5900949 159.694434,47.5900949 L152.687887,47.5900949 C152.365015,47.5900949 152.103906,47.3084601 152.103906,46.959013 L152.103906,44.4359072 C152.103906,44.0889038 152.365015,43.8060471 152.687887,43.8060471 L159.694434,43.8060471 C160.016693,43.8060471 160.279026,44.0889038 160.279026,44.4359072 L160.279026,46.959013" id="Fill-135" fill="#E3E5E5" transform="translate(156.191466, 45.698071) rotate(314.000000) translate(-156.191466, -45.698071) "></path>
                        <path d="M125.485635,109.387145 C125.485635,110.126971 124.916942,110.727507 124.216777,110.727507 L63.8545606,110.727507 C63.1537836,110.727507 62.5857017,110.126971 62.5857017,109.387145 L62.5857017,102.70122 C62.5857017,101.961394 63.1537836,101.36147 63.8545606,101.36147 L124.216777,101.36147 C124.916942,101.36147 125.485635,101.961394 125.485635,102.70122 L125.485635,109.387145" id="Fill-136" fill="#E3E5E5" transform="translate(94.035669, 106.044488) rotate(314.000000) translate(-94.035669, -106.044488) "></path>
                    </g>
                    <path d="M398,198 L401.75093,236.486222 L465.873249,236.486222 L469.847376,198 L398,198" id="Fill-11" fill="#C9C7B8" sketch:type="MSShapeGroup"></path>
                    <path d="M590.435672,175.805491 C590.435672,192.753065 577.294575,206.491468 561.083756,206.491468 L303.351916,206.491468 C287.141709,206.491468 274,192.753065 274,175.805491 L274,30.6859761 C274,13.7384027 287.141709,0 303.351916,0 L561.083756,0 C577.294575,0 590.435672,13.7384027 590.435672,30.6859761 L590.435672,175.805491" id="Fill-12" fill="#EBE8D6" sketch:type="MSShapeGroup"></path>
                    <path d="M388,235 L476.28078,235 L476.28078,246.810945 L388,246.810945 L388,235 Z" id="Fill-13" fill="#EBE8D6" sketch:type="MSShapeGroup"></path>
                    <path d="M274,168.970502 L274,30.6859761 C274,13.7384027 287.141709,0 303.351916,0 L561.083756,0 C577.294575,0 590.435672,13.7384027 590.435672,30.6859761 L590.435672,168.970502 L274,168.970502" id="Fill-14" fill="#26323E" sketch:type="MSShapeGroup"></path>
                    <path d="M576.756404,147.266949 C576.756404,152.269785 572.609223,156.326304 567.49404,156.326304 L298.262976,156.326304 C293.147181,156.326304 289,152.269785 289,147.266949 L289,24.0593549 C289,19.0559078 293.147181,15 298.262976,15 L567.49404,15 C572.609223,15 576.756404,19.0559078 576.756404,24.0593549 L576.756404,147.266949" id="Fill-15" fill="#979FA1" sketch:type="MSShapeGroup"></path>
                    <path d="M441.632141,190.308532 C441.632141,194.896553 437.90934,198.616454 433.316376,198.616454 C428.723413,198.616454 425,194.896553 425,190.308532 C425,185.71929 428.723413,182 433.316376,182 C437.90934,182 441.632141,185.71929 441.632141,190.308532" id="Fill-16" fill="#26323E" sketch:type="MSShapeGroup"></path>
                    <path d="M565.778746,32.9807816 C565.778746,34.977273 563.994394,36.5956041 561.793,36.5956041 L304.985746,36.5956041 C302.784963,36.5956041 301,34.977273 301,32.9807816 L301,24.6142116 C301,22.6177201 302.784963,21 304.985746,21 L561.793,21 C563.994394,21 565.778746,22.6177201 565.778746,24.6142116 L565.778746,32.9807816" id="Fill-17" fill="#6D7779" sketch:type="MSShapeGroup"></path>
                    <path d="M313.481681,28.7370068 C313.481681,30.8013106 311.806787,32.4746246 309.740535,32.4746246 C307.674894,32.4746246 306,30.8013106 306,28.7370068 C306,26.673314 307.674894,25 309.740535,25 C311.806787,25 313.481681,26.673314 313.481681,28.7370068" id="Fill-18" fill="#FFFFFF" sketch:type="MSShapeGroup"></path>
                    <path d="M323.48107,28.7370068 C323.48107,30.8013106 321.806787,32.4746246 319.740535,32.4746246 C317.674282,32.4746246 316,30.8013106 316,28.7370068 C316,26.673314 317.674282,25 319.740535,25 C321.806787,25 323.48107,26.673314 323.48107,28.7370068" id="Fill-19" fill="#FFFFFF" sketch:type="MSShapeGroup"></path>
                    <path d="M333.48107,28.7370068 C333.48107,30.8013106 331.806787,32.4746246 329.740535,32.4746246 C327.674282,32.4746246 326,30.8013106 326,28.7370068 C326,26.673314 327.674282,25 329.740535,25 C331.806787,25 333.48107,26.673314 333.48107,28.7370068" id="Fill-20" fill="#FFFFFF" sketch:type="MSShapeGroup"></path>
                    <path d="M560.222125,31.6407167 C560.222125,32.2272014 559.674834,32.7031092 558.999129,32.7031092 L342.222997,32.7031092 C341.547902,32.7031092 341,32.2272014 341,31.6407167 L341,26.0623925 C341,25.4759078 341.547902,25 342.222997,25 L558.999129,25 C559.674834,25 560.222125,25.4759078 560.222125,26.0623925 L560.222125,31.6407167" id="Fill-21" fill="#FFFFFF" sketch:type="MSShapeGroup"></path>
                    <path d="M560.369976,135.871894 C560.369976,136.621495 559.931531,137.228751 559.390967,137.228751 L496.979009,137.228751 C496.438444,137.228751 496,136.621495 496,135.871894 L496,49.3568567 C496,48.607256 496.438444,48 496.979009,48 L559.390967,48 C559.931531,48 560.369976,48.607256 560.369976,49.3568567 L560.369976,135.871894" id="Fill-22" fill="#FFFFFF" sketch:type="MSShapeGroup"></path>
                    <path d="M479.557491,136.006908 C479.557491,136.681365 479.029768,137.228751 478.378523,137.228751 L302.178357,137.228751 C301.527723,137.228751 301,136.681365 301,136.006908 L301,49.221843 C301,48.5473857 301.527723,48 302.178357,48 L478.378523,48 C479.029768,48 479.557491,48.5473857 479.557491,49.221843 L479.557491,136.006908" id="Fill-23" fill="#FFFFFF" sketch:type="MSShapeGroup"></path>
                    <path d="M453.889399,67.7336553 C453.889399,68.4087235 453.342108,68.9554983 452.666402,68.9554983 L315.222997,68.9554983 C314.547902,68.9554983 314,68.4087235 314,67.7336553 L314,61.221843 C314,60.5473857 314.547902,60 315.222997,60 L452.666402,60 C453.342108,60 453.889399,60.5473857 453.889399,61.221843 L453.889399,67.7336553" id="Fill-24" fill="#BCBFC0" sketch:type="MSShapeGroup"></path>
                    <path d="M452.666402,88.9554983 L315.222997,88.9554983 C314.547902,88.9554983 314,88.4087235 314,87.7336553 L314,81.221843 C314,80.5467747 314.547902,80 315.222997,80 L452.666402,80 C453.342108,80 453.889399,80.5467747 453.889399,81.221843 L453.889399,87.7336553 C453.889399,88.4087235 453.342108,88.9554983 452.666402,88.9554983 Z" id="Fill-25" fill="#BCBFC0" sketch:type="MSShapeGroup"></path>
                    <path d="M413.836263,105.733655 C413.836263,106.408724 413.445516,106.955498 412.963044,106.955498 L314.872608,106.955498 C314.391359,106.955498 314,106.408724 314,105.733655 L314,99.221843 C314,98.5473857 314.391359,98 314.872608,98 L412.963044,98 C413.445516,98 413.836263,98.5473857 413.836263,99.221843 L413.836263,105.733655" id="Fill-26" fill="#BCC0C1" sketch:type="MSShapeGroup"></path>
                    <path d="M548.135889,82.8394573 C548.135889,83.5145256 547.587986,84.0613003 546.912892,84.0613003 L510.222997,84.0613003 C509.547902,84.0613003 509,83.5145256 509,82.8394573 L509,59.221843 C509,58.5467747 509.547902,58 510.222997,58 L546.912892,58 C547.587986,58 548.135889,58.5467747 548.135889,59.221843 L548.135889,82.8394573" id="Fill-27" fill="#CE8080" sketch:type="MSShapeGroup"></path>
                    <path d="M544.874768,99.8630922 C544.874768,100.53816 544.327477,101.084935 543.651772,101.084935 L510.222997,101.084935 C509.547902,101.084935 509,100.53816 509,99.8630922 L509,94.221843 C509,93.5461638 509.547902,93 510.222997,93 L543.651772,93 C544.327477,93 544.874768,93.5461638 544.874768,94.221843 L544.874768,99.8630922" id="Fill-28" fill="#BCBFC0" sketch:type="MSShapeGroup"></path>
                    <path d="M535.498054,112.863703 C535.498054,113.53816 535.093854,114.085546 534.594871,114.085546 L509.903794,114.085546 C509.4042,114.085546 509,113.53816 509,112.863703 L509,107.221843 C509,106.546775 509.4042,106 509.903794,106 L534.594871,106 C535.093854,106 535.498054,106.546775 535.498054,107.221843 L535.498054,112.863703" id="Fill-29" fill="#BCBFC0" sketch:type="MSShapeGroup"></path>
                    <path d="M567.071545,15 L567,15 C572.080939,15.0397099 576.187761,19.0803447 576.187761,24.0593549 L576.187761,24.2096416 L576.333909,24.0593549 C576.333909,19.0559078 572.186728,15 567.071545,15" id="Fill-30" fill="#48616A" sketch:type="MSShapeGroup"></path>
                    <path d="M466.190108,137.768341 L334.762622,137.768341 L310,156.326304 L448.127061,156.326304 L466.190108,137.768341 M567.530045,15 L498.575667,15 L489.939477,21.4727133 L562.160479,21.4727133 C564.361873,21.4727133 566.146225,23.0904334 566.146225,25.0869249 L566.146225,33.4534949 C566.146225,35.4499863 564.361873,37.0683174 562.160479,37.0683174 L469.12958,37.0683174 L453.822556,48.5395904 L478.746002,48.5395904 C479.397247,48.5395904 479.92497,49.0869761 479.92497,49.7614334 L479.92497,123.656666 L496.272765,106.860601 L496.272765,49.8964471 C496.272765,49.1468464 496.711209,48.5395904 497.251774,48.5395904 L553.036925,48.5395904 L576.717807,24.2096416 L576.717807,24.0593549 C576.717807,19.0803447 572.610984,15.0397099 567.530045,15" id="Fill-31" fill="#AEB5B6" sketch:type="MSShapeGroup"></path>
                    <path d="M562.030899,21 L489.809897,21 L484.876941,24.696686 L559.290164,24.696686 C559.965869,24.696686 560.51316,25.1725939 560.51316,25.7590785 L560.51316,31.3374027 C560.51316,31.9238874 559.965869,32.3997952 559.290164,32.3997952 L474.598267,32.3997952 L469,36.5956041 L562.030899,36.5956041 C564.232293,36.5956041 566.016645,34.977273 566.016645,32.9807816 L566.016645,24.6142116 C566.016645,22.6177201 564.232293,21 562.030899,21" id="Fill-32" fill="#BCBFC0" sketch:type="MSShapeGroup"></path>
                    <path d="M559.691897,25 L485.278674,25 L475,32.7031092 L559.691897,32.7031092 C560.367603,32.7031092 560.914894,32.2272014 560.914894,31.6407167 L560.914894,26.0623925 C560.914894,25.4759078 560.367603,25 559.691897,25" id="Fill-33" fill="#EBFBFB" sketch:type="MSShapeGroup"></path>
                    <path d="M552.76416,48 L496.979009,48 C496.438444,48 496,48.607256 496,49.3568567 L496,106.32101 L517.62747,84.1005734 L510.02349,84.1005734 C509.348395,84.1005734 508.800493,83.5537986 508.800493,82.8787304 L508.800493,59.261116 C508.800493,58.5860478 509.348395,58.039273 510.02349,58.039273 L542.99303,58.039273 L552.76416,48" id="Fill-34" fill="#EBFBFB" sketch:type="MSShapeGroup"></path>
                    <path d="M478.98338,48 L454.059934,48 L438.219071,59.8720375 L452.644927,59.8720375 C453.320632,59.8720375 453.867923,60.4194232 453.867923,61.0938805 L453.867923,67.6056928 C453.867923,68.2807611 453.320632,68.8275358 452.644927,68.8275358 L426.269172,68.8275358 L412.164965,79.3983106 L452.644927,79.3983106 C453.320632,79.3983106 453.867923,79.9450853 453.867923,80.6201536 L453.867923,87.1319659 C453.867923,87.8070341 453.320632,88.3538089 452.644927,88.3538089 L400.215066,88.3538089 L387.270871,98.0546314 L412.941568,98.0546314 C413.42404,98.0546314 413.814787,98.6020171 413.814787,99.2764744 L413.814787,105.788287 C413.814787,106.463355 413.42404,107.01013 412.941568,107.01013 L375.321584,107.01013 L335,137.228751 L466.427486,137.228751 L480.162348,123.117075 L480.162348,49.221843 C480.162348,48.5473857 479.634625,48 478.98338,48" id="Fill-35" fill="#EBFBFB" sketch:type="MSShapeGroup"></path>
                    <path d="M452.375754,60 L437.949899,60 L426,68.9554983 L452.375754,68.9554983 C453.05146,68.9554983 453.598751,68.4087235 453.598751,67.7336553 L453.598751,61.221843 C453.598751,60.5473857 453.05146,60 452.375754,60" id="Fill-36" fill="#D5D5D5" sketch:type="MSShapeGroup"></path>
                    <path d="M411.949899,80 L400,88.9554983 L452.429861,88.9554983 C453.105566,88.9554983 453.652857,88.4087235 453.652857,87.7336553 L453.652857,81.221843 C453.652857,80.5467747 453.105566,80 452.429861,80 L411.949899,80 Z" id="Fill-37" fill="#D5D5D5" sketch:type="MSShapeGroup"></path>
                    <path d="M412.619984,98 L386.949287,98 L375,106.955498 L412.619984,106.955498 C413.102456,106.955498 413.493204,106.408724 413.493204,105.733655 L413.493204,99.221843 C413.493204,98.5473857 413.102456,98 412.619984,98" id="Fill-38" fill="#D5D5D5" sketch:type="MSShapeGroup"></path>
                    <path d="M543.192537,58 L510.222997,58 C509.547902,58 509,58.5467747 509,59.221843 L509,82.8394573 C509,83.5145256 509.547902,84.0613003 510.222997,84.0613003 L517.826977,84.0613003 L543.192537,58" id="Fill-39" fill="#E67E7E" sketch:type="MSShapeGroup"></path>
                    <path d="M545.149999,36.9137695 C545.347513,38.2455784 544.427208,39.4851381 543.093531,39.6824658 L509.368179,44.6718617 C508.035724,44.8691893 506.794383,43.9497525 506.596869,42.6179436 L502.026531,11.7853463 C501.829628,10.4529265 502.749933,9.21397772 504.082999,9.01665007 L537.808963,4.02664325 C539.141417,3.8293156 540.382147,4.74936338 540.579661,6.08117226 L545.149999,36.9137695" id="Fill-40" fill="#FED851" sketch:type="MSShapeGroup"></path>
                    <path d="M589.284068,194.875935 C589.488308,196.207744 588.575341,197.450969 587.242275,197.655017 L562.153113,201.503212 L549.652254,193.561232 L546.028515,169.975386 C545.824275,168.643577 546.739076,167.400352 548.070919,167.195082 L581.769977,162.028519 C583.101209,161.824471 584.347442,162.737188 584.551071,164.067775 L589.284068,194.875935" id="Fill-41" fill="#FED851" sketch:type="MSShapeGroup"></path>
                    <path d="M605.612725,134.780716 C605.834087,136.108859 604.936408,137.365525 603.60701,137.586067 L569.978887,143.19616 C568.650101,143.417313 567.392249,142.521091 567.17211,141.192948 L562.03369,110.448934 C561.811716,109.120791 562.710007,107.865347 564.039404,107.642361 L597.666916,102.033491 C598.995702,101.812337 600.253554,102.709781 600.474916,104.036702 L605.612725,134.780716" id="Fill-42" fill="#F4DA7C" sketch:type="MSShapeGroup"></path>
                    <path d="M297.529694,188.90068 C297.320562,190.231267 296.071271,191.139096 294.739428,190.928939 L261.060549,185.637137 C259.729929,185.42698 258.819408,184.180701 259.030375,182.850114 L263.878333,152.059059 C264.087466,150.730305 265.336757,149.821864 266.667989,150.029578 L300.346867,155.322602 C301.678098,155.531537 302.588008,156.780871 302.378264,158.109015 L297.529694,188.90068" id="Fill-43" fill="#FED851" sketch:type="MSShapeGroup"></path>
                    <text id="?" sketch:type="MSTextLayer" font-family="Arial Rounded MT Bold" font-size="28.4266263" font-weight="normal" fill="#CA4A4A">
                        <tspan x="579" y="127">?</tspan>
                    </text>
                    <path d="M295.573068,165.774587 L268,160.991072 L268.519774,158 L296.092841,162.783515 L295.573068,165.774587" id="Fill-44" fill="#7B7B7B" sketch:type="MSShapeGroup"></path>
                    <path d="M562.500859,202.408191 L561.074233,195.21459 C560.768484,193.687287 559.810267,193.056205 558.546911,193 L550,194.466212 L562.500859,202.408191" id="Fill-45" fill="#EDC154" sketch:type="MSShapeGroup"></path>
                    <path d="M295.573068,169.773976 L268,164.990461 L268.519774,162 L296.092841,166.782294 L295.573068,169.773976" id="Fill-46" fill="#7B7B7B" sketch:type="MSShapeGroup"></path>
                    <path d="M294.573068,174.773976 L267,169.98985 L267.519774,167 L295.092841,171.782294 L294.573068,174.773976" id="Fill-47" fill="#7B7B7B" sketch:type="MSShapeGroup"></path>
                    <path d="M285.526974,177.378631 L266,173.991072 L266.520385,171 L286.046747,174.38756 L285.526974,177.378631" id="Fill-48" fill="#7B7B7B" sketch:type="MSShapeGroup"></path>
                    <path d="M592.99381,284.833584 C592.99381,298.624526 591.36539,309.803167 574.496599,309.803167 C558.796382,309.803167 556,298.624526 556,284.833584 C556,271.043863 559.53874,257 575.238958,257 C589.792005,257 592.99381,271.043863 592.99381,284.833584" id="Fill-92" fill="#B6B7B6" sketch:type="MSShapeGroup" transform="translate(574.496905, 283.401584) rotate(52.000000) translate(-574.496905, -283.401584) "></path>
                    <path d="M595.926956,279.317433 C595.926956,293.347246 594.257566,304.719549 576.963172,304.719549 C560.866704,304.719549 558,293.347246 558,279.317433 C558,265.288232 561.627408,251 577.724488,251 C592.643822,251 595.926956,265.288232 595.926956,279.317433" id="Fill-93" fill="#EBE8D6" sketch:type="MSShapeGroup" transform="translate(576.963478, 277.859775) rotate(52.000000) translate(-576.963478, -277.859775) "></path>
                    <path d="M594.665531,266.443686 C594.665531,267.793212 593.397284,268.887372 591.83246,268.887372 C590.268859,268.887372 589,267.793212 589,266.443686 C589,265.09416 590.268859,264 591.83246,264 C593.397284,264 594.665531,265.09416 594.665531,266.443686" id="Fill-94" fill="#B6B7B6" sketch:type="MSShapeGroup" transform="translate(591.832766, 266.443686) rotate(52.000000) translate(-591.832766, -266.443686) "></path>
                </g>
                <g id="Path-5-+-Path-5-Copy-+-Path-5-+-Path-5-Copy-2-Mask" transform="translate(202.598693, 164.811869)">
                    <mask id="mask-2" sketch:name="Mask" fill="white">
                        <use xlink:href="#path-1"></use>
                    </mask>
                    <use id="Mask" fill="#F7A175" sketch:type="MSShapeGroup" xlink:href="#path-1"></use>
                    <mask id="mask-4" sketch:name="Mask Copy" fill="white">
                        <use xlink:href="#path-3"></use>
                    </mask>
                    <use id="Mask-Copy" fill="#F7A175" sketch:type="MSShapeGroup" xlink:href="#path-3"></use>
                    <mask id="mask-6" sketch:name="Mask Copy 2" fill="white">
                        <use xlink:href="#path-5"></use>
                    </mask>
                    <use id="Mask-Copy-2" fill="#FC8B51" sketch:type="MSShapeGroup" xlink:href="#path-5"></use>
                </g>
                <g id="Path-12" transform="translate(305.580426, 120.728629)">
                    <mask id="mask-8" sketch:name="Mask" fill="white">
                        <use xlink:href="#path-7"></use>
                    </mask>
                    <use id="Mask" fill="#E2733B" sketch:type="MSShapeGroup" xlink:href="#path-7"></use>
                </g>
                <path d="M313.944083,120.824018 C313.944083,120.824018 304.835784,132.979591 309.284315,144.902508 C311.521745,150.89925 313.15144,156.112331 318.916749,161.56072 C324.682058,167.009109 336.314085,168.980997 346.060197,168.980997 C355.806309,168.980997 358.755654,168.038519 360.257775,165.553338 C361.759896,163.068157 361.820502,156.630461 355.806309,153.241604 C349.792116,149.852748 347.337692,149.464528 338.785933,149.464528 C330.234175,149.464528 326.421408,146.562466 321.151479,141.975212 C315.88155,137.387957 313.944083,120.824018 313.944083,120.824018 Z" id="Path-9" fill="#FC8B51" sketch:type="MSShapeGroup"></path>
                <path d="M480.952751,300.229182 C480.739599,304.792417 482.36518,307.209188 482.36518,309.716157 C482.36518,312.223127 482.244776,316.827344 482.36518,317.628188 C482.596683,319.167995 488.764225,314.912687 490.338214,302.902435 C490.952447,298.215557 487.618103,286.155207 487.618103,286.155207 C487.618103,286.155207 481.7682,282.771765 480.952751,300.229182 Z" id="Path-9" fill="#E2733B" sketch:type="MSShapeGroup" transform="translate(485.673609, 301.910892) scale(-1, 1) translate(-485.673609, -301.910892) "></path>
                <path d="M519.432337,285.773349 C527.381025,281.753974 540.39813,246.392743 560.057554,246.392743 C585.479281,246.392743 565.230474,263.112411 551.488363,285.773349 C543.799524,298.452354 537.550548,304.310517 531.764967,309.156924 C518.464752,320.298115 485.109597,332.843366 475.756151,323.520453 C462.333966,310.142082 482.972409,293.523204 482.972409,293.523204 L485.451453,292.405525 C485.451453,292.405525 511.483648,289.792723 519.432337,285.773349 Z" id="Path-9-Copy" fill="#FC8B51" sketch:type="MSShapeGroup" transform="translate(521.712051, 286.584936) rotate(30.000000) translate(-521.712051, -286.584936) "></path>
                <path d="M201.605534,300.92293 C201.392382,305.486165 203.017963,307.902935 203.017963,310.409905 C203.017963,312.916874 202.897559,317.521091 203.017963,318.321935 C203.249466,319.861742 209.417008,315.606434 210.990997,303.596183 C211.60523,298.909304 208.270886,286.848954 208.270886,286.848954 C208.270886,286.848954 202.420983,283.465512 201.605534,300.92293 Z" id="Path-9-Copy-6" fill="#E2733B" sketch:type="MSShapeGroup"></path>
                <path d="M190.008235,246.053251 C197.956924,242.033877 210.974029,206.672646 230.633453,206.672646 C256.055179,206.672645 235.806373,223.392313 222.064262,246.053252 C214.375423,258.732257 208.126446,264.590419 202.340865,269.436827 C189.04065,280.578018 155.685495,293.123268 146.33205,283.800355 C132.909865,270.421984 153.548308,253.803106 153.548308,253.803106 L156.027351,252.685427 C156.027351,252.685427 182.059547,250.072626 190.008235,246.053251 Z" id="Path-9-Copy-5" fill="#FC8B51" sketch:type="MSShapeGroup" transform="translate(192.287949, 246.864839) scale(-1, 1) rotate(-34.000000) translate(-192.287949, -246.864839) "></path>
                <path d="M208.253173,350.89784 C202.670116,331.631594 203.930136,316.108185 203.930136,316.108185 C203.930136,316.108185 214.845101,341.239111 222.574457,350.491531 C230.303813,359.743951 239.014643,367.338649 246.288433,370.41087 C267.521704,379.379137 281.815089,375.306879 296.89015,375.306881 C311.965212,375.306882 222.574457,377.365678 222.574457,377.365678 C222.574457,377.365678 213.83623,370.164087 208.253173,350.89784 Z" id="Path-972" fill="#E2733B" sketch:type="MSShapeGroup"></path>
                <path d="M240.666758,215.148887 C231.925002,216.094244 228.522638,220.81818 232.232324,225.195654 C235.942009,229.573128 261.939169,242.545088 294.941737,250.856779 C321.424705,257.52651 350.0928,255.976159 366.76282,253.020559 C392.339348,248.485832 445.268292,229.781385 457.352389,220.818179 C462.959335,216.659307 452.250994,211.736692 452.250994,211.736692 C452.250994,211.736692 421.419161,221.387033 392.449938,225.195654 C363.480715,229.004274 340.805361,230.716043 303.854967,225.195654 C279.172037,221.508023 255.655213,213.527994 240.666758,215.148887 Z" id="Path-973" fill="#FFFFFF" sketch:type="MSShapeGroup"></path>
            </g>
        </g>
    </g>
</svg>